M48
;Layer_Color=9474304
;FILE_FORMAT=2:5
INCH,LZ
;TYPE=PLATED
T01F00S00C0.00984
T02F00S00C0.03543
T03F00S00C0.03937
T04F00S00C0.06693
T05F00S00C0.10906
;TYPE=NON_PLATED
T06F00S00C0.02559
T07F00S00C0.11811
T08F00S00C0.12205
T09F00S00C0.12598
%
T01
X0197244Y-0226772
X0253937Y-0235827
X-0087008Y-0227756
X-0232677Y-0231496
X-0251181Y-022559
X-0273622Y-0206693
X-0250356Y-0182934
X-0248425Y-0155512
X-0251575Y-0131496
X-0279134Y-0134449
X-0248696Y-0079032
X-0305512Y-0070866
X-0312199Y-019497
X-0312205Y-0220866
X-0217126Y-0202363
X-0156496Y-019685
X-0151969Y-0157874
X-0143307
Y-0145276
X-0151969
X-0109252Y-0140748
X-0053543Y-0145276
X-0044882
Y-0157874
X-0053543
X0044882
X0053543
Y-0145276
X0044882
X0003795Y-0214339
X0103685
X0151969Y-0157874
Y-0145276
X0143307
X0143307Y-0092913
X0225197Y-0133858
X022933Y-0196851
X0233858Y-0207874
X0301181Y-0206693
X0314117Y-0204516
X030315Y-0136614
X0287401Y-0139763
X0320343Y-0114311
X0309449Y-006063
X0287401Y-0061023
X0316535Y-0035827
X0284646Y000315
X0306299Y0028346
X0232283Y0024409
X0224804Y0024015
X0216811Y0021723
X0206299Y0018898
X0199606Y0009843
X0187402Y0018898
X017689Y0021723
X0175591Y0014961
X0169193Y0015945
X0165748Y0012205
X0168466Y0000098
X0172441Y0
X0174803Y0004724
X0177559Y0006299
X0174261Y-0008661
X0170866Y-0006693
X0163386Y-0006299
X0158661Y-0006693
X0154724Y-0006299
X0157087Y0003543
X0138976Y0001229
X0151575Y-0021942
X0162205Y-002126
X0159843Y-001811
X0166535Y-0018898
X0163744Y-0037043
X0151969Y-004685
X0143307
X0143307Y-0059449
X0151969
X0238189Y-0064961
Y-0020079
X025748Y-0019291
X0248905Y-0005689
X0236907Y0013002
X0168898Y0024015
X0162402Y0035827
X0171575Y0043494
X011378Y002756
Y0021654
X0104724Y001063
X0090709Y0018125
X0090708Y0025182
X0075708
X0075709Y0018125
X0070708Y0021654
X0080709Y0006299
X0054221Y0006693
X0055512Y0009449
X0049606Y0015748
X0047638Y001811
X0084054Y0043701
X0125197Y0001181
X0053543Y-004685
X0044882
X0044882Y-0059449
X0053543
X0005906Y-0055512
Y-0049213
X-0015795Y-0023228
X-0022488Y-0029921
X-0044882Y-004685
X-0053543
X-0053543Y-0059449
X-0044882
X-0047244Y0011024
X-0038189Y0016535
X-0063976Y0010827
X-0068898
X-0083468Y0015945
X-0109252Y0001969
Y-0020222
Y-0042323
X-0143307Y-004685
X-0151969
X-0151969Y-0059449
X-0143307
X-0128937Y0007874
X-013189Y0011811
X-0127376Y0014764
X-0185827Y-0056299
X-0230315Y-0014173
X-0255613Y-0001832
X-028937Y-0002756
X-0306112Y002653
X-0318898Y-0050787
X-0273622Y-0049213
T02
X0240158Y0041339
X0250157
X0260157
X0025Y0026654
Y0016654
X0015
X0015Y0026654
X0005
Y0016654
X-0005
X-0015
X-0025
Y0026654
X-0015
X-0005
X-0250157Y0041339
X-0260157
X-0270158
T03
X-0297244Y-019685
X-0287402
X-0277559
Y-011811
X-0287402
X-0297244
X0277559
Y-019685
X0287402
X0297244
Y-011811
X0287402
Y-003937
X0297244
X0277559
X-0277559
X-0287402
X-0297244
T04
X0068898Y-0231791
X-0068898
X-021309Y-017126
X-0227854
X-0068898Y-0217028
X021309Y-017126
X0227854
Y-0033465
X-021309
T05
X-0304724Y-0169291
X-0270079
Y-0090551
X-0304724
X0270079
Y-0169291
X0304724
Y-0090551
Y-0011811
X0270079
X-0270079
X-0304724
T06
X0185472Y0029126
X0208228
T07
X-0098425Y-0151575
X-0049213Y-0102362
X-0147638
X0049213
X0098425Y-0151575
X0147638Y-0102362
X0287402Y0027559
X0098425Y-005315
X-0098425
X-0287402Y0027559
T08
X-0187008Y-0190945
X0187008Y-0190945
Y-001378
X-0187008
T09
X0287402Y-022441
X-0287402
M30
