G04*
G04 #@! TF.GenerationSoftware,Altium Limited,Altium Designer,25.1.2 (22)*
G04*
G04 Layer_Color=128*
%FSLAX25Y25*%
%MOIN*%
G70*
G04*
G04 #@! TF.SameCoordinates,43F664F6-3CD5-4670-A9E5-02DBBAA50322*
G04*
G04*
G04 #@! TF.FilePolarity,Positive*
G04*
G01*
G75*
%ADD12C,0.00394*%
%ADD85C,0.00200*%
D12*
X319803Y47244D02*
X319803Y47244D01*
X-159449Y37402D02*
G03*
X-135827Y37402I11811J0D01*
G01*
X-159449Y45191D02*
G03*
X-161503Y47244I-2054J0D01*
G01*
X-133773D02*
G03*
X-135827Y45191I0J-2054D01*
G01*
X161503Y47244D02*
G03*
X159449Y45191I0J-2054D01*
G01*
X135827D02*
G03*
X133773Y47244I-2054J0D01*
G01*
X135827Y37402D02*
G03*
X159449Y37402I11811J0D01*
G01*
X324803Y42244D02*
G03*
X319803Y47244I-5000J0D01*
G01*
Y-244094D02*
G03*
X324803Y-239094I0J5000D01*
G01*
X-324803D02*
G03*
X-319803Y-244094I5000J0D01*
G01*
Y47244D02*
G03*
X-324803Y42244I0J-5000D01*
G01*
X161503Y47244D02*
X319803D01*
X-133773D02*
X133773D01*
X-159449Y37402D02*
Y45191D01*
X-135827Y37402D02*
Y45191D01*
X159449Y37402D02*
Y45191D01*
X135827Y37402D02*
Y45191D01*
X324803Y-239094D02*
Y42244D01*
X-319803Y-244094D02*
X319803D01*
X-324803Y-239094D02*
Y42244D01*
X-319803Y47244D02*
X-161503D01*
D85*
X258386Y41339D02*
X261929D01*
X260157Y39567D02*
Y43110D01*
X248386Y41339D02*
X251929D01*
X250157Y39567D02*
Y43110D01*
X238386Y41339D02*
X241929D01*
X240158Y39567D02*
Y43110D01*
X-251929Y41339D02*
X-248386D01*
X-250157Y39567D02*
Y43110D01*
X-261929Y41339D02*
X-258386D01*
X-260157Y39567D02*
Y43110D01*
X-271929Y41339D02*
X-268386D01*
X-270158Y39567D02*
Y43110D01*
X65551Y-231791D02*
X72244D01*
X68898Y-235138D02*
Y-228445D01*
X-72244Y-217028D02*
X-65551D01*
X-68898Y-220374D02*
Y-213681D01*
X-72244Y-231791D02*
X-65551D01*
X-68898Y-235138D02*
Y-228445D01*
X-299213Y-196850D02*
X-295276D01*
X-297244Y-198819D02*
Y-194882D01*
X-289370Y-196850D02*
X-285433D01*
X-287402Y-198819D02*
Y-194882D01*
X-279528Y-196850D02*
X-275590D01*
X-277559Y-198819D02*
Y-194882D01*
X-310177Y-169291D02*
X-299272D01*
X-304724Y-174744D02*
Y-163839D01*
X-275532Y-169291D02*
X-264626D01*
X-270079Y-174744D02*
Y-163839D01*
X-299213Y-118110D02*
X-295276D01*
X-297244Y-120079D02*
Y-116142D01*
X-289370Y-118110D02*
X-285433D01*
X-287402Y-120079D02*
Y-116142D01*
X-279528Y-118110D02*
X-275590D01*
X-277559Y-120079D02*
Y-116142D01*
X-310177Y-90551D02*
X-299272D01*
X-304724Y-96004D02*
Y-85098D01*
X-275532Y-90551D02*
X-264626D01*
X-270079Y-96004D02*
Y-85098D01*
X-299213Y-39370D02*
X-295276D01*
X-297244Y-41339D02*
Y-37402D01*
X-289370Y-39370D02*
X-285433D01*
X-287402Y-41339D02*
Y-37402D01*
X-279528Y-39370D02*
X-275590D01*
X-277559Y-41339D02*
Y-37402D01*
X-310177Y-11811D02*
X-299272D01*
X-304724Y-17264D02*
Y-6358D01*
X-275532Y-11811D02*
X-264626D01*
X-270079Y-17264D02*
Y-6358D01*
X-216437Y-33465D02*
X-209744D01*
X-213090Y-36811D02*
Y-30118D01*
X-231201Y-171260D02*
X-224508D01*
X-227854Y-174606D02*
Y-167913D01*
X-216437Y-171260D02*
X-209744D01*
X-213090Y-174606D02*
Y-167913D01*
X-153543Y-102362D02*
X-141732D01*
X-147638Y-108268D02*
Y-96457D01*
X-104331Y-53150D02*
X-92520D01*
X-98425Y-59055D02*
Y-47244D01*
X-104331Y-151575D02*
X-92520D01*
X-98425Y-157480D02*
Y-145669D01*
X-55118Y-102362D02*
X-43307D01*
X-49213Y-108268D02*
Y-96457D01*
X180905Y-13780D02*
X193110D01*
X187008Y-19882D02*
Y-7677D01*
X-193110Y-13780D02*
X-180905D01*
X-187008Y-19882D02*
Y-7677D01*
X-193110Y-190945D02*
X-180905D01*
X-187008Y-197047D02*
Y-184843D01*
X180905Y-190945D02*
X193110D01*
X187008Y-197047D02*
Y-184843D01*
X43307Y-102362D02*
X55118D01*
X49213Y-108268D02*
Y-96457D01*
X92520Y-53150D02*
X104331D01*
X98425Y-59055D02*
Y-47244D01*
X92520Y-151575D02*
X104331D01*
X98425Y-157480D02*
Y-145669D01*
X141732Y-102362D02*
X153543D01*
X147638Y-108268D02*
Y-96457D01*
X206949Y29126D02*
X209508D01*
X208228Y27847D02*
Y30406D01*
X184193Y29126D02*
X186752D01*
X185472Y27847D02*
Y30406D01*
X224508Y-33465D02*
X231201D01*
X227854Y-36811D02*
Y-30118D01*
X209744Y-171260D02*
X216437D01*
X213090Y-174606D02*
Y-167913D01*
X224508Y-171260D02*
X231201D01*
X227854Y-174606D02*
Y-167913D01*
X275590Y-39370D02*
X279528D01*
X277559Y-41339D02*
Y-37402D01*
X285433Y-39370D02*
X289370D01*
X287402Y-41339D02*
Y-37402D01*
X295276Y-39370D02*
X299213D01*
X297244Y-41339D02*
Y-37402D01*
X264626Y-11811D02*
X275532D01*
X270079Y-17264D02*
Y-6358D01*
X299272Y-11811D02*
X310177D01*
X304724Y-17264D02*
Y-6358D01*
X275590Y-118110D02*
X279528D01*
X277559Y-120079D02*
Y-116142D01*
X285433Y-118110D02*
X289370D01*
X287402Y-120079D02*
Y-116142D01*
X295276Y-118110D02*
X299213D01*
X297244Y-120079D02*
Y-116142D01*
X264626Y-90551D02*
X275532D01*
X270079Y-96004D02*
Y-85098D01*
X299272Y-90551D02*
X310177D01*
X304724Y-96004D02*
Y-85098D01*
X275590Y-196850D02*
X279528D01*
X277559Y-198819D02*
Y-194882D01*
X285433Y-196850D02*
X289370D01*
X287402Y-198819D02*
Y-194882D01*
X295276Y-196850D02*
X299213D01*
X297244Y-198819D02*
Y-194882D01*
X264626Y-169291D02*
X275532D01*
X270079Y-174744D02*
Y-163839D01*
X299272Y-169291D02*
X310177D01*
X304724Y-174744D02*
Y-163839D01*
X-293307Y27559D02*
X-281496D01*
X-287402Y21654D02*
Y33465D01*
X281496Y27559D02*
X293307D01*
X287402Y21654D02*
Y33465D01*
X281102Y-224410D02*
X293701D01*
X287402Y-230709D02*
Y-218110D01*
X-293701Y-224410D02*
X-281102D01*
X-287402Y-230709D02*
Y-218110D01*
X-26772Y16654D02*
X-23228D01*
X-25000Y14882D02*
Y18425D01*
X-26772Y26654D02*
X-23228D01*
X-25000Y24882D02*
Y28425D01*
X-16772Y16654D02*
X-13228D01*
X-15000Y14882D02*
Y18425D01*
X-16772Y26654D02*
X-13228D01*
X-15000Y24882D02*
Y28425D01*
X-6772Y16654D02*
X-3228D01*
X-5000Y14882D02*
Y18425D01*
X-6772Y26654D02*
X-3228D01*
X-5000Y24882D02*
Y28425D01*
X13228Y26654D02*
X16772D01*
X15000Y24882D02*
Y28425D01*
X13228Y16654D02*
X16772D01*
X15000Y14882D02*
Y18425D01*
X3228Y26654D02*
X6772D01*
X5000Y24882D02*
Y28425D01*
X3228Y16654D02*
X6772D01*
X5000Y14882D02*
Y18425D01*
X23228Y26654D02*
X26772D01*
X25000Y24882D02*
Y28425D01*
X23228Y16654D02*
X26772D01*
X25000Y14882D02*
Y18425D01*
X-132382Y11811D02*
X-131398D01*
X-131890Y11319D02*
Y12303D01*
X-127868Y14764D02*
X-126884D01*
X-127376Y14272D02*
Y15256D01*
X75216Y25182D02*
X76200D01*
X75708Y24690D02*
Y25674D01*
X75217Y18125D02*
X76201D01*
X75709Y17633D02*
Y18618D01*
X142815Y-46850D02*
X143799D01*
X143307Y-47343D02*
Y-46358D01*
X44390Y-46850D02*
X45374D01*
X44882Y-47343D02*
Y-46358D01*
X-54035Y-46850D02*
X-53051D01*
X-53543Y-47343D02*
Y-46358D01*
X142815Y-145276D02*
X143799D01*
X143307Y-145768D02*
Y-144783D01*
X44390Y-145276D02*
X45374D01*
X44882Y-145768D02*
Y-144783D01*
X-54035Y-145276D02*
X-53051D01*
X-53543Y-145768D02*
Y-144783D01*
X-109744Y-42323D02*
X-108760D01*
X-109252Y-42815D02*
Y-41831D01*
X-109744Y-20222D02*
X-108760D01*
X-109252Y-20715D02*
Y-19730D01*
X-109744Y-140748D02*
X-108760D01*
X-109252Y-141240D02*
Y-140256D01*
X-152461Y-46850D02*
X-151476D01*
X-151969Y-47343D02*
Y-46358D01*
X-152461Y-145276D02*
X-151476D01*
X-151969Y-145768D02*
Y-144783D01*
X-109744Y1969D02*
X-108760D01*
X-109252Y1476D02*
Y2461D01*
X-129429Y7874D02*
X-128445D01*
X-128937Y7382D02*
Y8366D01*
X70216Y21654D02*
X71200D01*
X70708Y21161D02*
Y22146D01*
X90217Y18125D02*
X91201D01*
X90709Y17633D02*
Y18618D01*
X104232Y10630D02*
X105217D01*
X104724Y10138D02*
Y11122D01*
X168701Y15945D02*
X169685D01*
X169193Y15453D02*
Y16437D01*
X171949Y0D02*
X172933D01*
X172441Y-492D02*
Y492D01*
X55020Y9449D02*
X56004D01*
X55512Y8957D02*
Y9941D01*
X167974Y98D02*
X168958D01*
X168466Y-394D02*
Y591D01*
X53729Y6693D02*
X54713D01*
X54221Y6201D02*
Y7185D01*
X-274114Y-49213D02*
X-273130D01*
X-273622Y-49705D02*
Y-48721D01*
X-279626Y-134449D02*
X-278642D01*
X-279134Y-134941D02*
Y-133957D01*
X-274114Y-206693D02*
X-273130D01*
X-273622Y-207185D02*
Y-206201D01*
X-217618Y-202363D02*
X-216634D01*
X-217126Y-202855D02*
Y-201870D01*
X-87500Y-227756D02*
X-86516D01*
X-87008Y-228248D02*
Y-227263D01*
X228838Y-196851D02*
X229823D01*
X229330Y-197343D02*
Y-196359D01*
X300689Y-206693D02*
X301673D01*
X301181Y-207185D02*
Y-206201D01*
X286909Y-139763D02*
X287893D01*
X287401Y-140256D02*
Y-139271D01*
X286909Y-61023D02*
X287893D01*
X287401Y-61515D02*
Y-60531D01*
X256988Y-19291D02*
X257972D01*
X257480Y-19783D02*
Y-18799D01*
X159350Y-18110D02*
X160335D01*
X159843Y-18602D02*
Y-17618D01*
X161713Y-21260D02*
X162697D01*
X162205Y-21752D02*
Y-20768D01*
X5413Y-49213D02*
X6398D01*
X5906Y-49705D02*
Y-48720D01*
X5413Y-55512D02*
X6398D01*
X5906Y-56004D02*
Y-55020D01*
X237697Y-64961D02*
X238681D01*
X238189Y-65453D02*
Y-64468D01*
X237697Y-20079D02*
X238681D01*
X238189Y-20571D02*
Y-19587D01*
X162894Y-6299D02*
X163878D01*
X163386Y-6791D02*
Y-5807D01*
X151083Y-21942D02*
X152067D01*
X151575Y-22434D02*
Y-21450D01*
X163252Y-37043D02*
X164236D01*
X163744Y-37536D02*
Y-36551D01*
X166043Y-18898D02*
X167027D01*
X166535Y-19390D02*
Y-18406D01*
X154232Y-6299D02*
X155217D01*
X154724Y-6791D02*
Y-5807D01*
X158169Y-6693D02*
X159153D01*
X158661Y-7185D02*
Y-6201D01*
X170374Y-6693D02*
X171358D01*
X170866Y-7185D02*
Y-6201D01*
X173769Y-8661D02*
X174753D01*
X174261Y-9154D02*
Y-8169D01*
X-83960Y15945D02*
X-82976D01*
X-83468Y15453D02*
Y16437D01*
X47146Y18110D02*
X48130D01*
X47638Y17618D02*
Y18602D01*
X177067Y6299D02*
X178051D01*
X177559Y5807D02*
Y6791D01*
X174311Y4724D02*
X175295D01*
X174803Y4232D02*
Y5217D01*
X49114Y15748D02*
X50098D01*
X49606Y15256D02*
Y16240D01*
X-69390Y10827D02*
X-68405D01*
X-68898Y10335D02*
Y11319D01*
X-64468Y10827D02*
X-63484D01*
X-63976Y10335D02*
Y11319D01*
X-38681Y16535D02*
X-37697D01*
X-38189Y16043D02*
Y17028D01*
X-47736Y11024D02*
X-46752D01*
X-47244Y10531D02*
Y11516D01*
X-306604Y26530D02*
X-305620D01*
X-306112Y26038D02*
Y27022D01*
X-230807Y-14173D02*
X-229823D01*
X-230315Y-14665D02*
Y-13681D01*
X-256106Y-1832D02*
X-255121D01*
X-255613Y-2324D02*
Y-1340D01*
X-289862Y-2756D02*
X-288878D01*
X-289370Y-3248D02*
Y-2264D01*
X-319390Y-50787D02*
X-318406D01*
X-318898Y-51279D02*
Y-50295D01*
X-306004Y-70866D02*
X-305020D01*
X-305512Y-71358D02*
Y-70374D01*
X-249188Y-79032D02*
X-248204D01*
X-248696Y-79524D02*
Y-78540D01*
X-252067Y-131496D02*
X-251083D01*
X-251575Y-131988D02*
Y-131004D01*
X-248917Y-155512D02*
X-247933D01*
X-248425Y-156004D02*
Y-155020D01*
X-250848Y-182934D02*
X-249864D01*
X-250356Y-183426D02*
Y-182441D01*
X-312691Y-194970D02*
X-311707D01*
X-312199Y-195462D02*
Y-194478D01*
X-312697Y-220866D02*
X-311713D01*
X-312205Y-221358D02*
Y-220374D01*
X-251673Y-225590D02*
X-250689D01*
X-251181Y-226083D02*
Y-225098D01*
X-233169Y-231496D02*
X-232185D01*
X-232677Y-231988D02*
Y-231004D01*
X103193Y-214339D02*
X104177D01*
X103685Y-214831D02*
Y-213847D01*
X3303Y-214339D02*
X4287D01*
X3795Y-214831D02*
Y-213847D01*
X196752Y-226772D02*
X197736D01*
X197244Y-227264D02*
Y-226279D01*
X224705Y-133858D02*
X225689D01*
X225197Y-134350D02*
Y-133366D01*
X253445Y-235827D02*
X254429D01*
X253937Y-236319D02*
Y-235335D01*
X233366Y-207874D02*
X234350D01*
X233858Y-208366D02*
Y-207382D01*
X313625Y-204516D02*
X314609D01*
X314117Y-205009D02*
Y-204024D01*
X302658Y-136614D02*
X303642D01*
X303150Y-137106D02*
Y-136122D01*
X319851Y-114311D02*
X320835D01*
X320343Y-114804D02*
Y-113819D01*
X308957Y-60630D02*
X309941D01*
X309449Y-61122D02*
Y-60138D01*
X316043Y-35827D02*
X317028D01*
X316535Y-36319D02*
Y-35335D01*
X305807Y28346D02*
X306791D01*
X306299Y27854D02*
Y28839D01*
X284154Y3150D02*
X285138D01*
X284646Y2657D02*
Y3642D01*
X248413Y-5689D02*
X249398D01*
X248905Y-6182D02*
Y-5197D01*
X236415Y13002D02*
X237399D01*
X236907Y12510D02*
Y13495D01*
X199114Y9843D02*
X200098D01*
X199606Y9350D02*
Y10335D01*
X175098Y14961D02*
X176083D01*
X175591Y14469D02*
Y15453D01*
X156595Y3543D02*
X157579D01*
X157087Y3051D02*
Y4035D01*
X165256Y12205D02*
X166240D01*
X165748Y11713D02*
Y12697D01*
X138484Y1229D02*
X139469D01*
X138976Y737D02*
Y1721D01*
X124705Y1181D02*
X125689D01*
X125197Y689D02*
Y1673D01*
X-186319Y-56299D02*
X-185335D01*
X-185827Y-56791D02*
Y-55807D01*
X-16287Y-23228D02*
X-15303D01*
X-15795Y-23720D02*
Y-22736D01*
X-22980Y-29921D02*
X-21996D01*
X-22488Y-30413D02*
Y-29429D01*
X142815Y-92913D02*
X143799D01*
X143307Y-93405D02*
Y-92421D01*
X113288Y21654D02*
X114272D01*
X113780Y21162D02*
Y22146D01*
X113288Y27560D02*
X114272D01*
X113780Y27068D02*
Y28052D01*
X90216Y25182D02*
X91201D01*
X90708Y24690D02*
Y25674D01*
X231791Y24409D02*
X232776D01*
X232283Y23917D02*
Y24902D01*
X-156988Y-196850D02*
X-156004D01*
X-156496Y-197343D02*
Y-196358D01*
X80216Y6299D02*
X81201D01*
X80709Y5807D02*
Y6791D01*
X83562Y43701D02*
X84547D01*
X84054Y43209D02*
Y44193D01*
X224312Y24015D02*
X225296D01*
X224804Y23523D02*
Y24507D01*
X168406Y24015D02*
X169390D01*
X168898Y23523D02*
Y24507D01*
X161909Y35827D02*
X162894D01*
X162402Y35335D02*
Y36319D01*
X205807Y18898D02*
X206791D01*
X206299Y18406D02*
Y19390D01*
X186909Y18898D02*
X187894D01*
X187402Y18406D02*
Y19390D01*
X176398Y21723D02*
X177382D01*
X176890Y21230D02*
Y22215D01*
X171083Y43494D02*
X172067D01*
X171575Y43002D02*
Y43986D01*
X216319Y21723D02*
X217303D01*
X216811Y21230D02*
Y22215D01*
X-152461Y-157874D02*
X-151476D01*
X-151969Y-158366D02*
Y-157382D01*
X-143799Y-145276D02*
X-142815D01*
X-143307Y-145768D02*
Y-144783D01*
X-143799Y-157874D02*
X-142815D01*
X-143307Y-158366D02*
Y-157382D01*
X-54035Y-157874D02*
X-53051D01*
X-53543Y-158366D02*
Y-157382D01*
X-45374Y-145276D02*
X-44390D01*
X-44882Y-145768D02*
Y-144783D01*
X-45374Y-157874D02*
X-44390D01*
X-44882Y-158366D02*
Y-157382D01*
X44390Y-157874D02*
X45374D01*
X44882Y-158366D02*
Y-157382D01*
X53051Y-145276D02*
X54035D01*
X53543Y-145768D02*
Y-144783D01*
X53051Y-157874D02*
X54035D01*
X53543Y-158366D02*
Y-157382D01*
X151476Y-145276D02*
X152461D01*
X151969Y-145768D02*
Y-144783D01*
X151476Y-157874D02*
X152461D01*
X151969Y-158366D02*
Y-157382D01*
X142815Y-59449D02*
X143799D01*
X143307Y-59941D02*
Y-58957D01*
X151476Y-46850D02*
X152461D01*
X151969Y-47343D02*
Y-46358D01*
X151476Y-59449D02*
X152461D01*
X151969Y-59941D02*
Y-58957D01*
X-152461Y-59449D02*
X-151476D01*
X-151969Y-59941D02*
Y-58957D01*
X-143799Y-46850D02*
X-142815D01*
X-143307Y-47343D02*
Y-46358D01*
X-143799Y-59449D02*
X-142815D01*
X-143307Y-59941D02*
Y-58957D01*
X-54035Y-59449D02*
X-53051D01*
X-53543Y-59941D02*
Y-58957D01*
X-45374Y-46850D02*
X-44390D01*
X-44882Y-47343D02*
Y-46358D01*
X-45374Y-59449D02*
X-44390D01*
X-44882Y-59941D02*
Y-58957D01*
X53051Y-59449D02*
X54035D01*
X53543Y-59941D02*
Y-58957D01*
X53051Y-46850D02*
X54035D01*
X53543Y-47343D02*
Y-46358D01*
X44390Y-59449D02*
X45374D01*
X44882Y-59941D02*
Y-58957D01*
M02*
