G04*
G04 #@! TF.GenerationSoftware,Altium Limited,Altium Designer,25.1.2 (22)*
G04*
G04 Layer_Color=8388736*
%FSLAX25Y25*%
%MOIN*%
G70*
G04*
G04 #@! TF.SameCoordinates,43F664F6-3CD5-4670-A9E5-02DBBAA50322*
G04*
G04*
G04 #@! TF.FilePolarity,Negative*
G04*
G01*
G75*
%ADD12C,0.00394*%
%ADD34C,0.15748*%
%ADD35C,0.02362*%
%ADD36R,0.04724X0.04331*%
%ADD37R,0.04331X0.04724*%
%ADD38R,0.06299X0.04331*%
%ADD39R,0.06299X0.04331*%
%ADD40R,0.06299X0.04331*%
%ADD41R,0.06299X0.04331*%
%ADD42R,0.04331X0.03740*%
%ADD43R,0.04331X0.03740*%
%ADD44R,0.07087X0.10630*%
%ADD45R,0.04921X0.02756*%
%ADD46O,0.02756X0.09055*%
%ADD47O,0.03347X0.01181*%
%ADD48O,0.01181X0.03347*%
%ADD49R,0.11417X0.11417*%
%ADD50R,0.01575X0.06102*%
%ADD51R,0.07480X0.06102*%
%ADD52R,0.07480X0.05118*%
%ADD53R,0.08268X0.05906*%
%ADD54R,0.02362X0.02756*%
%ADD55C,0.06299*%
%ADD56R,0.06299X0.06299*%
%ADD57C,0.10433*%
%ADD58R,0.10433X0.10433*%
%ADD59C,0.16752*%
%ADD60R,0.10433X0.10433*%
%ADD61C,0.12205*%
%ADD62C,0.12598*%
%ADD63C,0.02953*%
%ADD64C,0.23622*%
%ADD65C,0.24410*%
%ADD66C,0.01772*%
G36*
X202676Y-210046D02*
X202693Y-210047D01*
X202696Y-210048D01*
X202699Y-210048D01*
X202715Y-210053D01*
X202730Y-210057D01*
X202733Y-210058D01*
X202736Y-210059D01*
X215111Y-215165D01*
X227485Y-210059D01*
X227489Y-210058D01*
X227492Y-210057D01*
X227507Y-210053D01*
X227522Y-210048D01*
X227526Y-210048D01*
X227529Y-210047D01*
X227545Y-210046D01*
X227561Y-210044D01*
X227564Y-210045D01*
X227568Y-210045D01*
X227584Y-210047D01*
X227600Y-210048D01*
X227603Y-210049D01*
X227606Y-210050D01*
X227621Y-210055D01*
X227637Y-210059D01*
X227640Y-210061D01*
X227643Y-210062D01*
X227657Y-210070D01*
X227671Y-210078D01*
X227674Y-210080D01*
X227676Y-210082D01*
X227689Y-210092D01*
X227701Y-210103D01*
X227703Y-210105D01*
X227706Y-210107D01*
X227816Y-210226D01*
X227818Y-210228D01*
X227820Y-210230D01*
X227830Y-210244D01*
X227839Y-210256D01*
X227841Y-210259D01*
X227843Y-210262D01*
X227849Y-210277D01*
X227856Y-210291D01*
X227857Y-210294D01*
X227859Y-210297D01*
X227862Y-210313D01*
X227866Y-210329D01*
X227867Y-210332D01*
X227867Y-210335D01*
X227868Y-210351D01*
X227869Y-210367D01*
X227868Y-210371D01*
X227868Y-210374D01*
X227866Y-210390D01*
X227864Y-210406D01*
X227863Y-210409D01*
X227862Y-210412D01*
X227856Y-210427D01*
X227851Y-210442D01*
X227849Y-210445D01*
X227848Y-210449D01*
X224232Y-217726D01*
X224225Y-217737D01*
X224218Y-217749D01*
X224214Y-217754D01*
X224211Y-217759D01*
X224202Y-217769D01*
X224194Y-217779D01*
X224189Y-217782D01*
X224184Y-217787D01*
X224174Y-217795D01*
X224163Y-217803D01*
X224158Y-217806D01*
X224153Y-217810D01*
X224141Y-217815D01*
X224129Y-217821D01*
X224123Y-217823D01*
X224117Y-217826D01*
X224105Y-217828D01*
X224092Y-217832D01*
X224086Y-217833D01*
X224080Y-217834D01*
X224066Y-217834D01*
X224053Y-217836D01*
X224047Y-217835D01*
X224041Y-217835D01*
X224028Y-217833D01*
X224015Y-217832D01*
X224009Y-217830D01*
X224003Y-217829D01*
X223990Y-217824D01*
X223978Y-217820D01*
X222786Y-217318D01*
X222783Y-217317D01*
X222781Y-217316D01*
X222766Y-217308D01*
X222752Y-217300D01*
X222749Y-217298D01*
X222747Y-217297D01*
X222735Y-217286D01*
X222722Y-217275D01*
X222720Y-217273D01*
X222718Y-217271D01*
X222708Y-217258D01*
X222697Y-217245D01*
X222696Y-217243D01*
X222694Y-217240D01*
X222687Y-217225D01*
X222679Y-217211D01*
X222678Y-217208D01*
X222677Y-217206D01*
X222621Y-217054D01*
X222620Y-217051D01*
X222619Y-217049D01*
X222615Y-217033D01*
X222610Y-217017D01*
X222610Y-217014D01*
X222610Y-217011D01*
X222609Y-216995D01*
X222608Y-216978D01*
X222608Y-216975D01*
X222608Y-216972D01*
X222611Y-216956D01*
X222613Y-216939D01*
X222614Y-216937D01*
X222615Y-216934D01*
X222620Y-216918D01*
X222626Y-216903D01*
X222627Y-216900D01*
X222628Y-216898D01*
X224401Y-213274D01*
X217456Y-216132D01*
X229060Y-220913D01*
X229060Y-220913D01*
X229060Y-220913D01*
X229084Y-220926D01*
X229095Y-220931D01*
X229095Y-220931D01*
X229095Y-220932D01*
X229116Y-220949D01*
X229124Y-220956D01*
X229124Y-220956D01*
X229125Y-220956D01*
X229139Y-220974D01*
X229149Y-220986D01*
X229149Y-220986D01*
X229149Y-220986D01*
X229158Y-221002D01*
X229168Y-221020D01*
X229168Y-221020D01*
X229168Y-221020D01*
X229173Y-221037D01*
X229179Y-221057D01*
X229179Y-221057D01*
X229179Y-221057D01*
X229210Y-221216D01*
X229210Y-221216D01*
X229211Y-221216D01*
X229213Y-221239D01*
X229214Y-221254D01*
Y-221254D01*
X229214Y-221255D01*
X229212Y-221276D01*
X229211Y-221293D01*
X229211Y-221293D01*
X229211Y-221293D01*
X229205Y-221311D01*
X229199Y-221330D01*
X229199Y-221330D01*
X229199Y-221330D01*
X229189Y-221350D01*
X229181Y-221364D01*
X229181Y-221364D01*
X229181Y-221364D01*
X229161Y-221389D01*
X229157Y-221394D01*
X229156Y-221394D01*
X229156Y-221394D01*
X215228Y-235323D01*
X215198Y-235348D01*
X215164Y-235366D01*
X215126Y-235377D01*
X215088Y-235381D01*
X215049Y-235377D01*
X215021Y-235369D01*
X215012Y-235366D01*
X214978Y-235348D01*
X214948Y-235323D01*
X214948Y-235323D01*
X201019Y-221394D01*
X201019Y-221394D01*
X201019Y-221394D01*
X201008Y-221380D01*
X200995Y-221364D01*
X200995Y-221364D01*
X200995Y-221364D01*
X200985Y-221346D01*
X200977Y-221330D01*
X200976Y-221330D01*
X200976Y-221330D01*
X200970Y-221309D01*
X200965Y-221293D01*
X200965Y-221293D01*
X200965Y-221293D01*
X200964Y-221276D01*
X200961Y-221255D01*
X200961Y-221254D01*
Y-221254D01*
X200963Y-221240D01*
X200965Y-221216D01*
X200965Y-221216D01*
X200965Y-221216D01*
X200997Y-221057D01*
X200997Y-221057D01*
X200997Y-221057D01*
X201006Y-221028D01*
X201008Y-221020D01*
X201008Y-221020D01*
X201008Y-221020D01*
X201019Y-221000D01*
X201027Y-220986D01*
X201027Y-220986D01*
X201027Y-220986D01*
X201041Y-220968D01*
X201051Y-220956D01*
X201051Y-220956D01*
X201051Y-220956D01*
X201067Y-220943D01*
X201081Y-220932D01*
X201081Y-220931D01*
X201081Y-220931D01*
X201101Y-220921D01*
X201115Y-220913D01*
X201115Y-220913D01*
X201116Y-220913D01*
X212720Y-216132D01*
X205782Y-213276D01*
X207592Y-216896D01*
X207593Y-216899D01*
X207594Y-216902D01*
X207600Y-216917D01*
X207606Y-216932D01*
X207606Y-216936D01*
X207607Y-216939D01*
X207609Y-216954D01*
X207612Y-216971D01*
X207612Y-216974D01*
X207612Y-216977D01*
X207611Y-216993D01*
X207611Y-217009D01*
X207610Y-217013D01*
X207610Y-217016D01*
X207606Y-217031D01*
X207602Y-217047D01*
X207601Y-217050D01*
X207600Y-217053D01*
X207544Y-217205D01*
X207543Y-217208D01*
X207542Y-217211D01*
X207534Y-217226D01*
X207527Y-217240D01*
X207525Y-217242D01*
X207524Y-217245D01*
X207513Y-217258D01*
X207504Y-217271D01*
X207501Y-217273D01*
X207499Y-217275D01*
X207487Y-217286D01*
X207475Y-217297D01*
X207472Y-217298D01*
X207469Y-217300D01*
X207455Y-217308D01*
X207441Y-217316D01*
X207438Y-217317D01*
X207435Y-217319D01*
X206244Y-217820D01*
X206231Y-217824D01*
X206219Y-217829D01*
X206213Y-217830D01*
X206207Y-217832D01*
X206194Y-217833D01*
X206181Y-217835D01*
X206174Y-217835D01*
X206168Y-217836D01*
X206155Y-217835D01*
X206142Y-217834D01*
X206136Y-217833D01*
X206130Y-217832D01*
X206117Y-217828D01*
X206104Y-217826D01*
X206098Y-217823D01*
X206092Y-217821D01*
X206081Y-217815D01*
X206069Y-217810D01*
X206064Y-217806D01*
X206058Y-217803D01*
X206048Y-217795D01*
X206037Y-217787D01*
X206033Y-217783D01*
X206028Y-217779D01*
X206020Y-217769D01*
X206011Y-217759D01*
X206007Y-217754D01*
X206003Y-217749D01*
X205997Y-217737D01*
X205990Y-217726D01*
X202373Y-210449D01*
X202372Y-210445D01*
X202371Y-210442D01*
X202365Y-210427D01*
X202360Y-210412D01*
X202359Y-210409D01*
X202358Y-210406D01*
X202356Y-210390D01*
X202353Y-210374D01*
X202353Y-210371D01*
X202353Y-210367D01*
X202354Y-210351D01*
X202354Y-210335D01*
X202355Y-210332D01*
X202355Y-210329D01*
X202359Y-210313D01*
X202363Y-210297D01*
X202364Y-210294D01*
X202365Y-210291D01*
X202372Y-210277D01*
X202379Y-210262D01*
X202381Y-210259D01*
X202382Y-210256D01*
X202392Y-210243D01*
X202401Y-210230D01*
X202404Y-210228D01*
X202406Y-210226D01*
X202516Y-210107D01*
X202519Y-210105D01*
X202521Y-210103D01*
X202533Y-210092D01*
X202545Y-210082D01*
X202548Y-210080D01*
X202551Y-210078D01*
X202565Y-210070D01*
X202579Y-210062D01*
X202582Y-210061D01*
X202585Y-210059D01*
X202600Y-210055D01*
X202615Y-210050D01*
X202619Y-210049D01*
X202622Y-210048D01*
X202638Y-210047D01*
X202654Y-210045D01*
X202657Y-210045D01*
X202660Y-210044D01*
X202676Y-210046D01*
D02*
G37*
G36*
X118278Y-213718D02*
X118315Y-213729D01*
X118349Y-213747D01*
X118379Y-213771D01*
X118388Y-213782D01*
X118445Y-213781D01*
X118479Y-213784D01*
X118501Y-213782D01*
X118513Y-213781D01*
X118582Y-213780D01*
X118582D01*
D01*
X118621Y-213783D01*
X118658Y-213794D01*
X118692Y-213812D01*
X118722Y-213837D01*
X118731Y-213847D01*
X119062Y-213844D01*
X119062D01*
D01*
X119096Y-213847D01*
X119111Y-213846D01*
X119130Y-213844D01*
X119199Y-213843D01*
X119199D01*
X119199D01*
X119219Y-213845D01*
X119237Y-213846D01*
X119237Y-213846D01*
X119237D01*
X119259Y-213853D01*
X119274Y-213857D01*
X119275Y-213857D01*
X119275Y-213857D01*
X119309Y-213875D01*
X119339Y-213900D01*
X119348Y-213910D01*
X119405Y-213910D01*
X119405D01*
X119405D01*
X119405D01*
X119419Y-213911D01*
X119444Y-213913D01*
X119444Y-213913D01*
X119444D01*
X119449Y-213915D01*
X119481Y-213924D01*
X119515Y-213942D01*
X119515Y-213942D01*
X119515Y-213942D01*
X119526Y-213951D01*
X119545Y-213966D01*
X119545Y-213966D01*
X119545Y-213966D01*
X119554Y-213977D01*
X119611Y-213976D01*
X119611D01*
X119611D01*
X119632Y-213978D01*
X119645Y-213980D01*
X119679Y-213976D01*
X119748Y-213975D01*
X119748D01*
X119748D01*
X119779Y-213978D01*
X119786Y-213979D01*
X119786D01*
X119787Y-213979D01*
X119813Y-213986D01*
X119824Y-213990D01*
X119824Y-213990D01*
X119824Y-213990D01*
X119844Y-214000D01*
X119858Y-214008D01*
X119858Y-214008D01*
X119858Y-214008D01*
X119875Y-214021D01*
X119888Y-214032D01*
X119888Y-214032D01*
X119888Y-214032D01*
X119902Y-214048D01*
X119913Y-214062D01*
X119913Y-214062D01*
X119913Y-214062D01*
X119918Y-214071D01*
X119927Y-214075D01*
X119927Y-214075D01*
X119927Y-214075D01*
X119944Y-214089D01*
X119957Y-214100D01*
X119957Y-214100D01*
X119957Y-214100D01*
X119966Y-214110D01*
X120023Y-214110D01*
D01*
D01*
X120023D01*
X120026Y-214110D01*
X120057Y-214113D01*
X120068Y-214112D01*
X120091Y-214109D01*
X120160Y-214109D01*
D01*
D01*
X120160D01*
X120199Y-214112D01*
X120231Y-214122D01*
X120236Y-214123D01*
X120236D01*
X120236Y-214123D01*
X120248Y-214130D01*
X120270Y-214141D01*
X120300Y-214165D01*
X120300Y-214165D01*
X120300Y-214165D01*
X120308Y-214175D01*
X120325Y-214195D01*
X120330Y-214204D01*
X120339Y-214209D01*
X120339Y-214209D01*
D01*
X120340Y-214210D01*
X120369Y-214233D01*
X120369Y-214233D01*
X120369Y-214233D01*
X120378Y-214244D01*
X120435Y-214243D01*
X120435D01*
X120435D01*
X120474Y-214247D01*
X120508Y-214257D01*
X120511Y-214258D01*
X120511D01*
X120511Y-214258D01*
X120530Y-214268D01*
X120545Y-214276D01*
X120545Y-214276D01*
X120545Y-214276D01*
X120558Y-214286D01*
X120575Y-214300D01*
X120575Y-214300D01*
X120575Y-214300D01*
X120584Y-214310D01*
X120641Y-214310D01*
D01*
D01*
X120641D01*
X120680Y-214313D01*
X120702Y-214320D01*
X120717Y-214324D01*
X120717Y-214324D01*
D01*
X120720Y-214326D01*
X120751Y-214342D01*
X120758Y-214348D01*
X120782Y-214367D01*
X120797Y-214386D01*
X120806Y-214396D01*
X120811Y-214405D01*
X120820Y-214410D01*
X120851Y-214434D01*
X120859Y-214445D01*
X120916Y-214444D01*
X120916D01*
X120916D01*
X120955Y-214448D01*
X120992Y-214459D01*
X121010Y-214468D01*
X121026Y-214477D01*
X121057Y-214501D01*
Y-214501D01*
X121057D01*
X121062Y-214507D01*
X121081Y-214531D01*
X121086Y-214540D01*
X121095Y-214545D01*
X121126Y-214569D01*
X121126Y-214569D01*
X121126Y-214569D01*
X121134Y-214579D01*
X121150Y-214599D01*
X121155Y-214608D01*
X121165Y-214613D01*
X121165Y-214613D01*
X121165Y-214613D01*
X121182Y-214627D01*
X121195Y-214637D01*
X121195Y-214637D01*
X121195Y-214637D01*
X121203Y-214647D01*
X121260Y-214647D01*
D01*
D01*
X121260D01*
X121299Y-214650D01*
X121321Y-214657D01*
X121336Y-214661D01*
X121336Y-214661D01*
D01*
X121339Y-214663D01*
X121371Y-214679D01*
X121378Y-214685D01*
X121401Y-214704D01*
X121417Y-214722D01*
X121426Y-214733D01*
X121431Y-214742D01*
X121440Y-214747D01*
X121440Y-214747D01*
X121440Y-214747D01*
X121455Y-214760D01*
X121470Y-214772D01*
X121470Y-214772D01*
X121470Y-214772D01*
X121474Y-214777D01*
X121479Y-214782D01*
X121536Y-214781D01*
X121536D01*
X121536D01*
X121574Y-214785D01*
X121599Y-214792D01*
X121611Y-214796D01*
X121611Y-214796D01*
D01*
X121613Y-214797D01*
X121646Y-214814D01*
X121676Y-214838D01*
X121676Y-214838D01*
X121676Y-214838D01*
X121686Y-214850D01*
X121701Y-214868D01*
X121701Y-214868D01*
X121701Y-214868D01*
X121706Y-214877D01*
X121715Y-214882D01*
X121715Y-214882D01*
X121715Y-214882D01*
X121727Y-214892D01*
X121745Y-214906D01*
X121745Y-214906D01*
X121745Y-214906D01*
X121754Y-214917D01*
X121770Y-214936D01*
X121770Y-214936D01*
X121770Y-214936D01*
X121774Y-214943D01*
X121775Y-214945D01*
X121784Y-214949D01*
X121784Y-214950D01*
X121784D01*
X121791Y-214955D01*
X121814Y-214974D01*
X121814Y-214974D01*
X121814Y-214974D01*
X121830Y-214994D01*
X121839Y-215004D01*
X121839Y-215004D01*
X121839Y-215004D01*
X121844Y-215013D01*
X121853Y-215017D01*
X121853Y-215017D01*
X121853Y-215018D01*
X121870Y-215031D01*
X121883Y-215042D01*
X121883Y-215042D01*
X121883Y-215042D01*
X121903Y-215065D01*
X121908Y-215072D01*
Y-215072D01*
X121908Y-215072D01*
X121913Y-215081D01*
X121913Y-215081D01*
X121922Y-215085D01*
X121922Y-215085D01*
X121922Y-215085D01*
X121952Y-215110D01*
X121975Y-215137D01*
X121977Y-215139D01*
Y-215139D01*
X121977Y-215139D01*
X121982Y-215148D01*
X121991Y-215153D01*
X121991Y-215153D01*
X121991Y-215153D01*
X122009Y-215167D01*
X122021Y-215178D01*
X122021Y-215178D01*
X122021Y-215178D01*
X122035Y-215194D01*
X122046Y-215207D01*
X122046Y-215207D01*
X122046Y-215207D01*
X122051Y-215216D01*
X122060Y-215221D01*
X122060Y-215221D01*
X122060D01*
X122067Y-215227D01*
X122090Y-215246D01*
X122090Y-215246D01*
X122090Y-215246D01*
X122107Y-215265D01*
X122115Y-215275D01*
X122115Y-215275D01*
X122115Y-215275D01*
X122120Y-215284D01*
X122129Y-215289D01*
X122129Y-215289D01*
X122129Y-215289D01*
X122140Y-215298D01*
X122159Y-215313D01*
X122159Y-215313D01*
X122159Y-215313D01*
X122168Y-215324D01*
X122184Y-215343D01*
X122184Y-215343D01*
X122184Y-215343D01*
X122186Y-215347D01*
X122189Y-215352D01*
X122198Y-215357D01*
X122198Y-215357D01*
X122198Y-215357D01*
X122215Y-215371D01*
X122229Y-215381D01*
X122229Y-215381D01*
X122229Y-215381D01*
X122248Y-215405D01*
X122253Y-215411D01*
Y-215411D01*
X122253Y-215411D01*
X122258Y-215420D01*
X122264Y-215423D01*
X122267Y-215425D01*
X122286Y-215440D01*
X122298Y-215449D01*
X122298Y-215449D01*
X122298Y-215449D01*
X122306Y-215459D01*
X122322Y-215479D01*
X122327Y-215488D01*
X122336Y-215493D01*
X122367Y-215517D01*
X122367Y-215517D01*
X122367Y-215517D01*
X122371Y-215522D01*
X122391Y-215547D01*
X122396Y-215556D01*
X122406Y-215561D01*
X122436Y-215585D01*
X122460Y-215615D01*
X122466Y-215624D01*
X122475Y-215628D01*
X122475Y-215628D01*
D01*
X122476Y-215629D01*
X122505Y-215653D01*
X122505Y-215653D01*
X122505Y-215653D01*
X122514Y-215664D01*
X122530Y-215683D01*
X122530Y-215683D01*
X122530Y-215683D01*
X122533Y-215688D01*
X122535Y-215691D01*
X122544Y-215696D01*
X122574Y-215721D01*
X122599Y-215750D01*
X122604Y-215759D01*
X122613Y-215764D01*
X122613Y-215764D01*
X122613Y-215764D01*
X122630Y-215778D01*
X122643Y-215788D01*
X122643Y-215789D01*
X122643Y-215789D01*
X122654Y-215802D01*
X122668Y-215818D01*
X122668Y-215818D01*
X122668Y-215818D01*
X122673Y-215827D01*
X122682Y-215832D01*
X122682Y-215832D01*
X122682Y-215832D01*
X122712Y-215856D01*
X122730Y-215878D01*
X122737Y-215886D01*
X122737Y-215886D01*
X122737Y-215886D01*
X122742Y-215895D01*
X122751Y-215900D01*
X122781Y-215924D01*
X122781Y-215924D01*
X122781Y-215924D01*
X122789Y-215934D01*
X122806Y-215954D01*
X122825Y-215988D01*
X122825Y-215988D01*
D01*
X122836Y-216025D01*
X122839Y-216051D01*
X122851Y-216061D01*
X122851Y-216061D01*
X122851Y-216061D01*
X122864Y-216077D01*
X122876Y-216090D01*
X122876Y-216090D01*
X122876Y-216090D01*
X122884Y-216106D01*
X122894Y-216124D01*
X122894Y-216124D01*
X122894Y-216124D01*
X122897Y-216133D01*
X122906Y-216161D01*
X122906Y-216161D01*
Y-216161D01*
X122906Y-216166D01*
X122909Y-216187D01*
X122921Y-216197D01*
X122945Y-216227D01*
X122950Y-216236D01*
X122959Y-216241D01*
X122978Y-216255D01*
X122989Y-216265D01*
X122989Y-216265D01*
X122989Y-216265D01*
X122999Y-216277D01*
X123014Y-216295D01*
X123014Y-216295D01*
X123014Y-216295D01*
X123018Y-216301D01*
X123019Y-216304D01*
X123028Y-216308D01*
X123059Y-216333D01*
X123059Y-216333D01*
X123059Y-216333D01*
X123083Y-216363D01*
X123094Y-216383D01*
X123102Y-216397D01*
X123102Y-216397D01*
D01*
X123114Y-216434D01*
X123116Y-216460D01*
X123128Y-216469D01*
X123128Y-216469D01*
X123128Y-216469D01*
X123143Y-216487D01*
X123153Y-216499D01*
X123153Y-216499D01*
X123153Y-216499D01*
X123162Y-216515D01*
X123172Y-216533D01*
X123172Y-216533D01*
X123172Y-216533D01*
X123176Y-216548D01*
X123183Y-216570D01*
X123183Y-216570D01*
X123183Y-216570D01*
X123185Y-216589D01*
X123186Y-216596D01*
X123198Y-216605D01*
X123198Y-216605D01*
X123198Y-216605D01*
X123207Y-216616D01*
X123223Y-216635D01*
X123223Y-216635D01*
X123223Y-216635D01*
X123226Y-216641D01*
X123228Y-216644D01*
X123237Y-216649D01*
X123267Y-216673D01*
X123267Y-216673D01*
X123267Y-216673D01*
X123292Y-216703D01*
X123297Y-216712D01*
X123306Y-216717D01*
X123336Y-216741D01*
X123336Y-216741D01*
X123336Y-216741D01*
X123344Y-216751D01*
X123361Y-216771D01*
X123380Y-216805D01*
D01*
X123380Y-216805D01*
X123391Y-216842D01*
X123394Y-216869D01*
X123395Y-216880D01*
X123396Y-216937D01*
X123406Y-216946D01*
X123406Y-216946D01*
X123406Y-216946D01*
X123418Y-216960D01*
X123431Y-216976D01*
X123431Y-216976D01*
X123431Y-216976D01*
X123439Y-216990D01*
X123450Y-217010D01*
X123450Y-217010D01*
X123450Y-217010D01*
X123454Y-217022D01*
X123461Y-217047D01*
X123461Y-217047D01*
X123461Y-217047D01*
X123463Y-217061D01*
X123466Y-217085D01*
X123466Y-217142D01*
X123477Y-217151D01*
X123477Y-217151D01*
X123477Y-217151D01*
X123486Y-217162D01*
X123502Y-217181D01*
X123502Y-217181D01*
X123502Y-217181D01*
X123505Y-217187D01*
X123520Y-217215D01*
X123520Y-217215D01*
Y-217215D01*
X123521Y-217219D01*
X123532Y-217252D01*
Y-217252D01*
X123532Y-217252D01*
X123533Y-217267D01*
X123534Y-217278D01*
X123546Y-217287D01*
X123546Y-217287D01*
X123546Y-217287D01*
X123551Y-217293D01*
X123571Y-217317D01*
X123590Y-217351D01*
X123590Y-217351D01*
D01*
X123601Y-217388D01*
X123604Y-217414D01*
X123616Y-217424D01*
X123616Y-217424D01*
X123616Y-217424D01*
X123625Y-217434D01*
X123641Y-217453D01*
X123641Y-217453D01*
X123641Y-217454D01*
X123646Y-217463D01*
X123659Y-217487D01*
X123659Y-217488D01*
X123660Y-217488D01*
X123671Y-217525D01*
X123674Y-217552D01*
X123675Y-217563D01*
Y-217563D01*
Y-217563D01*
X123676Y-217620D01*
X123678Y-217622D01*
X123686Y-217628D01*
X123686Y-217628D01*
X123686Y-217629D01*
X123702Y-217647D01*
X123711Y-217658D01*
X123711Y-217658D01*
X123711Y-217658D01*
X123722Y-217679D01*
X123730Y-217692D01*
X123730Y-217692D01*
X123730Y-217692D01*
X123739Y-217721D01*
X123741Y-217729D01*
Y-217729D01*
X123741Y-217729D01*
X123744Y-217752D01*
X123745Y-217768D01*
X123745Y-217768D01*
X123745Y-217768D01*
X123746Y-217825D01*
X123757Y-217833D01*
X123757Y-217833D01*
X123757Y-217833D01*
X123770Y-217849D01*
X123781Y-217863D01*
X123781Y-217863D01*
X123781Y-217863D01*
X123790Y-217879D01*
X123800Y-217897D01*
X123800Y-217897D01*
X123800Y-217897D01*
X123804Y-217911D01*
X123812Y-217934D01*
Y-217934D01*
X123812Y-217934D01*
X123814Y-217954D01*
X123816Y-217973D01*
Y-217973D01*
Y-217973D01*
X123816Y-218030D01*
X123827Y-218038D01*
X123852Y-218068D01*
X123870Y-218102D01*
X123882Y-218139D01*
X123886Y-218178D01*
X123886Y-218234D01*
X123897Y-218243D01*
X123897Y-218243D01*
X123897Y-218243D01*
X123922Y-218273D01*
X123939Y-218304D01*
X123941Y-218307D01*
D01*
X123941Y-218307D01*
X123944Y-218317D01*
X123952Y-218344D01*
X123956Y-218382D01*
Y-218382D01*
Y-218382D01*
X123957Y-218451D01*
Y-218451D01*
Y-218451D01*
X123955Y-218472D01*
X123954Y-218485D01*
X123957Y-218519D01*
X123958Y-218588D01*
Y-218588D01*
Y-218588D01*
X123959Y-218656D01*
Y-218656D01*
Y-218656D01*
X123959Y-218725D01*
D01*
D01*
Y-218725D01*
X123958Y-218734D01*
X123956Y-218759D01*
X123957Y-218768D01*
X123960Y-218793D01*
X123960Y-218862D01*
X123960Y-218862D01*
X123960Y-218862D01*
X123959Y-218874D01*
X123957Y-218896D01*
X123959Y-218908D01*
X123961Y-218930D01*
Y-218930D01*
Y-218930D01*
X123962Y-218999D01*
X123958Y-219037D01*
X123947Y-219075D01*
X123929Y-219109D01*
X123905Y-219139D01*
X123895Y-219148D01*
X123895Y-219205D01*
X123895Y-219205D01*
X123895Y-219205D01*
X123893Y-219226D01*
X123891Y-219243D01*
X123891Y-219243D01*
X123891Y-219243D01*
X123886Y-219261D01*
X123881Y-219281D01*
X123881Y-219281D01*
X123881Y-219281D01*
X123875Y-219291D01*
X123863Y-219315D01*
X123863Y-219315D01*
X123863Y-219315D01*
X123853Y-219327D01*
X123838Y-219345D01*
X123838Y-219345D01*
X123838Y-219345D01*
X123824Y-219357D01*
X123809Y-219370D01*
X123809Y-219370D01*
X123808Y-219370D01*
X123799Y-219375D01*
X123795Y-219384D01*
X123780Y-219402D01*
X123770Y-219414D01*
X123770Y-219414D01*
X123770Y-219414D01*
X123760Y-219423D01*
X123760Y-219480D01*
Y-219480D01*
Y-219480D01*
Y-219480D01*
X123759Y-219496D01*
X123757Y-219518D01*
X123757Y-219518D01*
Y-219519D01*
X123753Y-219531D01*
X123746Y-219556D01*
X123746Y-219556D01*
X123746Y-219556D01*
X123740Y-219567D01*
X123728Y-219590D01*
X123728Y-219590D01*
X123728Y-219590D01*
X123717Y-219604D01*
X123704Y-219620D01*
X123704Y-219620D01*
X123704Y-219620D01*
X123690Y-219631D01*
X123674Y-219645D01*
X123674Y-219645D01*
X123674Y-219645D01*
X123665Y-219650D01*
X123660Y-219659D01*
X123660Y-219659D01*
X123660Y-219659D01*
X123646Y-219676D01*
X123636Y-219689D01*
X123636Y-219689D01*
X123636Y-219689D01*
X123625Y-219698D01*
X123606Y-219714D01*
X123606Y-219714D01*
X123606Y-219714D01*
X123597Y-219719D01*
X123592Y-219728D01*
X123592Y-219728D01*
D01*
X123591Y-219729D01*
X123568Y-219758D01*
X123568Y-219758D01*
X123568Y-219758D01*
X123557Y-219767D01*
X123538Y-219783D01*
X123538Y-219783D01*
X123538Y-219783D01*
X123529Y-219788D01*
X123524Y-219797D01*
X123500Y-219827D01*
X123475Y-219848D01*
X123470Y-219852D01*
X123470Y-219852D01*
X123470Y-219852D01*
X123461Y-219857D01*
X123459Y-219861D01*
X123457Y-219866D01*
X123457Y-219866D01*
X123457Y-219866D01*
X123437Y-219891D01*
X123432Y-219896D01*
X123432Y-219896D01*
X123432Y-219897D01*
X123411Y-219914D01*
X123403Y-219921D01*
X123402Y-219921D01*
X123402Y-219921D01*
X123393Y-219926D01*
X123389Y-219935D01*
X123389Y-219935D01*
X123389Y-219935D01*
X123380Y-219946D01*
X123364Y-219966D01*
X123364Y-219966D01*
X123364Y-219966D01*
X123348Y-219979D01*
X123335Y-219990D01*
X123334Y-219990D01*
X123334Y-219990D01*
X123326Y-219995D01*
X123321Y-220004D01*
X123321Y-220005D01*
X123321Y-220005D01*
X123308Y-220020D01*
X123296Y-220035D01*
X123296Y-220035D01*
X123296Y-220035D01*
X123285Y-220044D01*
X123267Y-220059D01*
X123267Y-220059D01*
X123267Y-220059D01*
X123258Y-220064D01*
X123253Y-220074D01*
X123236Y-220094D01*
X123229Y-220104D01*
X123229Y-220104D01*
X123229Y-220104D01*
X123211Y-220118D01*
X123199Y-220129D01*
X123199Y-220129D01*
X123199Y-220129D01*
X123171Y-220144D01*
X123165Y-220147D01*
X123165D01*
X123165Y-220147D01*
X123144Y-220154D01*
X123128Y-220159D01*
X123128D01*
X123128Y-220159D01*
X123110Y-220161D01*
X123089Y-220163D01*
X123089D01*
X123089D01*
X123032Y-220163D01*
X123024Y-220174D01*
X123024Y-220174D01*
X123024Y-220174D01*
X123002Y-220192D01*
X122994Y-220199D01*
X122994Y-220199D01*
X122994Y-220199D01*
X122985Y-220204D01*
X122980Y-220213D01*
X122980Y-220213D01*
X122980Y-220213D01*
X122966Y-220230D01*
X122956Y-220243D01*
X122956Y-220243D01*
X122956Y-220243D01*
X122932Y-220263D01*
X122926Y-220268D01*
X122926D01*
X122926Y-220268D01*
X122917Y-220273D01*
X122912Y-220282D01*
X122912Y-220282D01*
X122912Y-220282D01*
X122899Y-220299D01*
X122888Y-220312D01*
X122888Y-220312D01*
X122888Y-220312D01*
X122877Y-220321D01*
X122858Y-220337D01*
X122858Y-220337D01*
X122858Y-220337D01*
X122849Y-220342D01*
X122844Y-220351D01*
X122820Y-220381D01*
X122790Y-220406D01*
X122756Y-220425D01*
X122719Y-220436D01*
X122681Y-220440D01*
X122624Y-220441D01*
X122620Y-220445D01*
X122615Y-220451D01*
X122615Y-220451D01*
X122615Y-220451D01*
X122599Y-220465D01*
X122585Y-220476D01*
X122585Y-220476D01*
X122585Y-220476D01*
X122576Y-220481D01*
X122572Y-220490D01*
X122547Y-220521D01*
X122547D01*
Y-220521D01*
X122518Y-220545D01*
X122502Y-220554D01*
X122484Y-220564D01*
X122472Y-220568D01*
X122447Y-220576D01*
X122412Y-220579D01*
X122408Y-220580D01*
X122408D01*
D01*
X122351Y-220580D01*
X122343Y-220591D01*
X122343Y-220591D01*
X122342Y-220591D01*
X122332Y-220600D01*
X122313Y-220616D01*
X122313Y-220616D01*
X122313Y-220616D01*
X122304Y-220621D01*
X122299Y-220630D01*
X122299Y-220630D01*
D01*
X122298Y-220631D01*
X122274Y-220660D01*
X122274Y-220660D01*
X122274Y-220660D01*
X122250Y-220680D01*
X122245Y-220685D01*
X122245D01*
X122245Y-220685D01*
X122228Y-220694D01*
X122211Y-220703D01*
X122211Y-220703D01*
X122211D01*
X122207Y-220705D01*
X122174Y-220715D01*
X122174Y-220715D01*
X122174D01*
X122163Y-220716D01*
X122135Y-220719D01*
X122078Y-220720D01*
X122070Y-220730D01*
X122070Y-220730D01*
X122070Y-220730D01*
X122048Y-220748D01*
X122040Y-220755D01*
X122040Y-220755D01*
X122040Y-220755D01*
X122031Y-220760D01*
X122026Y-220769D01*
X122026Y-220769D01*
X122026Y-220769D01*
X122010Y-220789D01*
X122002Y-220799D01*
X122002Y-220799D01*
X122002Y-220799D01*
X121982Y-220816D01*
X121972Y-220824D01*
X121972Y-220824D01*
X121972Y-220824D01*
X121946Y-220839D01*
X121938Y-220843D01*
X121938Y-220843D01*
X121938Y-220843D01*
X121913Y-220850D01*
X121901Y-220854D01*
X121901Y-220854D01*
X121901Y-220854D01*
X121881Y-220856D01*
X121863Y-220858D01*
X121863Y-220858D01*
X121862Y-220858D01*
X121806Y-220859D01*
X121797Y-220869D01*
X121767Y-220894D01*
X121733Y-220913D01*
X121696Y-220925D01*
X121658Y-220929D01*
X121601Y-220929D01*
X121592Y-220940D01*
X121592Y-220940D01*
X121592Y-220940D01*
X121577Y-220952D01*
X121562Y-220965D01*
X121562Y-220965D01*
X121562Y-220965D01*
X121550Y-220971D01*
X121528Y-220983D01*
X121528Y-220983D01*
D01*
X121527Y-220984D01*
X121491Y-220995D01*
X121453Y-220999D01*
X121396Y-221000D01*
X121387Y-221010D01*
X121387Y-221010D01*
X121387Y-221010D01*
X121382Y-221015D01*
X121358Y-221035D01*
X121324Y-221054D01*
X121324Y-221054D01*
D01*
X121286Y-221065D01*
X121260Y-221068D01*
X121248Y-221069D01*
X121191Y-221070D01*
X121183Y-221080D01*
X121183Y-221080D01*
X121183Y-221080D01*
X121170Y-221091D01*
X121153Y-221105D01*
X121153Y-221105D01*
X121153Y-221105D01*
X121129Y-221118D01*
X121119Y-221124D01*
X121119Y-221124D01*
X121119Y-221124D01*
X121084Y-221135D01*
X121082Y-221135D01*
X121082D01*
X121082Y-221135D01*
X121058Y-221138D01*
X121043Y-221140D01*
X121043Y-221140D01*
X121043Y-221140D01*
X120986Y-221140D01*
X120978Y-221151D01*
X120978Y-221151D01*
X120978Y-221151D01*
X120967Y-221160D01*
X120948Y-221175D01*
X120948Y-221176D01*
X120948Y-221176D01*
X120941Y-221179D01*
X120914Y-221194D01*
X120914Y-221194D01*
X120914Y-221194D01*
X120904Y-221197D01*
X120877Y-221206D01*
X120877Y-221206D01*
X120877Y-221206D01*
X120862Y-221207D01*
X120838Y-221210D01*
X120781Y-221210D01*
X120773Y-221221D01*
X120773Y-221221D01*
X120773Y-221221D01*
X120748Y-221241D01*
X120743Y-221246D01*
X120743D01*
X120743Y-221246D01*
X120715Y-221261D01*
X120709Y-221264D01*
X120709D01*
X120709Y-221264D01*
X120672Y-221276D01*
X120647Y-221279D01*
X120633Y-221280D01*
X120633D01*
X120633D01*
X120577Y-221281D01*
X120568Y-221291D01*
X120538Y-221316D01*
X120504Y-221335D01*
X120467Y-221346D01*
X120429Y-221350D01*
X120372Y-221351D01*
X120363Y-221361D01*
X120363Y-221361D01*
X120363Y-221361D01*
X120343Y-221378D01*
X120333Y-221386D01*
X120333Y-221386D01*
X120333Y-221386D01*
X120315Y-221396D01*
X120299Y-221405D01*
X120299Y-221405D01*
X120299Y-221405D01*
X120291Y-221407D01*
X120262Y-221416D01*
X120224Y-221421D01*
X120030Y-221422D01*
X120021Y-221433D01*
X120021Y-221433D01*
X120021Y-221433D01*
X120009Y-221443D01*
X119992Y-221458D01*
X119992Y-221458D01*
X119991Y-221458D01*
X119983Y-221462D01*
X119957Y-221476D01*
X119957Y-221476D01*
X119957D01*
X119951Y-221479D01*
X119921Y-221488D01*
X119920D01*
X119920Y-221488D01*
X119900Y-221490D01*
X119882Y-221492D01*
X119825Y-221493D01*
X119822Y-221496D01*
X119817Y-221503D01*
X119817D01*
Y-221503D01*
X119811Y-221508D01*
X119787Y-221528D01*
X119753Y-221547D01*
D01*
X119753Y-221547D01*
X119716Y-221558D01*
X119682Y-221562D01*
X119677Y-221562D01*
X119677D01*
D01*
X119483Y-221564D01*
X119475Y-221575D01*
X119475D01*
Y-221575D01*
X119445Y-221600D01*
X119429Y-221608D01*
X119411Y-221618D01*
X119374Y-221630D01*
X119335Y-221634D01*
X119278Y-221634D01*
X119278Y-221635D01*
X119270Y-221645D01*
X119270Y-221645D01*
X119270Y-221645D01*
X119252Y-221660D01*
X119240Y-221670D01*
X119240Y-221670D01*
X119240Y-221670D01*
X119212Y-221685D01*
X119206Y-221688D01*
X119206D01*
X119206Y-221688D01*
X119185Y-221695D01*
X119169Y-221700D01*
X119169D01*
X119169Y-221700D01*
X119149Y-221702D01*
X119131Y-221704D01*
X119131D01*
X119131D01*
X118937Y-221706D01*
X118928Y-221716D01*
X118928Y-221716D01*
X118928Y-221716D01*
X118912Y-221730D01*
X118898Y-221741D01*
X118898Y-221741D01*
X118898Y-221741D01*
X118883Y-221750D01*
X118864Y-221760D01*
X118864Y-221760D01*
X118864Y-221760D01*
X118855Y-221763D01*
X118827Y-221771D01*
X118827Y-221771D01*
X118827D01*
X118822Y-221772D01*
X118789Y-221776D01*
X118732Y-221776D01*
X118728Y-221780D01*
X118723Y-221787D01*
X118723Y-221787D01*
X118723Y-221787D01*
X118711Y-221797D01*
X118693Y-221812D01*
X118693Y-221812D01*
X118693Y-221812D01*
X118666Y-221826D01*
X118659Y-221830D01*
D01*
X118659Y-221830D01*
X118649Y-221833D01*
X118622Y-221842D01*
X118584Y-221846D01*
X118515Y-221846D01*
X118515D01*
D01*
X118481Y-221843D01*
X118447Y-221847D01*
X118253Y-221849D01*
X118245Y-221859D01*
X118245Y-221859D01*
X118245Y-221859D01*
X118225Y-221876D01*
X118215Y-221884D01*
X118215Y-221884D01*
X118215Y-221884D01*
X118181Y-221903D01*
X118154Y-221911D01*
X118144Y-221914D01*
X118144D01*
X118144Y-221914D01*
X118128Y-221916D01*
X118105Y-221919D01*
X118105D01*
X118105D01*
X118037Y-221919D01*
D01*
D01*
X118037D01*
X118018Y-221917D01*
X118002Y-221916D01*
X117984Y-221918D01*
X117968Y-221920D01*
X117911Y-221920D01*
X117908Y-221924D01*
X117903Y-221931D01*
X117903Y-221931D01*
X117903Y-221931D01*
X117873Y-221956D01*
X117842Y-221972D01*
X117839Y-221974D01*
D01*
X117839Y-221974D01*
X117828Y-221977D01*
X117802Y-221986D01*
X117763Y-221990D01*
X117763D01*
X117763D01*
X117695Y-221990D01*
X117695D01*
X117695D01*
X117676Y-221989D01*
X117660Y-221988D01*
X117626Y-221991D01*
X117626D01*
X117626D01*
X117558Y-221992D01*
X117558D01*
X117558D01*
X117535Y-221990D01*
X117519Y-221988D01*
X117519Y-221988D01*
X117519D01*
X117505Y-221984D01*
X117482Y-221977D01*
X117482Y-221977D01*
X117482D01*
X117479Y-221976D01*
X117448Y-221959D01*
X117448Y-221959D01*
D01*
X117447Y-221958D01*
X117418Y-221935D01*
X117417Y-221935D01*
X117417Y-221935D01*
X117409Y-221924D01*
X117393Y-221905D01*
X117393Y-221905D01*
X117393Y-221905D01*
X117389Y-221899D01*
X117374Y-221871D01*
X117374Y-221871D01*
Y-221871D01*
X117362Y-221834D01*
X117360Y-221808D01*
X117358Y-221796D01*
Y-221796D01*
Y-221796D01*
X117358Y-221727D01*
Y-221727D01*
X117357Y-221659D01*
X117357Y-221659D01*
X117357Y-221659D01*
X117357Y-221590D01*
Y-221590D01*
Y-221590D01*
Y-221590D01*
X117358Y-221571D01*
X117360Y-221556D01*
X117358Y-221539D01*
X117356Y-221522D01*
X117355Y-221453D01*
X117359Y-221415D01*
X117370Y-221377D01*
X117388Y-221343D01*
X117412Y-221313D01*
X117417Y-221309D01*
X117422Y-221304D01*
X117422Y-221247D01*
Y-221247D01*
Y-221247D01*
X117424Y-221226D01*
X117426Y-221209D01*
X117426Y-221209D01*
Y-221209D01*
X117430Y-221194D01*
X117436Y-221171D01*
X117436Y-221171D01*
Y-221171D01*
X117438Y-221168D01*
X117454Y-221137D01*
X117454Y-221137D01*
D01*
X117455Y-221136D01*
X117479Y-221107D01*
X117479Y-221107D01*
X117479Y-221107D01*
X117489Y-221098D01*
X117489Y-221041D01*
Y-221041D01*
Y-221041D01*
X117490Y-221021D01*
X117492Y-221007D01*
X117490Y-220988D01*
X117488Y-220973D01*
X117488Y-220973D01*
X117488Y-220973D01*
X117488Y-220904D01*
D01*
D01*
Y-220904D01*
X117489Y-220887D01*
X117491Y-220870D01*
X117489Y-220854D01*
X117487Y-220836D01*
X117487Y-220836D01*
X117487Y-220836D01*
X117486Y-220767D01*
Y-220767D01*
Y-220767D01*
X117488Y-220755D01*
X117490Y-220729D01*
X117501Y-220691D01*
Y-220691D01*
X117501Y-220691D01*
X117508Y-220679D01*
X117519Y-220657D01*
X117543Y-220627D01*
X117543Y-220627D01*
X117543Y-220627D01*
X117553Y-220619D01*
X117553Y-220618D01*
X117553Y-220561D01*
X117557Y-220523D01*
X117567Y-220485D01*
X117585Y-220451D01*
X117610Y-220421D01*
X117620Y-220412D01*
X117620Y-220355D01*
X117623Y-220321D01*
X117619Y-220287D01*
X117619Y-220218D01*
Y-220218D01*
Y-220218D01*
X117619Y-220208D01*
X117622Y-220184D01*
X117620Y-220166D01*
X117618Y-220150D01*
X117618Y-220150D01*
X117618Y-220150D01*
X117617Y-220081D01*
Y-220081D01*
D01*
X117621Y-220043D01*
X117632Y-220005D01*
X117650Y-219971D01*
X117674Y-219941D01*
X117677Y-219938D01*
X117684Y-219932D01*
X117684Y-219875D01*
D01*
D01*
Y-219875D01*
X117685Y-219866D01*
X117687Y-219837D01*
X117698Y-219799D01*
X117698Y-219799D01*
D01*
X117699Y-219798D01*
X117716Y-219765D01*
X117741Y-219735D01*
X117741Y-219735D01*
X117741Y-219735D01*
X117751Y-219726D01*
X117751Y-219669D01*
D01*
X117750Y-219601D01*
X117750Y-219601D01*
X117750Y-219601D01*
X117750Y-219532D01*
Y-219532D01*
Y-219532D01*
Y-219532D01*
X117751Y-219512D01*
X117753Y-219498D01*
X117750Y-219473D01*
X117749Y-219464D01*
Y-219464D01*
Y-219464D01*
X117748Y-219395D01*
Y-219395D01*
Y-219395D01*
Y-219395D01*
X117750Y-219376D01*
X117752Y-219357D01*
X117752Y-219357D01*
X117752Y-219357D01*
X117756Y-219341D01*
X117763Y-219320D01*
X117763Y-219320D01*
X117763Y-219320D01*
X117771Y-219304D01*
X117781Y-219285D01*
X117781Y-219285D01*
X117781Y-219285D01*
X117793Y-219270D01*
X117805Y-219255D01*
X117805Y-219255D01*
X117805Y-219255D01*
X117815Y-219246D01*
X117815Y-219189D01*
Y-219189D01*
D01*
X117814Y-219121D01*
Y-219121D01*
Y-219121D01*
X117814Y-219052D01*
D01*
D01*
Y-219052D01*
X117815Y-219035D01*
X117817Y-219018D01*
X117816Y-219009D01*
X117813Y-218984D01*
Y-218984D01*
Y-218984D01*
X117813Y-218915D01*
Y-218915D01*
Y-218915D01*
X117814Y-218905D01*
X117816Y-218877D01*
X117827Y-218840D01*
X117827Y-218840D01*
Y-218839D01*
X117832Y-218830D01*
X117845Y-218805D01*
X117845Y-218805D01*
X117845Y-218805D01*
X117859Y-218788D01*
X117869Y-218775D01*
X117869Y-218775D01*
X117869Y-218775D01*
X117880Y-218766D01*
X117879Y-218709D01*
Y-218709D01*
X117879Y-218641D01*
Y-218641D01*
Y-218641D01*
X117878Y-218572D01*
Y-218572D01*
Y-218572D01*
Y-218572D01*
X117880Y-218553D01*
X117881Y-218538D01*
X117879Y-218519D01*
X117877Y-218504D01*
X117877Y-218504D01*
X117877Y-218504D01*
X117877Y-218435D01*
Y-218435D01*
Y-218435D01*
Y-218435D01*
X117879Y-218416D01*
X117880Y-218401D01*
X117879Y-218392D01*
X117876Y-218367D01*
Y-218367D01*
Y-218367D01*
X117876Y-218298D01*
Y-218298D01*
D01*
X117879Y-218264D01*
X117876Y-218241D01*
X117875Y-218230D01*
X117875Y-218162D01*
X117875Y-218162D01*
X117875Y-218161D01*
X117876Y-218141D01*
X117878Y-218123D01*
X117878Y-218123D01*
X117878Y-218123D01*
X117883Y-218106D01*
X117889Y-218086D01*
X117889Y-218086D01*
X117889Y-218086D01*
X117894Y-218075D01*
X117907Y-218051D01*
X117907Y-218051D01*
X117907Y-218051D01*
X117917Y-218039D01*
X117931Y-218021D01*
X117931Y-218021D01*
X117931Y-218021D01*
X117942Y-218012D01*
X117941Y-217956D01*
Y-217956D01*
X117941Y-217887D01*
X117941Y-217887D01*
X117941Y-217887D01*
X117940Y-217818D01*
Y-217818D01*
Y-217818D01*
X117939Y-217750D01*
D01*
X117939Y-217682D01*
D01*
X117938Y-217613D01*
Y-217613D01*
Y-217613D01*
X117938Y-217545D01*
Y-217545D01*
Y-217545D01*
X117941Y-217510D01*
X117940Y-217501D01*
X117937Y-217476D01*
X117936Y-217408D01*
Y-217408D01*
Y-217408D01*
X117939Y-217373D01*
X117936Y-217339D01*
X117935Y-217271D01*
X117938Y-217236D01*
X117937Y-217220D01*
X117935Y-217202D01*
Y-217202D01*
Y-217202D01*
X117934Y-217134D01*
X117937Y-217100D01*
X117935Y-217083D01*
X117933Y-217065D01*
Y-217065D01*
Y-217065D01*
X117933Y-216997D01*
X117935Y-216976D01*
X117936Y-216963D01*
X117932Y-216928D01*
X117932Y-216860D01*
D01*
D01*
Y-216860D01*
X117935Y-216826D01*
X117933Y-216814D01*
X117931Y-216791D01*
X117930Y-216723D01*
Y-216723D01*
Y-216723D01*
X117932Y-216701D01*
X117933Y-216689D01*
X117932Y-216673D01*
X117930Y-216654D01*
Y-216654D01*
Y-216654D01*
X117929Y-216586D01*
Y-216586D01*
X117929Y-216517D01*
Y-216517D01*
Y-216517D01*
X117928Y-216449D01*
Y-216449D01*
Y-216449D01*
X117927Y-216380D01*
D01*
X117927Y-216323D01*
X117916Y-216315D01*
X117916Y-216315D01*
X117916Y-216315D01*
X117908Y-216305D01*
X117891Y-216285D01*
X117873Y-216251D01*
D01*
X117873Y-216251D01*
X117870Y-216241D01*
X117861Y-216214D01*
X117857Y-216176D01*
X117857Y-216107D01*
D01*
D01*
Y-216107D01*
X117858Y-216090D01*
X117860Y-216073D01*
X117857Y-216051D01*
X117856Y-216039D01*
Y-216039D01*
Y-216039D01*
X117855Y-215970D01*
Y-215970D01*
Y-215970D01*
X117856Y-215960D01*
X117858Y-215936D01*
X117856Y-215914D01*
X117855Y-215902D01*
Y-215902D01*
Y-215902D01*
X117854Y-215845D01*
X117844Y-215836D01*
X117844Y-215836D01*
X117844Y-215836D01*
X117819Y-215806D01*
X117802Y-215775D01*
X117800Y-215772D01*
D01*
X117800Y-215772D01*
X117797Y-215762D01*
X117789Y-215735D01*
X117785Y-215697D01*
Y-215697D01*
Y-215697D01*
X117784Y-215640D01*
X117773Y-215631D01*
X117773Y-215631D01*
X117773Y-215631D01*
X117762Y-215618D01*
X117748Y-215602D01*
X117748Y-215601D01*
X117748Y-215601D01*
X117742Y-215589D01*
X117730Y-215568D01*
X117730Y-215567D01*
X117730Y-215567D01*
X117726Y-215556D01*
X117718Y-215531D01*
X117718Y-215530D01*
X117718Y-215530D01*
X117716Y-215511D01*
X117714Y-215492D01*
X117714Y-215424D01*
Y-215424D01*
D01*
X117717Y-215389D01*
X117713Y-215355D01*
X117712Y-215298D01*
X117702Y-215290D01*
X117702Y-215290D01*
X117702Y-215289D01*
X117691Y-215276D01*
X117677Y-215260D01*
X117677Y-215260D01*
X117677Y-215260D01*
X117668Y-215244D01*
X117658Y-215226D01*
X117658Y-215226D01*
X117658Y-215226D01*
X117649Y-215196D01*
X117647Y-215189D01*
Y-215189D01*
X117647Y-215189D01*
X117644Y-215165D01*
X117643Y-215150D01*
X117643Y-215150D01*
X117643Y-215150D01*
X117642Y-215093D01*
X117632Y-215085D01*
X117632Y-215085D01*
X117632Y-215085D01*
X117621Y-215071D01*
X117607Y-215055D01*
X117607Y-215055D01*
X117607Y-215055D01*
X117602Y-215046D01*
X117599Y-215044D01*
X117593Y-215041D01*
X117562Y-215017D01*
X117538Y-214987D01*
X117533Y-214978D01*
X117524Y-214973D01*
X117493Y-214949D01*
X117469Y-214919D01*
X117450Y-214885D01*
X117441Y-214857D01*
X117438Y-214848D01*
X117434Y-214810D01*
X117434Y-214753D01*
X117430Y-214749D01*
X117423Y-214744D01*
X117423Y-214744D01*
X117423Y-214744D01*
X117398Y-214714D01*
X117393Y-214705D01*
X117384Y-214701D01*
X117354Y-214676D01*
X117329Y-214647D01*
X117324Y-214637D01*
X117315Y-214633D01*
X117285Y-214608D01*
X117260Y-214579D01*
X117255Y-214570D01*
X117255Y-214569D01*
X117246Y-214565D01*
X117246Y-214565D01*
X117246Y-214565D01*
X117216Y-214541D01*
X117201Y-214523D01*
X117191Y-214511D01*
X117191Y-214511D01*
X117191Y-214511D01*
X117182Y-214494D01*
X117173Y-214477D01*
Y-214477D01*
X117173Y-214477D01*
X117165Y-214454D01*
X117142Y-214447D01*
X117142Y-214447D01*
D01*
X117140Y-214446D01*
X117108Y-214429D01*
X117078Y-214405D01*
X117078Y-214405D01*
X117078Y-214405D01*
X117065Y-214390D01*
X117053Y-214375D01*
X117053Y-214375D01*
X117053Y-214375D01*
X117048Y-214366D01*
X117039Y-214361D01*
X117039Y-214361D01*
X117039D01*
X117035Y-214358D01*
X117009Y-214337D01*
X117009Y-214337D01*
X117009Y-214337D01*
X117000Y-214326D01*
X116984Y-214307D01*
X116984Y-214307D01*
X116984Y-214307D01*
X116980Y-214300D01*
X116979Y-214298D01*
X116973Y-214295D01*
X116970Y-214293D01*
X116951Y-214278D01*
X116940Y-214269D01*
X116940Y-214269D01*
X116940Y-214269D01*
X116931Y-214259D01*
X116931Y-214258D01*
X116874Y-214259D01*
X116874Y-214259D01*
X116874Y-214259D01*
X116853Y-214257D01*
X116835Y-214255D01*
X116835Y-214255D01*
X116835Y-214255D01*
X116811Y-214248D01*
X116798Y-214245D01*
X116798Y-214245D01*
X116798Y-214245D01*
X116774Y-214232D01*
X116764Y-214227D01*
X116764Y-214227D01*
X116764Y-214227D01*
X116742Y-214209D01*
X116734Y-214202D01*
X116734Y-214202D01*
X116734Y-214202D01*
X116725Y-214192D01*
X116668Y-214192D01*
D01*
D01*
X116668D01*
X116629Y-214189D01*
X116607Y-214182D01*
X116592Y-214178D01*
X116592Y-214178D01*
D01*
X116589Y-214176D01*
X116558Y-214160D01*
X116551Y-214154D01*
X116528Y-214136D01*
X116512Y-214117D01*
X116503Y-214106D01*
X116484Y-214072D01*
D01*
X116484Y-214072D01*
X116473Y-214035D01*
X116469Y-214004D01*
X116468Y-213996D01*
X116468Y-213928D01*
Y-213928D01*
Y-213928D01*
X116471Y-213889D01*
X116474Y-213878D01*
X116482Y-213852D01*
X116500Y-213818D01*
X116525Y-213787D01*
X116525D01*
Y-213787D01*
X116554Y-213762D01*
X116570Y-213754D01*
X116588Y-213744D01*
X116600Y-213740D01*
X116625Y-213732D01*
X116660Y-213729D01*
X116664Y-213728D01*
X116664D01*
D01*
X117828Y-213718D01*
X117862Y-213721D01*
X117884Y-213719D01*
X117896Y-213718D01*
X117896D01*
X117896D01*
X117965Y-213717D01*
X117965D01*
X117965D01*
X117975Y-213718D01*
X117999Y-213720D01*
X118033Y-213716D01*
X118102Y-213716D01*
X118102D01*
X118102D01*
X118102D01*
X118123Y-213718D01*
X118136Y-213719D01*
X118154Y-213717D01*
X118170Y-213715D01*
X118170Y-213715D01*
X118170Y-213715D01*
X118239Y-213715D01*
X118278Y-213718D01*
D02*
G37*
G36*
X115728Y-213944D02*
X115745Y-213945D01*
X115745Y-213945D01*
X115746D01*
X115774Y-213954D01*
X115783Y-213956D01*
X115783Y-213956D01*
X115783Y-213956D01*
X115808Y-213970D01*
X115817Y-213974D01*
X115817Y-213974D01*
X115817Y-213974D01*
X115847Y-213999D01*
X115856Y-214009D01*
X116050Y-214007D01*
X116050D01*
X116050D01*
X116065Y-214009D01*
X116089Y-214011D01*
X116089Y-214011D01*
X116089D01*
X116106Y-214016D01*
X116126Y-214022D01*
X116126Y-214022D01*
X116126Y-214022D01*
X116140Y-214029D01*
X116160Y-214040D01*
X116160Y-214040D01*
X116160D01*
X116190Y-214064D01*
X116211Y-214089D01*
X116215Y-214094D01*
X116215Y-214094D01*
X116215Y-214094D01*
X116220Y-214103D01*
X116229Y-214108D01*
X116229Y-214108D01*
X116229Y-214108D01*
X116246Y-214122D01*
X116259Y-214132D01*
X116259Y-214132D01*
X116259Y-214132D01*
X116268Y-214143D01*
X116269Y-214144D01*
X116295Y-214146D01*
X116332Y-214157D01*
X116332Y-214157D01*
D01*
X116367Y-214175D01*
X116390Y-214194D01*
X116397Y-214199D01*
Y-214199D01*
X116397D01*
X116422Y-214229D01*
X116440Y-214263D01*
X116448Y-214286D01*
X116471Y-214293D01*
X116505Y-214311D01*
X116505Y-214311D01*
X116505D01*
X116509Y-214314D01*
X116535Y-214335D01*
X116560Y-214365D01*
X116578Y-214399D01*
X116586Y-214422D01*
X116609Y-214429D01*
X116643Y-214447D01*
X116643Y-214447D01*
X116643Y-214447D01*
X116654Y-214455D01*
X116673Y-214471D01*
X116673Y-214471D01*
X116673Y-214471D01*
X116687Y-214487D01*
X116698Y-214501D01*
X116698Y-214501D01*
X116698Y-214501D01*
X116705Y-214514D01*
X116717Y-214535D01*
X116717Y-214535D01*
Y-214535D01*
X116718Y-214538D01*
X116728Y-214572D01*
X116728Y-214572D01*
D01*
X116728Y-214573D01*
X116731Y-214598D01*
X116743Y-214607D01*
X116743Y-214607D01*
X116743Y-214607D01*
X116756Y-214623D01*
X116768Y-214637D01*
X116768Y-214637D01*
X116768Y-214637D01*
X116773Y-214646D01*
X116782Y-214651D01*
X116812Y-214675D01*
X116837Y-214705D01*
X116856Y-214739D01*
X116867Y-214776D01*
X116871Y-214815D01*
X116872Y-214871D01*
X116882Y-214880D01*
X116882Y-214880D01*
X116882Y-214880D01*
X116889Y-214888D01*
X116907Y-214910D01*
X116926Y-214944D01*
X116926Y-214944D01*
X116926Y-214944D01*
X116930Y-214958D01*
X116937Y-214981D01*
Y-214981D01*
X116937Y-214981D01*
X116939Y-215001D01*
X116940Y-215007D01*
X116952Y-215016D01*
X116952Y-215016D01*
X116952Y-215016D01*
X116962Y-215028D01*
X116977Y-215046D01*
X116977Y-215046D01*
X116977Y-215046D01*
X116984Y-215058D01*
X116995Y-215080D01*
X116995Y-215080D01*
D01*
X117007Y-215117D01*
X117010Y-215143D01*
X117022Y-215153D01*
X117046Y-215182D01*
X117046Y-215182D01*
X117046Y-215182D01*
X117051Y-215192D01*
X117065Y-215216D01*
X117065Y-215216D01*
X117065Y-215216D01*
X117067Y-215223D01*
X117077Y-215253D01*
X117081Y-215292D01*
X117081Y-215360D01*
X117081Y-215360D01*
X117081Y-215361D01*
X117080Y-215381D01*
X117078Y-215395D01*
X117081Y-215418D01*
X117082Y-215429D01*
X117083Y-215486D01*
X117093Y-215494D01*
X117093Y-215494D01*
X117093Y-215494D01*
X117106Y-215511D01*
X117118Y-215524D01*
X117118Y-215524D01*
X117118Y-215524D01*
X117132Y-215550D01*
X117137Y-215558D01*
Y-215558D01*
X117137Y-215558D01*
X117145Y-215586D01*
X117148Y-215595D01*
Y-215595D01*
X117148Y-215595D01*
X117150Y-215616D01*
X117152Y-215634D01*
Y-215634D01*
Y-215634D01*
X117153Y-215691D01*
X117163Y-215699D01*
X117163Y-215699D01*
X117163Y-215699D01*
X117172Y-215710D01*
X117188Y-215729D01*
X117188Y-215729D01*
X117188Y-215729D01*
X117192Y-215735D01*
X117207Y-215763D01*
X117207Y-215763D01*
Y-215763D01*
X117208Y-215768D01*
X117218Y-215800D01*
Y-215800D01*
X117218Y-215800D01*
X117220Y-215814D01*
X117223Y-215839D01*
X117223Y-215907D01*
D01*
D01*
Y-215907D01*
X117221Y-215926D01*
X117220Y-215942D01*
X117222Y-215964D01*
X117224Y-215976D01*
X117224Y-216044D01*
X117221Y-216078D01*
X117225Y-216112D01*
X117226Y-216181D01*
X117226Y-216181D01*
X117226Y-216181D01*
X117226Y-216249D01*
Y-216249D01*
X117227Y-216318D01*
X117227Y-216318D01*
X117227Y-216318D01*
X117227Y-216387D01*
Y-216387D01*
X117228Y-216455D01*
Y-216455D01*
Y-216455D01*
X117225Y-216486D01*
X117225Y-216494D01*
Y-216494D01*
X117225Y-216494D01*
X117217Y-216520D01*
X117214Y-216531D01*
X117214Y-216531D01*
X117213Y-216531D01*
X117203Y-216551D01*
X117196Y-216565D01*
X117196Y-216565D01*
X117196Y-216565D01*
X117176Y-216589D01*
X117171Y-216595D01*
X117171Y-216595D01*
X117171Y-216595D01*
X117150Y-216613D01*
X117141Y-216620D01*
X117141Y-216620D01*
X117141Y-216620D01*
X117115Y-216634D01*
X117107Y-216639D01*
X117107D01*
X117107Y-216639D01*
X117084Y-216646D01*
X117070Y-216650D01*
X117070D01*
X117070Y-216650D01*
X117051Y-216652D01*
X117032Y-216654D01*
X117032D01*
X117032D01*
X116963Y-216655D01*
D01*
D01*
X116963D01*
X116946Y-216654D01*
X116925Y-216652D01*
X116925Y-216652D01*
X116925D01*
X116907Y-216647D01*
X116888Y-216641D01*
X116888Y-216641D01*
X116888Y-216641D01*
X116866Y-216630D01*
X116853Y-216623D01*
X116853Y-216623D01*
X116853Y-216623D01*
X116836Y-216609D01*
X116823Y-216599D01*
X116823Y-216598D01*
X116823Y-216598D01*
X116814Y-216588D01*
X116798Y-216569D01*
X116798Y-216569D01*
X116798Y-216569D01*
X116793Y-216560D01*
X116784Y-216555D01*
X116784Y-216555D01*
X116784Y-216555D01*
X116767Y-216541D01*
X116754Y-216530D01*
X116754Y-216530D01*
X116754Y-216530D01*
X116741Y-216514D01*
X116729Y-216501D01*
X116729Y-216501D01*
X116729Y-216501D01*
X116724Y-216492D01*
X116715Y-216487D01*
X116685Y-216463D01*
X116685Y-216463D01*
X116685Y-216463D01*
X116677Y-216453D01*
X116660Y-216433D01*
X116655Y-216424D01*
X116646Y-216419D01*
X116616Y-216395D01*
X116613Y-216391D01*
X116607Y-216384D01*
X116550Y-216385D01*
X116550D01*
X116550D01*
X116516Y-216382D01*
X116500Y-216383D01*
X116482Y-216385D01*
X116482D01*
X116482D01*
X116413Y-216386D01*
X116413D01*
X116413D01*
X116403Y-216385D01*
X116375Y-216383D01*
X116337Y-216372D01*
X116337D01*
X116337Y-216372D01*
X116303Y-216354D01*
X116279Y-216335D01*
X116273Y-216329D01*
X116273Y-216329D01*
X116273Y-216329D01*
X116264Y-216319D01*
X116207Y-216319D01*
X116207D01*
D01*
X116173Y-216316D01*
X116151Y-216319D01*
X116139Y-216320D01*
X116139D01*
X116139D01*
X116070Y-216320D01*
X116070D01*
X116070D01*
X116060Y-216320D01*
X116036Y-216317D01*
X116014Y-216320D01*
X116002Y-216321D01*
X115933Y-216322D01*
X115933D01*
X115933D01*
X115899Y-216319D01*
X115883Y-216320D01*
X115865Y-216322D01*
X115865Y-216322D01*
X115865Y-216322D01*
X115796Y-216323D01*
D01*
X115796D01*
X115796D01*
X115775Y-216321D01*
X115762Y-216320D01*
X115739Y-216322D01*
X115728Y-216323D01*
X115659Y-216324D01*
X115659D01*
X115659D01*
X115639Y-216322D01*
X115625Y-216321D01*
X115603Y-216323D01*
X115591Y-216325D01*
X115591D01*
X115591D01*
X115534Y-216325D01*
X115525Y-216336D01*
X115496Y-216361D01*
X115462Y-216379D01*
X115425Y-216391D01*
X115386Y-216395D01*
X115317Y-216396D01*
D01*
D01*
X115317D01*
X115300Y-216394D01*
X115283Y-216392D01*
X115249Y-216396D01*
X115055Y-216398D01*
X115052Y-216402D01*
X115047Y-216408D01*
X115047Y-216408D01*
X115047Y-216408D01*
X115017Y-216433D01*
X114986Y-216450D01*
X114983Y-216452D01*
D01*
X114983Y-216452D01*
X114972Y-216455D01*
X114946Y-216463D01*
X114907Y-216468D01*
X114907D01*
X114907D01*
X114850Y-216468D01*
X114842Y-216479D01*
X114842Y-216479D01*
X114842Y-216479D01*
X114826Y-216492D01*
X114812Y-216504D01*
X114812Y-216504D01*
X114812Y-216504D01*
X114796Y-216512D01*
X114778Y-216522D01*
X114778Y-216522D01*
X114778Y-216522D01*
X114770Y-216525D01*
X114741Y-216534D01*
X114741Y-216534D01*
D01*
X114739Y-216534D01*
X114702Y-216538D01*
X114634Y-216539D01*
D01*
D01*
X114634D01*
X114600Y-216535D01*
X114582Y-216537D01*
X114566Y-216539D01*
X114565D01*
X114565D01*
X114508Y-216540D01*
X114500Y-216550D01*
X114500D01*
Y-216550D01*
X114470Y-216575D01*
X114455Y-216583D01*
X114436Y-216594D01*
X114399Y-216605D01*
X114360Y-216609D01*
X114304Y-216610D01*
X114301Y-216613D01*
X114295Y-216620D01*
X114295D01*
Y-216620D01*
X114289Y-216625D01*
X114265Y-216645D01*
X114231Y-216664D01*
D01*
X114231Y-216664D01*
X114194Y-216675D01*
X114164Y-216679D01*
X114156Y-216680D01*
X114156D01*
X114156D01*
X114099Y-216680D01*
X114096Y-216684D01*
X114090Y-216691D01*
X114090D01*
Y-216691D01*
X114087Y-216693D01*
X114060Y-216716D01*
X114026Y-216734D01*
D01*
X114026Y-216734D01*
X114013Y-216739D01*
X113989Y-216746D01*
X113951Y-216750D01*
X113894Y-216750D01*
X113885Y-216761D01*
X113885Y-216761D01*
X113885Y-216761D01*
X113873Y-216771D01*
X113856Y-216786D01*
X113856Y-216786D01*
X113856Y-216786D01*
X113834Y-216798D01*
X113822Y-216804D01*
X113822D01*
X113821Y-216804D01*
X113806Y-216809D01*
X113785Y-216816D01*
X113746Y-216820D01*
X113689Y-216821D01*
X113681Y-216831D01*
X113651Y-216856D01*
X113617Y-216875D01*
X113580Y-216886D01*
X113541Y-216890D01*
X113484Y-216891D01*
X113476Y-216902D01*
X113451Y-216922D01*
X113446Y-216926D01*
X113446Y-216926D01*
X113446Y-216926D01*
X113412Y-216945D01*
X113389Y-216952D01*
X113375Y-216957D01*
X113375D01*
X113375Y-216957D01*
X113361Y-216958D01*
X113336Y-216961D01*
X113336D01*
X113336D01*
X113279Y-216961D01*
X113271Y-216972D01*
X113271Y-216972D01*
X113271Y-216972D01*
X113259Y-216982D01*
X113241Y-216997D01*
X113241Y-216997D01*
X113241Y-216997D01*
X113232Y-217002D01*
X113227Y-217011D01*
X113227Y-217011D01*
X113227Y-217011D01*
X113215Y-217026D01*
X113203Y-217041D01*
X113203Y-217041D01*
X113203Y-217041D01*
X113198Y-217045D01*
X113173Y-217066D01*
X113139Y-217084D01*
X113139Y-217084D01*
D01*
X113102Y-217096D01*
X113076Y-217099D01*
X113064Y-217100D01*
X113007Y-217101D01*
X112998Y-217111D01*
X112998Y-217111D01*
X112998Y-217111D01*
X112968Y-217136D01*
X112947Y-217147D01*
X112934Y-217155D01*
X112934Y-217155D01*
X112934Y-217155D01*
X112916Y-217160D01*
X112897Y-217166D01*
X112897D01*
X112897Y-217166D01*
X112875Y-217169D01*
X112859Y-217170D01*
X112859D01*
X112859D01*
X112802Y-217171D01*
X112799Y-217175D01*
X112793Y-217181D01*
X112793Y-217181D01*
X112793Y-217181D01*
X112781Y-217191D01*
X112764Y-217206D01*
X112764Y-217206D01*
X112764Y-217206D01*
X112755Y-217211D01*
X112750Y-217220D01*
X112750Y-217220D01*
X112750Y-217220D01*
X112736Y-217237D01*
X112725Y-217250D01*
X112725Y-217251D01*
X112725Y-217251D01*
X112712Y-217262D01*
X112696Y-217275D01*
X112696Y-217275D01*
X112696Y-217276D01*
X112676Y-217286D01*
X112662Y-217294D01*
X112662Y-217294D01*
X112662Y-217294D01*
X112640Y-217301D01*
X112625Y-217306D01*
X112625Y-217306D01*
X112625Y-217306D01*
X112605Y-217308D01*
X112586Y-217310D01*
X112586Y-217310D01*
X112586Y-217310D01*
X112529Y-217310D01*
X112521Y-217321D01*
X112521Y-217321D01*
X112521Y-217321D01*
X112513Y-217327D01*
X112491Y-217346D01*
X112457Y-217364D01*
X112420Y-217376D01*
X112420D01*
X112420Y-217376D01*
X112398Y-217378D01*
X112381Y-217380D01*
X112324Y-217380D01*
X112316Y-217391D01*
X112316Y-217391D01*
X112316Y-217391D01*
X112302Y-217403D01*
X112286Y-217416D01*
X112286Y-217416D01*
X112286Y-217416D01*
X112277Y-217421D01*
X112276Y-217423D01*
X112272Y-217430D01*
X112272Y-217430D01*
X112272Y-217430D01*
X112253Y-217454D01*
X112248Y-217460D01*
X112248Y-217460D01*
X112248Y-217460D01*
X112231Y-217475D01*
X112218Y-217485D01*
X112218Y-217485D01*
X112218Y-217485D01*
X112194Y-217498D01*
X112184Y-217504D01*
X112184Y-217504D01*
X112184Y-217504D01*
X112150Y-217514D01*
X112147Y-217515D01*
X112147D01*
X112147Y-217515D01*
X112123Y-217518D01*
X112109Y-217519D01*
X112109Y-217519D01*
X112109Y-217519D01*
X112052Y-217520D01*
X112043Y-217530D01*
X112043Y-217530D01*
X112043Y-217530D01*
X112027Y-217544D01*
X112013Y-217555D01*
X112013Y-217555D01*
X112013Y-217555D01*
X112004Y-217560D01*
X111999Y-217569D01*
X111999Y-217569D01*
X111999Y-217569D01*
X111986Y-217587D01*
X111975Y-217600D01*
X111975Y-217600D01*
X111975Y-217600D01*
X111964Y-217608D01*
X111945Y-217624D01*
X111945Y-217624D01*
X111945Y-217624D01*
X111936Y-217630D01*
X111911Y-217643D01*
X111911Y-217643D01*
X111911Y-217643D01*
X111899Y-217647D01*
X111874Y-217655D01*
X111874D01*
X111874Y-217655D01*
X111859Y-217656D01*
X111836Y-217659D01*
X111779Y-217659D01*
X111770Y-217670D01*
X111741Y-217695D01*
X111732Y-217700D01*
X111727Y-217709D01*
X111727Y-217709D01*
X111727Y-217709D01*
X111714Y-217724D01*
X111702Y-217739D01*
X111702Y-217739D01*
X111702Y-217739D01*
X111697Y-217743D01*
X111673Y-217764D01*
X111664Y-217769D01*
X111659Y-217778D01*
X111659Y-217778D01*
Y-217778D01*
X111653Y-217784D01*
X111635Y-217808D01*
X111635Y-217808D01*
X111635Y-217808D01*
X111615Y-217824D01*
X111605Y-217833D01*
X111605Y-217833D01*
X111605Y-217833D01*
X111596Y-217838D01*
X111591Y-217847D01*
X111573Y-217870D01*
X111567Y-217877D01*
X111567D01*
Y-217877D01*
X111564Y-217879D01*
X111537Y-217902D01*
X111503Y-217920D01*
D01*
X111503Y-217920D01*
X111489Y-217925D01*
X111466Y-217932D01*
X111427Y-217936D01*
X111370Y-217937D01*
X111362Y-217947D01*
X111362Y-217947D01*
X111362Y-217947D01*
X111350Y-217957D01*
X111332Y-217972D01*
X111332Y-217972D01*
X111332Y-217972D01*
X111323Y-217977D01*
X111318Y-217986D01*
X111294Y-218016D01*
X111294Y-218016D01*
X111294Y-218016D01*
X111289Y-218021D01*
X111264Y-218041D01*
X111255Y-218046D01*
X111250Y-218055D01*
X111235Y-218074D01*
X111226Y-218085D01*
X111226Y-218085D01*
X111226Y-218085D01*
X111196Y-218110D01*
X111187Y-218115D01*
X111183Y-218123D01*
X111216Y-218105D01*
X111216Y-218105D01*
D01*
X111253Y-218094D01*
X111283Y-218091D01*
X111292Y-218090D01*
X111292D01*
X111292D01*
X111349Y-218089D01*
X111357Y-218078D01*
X111357Y-218078D01*
X111357Y-218078D01*
X111368Y-218070D01*
X111387Y-218054D01*
X111387Y-218054D01*
X111387Y-218054D01*
X111396Y-218049D01*
X111401Y-218040D01*
X111401Y-218040D01*
X111401Y-218040D01*
X111413Y-218024D01*
X111425Y-218009D01*
X111425Y-218009D01*
X111425Y-218009D01*
X111455Y-217985D01*
X111464Y-217980D01*
X111469Y-217970D01*
X111493Y-217940D01*
X111493D01*
Y-217940D01*
X111523Y-217916D01*
X111557Y-217897D01*
X111594Y-217885D01*
X111632Y-217881D01*
X111838Y-217879D01*
X111838D01*
D01*
X111876Y-217883D01*
X111914Y-217894D01*
X111948Y-217912D01*
X111972Y-217931D01*
X111978Y-217936D01*
Y-217936D01*
X111978D01*
X112003Y-217966D01*
X112022Y-218000D01*
X112033Y-218037D01*
X112037Y-218075D01*
Y-218075D01*
D01*
X112038Y-218144D01*
Y-218144D01*
D01*
X112035Y-218178D01*
X112037Y-218195D01*
X112038Y-218212D01*
Y-218212D01*
Y-218213D01*
X112039Y-218281D01*
D01*
D01*
Y-218281D01*
X112038Y-218288D01*
X112036Y-218320D01*
X112025Y-218357D01*
X112007Y-218391D01*
X111982Y-218421D01*
X111982Y-218421D01*
X111982Y-218421D01*
X111972Y-218429D01*
X111952Y-218446D01*
X111944Y-218451D01*
X111939Y-218460D01*
X111915Y-218490D01*
X111885Y-218515D01*
X111876Y-218520D01*
X111871Y-218529D01*
X111871Y-218529D01*
X111871Y-218529D01*
X111855Y-218548D01*
X111847Y-218559D01*
X111847Y-218559D01*
X111847Y-218559D01*
X111836Y-218568D01*
X111837Y-218625D01*
Y-218625D01*
Y-218625D01*
Y-218625D01*
X111835Y-218639D01*
X111833Y-218664D01*
X111833Y-218664D01*
Y-218664D01*
X111831Y-218670D01*
X111822Y-218701D01*
X111822Y-218701D01*
Y-218701D01*
X111820Y-218705D01*
X111804Y-218735D01*
X111804Y-218735D01*
X111804Y-218735D01*
X111796Y-218746D01*
X111780Y-218765D01*
X111780Y-218765D01*
X111780Y-218765D01*
X111769Y-218774D01*
X111770Y-218831D01*
Y-218831D01*
Y-218831D01*
Y-218831D01*
X111769Y-218846D01*
X111767Y-218870D01*
X111766Y-218870D01*
Y-218870D01*
X111762Y-218885D01*
X111756Y-218907D01*
X111756Y-218907D01*
X111756Y-218907D01*
X111744Y-218930D01*
X111738Y-218941D01*
X111738Y-218941D01*
X111738Y-218941D01*
X111723Y-218959D01*
X111713Y-218971D01*
X111713Y-218971D01*
X111713Y-218971D01*
X111697Y-218985D01*
X111683Y-218996D01*
X111683Y-218996D01*
X111683Y-218996D01*
X111674Y-219001D01*
X111670Y-219010D01*
X111670Y-219010D01*
X111670Y-219010D01*
X111656Y-219028D01*
X111645Y-219040D01*
X111645Y-219041D01*
X111645Y-219041D01*
X111635Y-219050D01*
X111616Y-219065D01*
X111616Y-219065D01*
X111616Y-219065D01*
X111607Y-219070D01*
X111602Y-219079D01*
X111577Y-219110D01*
X111567Y-219118D01*
X111567Y-219175D01*
Y-219175D01*
Y-219175D01*
X111564Y-219214D01*
X111554Y-219247D01*
X111553Y-219251D01*
Y-219251D01*
X111553Y-219251D01*
X111543Y-219271D01*
X111535Y-219285D01*
X111535Y-219285D01*
X111535Y-219285D01*
X111522Y-219301D01*
X111511Y-219316D01*
X111511Y-219316D01*
X111511Y-219316D01*
X111500Y-219324D01*
X111501Y-219381D01*
X111501Y-219381D01*
X111501Y-219381D01*
X111499Y-219402D01*
X111497Y-219420D01*
X111497Y-219420D01*
X111497Y-219420D01*
X111492Y-219437D01*
X111486Y-219457D01*
X111486Y-219457D01*
X111486Y-219457D01*
X111481Y-219467D01*
X111468Y-219492D01*
X111468Y-219492D01*
X111468Y-219492D01*
X111459Y-219504D01*
X111444Y-219522D01*
X111444Y-219522D01*
X111444Y-219522D01*
X111430Y-219533D01*
X111414Y-219547D01*
X111414Y-219547D01*
X111414Y-219547D01*
X111405Y-219551D01*
X111400Y-219561D01*
X111376Y-219591D01*
X111366Y-219600D01*
X111366Y-219656D01*
Y-219656D01*
Y-219656D01*
X111365Y-219672D01*
X111363Y-219695D01*
X111363Y-219695D01*
Y-219695D01*
X111357Y-219713D01*
X111352Y-219732D01*
X111352Y-219732D01*
X111352Y-219732D01*
X111341Y-219753D01*
X111334Y-219766D01*
X111334Y-219766D01*
X111334Y-219767D01*
X111314Y-219791D01*
X111310Y-219797D01*
X111310Y-219797D01*
X111310Y-219797D01*
X111299Y-219806D01*
X111300Y-219863D01*
D01*
D01*
Y-219863D01*
X111298Y-219880D01*
X111296Y-219901D01*
X111296Y-219901D01*
Y-219901D01*
X111293Y-219910D01*
X111285Y-219938D01*
X111267Y-219973D01*
X111243Y-220003D01*
X111243Y-220003D01*
X111243Y-220003D01*
X111232Y-220012D01*
X111233Y-220069D01*
Y-220069D01*
Y-220069D01*
X111230Y-220100D01*
X111229Y-220107D01*
Y-220107D01*
X111229Y-220107D01*
X111222Y-220134D01*
X111219Y-220144D01*
X111218Y-220144D01*
X111218Y-220144D01*
X111208Y-220165D01*
X111200Y-220179D01*
X111200Y-220179D01*
X111200Y-220179D01*
X111187Y-220195D01*
X111176Y-220209D01*
X111176Y-220209D01*
X111176Y-220209D01*
X111160Y-220222D01*
X111146Y-220234D01*
X111146Y-220234D01*
X111146Y-220234D01*
X111137Y-220239D01*
X111133Y-220248D01*
X111133Y-220248D01*
X111133Y-220248D01*
X111118Y-220265D01*
X111108Y-220278D01*
X111108Y-220278D01*
X111108Y-220278D01*
X111098Y-220287D01*
X111098Y-220344D01*
D01*
D01*
Y-220344D01*
X111098Y-220351D01*
X111095Y-220378D01*
X111097Y-220393D01*
X111099Y-220412D01*
X111099Y-220412D01*
X111099Y-220412D01*
X111099Y-220481D01*
Y-220481D01*
Y-220481D01*
Y-220481D01*
X111098Y-220495D01*
X111096Y-220519D01*
X111096Y-220519D01*
Y-220519D01*
X111094Y-220525D01*
X111085Y-220556D01*
X111067Y-220591D01*
X111067Y-220591D01*
X111067Y-220591D01*
X111054Y-220608D01*
X111043Y-220621D01*
X111043Y-220621D01*
X111043Y-220621D01*
X111032Y-220630D01*
X111033Y-220687D01*
D01*
D01*
Y-220687D01*
X111032Y-220697D01*
X111029Y-220725D01*
X111018Y-220762D01*
X111018Y-220762D01*
D01*
X111016Y-220766D01*
X111000Y-220797D01*
X111000Y-220797D01*
X111000Y-220797D01*
X110988Y-220813D01*
X110976Y-220827D01*
X110976Y-220827D01*
X110976Y-220827D01*
X110966Y-220836D01*
X110966Y-220893D01*
Y-220893D01*
Y-220893D01*
Y-220893D01*
X110965Y-220909D01*
X110963Y-220927D01*
X110967Y-220961D01*
X110967Y-221030D01*
Y-221030D01*
Y-221030D01*
X110966Y-221045D01*
X110964Y-221068D01*
X110964Y-221068D01*
Y-221068D01*
X110961Y-221079D01*
X110953Y-221106D01*
X110953Y-221106D01*
Y-221106D01*
X110951Y-221110D01*
X110935Y-221140D01*
X110935Y-221140D01*
X110935Y-221140D01*
X110926Y-221150D01*
X110911Y-221170D01*
X110910Y-221170D01*
X110910Y-221170D01*
X110900Y-221179D01*
X110901Y-221236D01*
Y-221236D01*
Y-221236D01*
Y-221236D01*
X110899Y-221255D01*
X110897Y-221274D01*
X110897Y-221274D01*
X110897Y-221274D01*
X110893Y-221290D01*
X110886Y-221311D01*
X110886Y-221311D01*
X110886Y-221311D01*
X110882Y-221320D01*
X110868Y-221346D01*
X110868Y-221346D01*
Y-221346D01*
X110865Y-221350D01*
X110844Y-221376D01*
X110844Y-221376D01*
X110844Y-221376D01*
X110833Y-221385D01*
X110834Y-221442D01*
Y-221442D01*
Y-221442D01*
X110833Y-221457D01*
X110831Y-221476D01*
X110835Y-221510D01*
X110835Y-221579D01*
Y-221579D01*
Y-221579D01*
X110833Y-221600D01*
X110832Y-221613D01*
X110834Y-221635D01*
X110836Y-221647D01*
Y-221647D01*
Y-221647D01*
X110836Y-221716D01*
D01*
D01*
Y-221716D01*
X110835Y-221733D01*
X110833Y-221754D01*
X110833Y-221754D01*
Y-221754D01*
X110830Y-221763D01*
X110822Y-221791D01*
X110804Y-221826D01*
X110804Y-221826D01*
D01*
X110803Y-221827D01*
X110780Y-221856D01*
X110780Y-221856D01*
X110780Y-221856D01*
X110769Y-221865D01*
X110770Y-221922D01*
Y-221922D01*
Y-221922D01*
X110768Y-221942D01*
X110766Y-221960D01*
X110766Y-221960D01*
Y-221960D01*
X110760Y-221982D01*
X110755Y-221997D01*
X110755Y-221997D01*
X110755Y-221997D01*
X110744Y-222019D01*
X110737Y-222032D01*
X110737Y-222032D01*
X110737Y-222032D01*
X110723Y-222049D01*
X110713Y-222062D01*
X110713Y-222062D01*
X110713Y-222062D01*
X110702Y-222071D01*
X110703Y-222128D01*
Y-222128D01*
D01*
X110704Y-222196D01*
Y-222196D01*
D01*
X110704Y-222265D01*
D01*
D01*
Y-222265D01*
X110703Y-222272D01*
X110701Y-222299D01*
X110705Y-222333D01*
X110705Y-222402D01*
Y-222402D01*
Y-222402D01*
X110704Y-222412D01*
X110702Y-222436D01*
X110704Y-222452D01*
X110706Y-222470D01*
Y-222470D01*
Y-222470D01*
X110706Y-222539D01*
Y-222539D01*
Y-222539D01*
X110705Y-222552D01*
X110703Y-222573D01*
X110707Y-222607D01*
X110708Y-222675D01*
Y-222675D01*
Y-222676D01*
X110707Y-222686D01*
X110705Y-222710D01*
X110707Y-222733D01*
X110708Y-222744D01*
Y-222744D01*
Y-222744D01*
X110709Y-222812D01*
Y-222812D01*
Y-222813D01*
Y-222813D01*
X110708Y-222826D01*
X110706Y-222847D01*
X110708Y-222865D01*
X110710Y-222881D01*
X110710Y-222949D01*
Y-222950D01*
Y-222950D01*
X110707Y-222988D01*
X110697Y-223021D01*
X110696Y-223025D01*
Y-223025D01*
X110696Y-223025D01*
X110685Y-223045D01*
X110678Y-223060D01*
X110678Y-223060D01*
X110678Y-223060D01*
X110665Y-223075D01*
X110653Y-223090D01*
X110653Y-223090D01*
X110653Y-223090D01*
X110643Y-223099D01*
X110643Y-223155D01*
Y-223155D01*
D01*
X110644Y-223224D01*
D01*
X110644Y-223281D01*
X110655Y-223289D01*
X110655Y-223289D01*
X110655Y-223289D01*
X110669Y-223306D01*
X110680Y-223319D01*
X110680Y-223319D01*
X110680Y-223319D01*
X110694Y-223345D01*
X110698Y-223353D01*
Y-223353D01*
X110699Y-223353D01*
X110707Y-223381D01*
X110710Y-223390D01*
Y-223390D01*
X110710Y-223390D01*
X110712Y-223411D01*
X110714Y-223429D01*
Y-223429D01*
Y-223429D01*
X110715Y-223497D01*
Y-223497D01*
Y-223497D01*
X110714Y-223511D01*
X110711Y-223536D01*
X110711Y-223536D01*
Y-223536D01*
X110710Y-223541D01*
X110701Y-223573D01*
X110686Y-223600D01*
X110696Y-223619D01*
X110701Y-223627D01*
Y-223627D01*
X110701Y-223627D01*
X110710Y-223655D01*
X110713Y-223664D01*
Y-223664D01*
X110713Y-223664D01*
X110715Y-223685D01*
X110717Y-223703D01*
Y-223703D01*
Y-223703D01*
X110717Y-223771D01*
Y-223771D01*
D01*
X110714Y-223805D01*
X110716Y-223822D01*
X110718Y-223840D01*
Y-223840D01*
Y-223840D01*
X110718Y-223908D01*
Y-223908D01*
Y-223908D01*
Y-223908D01*
X110717Y-223921D01*
X110715Y-223942D01*
X110717Y-223954D01*
X110719Y-223977D01*
X110720Y-224045D01*
Y-224045D01*
D01*
X110717Y-224079D01*
X110719Y-224104D01*
X110720Y-224114D01*
Y-224114D01*
Y-224114D01*
X110721Y-224182D01*
Y-224182D01*
Y-224182D01*
Y-224182D01*
X110719Y-224198D01*
X110718Y-224216D01*
X110721Y-224251D01*
X110722Y-224319D01*
X110722Y-224319D01*
X110722Y-224319D01*
X110723Y-224388D01*
Y-224388D01*
X110723Y-224444D01*
X110726Y-224447D01*
X110734Y-224453D01*
X110734Y-224453D01*
X110734Y-224453D01*
X110749Y-224472D01*
X110759Y-224483D01*
X110759Y-224483D01*
X110759Y-224483D01*
X110770Y-224503D01*
X110777Y-224517D01*
X110777Y-224517D01*
X110777Y-224517D01*
X110786Y-224546D01*
X110789Y-224554D01*
Y-224554D01*
X110789Y-224554D01*
X110791Y-224576D01*
X110793Y-224592D01*
X110793Y-224592D01*
X110793Y-224592D01*
X110793Y-224661D01*
Y-224661D01*
Y-224661D01*
X110794Y-224729D01*
Y-224729D01*
X110795Y-224786D01*
X110805Y-224795D01*
X110805Y-224795D01*
X110805Y-224795D01*
X110819Y-224811D01*
X110830Y-224825D01*
X110830Y-224825D01*
X110830Y-224825D01*
X110839Y-224840D01*
X110849Y-224859D01*
X110849Y-224859D01*
X110849Y-224859D01*
X110853Y-224872D01*
X110860Y-224896D01*
Y-224896D01*
X110860Y-224896D01*
X110862Y-224916D01*
X110864Y-224934D01*
Y-224934D01*
Y-224934D01*
X110865Y-225003D01*
Y-225003D01*
Y-225003D01*
Y-225003D01*
X110863Y-225022D01*
X110862Y-225037D01*
X110864Y-225059D01*
X110866Y-225071D01*
Y-225071D01*
Y-225071D01*
X110866Y-225128D01*
X110877Y-225137D01*
X110877Y-225137D01*
X110877Y-225137D01*
X110886Y-225147D01*
X110901Y-225166D01*
X110902Y-225166D01*
X110902Y-225166D01*
X110905Y-225172D01*
X110920Y-225200D01*
X110920Y-225200D01*
Y-225201D01*
X110922Y-225205D01*
X110932Y-225237D01*
Y-225237D01*
X110932Y-225237D01*
X110933Y-225251D01*
X110936Y-225276D01*
X110936Y-225344D01*
Y-225344D01*
D01*
X110933Y-225379D01*
X110937Y-225413D01*
X110938Y-225470D01*
X110948Y-225478D01*
X110948Y-225478D01*
X110948Y-225478D01*
X110973Y-225508D01*
X110984Y-225528D01*
X110992Y-225542D01*
X110992Y-225542D01*
D01*
X110992Y-225544D01*
X111003Y-225579D01*
X111007Y-225618D01*
X111008Y-225686D01*
Y-225686D01*
Y-225686D01*
X111007Y-225699D01*
X111005Y-225721D01*
X111007Y-225742D01*
X111009Y-225755D01*
X111009Y-225812D01*
X111020Y-225820D01*
X111042Y-225847D01*
X111044Y-225850D01*
Y-225850D01*
X111044Y-225850D01*
X111049Y-225859D01*
X111058Y-225864D01*
X111077Y-225879D01*
X111089Y-225888D01*
X111089Y-225888D01*
X111089Y-225888D01*
X111114Y-225918D01*
X111124Y-225938D01*
X111132Y-225952D01*
X111132Y-225952D01*
D01*
X111133Y-225954D01*
X111144Y-225989D01*
X111148Y-226027D01*
Y-226027D01*
Y-226027D01*
X111148Y-226096D01*
D01*
D01*
Y-226096D01*
X111148Y-226103D01*
X111145Y-226130D01*
X111149Y-226164D01*
X111150Y-226221D01*
X111160Y-226230D01*
X111160Y-226230D01*
X111160Y-226230D01*
X111171Y-226242D01*
X111185Y-226260D01*
X111185Y-226260D01*
X111185Y-226260D01*
X111190Y-226269D01*
X111199Y-226273D01*
X111199Y-226273D01*
X111199Y-226273D01*
X111210Y-226282D01*
X111229Y-226298D01*
X111229Y-226298D01*
X111229Y-226298D01*
X111238Y-226308D01*
X111254Y-226328D01*
X111254Y-226328D01*
X111254Y-226328D01*
X111256Y-226332D01*
X111273Y-226362D01*
X111273Y-226362D01*
X111273Y-226362D01*
X111278Y-226380D01*
X111284Y-226399D01*
Y-226399D01*
X111284Y-226399D01*
X111287Y-226421D01*
X111288Y-226437D01*
X111289Y-226506D01*
Y-226506D01*
D01*
X111286Y-226540D01*
X111288Y-226561D01*
X111300Y-226571D01*
X111300Y-226571D01*
X111300Y-226571D01*
X111314Y-226587D01*
X111325Y-226601D01*
X111325Y-226601D01*
X111325Y-226601D01*
X111334Y-226617D01*
X111344Y-226635D01*
X111344Y-226635D01*
X111344Y-226635D01*
X111348Y-226649D01*
X111355Y-226672D01*
Y-226672D01*
X111355Y-226672D01*
X111357Y-226692D01*
X111358Y-226698D01*
X111370Y-226707D01*
X111370Y-226708D01*
X111370Y-226708D01*
X111383Y-226724D01*
X111395Y-226737D01*
X111395Y-226737D01*
X111395Y-226737D01*
X111403Y-226753D01*
X111413Y-226771D01*
X111413Y-226771D01*
X111413Y-226771D01*
X111418Y-226785D01*
X111425Y-226808D01*
Y-226808D01*
X111425Y-226808D01*
X111427Y-226828D01*
X111429Y-226847D01*
Y-226847D01*
Y-226847D01*
X111429Y-226904D01*
X111440Y-226912D01*
X111440Y-226912D01*
X111440Y-226912D01*
X111453Y-226928D01*
X111465Y-226942D01*
X111465Y-226942D01*
X111465Y-226942D01*
X111470Y-226951D01*
X111479Y-226956D01*
X111509Y-226980D01*
X111534Y-227010D01*
X111553Y-227044D01*
X111564Y-227081D01*
X111568Y-227120D01*
X111569Y-227176D01*
X111579Y-227185D01*
X111579Y-227185D01*
X111580Y-227185D01*
X111588Y-227196D01*
X111604Y-227215D01*
X111604Y-227215D01*
X111604Y-227215D01*
X111608Y-227221D01*
X111623Y-227249D01*
X111623Y-227249D01*
Y-227249D01*
X111624Y-227253D01*
X111634Y-227286D01*
Y-227286D01*
X111634Y-227286D01*
X111636Y-227300D01*
X111639Y-227324D01*
X111639Y-227381D01*
X111650Y-227390D01*
X111650Y-227390D01*
X111650Y-227390D01*
X111658Y-227400D01*
X111674Y-227419D01*
X111678Y-227427D01*
X111693Y-227454D01*
X111705Y-227491D01*
X111707Y-227517D01*
X111719Y-227526D01*
X111719Y-227526D01*
X111719Y-227526D01*
X111737Y-227548D01*
X111744Y-227556D01*
X111744Y-227556D01*
X111744Y-227556D01*
X111755Y-227576D01*
X111763Y-227590D01*
X111763Y-227590D01*
X111763Y-227590D01*
X111767Y-227602D01*
X111774Y-227627D01*
X111774Y-227627D01*
X111774Y-227627D01*
X111776Y-227642D01*
X111777Y-227653D01*
X111789Y-227662D01*
X111789Y-227663D01*
X111789Y-227663D01*
X111802Y-227679D01*
X111814Y-227692D01*
X111814Y-227692D01*
X111814Y-227692D01*
X111819Y-227701D01*
X111828Y-227706D01*
X111828Y-227706D01*
D01*
X111829Y-227707D01*
X111858Y-227730D01*
X111858Y-227730D01*
X111858Y-227730D01*
X111867Y-227741D01*
X111883Y-227760D01*
X111883Y-227760D01*
X111883Y-227760D01*
X111886Y-227766D01*
X111888Y-227769D01*
X111897Y-227774D01*
X111897Y-227774D01*
X111897Y-227774D01*
X111914Y-227788D01*
X111927Y-227798D01*
X111927Y-227798D01*
X111927Y-227798D01*
X111947Y-227822D01*
X111952Y-227828D01*
Y-227828D01*
X111952Y-227828D01*
X111964Y-227850D01*
X111971Y-227862D01*
X111971Y-227862D01*
X111971Y-227862D01*
X111974Y-227874D01*
X111982Y-227899D01*
Y-227899D01*
X111982Y-227899D01*
X111984Y-227913D01*
X111986Y-227938D01*
Y-227938D01*
Y-227938D01*
X111987Y-227995D01*
X111997Y-228003D01*
X112011Y-228019D01*
X112022Y-228033D01*
X112027Y-228042D01*
X112036Y-228047D01*
X112066Y-228071D01*
X112091Y-228101D01*
X112110Y-228135D01*
X112121Y-228172D01*
X112126Y-228210D01*
X112126Y-228267D01*
X112137Y-228276D01*
X112137Y-228276D01*
X112137Y-228276D01*
X112149Y-228291D01*
X112162Y-228306D01*
X112162Y-228306D01*
X112162Y-228306D01*
X112167Y-228315D01*
X112176Y-228320D01*
X112206Y-228344D01*
X112231Y-228374D01*
X112236Y-228383D01*
X112245Y-228387D01*
X112245Y-228387D01*
X112245D01*
X112249Y-228391D01*
X112275Y-228412D01*
X112275Y-228412D01*
X112275Y-228412D01*
X112286Y-228426D01*
X112300Y-228441D01*
X112300Y-228441D01*
X112300Y-228442D01*
X112305Y-228450D01*
X112314Y-228455D01*
X112332Y-228470D01*
X112344Y-228480D01*
X112344Y-228480D01*
X112344Y-228480D01*
X112369Y-228509D01*
X112386Y-228540D01*
X112387Y-228543D01*
D01*
X112388Y-228543D01*
X112391Y-228554D01*
X112399Y-228580D01*
X112403Y-228619D01*
X112404Y-228676D01*
X112414Y-228684D01*
X112414Y-228684D01*
X112414Y-228684D01*
X112423Y-228694D01*
X112439Y-228714D01*
X112444Y-228723D01*
X112453Y-228728D01*
X112483Y-228752D01*
X112508Y-228782D01*
X112513Y-228791D01*
X112522Y-228796D01*
X112543Y-228813D01*
X112552Y-228820D01*
X112552Y-228820D01*
X112552Y-228820D01*
X112569Y-228840D01*
X112577Y-228850D01*
X112577Y-228850D01*
X112577Y-228850D01*
X112582Y-228859D01*
X112591Y-228864D01*
X112591Y-228864D01*
X112591Y-228864D01*
X112602Y-228872D01*
X112621Y-228888D01*
X112621Y-228888D01*
X112622Y-228888D01*
X112628Y-228896D01*
X112646Y-228918D01*
X112665Y-228952D01*
X112665Y-228952D01*
X112665Y-228952D01*
X112669Y-228966D01*
X112677Y-228989D01*
Y-228989D01*
X112677Y-228989D01*
X112679Y-229009D01*
X112679Y-229015D01*
X112691Y-229024D01*
X112691Y-229024D01*
X112691Y-229024D01*
X112706Y-229042D01*
X112716Y-229054D01*
X112716Y-229054D01*
X112716Y-229054D01*
X112726Y-229072D01*
X112735Y-229088D01*
X112735Y-229088D01*
X112735Y-229088D01*
X112742Y-229111D01*
X112765Y-229118D01*
X112799Y-229136D01*
X112799Y-229136D01*
X112799Y-229136D01*
X112810Y-229145D01*
X112829Y-229160D01*
X112829Y-229160D01*
X112829Y-229160D01*
X112843Y-229176D01*
X112854Y-229190D01*
X112854Y-229190D01*
X112854Y-229190D01*
X112861Y-229203D01*
X112873Y-229224D01*
X112873Y-229224D01*
Y-229224D01*
X112874Y-229227D01*
X112884Y-229261D01*
X112884Y-229261D01*
D01*
X112884Y-229262D01*
X112889Y-229299D01*
X112889Y-229368D01*
Y-229368D01*
Y-229368D01*
X112888Y-229384D01*
X112886Y-229407D01*
X112886Y-229407D01*
Y-229407D01*
X112884Y-229413D01*
X112875Y-229444D01*
X112875Y-229444D01*
D01*
X112857Y-229478D01*
X112840Y-229499D01*
X112832Y-229508D01*
X112832Y-229508D01*
X112832Y-229508D01*
X112815Y-229523D01*
X112803Y-229533D01*
X112803Y-229533D01*
X112803Y-229533D01*
X112785Y-229543D01*
X112769Y-229552D01*
X112769Y-229552D01*
X112769Y-229552D01*
X112753Y-229557D01*
X112732Y-229563D01*
X112732D01*
X112732Y-229563D01*
X112712Y-229566D01*
X112693Y-229568D01*
X112693D01*
X112693D01*
X112556Y-229569D01*
D01*
D01*
X112556D01*
X112539Y-229567D01*
X112517Y-229565D01*
X112517Y-229565D01*
X112517D01*
X112504Y-229561D01*
X112480Y-229554D01*
X112480Y-229554D01*
D01*
X112446Y-229536D01*
X112425Y-229520D01*
X112416Y-229512D01*
X112416Y-229512D01*
X112416Y-229512D01*
X112401Y-229494D01*
X112391Y-229482D01*
X112391Y-229482D01*
X112391Y-229482D01*
X112386Y-229473D01*
X112377Y-229468D01*
X112347Y-229444D01*
X112338Y-229434D01*
X112281Y-229434D01*
X112281D01*
X112281D01*
X112281D01*
X112264Y-229433D01*
X112242Y-229431D01*
X112242Y-229431D01*
X112242D01*
X112227Y-229426D01*
X112205Y-229420D01*
X112205Y-229420D01*
X112205Y-229420D01*
X112189Y-229411D01*
X112171Y-229402D01*
X112171Y-229402D01*
X112171Y-229402D01*
X112155Y-229389D01*
X112141Y-229378D01*
X112141Y-229377D01*
X112141Y-229377D01*
X112132Y-229367D01*
X112075Y-229367D01*
X112075Y-229367D01*
X112075Y-229367D01*
X112054Y-229366D01*
X112036Y-229364D01*
X112036Y-229364D01*
X112036Y-229364D01*
X112019Y-229359D01*
X111999Y-229353D01*
X111999Y-229353D01*
X111999Y-229353D01*
X111989Y-229348D01*
X111965Y-229335D01*
X111965Y-229335D01*
X111965Y-229335D01*
X111953Y-229325D01*
X111935Y-229311D01*
X111935Y-229311D01*
X111934Y-229311D01*
X111923Y-229297D01*
X111910Y-229281D01*
X111910Y-229281D01*
X111910Y-229281D01*
X111905Y-229272D01*
X111896Y-229267D01*
X111865Y-229243D01*
X111856Y-229231D01*
X111830Y-229229D01*
X111793Y-229218D01*
X111793D01*
X111793Y-229218D01*
X111758Y-229200D01*
X111734Y-229181D01*
X111728Y-229176D01*
X111728Y-229176D01*
X111728Y-229176D01*
X111718Y-229164D01*
X111703Y-229163D01*
X111692Y-229162D01*
X111692D01*
X111692Y-229162D01*
X111670Y-229155D01*
X111655Y-229151D01*
X111655Y-229151D01*
X111655Y-229151D01*
X111640Y-229143D01*
X111621Y-229133D01*
X111621Y-229133D01*
X111621Y-229133D01*
X111607Y-229121D01*
X111590Y-229108D01*
X111590Y-229108D01*
X111590Y-229108D01*
X111583Y-229099D01*
X111566Y-229079D01*
X111566Y-229079D01*
X111565Y-229079D01*
X111561Y-229069D01*
X111551Y-229065D01*
X111521Y-229040D01*
X111521Y-229040D01*
X111521Y-229040D01*
X111517Y-229035D01*
X111513Y-229030D01*
X111456Y-229030D01*
X111456D01*
X111456D01*
X111456D01*
X111425Y-229028D01*
X111417Y-229027D01*
X111417D01*
X111417Y-229027D01*
X111387Y-229018D01*
X111380Y-229016D01*
X111380Y-229016D01*
X111380Y-229016D01*
X111361Y-229006D01*
X111346Y-228998D01*
X111346Y-228998D01*
X111346Y-228998D01*
X111335Y-228989D01*
X111315Y-228974D01*
X111315Y-228974D01*
X111315Y-228974D01*
X111302Y-228958D01*
X111291Y-228944D01*
X111291Y-228944D01*
X111290Y-228944D01*
X111285Y-228935D01*
X111276Y-228930D01*
X111246Y-228906D01*
X111221Y-228876D01*
X111216Y-228867D01*
X111207Y-228862D01*
X111207Y-228862D01*
X111207Y-228862D01*
X111192Y-228850D01*
X111177Y-228838D01*
X111177Y-228838D01*
X111177Y-228838D01*
X111167Y-228826D01*
X111152Y-228808D01*
X111152Y-228808D01*
X111152Y-228808D01*
X111147Y-228799D01*
X111138Y-228794D01*
X111138Y-228794D01*
X111138Y-228794D01*
X111123Y-228782D01*
X111108Y-228770D01*
X111108Y-228770D01*
X111108Y-228770D01*
X111099Y-228760D01*
X111042Y-228760D01*
D01*
D01*
X111042D01*
X111029Y-228759D01*
X111004Y-228757D01*
X111004Y-228757D01*
X111004D01*
X110997Y-228755D01*
X110967Y-228746D01*
X110967Y-228746D01*
D01*
X110961Y-228743D01*
X110932Y-228728D01*
X110932Y-228728D01*
X110932Y-228728D01*
X110920Y-228718D01*
X110902Y-228703D01*
X110902Y-228703D01*
X110902Y-228703D01*
X110890Y-228689D01*
X110877Y-228674D01*
X110877Y-228674D01*
X110877Y-228674D01*
X110871Y-228661D01*
X110859Y-228640D01*
X110859Y-228640D01*
D01*
X110851Y-228617D01*
X110828Y-228610D01*
X110828Y-228610D01*
X110828D01*
X110824Y-228607D01*
X110794Y-228592D01*
X110794Y-228592D01*
X110794Y-228592D01*
X110780Y-228581D01*
X110764Y-228568D01*
X110764Y-228568D01*
X110764Y-228568D01*
X110753Y-228554D01*
X110739Y-228538D01*
X110739Y-228538D01*
X110739Y-228538D01*
X110734Y-228529D01*
X110725Y-228524D01*
X110725Y-228524D01*
X110725Y-228524D01*
X110709Y-228512D01*
X110695Y-228500D01*
X110695Y-228500D01*
X110695Y-228500D01*
X110685Y-228488D01*
X110670Y-228470D01*
X110670Y-228470D01*
X110670Y-228470D01*
X110665Y-228461D01*
X110656Y-228456D01*
X110656Y-228456D01*
X110656D01*
X110649Y-228451D01*
X110626Y-228432D01*
X110626Y-228432D01*
X110626Y-228432D01*
X110609Y-228412D01*
X110601Y-228402D01*
X110601Y-228402D01*
X110601Y-228402D01*
X110596Y-228393D01*
X110587Y-228388D01*
X110587Y-228388D01*
X110587Y-228388D01*
X110569Y-228374D01*
X110557Y-228364D01*
X110557Y-228364D01*
X110557Y-228364D01*
X110543Y-228348D01*
X110532Y-228334D01*
X110532Y-228334D01*
X110532Y-228334D01*
X110527Y-228325D01*
X110518Y-228320D01*
X110518Y-228320D01*
D01*
X110517Y-228319D01*
X110487Y-228296D01*
X110487Y-228296D01*
X110487Y-228296D01*
X110478Y-228285D01*
X110463Y-228266D01*
X110463Y-228266D01*
X110463Y-228266D01*
X110459Y-228260D01*
X110458Y-228257D01*
X110449Y-228253D01*
X110449Y-228253D01*
X110449D01*
X110442Y-228247D01*
X110418Y-228228D01*
X110418Y-228228D01*
X110418Y-228228D01*
X110409Y-228218D01*
X110394Y-228199D01*
X110394Y-228198D01*
X110394Y-228198D01*
X110389Y-228189D01*
X110380Y-228185D01*
X110349Y-228160D01*
X110325Y-228131D01*
X110321Y-228125D01*
X110320Y-228121D01*
X110311Y-228117D01*
X110311Y-228117D01*
X110310Y-228117D01*
X110293Y-228103D01*
X110280Y-228093D01*
X110280Y-228093D01*
X110280Y-228093D01*
X110271Y-228082D01*
X110256Y-228063D01*
X110256Y-228063D01*
X110256Y-228063D01*
X110252Y-228056D01*
X110251Y-228054D01*
X110241Y-228049D01*
X110241Y-228049D01*
X110241Y-228049D01*
X110227Y-228038D01*
X110211Y-228025D01*
X110211Y-228025D01*
X110211Y-228025D01*
X110196Y-228006D01*
X110186Y-227995D01*
X110186Y-227995D01*
X110186Y-227995D01*
X110181Y-227986D01*
X110172Y-227981D01*
X110172Y-227981D01*
X110172Y-227981D01*
X110160Y-227971D01*
X110142Y-227957D01*
X110142Y-227957D01*
X110142Y-227957D01*
X110133Y-227946D01*
X110117Y-227927D01*
X110117Y-227927D01*
X110117Y-227927D01*
X110113Y-227920D01*
X110112Y-227918D01*
X110103Y-227913D01*
X110073Y-227889D01*
X110073Y-227889D01*
X110073Y-227889D01*
X110048Y-227859D01*
X110043Y-227850D01*
X110034Y-227845D01*
X110034Y-227845D01*
X110034Y-227845D01*
X110017Y-227832D01*
X110004Y-227821D01*
X110004Y-227821D01*
X110004Y-227821D01*
X109991Y-227805D01*
X109979Y-227791D01*
X109979Y-227791D01*
X109979Y-227791D01*
X109974Y-227782D01*
X109965Y-227777D01*
X109965Y-227777D01*
D01*
X109964Y-227777D01*
X109935Y-227753D01*
X109935Y-227753D01*
X109935Y-227753D01*
X109926Y-227742D01*
X109910Y-227723D01*
X109910Y-227723D01*
X109910Y-227723D01*
X109907Y-227717D01*
X109891Y-227689D01*
X109891Y-227689D01*
Y-227689D01*
X109884Y-227666D01*
X109865Y-227661D01*
X109861Y-227660D01*
X109861D01*
X109861Y-227660D01*
X109842Y-227649D01*
X109827Y-227642D01*
X109827Y-227642D01*
X109827Y-227642D01*
X109814Y-227631D01*
X109797Y-227617D01*
X109797Y-227617D01*
X109797Y-227617D01*
X109790Y-227609D01*
X109772Y-227588D01*
X109753Y-227554D01*
X109742Y-227517D01*
X109738Y-227478D01*
X109738Y-227478D01*
X109737Y-227421D01*
X109727Y-227413D01*
X109727Y-227413D01*
X109727Y-227412D01*
X109715Y-227399D01*
X109702Y-227383D01*
X109702Y-227383D01*
X109702Y-227383D01*
X109697Y-227374D01*
X109688Y-227369D01*
X109688Y-227369D01*
X109687Y-227369D01*
X109671Y-227355D01*
X109657Y-227345D01*
X109657Y-227345D01*
X109657Y-227344D01*
X109646Y-227331D01*
X109633Y-227315D01*
X109633Y-227315D01*
X109633Y-227315D01*
X109628Y-227306D01*
X109619Y-227301D01*
X109600Y-227286D01*
X109588Y-227277D01*
X109588Y-227277D01*
X109588Y-227277D01*
X109564Y-227247D01*
X109559Y-227238D01*
X109549Y-227233D01*
X109519Y-227209D01*
X109519Y-227209D01*
X109519Y-227209D01*
X109511Y-227199D01*
X109494Y-227179D01*
X109476Y-227145D01*
D01*
X109476Y-227145D01*
X109473Y-227134D01*
X109464Y-227108D01*
X109461Y-227082D01*
X109460Y-227080D01*
X109450Y-227073D01*
X109450Y-227073D01*
X109450Y-227072D01*
X109436Y-227056D01*
X109425Y-227043D01*
X109425Y-227043D01*
X109425Y-227043D01*
X109415Y-227025D01*
X109406Y-227009D01*
X109406Y-227009D01*
X109406Y-227009D01*
X109399Y-226986D01*
X109395Y-226972D01*
X109395Y-226972D01*
X109395Y-226972D01*
X109392Y-226951D01*
X109392Y-226946D01*
X109380Y-226936D01*
X109380Y-226936D01*
X109380Y-226936D01*
X109355Y-226906D01*
X109350Y-226897D01*
X109341Y-226893D01*
X109341Y-226892D01*
X109341Y-226892D01*
X109330Y-226884D01*
X109311Y-226868D01*
X109311Y-226868D01*
X109311Y-226868D01*
X109302Y-226858D01*
X109286Y-226838D01*
X109286Y-226838D01*
X109286Y-226838D01*
X109284Y-226835D01*
X109281Y-226829D01*
X109272Y-226825D01*
X109242Y-226800D01*
X109217Y-226770D01*
X109198Y-226736D01*
X109187Y-226699D01*
X109183Y-226661D01*
X109182Y-226604D01*
X109178Y-226601D01*
X109171Y-226595D01*
X109171Y-226595D01*
X109171Y-226595D01*
X109147Y-226566D01*
X109142Y-226557D01*
X109133Y-226552D01*
X109133Y-226552D01*
X109133Y-226552D01*
X109117Y-226539D01*
X109102Y-226528D01*
X109102Y-226528D01*
X109102Y-226528D01*
X109094Y-226518D01*
X109078Y-226498D01*
X109074Y-226491D01*
X109059Y-226464D01*
X109047Y-226427D01*
X109045Y-226399D01*
X109043Y-226388D01*
Y-226388D01*
Y-226388D01*
X109043Y-226331D01*
X109032Y-226323D01*
X109032Y-226323D01*
X109032Y-226323D01*
X109023Y-226312D01*
X109007Y-226293D01*
X109007Y-226293D01*
X109007Y-226293D01*
X109002Y-226284D01*
X108993Y-226279D01*
X108993Y-226279D01*
X108993Y-226279D01*
X108975Y-226265D01*
X108963Y-226255D01*
X108963Y-226255D01*
X108963Y-226255D01*
X108949Y-226238D01*
X108938Y-226225D01*
X108938Y-226225D01*
X108938Y-226225D01*
X108930Y-226209D01*
X108920Y-226191D01*
X108920Y-226191D01*
X108920Y-226191D01*
X108910Y-226161D01*
X108908Y-226154D01*
Y-226154D01*
X108908Y-226154D01*
X108905Y-226131D01*
X108904Y-226116D01*
X108904Y-226115D01*
X108904Y-226115D01*
X108903Y-226059D01*
X108901Y-226057D01*
X108893Y-226050D01*
X108893Y-226050D01*
X108893Y-226050D01*
X108877Y-226031D01*
X108868Y-226020D01*
X108868Y-226020D01*
X108868Y-226020D01*
X108863Y-226011D01*
X108854Y-226007D01*
X108830Y-225987D01*
X108824Y-225982D01*
X108824Y-225982D01*
X108824Y-225982D01*
X108799Y-225952D01*
X108782Y-225922D01*
X108780Y-225918D01*
D01*
X108780Y-225918D01*
X108777Y-225908D01*
X108769Y-225881D01*
X108765Y-225843D01*
Y-225843D01*
Y-225843D01*
X108764Y-225774D01*
D01*
D01*
Y-225774D01*
X108765Y-225767D01*
X108767Y-225740D01*
X108765Y-225718D01*
X108753Y-225709D01*
X108753Y-225709D01*
X108753Y-225709D01*
X108744Y-225698D01*
X108728Y-225679D01*
X108728Y-225679D01*
X108728Y-225679D01*
X108726Y-225675D01*
X108709Y-225645D01*
X108709Y-225645D01*
X108709Y-225645D01*
X108705Y-225631D01*
X108698Y-225608D01*
Y-225608D01*
X108698Y-225608D01*
X108696Y-225588D01*
X108695Y-225582D01*
X108683Y-225572D01*
X108658Y-225543D01*
X108640Y-225509D01*
X108628Y-225472D01*
X108624Y-225433D01*
X108623Y-225365D01*
Y-225365D01*
Y-225365D01*
Y-225365D01*
X108626Y-225337D01*
X108626Y-225330D01*
X108625Y-225321D01*
X108624Y-225309D01*
X108612Y-225299D01*
X108612Y-225299D01*
X108612Y-225299D01*
X108601Y-225285D01*
X108588Y-225269D01*
X108588Y-225269D01*
X108587Y-225269D01*
X108578Y-225252D01*
X108569Y-225235D01*
X108569Y-225235D01*
X108569Y-225235D01*
X108560Y-225207D01*
X108557Y-225198D01*
Y-225198D01*
X108557Y-225198D01*
X108555Y-225176D01*
X108554Y-225172D01*
X108543Y-225163D01*
X108543Y-225163D01*
X108543Y-225163D01*
X108534Y-225152D01*
X108518Y-225133D01*
X108518Y-225133D01*
X108518Y-225133D01*
X108514Y-225127D01*
X108499Y-225099D01*
X108499Y-225099D01*
Y-225099D01*
X108498Y-225094D01*
X108488Y-225062D01*
Y-225062D01*
X108488Y-225062D01*
X108486Y-225048D01*
X108484Y-225023D01*
X108483Y-224955D01*
Y-224955D01*
D01*
X108486Y-224921D01*
X108484Y-224904D01*
X108482Y-224886D01*
Y-224886D01*
Y-224886D01*
X108482Y-224830D01*
X108471Y-224821D01*
X108471Y-224821D01*
X108471Y-224821D01*
X108446Y-224791D01*
X108429Y-224760D01*
X108428Y-224757D01*
D01*
X108428Y-224757D01*
X108424Y-224747D01*
X108416Y-224720D01*
X108412Y-224682D01*
X108412Y-224625D01*
X108401Y-224616D01*
X108376Y-224586D01*
X108357Y-224552D01*
X108346Y-224515D01*
X108342Y-224477D01*
X108341Y-224408D01*
D01*
D01*
Y-224408D01*
X108344Y-224374D01*
X108341Y-224340D01*
X108340Y-224271D01*
Y-224271D01*
X108339Y-224203D01*
X108339Y-224203D01*
X108339Y-224203D01*
X108339Y-224146D01*
X108328Y-224137D01*
X108328Y-224137D01*
X108328Y-224137D01*
X108315Y-224121D01*
X108303Y-224108D01*
X108303Y-224108D01*
X108303Y-224108D01*
X108292Y-224088D01*
X108285Y-224074D01*
X108285Y-224074D01*
X108285Y-224074D01*
X108281Y-224062D01*
X108273Y-224037D01*
X108273Y-224037D01*
D01*
X108273Y-224035D01*
X108269Y-223998D01*
X108268Y-223930D01*
Y-223930D01*
Y-223930D01*
X108268Y-223861D01*
D01*
X108267Y-223804D01*
X108257Y-223796D01*
X108257Y-223796D01*
X108257Y-223796D01*
X108248Y-223785D01*
X108232Y-223766D01*
X108232Y-223766D01*
X108232Y-223766D01*
X108228Y-223759D01*
X108213Y-223732D01*
X108213Y-223732D01*
X108213Y-223732D01*
X108208Y-223716D01*
X108202Y-223695D01*
Y-223695D01*
X108202Y-223695D01*
X108199Y-223672D01*
X108198Y-223656D01*
X108197Y-223588D01*
D01*
D01*
Y-223588D01*
X108199Y-223569D01*
X108200Y-223553D01*
X108198Y-223530D01*
X108196Y-223519D01*
Y-223519D01*
Y-223519D01*
X108196Y-223451D01*
Y-223451D01*
Y-223451D01*
Y-223451D01*
X108197Y-223435D01*
X108199Y-223416D01*
X108197Y-223402D01*
X108195Y-223382D01*
X108195Y-223314D01*
Y-223314D01*
Y-223314D01*
X108197Y-223283D01*
X108198Y-223280D01*
X108196Y-223264D01*
X108194Y-223245D01*
Y-223245D01*
Y-223245D01*
X108193Y-223177D01*
D01*
X108193Y-223108D01*
Y-223108D01*
D01*
X108192Y-223040D01*
D01*
D01*
Y-223040D01*
X108193Y-223032D01*
X108195Y-223006D01*
X108192Y-222972D01*
Y-222972D01*
Y-222972D01*
X108191Y-222903D01*
Y-222903D01*
D01*
X108191Y-222834D01*
D01*
X108190Y-222766D01*
Y-222766D01*
Y-222766D01*
X108192Y-222745D01*
X108193Y-222732D01*
X108189Y-222697D01*
X108189Y-222629D01*
X108192Y-222595D01*
X108188Y-222561D01*
X108187Y-222492D01*
Y-222492D01*
Y-222492D01*
X108189Y-222470D01*
X108191Y-222453D01*
X108191Y-222453D01*
Y-222453D01*
X108197Y-222431D01*
X108202Y-222416D01*
X108202Y-222416D01*
X108202Y-222416D01*
X108213Y-222395D01*
X108220Y-222382D01*
X108220Y-222382D01*
X108220Y-222382D01*
X108234Y-222365D01*
X108244Y-222352D01*
X108244Y-222352D01*
X108244Y-222352D01*
X108255Y-222343D01*
X108254Y-222286D01*
Y-222286D01*
Y-222286D01*
X108254Y-222217D01*
X108253Y-222149D01*
Y-222149D01*
Y-222149D01*
Y-222149D01*
X108255Y-222130D01*
X108256Y-222115D01*
X108252Y-222081D01*
X108252Y-222012D01*
D01*
D01*
Y-222012D01*
X108253Y-221995D01*
X108255Y-221973D01*
X108255Y-221973D01*
Y-221973D01*
X108260Y-221956D01*
X108266Y-221936D01*
X108266Y-221936D01*
X108266Y-221936D01*
X108277Y-221915D01*
X108284Y-221902D01*
X108284Y-221902D01*
X108284Y-221902D01*
X108298Y-221885D01*
X108308Y-221872D01*
X108308Y-221872D01*
X108308Y-221872D01*
X108319Y-221863D01*
X108318Y-221806D01*
D01*
D01*
Y-221806D01*
X108320Y-221789D01*
X108322Y-221767D01*
X108322Y-221767D01*
Y-221767D01*
X108327Y-221750D01*
X108333Y-221730D01*
X108333Y-221730D01*
X108333Y-221730D01*
X108344Y-221709D01*
X108351Y-221696D01*
X108351Y-221696D01*
X108351Y-221696D01*
X108365Y-221679D01*
X108375Y-221666D01*
X108375Y-221666D01*
X108375Y-221666D01*
X108386Y-221657D01*
X108385Y-221600D01*
Y-221600D01*
Y-221600D01*
X108387Y-221578D01*
X108389Y-221561D01*
X108389Y-221561D01*
Y-221561D01*
X108393Y-221547D01*
X108399Y-221524D01*
X108399Y-221524D01*
Y-221524D01*
X108401Y-221521D01*
X108417Y-221490D01*
X108417Y-221490D01*
D01*
X108418Y-221489D01*
X108442Y-221460D01*
X108442Y-221460D01*
X108442Y-221460D01*
X108452Y-221451D01*
X108452Y-221394D01*
Y-221394D01*
Y-221394D01*
X108454Y-221373D01*
X108455Y-221356D01*
X108455Y-221355D01*
Y-221355D01*
X108464Y-221327D01*
X108466Y-221318D01*
X108466Y-221318D01*
X108466Y-221318D01*
X108484Y-221284D01*
X108509Y-221254D01*
X108519Y-221245D01*
X108519Y-221188D01*
Y-221188D01*
Y-221188D01*
Y-221188D01*
X108521Y-221160D01*
X108522Y-221149D01*
Y-221149D01*
X108522Y-221149D01*
X108529Y-221124D01*
X108533Y-221112D01*
X108533Y-221112D01*
X108533Y-221112D01*
X108541Y-221096D01*
X108551Y-221078D01*
X108551Y-221078D01*
X108551Y-221078D01*
X108560Y-221067D01*
X108575Y-221048D01*
X108575Y-221048D01*
X108575Y-221048D01*
X108586Y-221039D01*
X108586Y-221039D01*
X108585Y-220982D01*
Y-220982D01*
Y-220982D01*
Y-220982D01*
X108587Y-220967D01*
X108589Y-220943D01*
X108589Y-220943D01*
Y-220943D01*
X108592Y-220931D01*
X108599Y-220906D01*
X108599Y-220906D01*
X108599Y-220906D01*
X108608Y-220890D01*
X108617Y-220872D01*
X108617Y-220872D01*
X108617Y-220872D01*
X108623Y-220865D01*
X108642Y-220842D01*
X108671Y-220817D01*
X108672Y-220817D01*
X108672Y-220817D01*
X108681Y-220812D01*
X108685Y-220803D01*
X108685Y-220803D01*
X108685Y-220803D01*
X108710Y-220773D01*
X108720Y-220764D01*
X108720Y-220707D01*
Y-220707D01*
D01*
X108723Y-220668D01*
X108734Y-220631D01*
X108752Y-220597D01*
X108776Y-220567D01*
X108806Y-220542D01*
X108815Y-220537D01*
X108820Y-220528D01*
X108820Y-220528D01*
D01*
X108821Y-220527D01*
X108844Y-220497D01*
X108844Y-220497D01*
X108844Y-220497D01*
X108855Y-220489D01*
X108854Y-220432D01*
D01*
D01*
Y-220432D01*
X108858Y-220393D01*
X108867Y-220360D01*
X108869Y-220356D01*
Y-220356D01*
X108869Y-220356D01*
X108875Y-220343D01*
X108887Y-220322D01*
X108911Y-220291D01*
X108911Y-220291D01*
X108911Y-220291D01*
X108921Y-220283D01*
X108941Y-220267D01*
X108950Y-220262D01*
X108955Y-220252D01*
X108955Y-220252D01*
X108955Y-220252D01*
X108968Y-220235D01*
X108979Y-220222D01*
X108979Y-220222D01*
X108979Y-220222D01*
X109002Y-220203D01*
X109009Y-220197D01*
X109009D01*
X109009Y-220197D01*
X109018Y-220193D01*
X109022Y-220183D01*
X109022Y-220183D01*
X109022Y-220183D01*
X109031Y-220173D01*
X109047Y-220153D01*
X109047Y-220153D01*
X109047Y-220153D01*
X109057Y-220144D01*
X109076Y-220128D01*
X109077Y-220128D01*
X109077Y-220128D01*
X109084Y-220124D01*
X109086Y-220123D01*
X109090Y-220114D01*
X109090Y-220114D01*
X109090Y-220114D01*
X109104Y-220097D01*
X109115Y-220084D01*
X109115Y-220084D01*
X109115Y-220084D01*
X109128Y-220073D01*
X109144Y-220059D01*
X109144Y-220059D01*
X109144Y-220059D01*
X109153Y-220054D01*
X109158Y-220046D01*
X109153Y-220049D01*
X109125Y-220064D01*
X109125Y-220064D01*
X109125D01*
X109120Y-220066D01*
X109088Y-220076D01*
X109088D01*
X109088Y-220076D01*
X109074Y-220077D01*
X109049Y-220080D01*
X108981Y-220080D01*
X108981D01*
X108981D01*
X108958Y-220079D01*
X108942Y-220077D01*
X108942Y-220077D01*
X108942D01*
X108920Y-220071D01*
X108905Y-220066D01*
X108905Y-220066D01*
X108905Y-220066D01*
X108884Y-220055D01*
X108870Y-220048D01*
X108870Y-220048D01*
X108870Y-220048D01*
X108853Y-220034D01*
X108840Y-220024D01*
X108840Y-220024D01*
X108840Y-220024D01*
X108821Y-220000D01*
X108815Y-219994D01*
Y-219994D01*
X108815Y-219994D01*
X108810Y-219985D01*
X108801Y-219980D01*
X108771Y-219956D01*
X108771Y-219956D01*
X108771Y-219956D01*
X108763Y-219946D01*
X108746Y-219926D01*
X108728Y-219892D01*
X108728Y-219892D01*
D01*
X108727Y-219890D01*
X108716Y-219855D01*
X108712Y-219817D01*
X108711Y-219748D01*
D01*
D01*
Y-219748D01*
X108715Y-219709D01*
X108721Y-219688D01*
X108726Y-219672D01*
X108726Y-219672D01*
D01*
X108728Y-219669D01*
X108744Y-219638D01*
X108744Y-219638D01*
X108744Y-219638D01*
X108756Y-219622D01*
X108768Y-219608D01*
X108768Y-219608D01*
X108768Y-219608D01*
X108774Y-219603D01*
X108798Y-219583D01*
X108807Y-219578D01*
X108812Y-219569D01*
X108812Y-219569D01*
X108812Y-219569D01*
X108826Y-219551D01*
X108836Y-219539D01*
X108836Y-219539D01*
X108836Y-219539D01*
X108846Y-219530D01*
X108846Y-219473D01*
Y-219473D01*
Y-219473D01*
X108847Y-219463D01*
X108849Y-219434D01*
X108860Y-219397D01*
Y-219397D01*
X108860Y-219397D01*
X108878Y-219363D01*
X108897Y-219339D01*
X108903Y-219333D01*
X108903Y-219333D01*
X108903Y-219333D01*
X108932Y-219308D01*
X108941Y-219303D01*
X108946Y-219294D01*
X108961Y-219275D01*
X108970Y-219264D01*
X108970Y-219264D01*
X108970Y-219264D01*
X108981Y-219255D01*
X108981Y-219198D01*
Y-219198D01*
D01*
X108984Y-219159D01*
X108995Y-219122D01*
X109013Y-219088D01*
X109037Y-219057D01*
X109067Y-219033D01*
X109076Y-219028D01*
X109081Y-219019D01*
X109081Y-219019D01*
X109081Y-219019D01*
X109092Y-219005D01*
X109105Y-218988D01*
X109105Y-218988D01*
X109105Y-218988D01*
X109116Y-218980D01*
X109115Y-218923D01*
Y-218923D01*
Y-218923D01*
X109116Y-218911D01*
X109119Y-218884D01*
X109119Y-218884D01*
Y-218884D01*
X109120Y-218879D01*
X109130Y-218847D01*
X109146Y-218816D01*
X109148Y-218813D01*
X109162Y-218794D01*
X109172Y-218782D01*
X109172Y-218782D01*
X109172Y-218782D01*
X109202Y-218758D01*
X109211Y-218753D01*
X109215Y-218743D01*
X109240Y-218713D01*
X109250Y-218705D01*
X109250Y-218648D01*
D01*
D01*
Y-218648D01*
X109251Y-218630D01*
X109253Y-218609D01*
X109253Y-218609D01*
Y-218609D01*
X109256Y-218600D01*
X109264Y-218572D01*
X109282Y-218537D01*
X109282Y-218537D01*
X109282Y-218537D01*
X109296Y-218520D01*
X109306Y-218507D01*
X109306Y-218507D01*
X109306Y-218507D01*
X109317Y-218498D01*
X109336Y-218482D01*
X109336Y-218482D01*
X109336Y-218482D01*
X109345Y-218478D01*
X109350Y-218468D01*
X109350Y-218468D01*
X109350Y-218468D01*
X109365Y-218449D01*
X109374Y-218438D01*
X109374Y-218438D01*
X109374Y-218438D01*
X109395Y-218421D01*
X109404Y-218413D01*
X109404Y-218413D01*
X109404Y-218413D01*
X109413Y-218408D01*
X109418Y-218399D01*
X109442Y-218369D01*
X109453Y-218360D01*
X109452Y-218303D01*
Y-218303D01*
Y-218303D01*
X109454Y-218283D01*
X109456Y-218265D01*
X109456Y-218265D01*
Y-218265D01*
X109462Y-218243D01*
X109467Y-218228D01*
X109467Y-218228D01*
X109467Y-218228D01*
X109478Y-218207D01*
X109484Y-218193D01*
X109485Y-218193D01*
X109485Y-218193D01*
X109498Y-218176D01*
X109509Y-218163D01*
X109509Y-218163D01*
X109509Y-218163D01*
X109532Y-218143D01*
X109538Y-218138D01*
X109538D01*
X109539Y-218138D01*
X109548Y-218133D01*
X109552Y-218124D01*
X109552Y-218124D01*
X109552Y-218124D01*
X109566Y-218107D01*
X109577Y-218094D01*
X109577Y-218094D01*
X109577Y-218094D01*
X109587Y-218085D01*
X109588Y-218084D01*
X109589Y-218077D01*
X109591Y-218058D01*
X109591Y-218058D01*
X109591Y-218058D01*
X109596Y-218041D01*
X109602Y-218021D01*
X109602Y-218021D01*
X109602Y-218021D01*
X109607Y-218011D01*
X109620Y-217987D01*
X109620Y-217987D01*
X109620Y-217987D01*
X109629Y-217974D01*
X109644Y-217956D01*
X109644Y-217956D01*
X109644Y-217956D01*
X109656Y-217947D01*
X109658Y-217921D01*
X109669Y-217884D01*
X109669Y-217883D01*
D01*
X109687Y-217849D01*
X109702Y-217831D01*
X109711Y-217819D01*
X109711Y-217819D01*
X109711Y-217819D01*
X109723Y-217809D01*
X109741Y-217794D01*
X109741Y-217794D01*
X109741Y-217794D01*
X109747Y-217791D01*
X109750Y-217789D01*
X109755Y-217780D01*
X109755Y-217780D01*
X109755Y-217780D01*
X109779Y-217750D01*
X109793Y-217738D01*
X109809Y-217725D01*
X109818Y-217720D01*
X109823Y-217711D01*
X109842Y-217687D01*
X109847Y-217681D01*
X109847Y-217681D01*
X109847Y-217681D01*
X109877Y-217656D01*
X109886Y-217651D01*
X109891Y-217642D01*
X109915Y-217612D01*
X109945Y-217587D01*
X109954Y-217582D01*
X109958Y-217573D01*
X109959Y-217573D01*
X109959Y-217573D01*
X109971Y-217557D01*
X109983Y-217543D01*
X109983Y-217543D01*
X109983Y-217543D01*
X109993Y-217534D01*
X109993Y-217477D01*
X109996Y-217438D01*
X110007Y-217401D01*
X110025Y-217367D01*
X110049Y-217337D01*
X110079Y-217312D01*
X110088Y-217307D01*
X110093Y-217298D01*
X110093Y-217298D01*
X110093Y-217298D01*
X110105Y-217283D01*
X110117Y-217268D01*
X110117Y-217268D01*
X110117Y-217267D01*
X110130Y-217257D01*
X110147Y-217243D01*
X110147Y-217243D01*
X110147Y-217243D01*
X110156Y-217238D01*
X110161Y-217229D01*
X110185Y-217198D01*
X110185Y-217198D01*
X110185Y-217198D01*
X110195Y-217190D01*
X110215Y-217174D01*
X110224Y-217169D01*
X110229Y-217160D01*
X110253Y-217129D01*
X110283Y-217104D01*
X110292Y-217099D01*
X110297Y-217090D01*
X110321Y-217060D01*
X110351Y-217035D01*
X110360Y-217031D01*
X110364Y-217021D01*
X110365Y-217021D01*
X110365Y-217021D01*
X110377Y-217006D01*
X110389Y-216991D01*
X110389Y-216991D01*
X110389Y-216991D01*
X110401Y-216981D01*
X110403Y-216955D01*
X110414Y-216918D01*
X110432Y-216884D01*
X110456Y-216854D01*
X110468Y-216844D01*
X110470Y-216818D01*
X110481Y-216781D01*
X110481Y-216781D01*
D01*
X110483Y-216777D01*
X110499Y-216746D01*
X110523Y-216716D01*
X110523D01*
Y-216716D01*
X110553Y-216691D01*
X110587Y-216673D01*
X110610Y-216666D01*
X110617Y-216642D01*
X110617Y-216642D01*
X110617Y-216642D01*
X110624Y-216629D01*
X110635Y-216608D01*
X110635Y-216608D01*
Y-216608D01*
X110642Y-216600D01*
X110659Y-216578D01*
X110659Y-216578D01*
X110659Y-216578D01*
X110677Y-216563D01*
X110689Y-216553D01*
X110689Y-216553D01*
X110689Y-216553D01*
X110717Y-216538D01*
X110723Y-216534D01*
X110723D01*
X110723Y-216534D01*
X110746Y-216527D01*
X110750Y-216513D01*
X110753Y-216504D01*
X110753Y-216504D01*
X110753Y-216504D01*
X110766Y-216479D01*
X110771Y-216470D01*
X110771Y-216470D01*
X110771Y-216470D01*
X110784Y-216453D01*
X110795Y-216440D01*
X110795Y-216440D01*
X110795Y-216440D01*
X110815Y-216423D01*
X110825Y-216415D01*
X110825Y-216415D01*
X110825Y-216415D01*
X110859Y-216396D01*
X110882Y-216389D01*
X110884Y-216381D01*
X110888Y-216366D01*
X110888Y-216366D01*
X110888Y-216366D01*
X110899Y-216345D01*
X110906Y-216332D01*
X110906Y-216332D01*
X110906Y-216332D01*
X110920Y-216315D01*
X110931Y-216302D01*
X110931Y-216302D01*
X110931Y-216302D01*
X110954Y-216282D01*
X110960Y-216277D01*
X110960D01*
X110960Y-216277D01*
X110982Y-216265D01*
X110995Y-216258D01*
X110995Y-216258D01*
X110995Y-216258D01*
X111007Y-216254D01*
X111018Y-216251D01*
X111024Y-216228D01*
X111042Y-216194D01*
X111042Y-216194D01*
X111042Y-216194D01*
X111051Y-216183D01*
X111066Y-216163D01*
X111067Y-216163D01*
X111067Y-216163D01*
X111083Y-216150D01*
X111096Y-216139D01*
X111096Y-216139D01*
X111096Y-216139D01*
X111112Y-216130D01*
X111130Y-216120D01*
X111130Y-216120D01*
X111130Y-216120D01*
X111144Y-216116D01*
X111153Y-216113D01*
X111160Y-216090D01*
X111178Y-216055D01*
X111178Y-216055D01*
X111178Y-216055D01*
X111192Y-216038D01*
X111202Y-216025D01*
X111202Y-216025D01*
X111202Y-216025D01*
X111213Y-216016D01*
X111232Y-216001D01*
X111232Y-216001D01*
X111232Y-216001D01*
X111241Y-215995D01*
X111266Y-215982D01*
X111266Y-215982D01*
X111266Y-215982D01*
X111278Y-215978D01*
X111303Y-215970D01*
X111303D01*
X111303Y-215970D01*
X111319Y-215969D01*
X111342Y-215966D01*
X111360Y-215966D01*
X111364Y-215951D01*
X111364Y-215951D01*
X111364Y-215951D01*
X111372Y-215936D01*
X111382Y-215917D01*
X111382Y-215917D01*
X111382Y-215917D01*
X111394Y-215902D01*
X111406Y-215887D01*
X111406Y-215887D01*
X111407Y-215886D01*
X111423Y-215873D01*
X111436Y-215862D01*
X111436Y-215862D01*
X111436Y-215862D01*
X111452Y-215853D01*
X111470Y-215843D01*
X111470Y-215843D01*
X111470Y-215843D01*
X111488Y-215838D01*
X111507Y-215832D01*
X111507Y-215832D01*
X111507Y-215831D01*
X111526Y-215829D01*
X111533Y-215829D01*
X111543Y-215817D01*
X111543Y-215817D01*
X111543Y-215817D01*
X111554Y-215808D01*
X111573Y-215792D01*
X111573Y-215792D01*
X111573Y-215792D01*
X111579Y-215789D01*
X111582Y-215787D01*
X111586Y-215778D01*
X111586Y-215778D01*
X111586Y-215778D01*
X111600Y-215761D01*
X111611Y-215748D01*
X111611Y-215748D01*
X111611Y-215748D01*
X111621Y-215739D01*
X111641Y-215723D01*
X111641Y-215723D01*
X111641Y-215723D01*
X111648Y-215719D01*
X111650Y-215718D01*
X111654Y-215709D01*
X111679Y-215679D01*
X111679Y-215679D01*
X111679Y-215679D01*
X111708Y-215654D01*
X111717Y-215649D01*
X111722Y-215640D01*
X111747Y-215610D01*
X111776Y-215585D01*
X111785Y-215580D01*
X111790Y-215571D01*
X111798Y-215561D01*
X111814Y-215541D01*
X111844Y-215516D01*
X111844Y-215516D01*
X111844Y-215516D01*
X111850Y-215512D01*
X111853Y-215511D01*
X111858Y-215502D01*
X111858Y-215502D01*
X111858Y-215502D01*
X111871Y-215486D01*
X111882Y-215472D01*
X111882Y-215472D01*
X111882Y-215472D01*
X111895Y-215461D01*
X111912Y-215447D01*
X111912Y-215447D01*
X111912Y-215447D01*
X111918Y-215443D01*
X111946Y-215428D01*
X111946Y-215428D01*
X111946D01*
X111950Y-215427D01*
X111983Y-215417D01*
X111983Y-215417D01*
X111983D01*
X111994Y-215415D01*
X112022Y-215412D01*
X112079Y-215412D01*
X112087Y-215401D01*
X112109Y-215383D01*
X112117Y-215376D01*
X112117Y-215376D01*
X112117Y-215376D01*
X112126Y-215371D01*
X112131Y-215362D01*
X112131Y-215362D01*
X112131Y-215362D01*
X112145Y-215344D01*
X112155Y-215332D01*
X112155Y-215332D01*
X112155Y-215332D01*
X112172Y-215318D01*
X112185Y-215307D01*
X112185Y-215307D01*
X112185Y-215307D01*
X112194Y-215302D01*
X112199Y-215293D01*
X112223Y-215263D01*
X112253Y-215238D01*
X112262Y-215233D01*
X112267Y-215224D01*
X112267Y-215224D01*
X112267Y-215224D01*
X112280Y-215207D01*
X112291Y-215194D01*
X112291Y-215194D01*
X112291Y-215194D01*
X112302Y-215185D01*
X112320Y-215169D01*
X112321Y-215169D01*
X112321Y-215169D01*
X112331Y-215163D01*
X112355Y-215151D01*
X112355Y-215151D01*
X112355Y-215150D01*
X112369Y-215146D01*
X112392Y-215139D01*
X112392D01*
X112392Y-215139D01*
X112413Y-215137D01*
X112430Y-215135D01*
X112487Y-215134D01*
X112496Y-215124D01*
X112496Y-215124D01*
X112496Y-215124D01*
X112509Y-215112D01*
X112525Y-215099D01*
X112525Y-215099D01*
X112525Y-215099D01*
X112534Y-215094D01*
X112539Y-215085D01*
X112564Y-215055D01*
X112564Y-215055D01*
X112564Y-215055D01*
X112573Y-215046D01*
X112593Y-215030D01*
X112602Y-215025D01*
X112607Y-215016D01*
X112607Y-215016D01*
D01*
X112608Y-215015D01*
X112631Y-214986D01*
X112631Y-214986D01*
X112631Y-214985D01*
X112644Y-214975D01*
X112661Y-214961D01*
X112661Y-214961D01*
X112661Y-214961D01*
X112666Y-214958D01*
X112695Y-214942D01*
X112732Y-214931D01*
X112732Y-214931D01*
X112732D01*
X112742Y-214930D01*
X112771Y-214926D01*
X112828Y-214926D01*
X112836Y-214915D01*
X112836Y-214915D01*
X112836Y-214915D01*
X112842Y-214911D01*
X112866Y-214891D01*
X112875Y-214885D01*
X112880Y-214877D01*
X112880Y-214877D01*
X112880Y-214876D01*
X112888Y-214866D01*
X112904Y-214846D01*
X112904Y-214846D01*
X112904Y-214846D01*
X112914Y-214838D01*
X112934Y-214821D01*
X112934Y-214821D01*
X112934Y-214821D01*
X112943Y-214816D01*
X112948Y-214807D01*
X112972Y-214777D01*
X112999Y-214755D01*
X113002Y-214752D01*
X113002D01*
X113002Y-214752D01*
X113036Y-214734D01*
X113059Y-214726D01*
X113073Y-214722D01*
X113073D01*
X113073Y-214722D01*
X113086Y-214721D01*
X113111Y-214718D01*
X113111D01*
X113111D01*
X113168Y-214718D01*
X113177Y-214707D01*
X113177D01*
Y-214707D01*
X113182Y-214703D01*
X113207Y-214682D01*
X113219Y-214675D01*
X113241Y-214664D01*
X113269Y-214655D01*
X113278Y-214652D01*
X113316Y-214648D01*
X113373Y-214647D01*
X113382Y-214637D01*
X113382Y-214637D01*
X113382Y-214637D01*
X113401Y-214620D01*
X113411Y-214612D01*
X113411Y-214612D01*
X113411Y-214612D01*
X113420Y-214607D01*
X113425Y-214598D01*
X113442Y-214577D01*
X113450Y-214567D01*
X113450Y-214567D01*
X113450Y-214567D01*
X113467Y-214553D01*
X113479Y-214543D01*
X113479Y-214543D01*
X113479Y-214543D01*
X113507Y-214528D01*
X113513Y-214524D01*
X113513D01*
X113513Y-214524D01*
X113534Y-214517D01*
X113550Y-214512D01*
X113550D01*
X113550Y-214512D01*
X113568Y-214511D01*
X113589Y-214508D01*
X113589D01*
X113589D01*
X113646Y-214508D01*
X113654Y-214497D01*
X113654Y-214497D01*
X113654Y-214497D01*
X113678Y-214478D01*
X113684Y-214472D01*
X113684D01*
X113684Y-214472D01*
X113706Y-214461D01*
X113718Y-214454D01*
X113718Y-214454D01*
X113718Y-214454D01*
X113730Y-214450D01*
X113755Y-214442D01*
X113755D01*
X113755Y-214442D01*
X113769Y-214441D01*
X113794Y-214438D01*
X113794D01*
X113794D01*
X113851Y-214438D01*
X113859Y-214427D01*
X113859Y-214427D01*
X113859Y-214427D01*
X113875Y-214413D01*
X113889Y-214402D01*
X113889Y-214402D01*
X113889Y-214402D01*
X113898Y-214397D01*
X113903Y-214388D01*
X113927Y-214358D01*
X113927Y-214358D01*
X113927Y-214358D01*
X113942Y-214346D01*
X113957Y-214333D01*
X113957Y-214333D01*
X113957Y-214333D01*
X113965Y-214329D01*
X113991Y-214315D01*
X114028Y-214303D01*
X114067Y-214299D01*
X114123Y-214298D01*
X114132Y-214288D01*
X114132Y-214288D01*
X114132Y-214288D01*
X114146Y-214276D01*
X114162Y-214263D01*
X114162Y-214263D01*
X114162Y-214263D01*
X114179Y-214253D01*
X114196Y-214244D01*
X114196Y-214244D01*
X114196Y-214244D01*
X114225Y-214235D01*
X114233Y-214233D01*
X114233D01*
X114233Y-214233D01*
X114256Y-214230D01*
X114271Y-214229D01*
X114271Y-214229D01*
X114271Y-214229D01*
X114328Y-214228D01*
X114337Y-214217D01*
X114337Y-214217D01*
X114337Y-214217D01*
X114366Y-214193D01*
X114397Y-214176D01*
X114401Y-214174D01*
D01*
X114401Y-214174D01*
X114411Y-214171D01*
X114438Y-214162D01*
X114476Y-214158D01*
X114545Y-214158D01*
X114545D01*
X114545D01*
X114555Y-214159D01*
X114579Y-214161D01*
X114598Y-214159D01*
X114613Y-214157D01*
X114670Y-214157D01*
X114679Y-214146D01*
X114679Y-214146D01*
X114679Y-214146D01*
X114686Y-214140D01*
X114708Y-214121D01*
X114742Y-214103D01*
X114779Y-214091D01*
X114779D01*
X114779Y-214091D01*
X114801Y-214089D01*
X114818Y-214087D01*
X114875Y-214086D01*
X114883Y-214076D01*
X114883Y-214076D01*
X114883Y-214076D01*
X114894Y-214067D01*
X114913Y-214051D01*
X114913Y-214051D01*
X114913Y-214051D01*
X114922Y-214046D01*
X114947Y-214032D01*
X114947Y-214032D01*
X114947Y-214032D01*
X114960Y-214028D01*
X114984Y-214021D01*
X114984Y-214021D01*
X114984Y-214021D01*
X114999Y-214019D01*
X115023Y-214017D01*
X115091Y-214016D01*
X115091D01*
X115091D01*
X115112Y-214018D01*
X115126Y-214019D01*
X115160Y-214015D01*
X115160D01*
X115160D01*
X115354Y-214014D01*
X115362Y-214003D01*
X115362Y-214003D01*
X115362Y-214003D01*
X115392Y-213978D01*
X115423Y-213961D01*
X115426Y-213960D01*
D01*
X115426Y-213960D01*
X115436Y-213956D01*
X115463Y-213948D01*
X115501Y-213944D01*
X115501D01*
X115501D01*
X115570Y-213943D01*
X115570D01*
X115570D01*
X115604Y-213946D01*
X115638Y-213943D01*
X115707Y-213942D01*
X115707D01*
X115707D01*
X115728Y-213944D01*
D02*
G37*
G36*
X124061Y-220239D02*
X124087Y-220242D01*
X124087Y-220242D01*
X124087D01*
X124091Y-220243D01*
X124124Y-220253D01*
X124125Y-220253D01*
X124125D01*
X124130Y-220255D01*
X124159Y-220271D01*
X124159Y-220271D01*
X124159Y-220271D01*
X124172Y-220282D01*
X124189Y-220295D01*
X124189Y-220295D01*
X124189Y-220295D01*
X124207Y-220317D01*
X124214Y-220325D01*
X124214Y-220325D01*
X124214Y-220325D01*
X124223Y-220342D01*
X124232Y-220359D01*
X124232Y-220359D01*
X124232Y-220359D01*
X124235Y-220368D01*
X124244Y-220396D01*
X124244Y-220396D01*
X124244Y-220396D01*
X124246Y-220410D01*
X124248Y-220434D01*
X124249Y-220503D01*
X124249Y-220503D01*
X124249Y-220503D01*
X124249Y-220571D01*
Y-220571D01*
X124250Y-220640D01*
X124250Y-220708D01*
Y-220708D01*
Y-220708D01*
X124251Y-220777D01*
Y-220777D01*
X124252Y-220845D01*
Y-220845D01*
Y-220845D01*
X124252Y-220914D01*
Y-220914D01*
D01*
X124249Y-220948D01*
X124250Y-220958D01*
X124253Y-220982D01*
X124253Y-221051D01*
Y-221051D01*
D01*
X124250Y-221085D01*
X124251Y-221094D01*
X124254Y-221119D01*
Y-221119D01*
Y-221119D01*
X124255Y-221187D01*
Y-221187D01*
Y-221187D01*
Y-221188D01*
X124253Y-221206D01*
X124252Y-221222D01*
X124253Y-221239D01*
X124255Y-221256D01*
X124256Y-221325D01*
D01*
D01*
Y-221325D01*
X124253Y-221359D01*
X124256Y-221393D01*
X124257Y-221462D01*
Y-221462D01*
D01*
X124254Y-221500D01*
X124243Y-221537D01*
X124225Y-221572D01*
X124200Y-221602D01*
X124190Y-221611D01*
X124190Y-221668D01*
Y-221668D01*
D01*
X124191Y-221736D01*
D01*
X124192Y-221804D01*
D01*
D01*
Y-221804D01*
X124188Y-221839D01*
X124190Y-221854D01*
X124192Y-221873D01*
X124193Y-221941D01*
Y-221941D01*
Y-221941D01*
X124190Y-221973D01*
X124189Y-221980D01*
Y-221980D01*
X124189Y-221980D01*
X124181Y-222007D01*
X124178Y-222017D01*
X124178Y-222017D01*
X124178Y-222017D01*
X124168Y-222038D01*
X124160Y-222052D01*
X124160Y-222052D01*
X124160Y-222052D01*
X124141Y-222076D01*
X124136Y-222082D01*
X124136Y-222082D01*
X124136Y-222082D01*
X124126Y-222091D01*
X124126Y-222147D01*
Y-222147D01*
Y-222147D01*
X124124Y-222168D01*
X124123Y-222182D01*
X124127Y-222216D01*
X124127Y-222284D01*
Y-222284D01*
Y-222285D01*
Y-222285D01*
X124126Y-222298D01*
X124124Y-222319D01*
X124128Y-222353D01*
X124128Y-222421D01*
Y-222422D01*
Y-222422D01*
X124127Y-222437D01*
X124125Y-222460D01*
X124125Y-222460D01*
Y-222460D01*
X124122Y-222471D01*
X124114Y-222497D01*
X124114Y-222497D01*
Y-222497D01*
X124112Y-222501D01*
X124096Y-222532D01*
X124096Y-222532D01*
X124096Y-222532D01*
X124088Y-222542D01*
X124072Y-222562D01*
X124072Y-222562D01*
X124072Y-222562D01*
X124061Y-222571D01*
X124062Y-222627D01*
Y-222627D01*
Y-222628D01*
X124060Y-222641D01*
X124058Y-222666D01*
X124058Y-222666D01*
Y-222666D01*
X124057Y-222671D01*
X124047Y-222703D01*
X124029Y-222738D01*
X124005Y-222768D01*
X124005Y-222768D01*
X124005Y-222768D01*
X123995Y-222777D01*
X123995Y-222833D01*
Y-222833D01*
Y-222833D01*
Y-222834D01*
X123994Y-222846D01*
X123992Y-222868D01*
X123993Y-222877D01*
X123996Y-222902D01*
Y-222902D01*
Y-222902D01*
X123996Y-222970D01*
D01*
D01*
Y-222971D01*
X123995Y-222988D01*
X123993Y-223009D01*
X123993Y-223009D01*
Y-223009D01*
X123988Y-223027D01*
X123982Y-223046D01*
X123982Y-223046D01*
X123982Y-223046D01*
X123971Y-223067D01*
X123964Y-223081D01*
X123964Y-223081D01*
X123964Y-223081D01*
X123950Y-223098D01*
X123940Y-223111D01*
X123940Y-223111D01*
X123940Y-223111D01*
X123929Y-223120D01*
X123930Y-223176D01*
Y-223177D01*
Y-223177D01*
X123926Y-223215D01*
X123916Y-223248D01*
X123915Y-223252D01*
Y-223252D01*
X123915Y-223252D01*
X123905Y-223272D01*
X123897Y-223287D01*
X123897Y-223287D01*
X123897Y-223287D01*
X123885Y-223302D01*
X123873Y-223317D01*
X123873Y-223317D01*
X123873Y-223317D01*
X123863Y-223325D01*
X123862Y-223326D01*
X123863Y-223382D01*
D01*
D01*
Y-223383D01*
X123861Y-223400D01*
X123860Y-223417D01*
X123863Y-223451D01*
Y-223451D01*
Y-223451D01*
X123864Y-223519D01*
Y-223519D01*
Y-223519D01*
X123861Y-223558D01*
X123851Y-223591D01*
X123850Y-223595D01*
Y-223595D01*
X123850Y-223595D01*
X123839Y-223615D01*
X123832Y-223630D01*
X123832Y-223630D01*
X123832Y-223630D01*
X123819Y-223645D01*
X123807Y-223660D01*
X123807Y-223660D01*
X123807Y-223660D01*
X123796Y-223670D01*
X123778Y-223685D01*
X123778Y-223685D01*
X123778Y-223685D01*
X123769Y-223690D01*
X123764Y-223699D01*
X123740Y-223729D01*
X123729Y-223738D01*
X123730Y-223795D01*
X123730Y-223795D01*
X123730Y-223795D01*
X123728Y-223812D01*
X123726Y-223829D01*
X123730Y-223863D01*
X123731Y-223932D01*
Y-223932D01*
Y-223932D01*
X123730Y-223942D01*
X123727Y-223970D01*
X123716Y-224008D01*
X123716Y-224008D01*
Y-224008D01*
X123711Y-224017D01*
X123698Y-224042D01*
X123698Y-224042D01*
X123698Y-224042D01*
X123684Y-224059D01*
X123674Y-224072D01*
X123674Y-224072D01*
X123674Y-224072D01*
X123654Y-224089D01*
X123644Y-224097D01*
X123644Y-224097D01*
X123644Y-224097D01*
X123635Y-224102D01*
X123630Y-224111D01*
X123606Y-224141D01*
X123596Y-224150D01*
X123596Y-224207D01*
Y-224207D01*
Y-224207D01*
X123594Y-224227D01*
X123593Y-224245D01*
X123593Y-224245D01*
Y-224245D01*
X123584Y-224274D01*
X123582Y-224282D01*
X123582Y-224283D01*
X123582Y-224283D01*
X123564Y-224317D01*
X123539Y-224347D01*
X123529Y-224356D01*
X123530Y-224413D01*
Y-224413D01*
Y-224413D01*
X123529Y-224423D01*
X123526Y-224451D01*
X123515Y-224489D01*
Y-224489D01*
X123515Y-224489D01*
X123497Y-224523D01*
X123478Y-224547D01*
X123473Y-224553D01*
X123473Y-224553D01*
X123473Y-224553D01*
X123462Y-224562D01*
X123463Y-224619D01*
Y-224619D01*
Y-224619D01*
Y-224619D01*
X123461Y-224633D01*
X123459Y-224657D01*
X123459Y-224657D01*
Y-224657D01*
X123457Y-224664D01*
X123448Y-224694D01*
X123448Y-224695D01*
Y-224695D01*
X123446Y-224699D01*
X123430Y-224729D01*
X123430Y-224729D01*
X123430Y-224729D01*
X123422Y-224740D01*
X123406Y-224759D01*
X123406Y-224759D01*
X123406Y-224759D01*
X123390Y-224773D01*
X123376Y-224784D01*
X123376Y-224784D01*
X123376Y-224784D01*
X123367Y-224789D01*
X123363Y-224798D01*
X123363Y-224798D01*
X123363Y-224798D01*
X123349Y-224815D01*
X123338Y-224828D01*
X123338Y-224828D01*
X123338Y-224828D01*
X123328Y-224837D01*
X123328Y-224894D01*
Y-224894D01*
Y-224894D01*
X123326Y-224916D01*
X123325Y-224933D01*
X123325Y-224933D01*
Y-224933D01*
X123321Y-224947D01*
X123314Y-224970D01*
X123314Y-224970D01*
Y-224970D01*
X123312Y-224973D01*
X123296Y-225004D01*
X123296Y-225004D01*
D01*
X123295Y-225005D01*
X123272Y-225034D01*
X123272Y-225034D01*
X123272Y-225034D01*
X123261Y-225043D01*
X123242Y-225059D01*
X123242Y-225059D01*
X123242Y-225059D01*
X123236Y-225062D01*
X123233Y-225064D01*
X123228Y-225073D01*
X123204Y-225103D01*
X123204Y-225103D01*
X123204Y-225103D01*
X123194Y-225112D01*
X123193Y-225112D01*
X123194Y-225169D01*
Y-225169D01*
Y-225169D01*
X123192Y-225190D01*
X123190Y-225207D01*
X123190Y-225208D01*
Y-225208D01*
X123182Y-225236D01*
X123179Y-225245D01*
X123179Y-225245D01*
X123179Y-225245D01*
X123161Y-225279D01*
X123144Y-225300D01*
X123137Y-225309D01*
X123137Y-225309D01*
X123137Y-225309D01*
X123117Y-225326D01*
X123107Y-225334D01*
X123107Y-225334D01*
X123107Y-225334D01*
X123098Y-225339D01*
X123093Y-225348D01*
X123093Y-225348D01*
X123093Y-225348D01*
X123079Y-225366D01*
X123069Y-225378D01*
X123069Y-225378D01*
X123069Y-225378D01*
X123059Y-225387D01*
X123059Y-225444D01*
X123056Y-225483D01*
X123045Y-225520D01*
X123027Y-225554D01*
X123002Y-225584D01*
X122973Y-225609D01*
X122964Y-225614D01*
X122959Y-225623D01*
X122934Y-225654D01*
X122934Y-225654D01*
X122934Y-225654D01*
X122925Y-225662D01*
X122905Y-225678D01*
X122896Y-225683D01*
X122891Y-225692D01*
X122891Y-225693D01*
D01*
X122890Y-225693D01*
X122867Y-225723D01*
X122867Y-225723D01*
X122867Y-225723D01*
X122856Y-225732D01*
X122855Y-225732D01*
X122855Y-225735D01*
X122853Y-225758D01*
X122853Y-225759D01*
Y-225759D01*
X122850Y-225769D01*
X122842Y-225796D01*
X122842Y-225796D01*
Y-225796D01*
X122839Y-225800D01*
X122824Y-225830D01*
X122824Y-225830D01*
X122824Y-225830D01*
X122815Y-225841D01*
X122799Y-225860D01*
X122799Y-225860D01*
X122799Y-225860D01*
X122788Y-225870D01*
X122787Y-225875D01*
X122785Y-225896D01*
X122785Y-225896D01*
Y-225896D01*
X122783Y-225905D01*
X122774Y-225933D01*
X122756Y-225968D01*
X122756Y-225968D01*
X122756Y-225968D01*
X122742Y-225985D01*
X122732Y-225998D01*
X122732Y-225998D01*
X122732Y-225998D01*
X122721Y-226007D01*
X122702Y-226023D01*
X122702Y-226023D01*
X122702Y-226023D01*
X122693Y-226027D01*
X122688Y-226037D01*
X122664Y-226067D01*
X122634Y-226092D01*
X122630Y-226094D01*
X122625Y-226097D01*
X122621Y-226106D01*
X122621Y-226106D01*
X122621Y-226106D01*
X122607Y-226123D01*
X122596Y-226136D01*
X122596Y-226136D01*
X122596Y-226136D01*
X122586Y-226145D01*
X122586Y-226202D01*
Y-226202D01*
Y-226202D01*
X122583Y-226240D01*
X122573Y-226273D01*
X122572Y-226277D01*
Y-226277D01*
X122572Y-226277D01*
X122562Y-226297D01*
X122554Y-226312D01*
X122554Y-226312D01*
X122554Y-226312D01*
X122541Y-226327D01*
X122530Y-226342D01*
X122530Y-226342D01*
X122530Y-226342D01*
X122518Y-226352D01*
X122500Y-226367D01*
X122500Y-226367D01*
X122500Y-226367D01*
X122491Y-226372D01*
X122486Y-226381D01*
X122486Y-226381D01*
D01*
X122485Y-226382D01*
X122462Y-226411D01*
X122462Y-226411D01*
X122462Y-226411D01*
X122451Y-226420D01*
X122432Y-226436D01*
X122432Y-226436D01*
X122432Y-226436D01*
X122423Y-226441D01*
X122418Y-226450D01*
X122418Y-226450D01*
Y-226450D01*
X122415Y-226454D01*
X122394Y-226480D01*
X122394Y-226480D01*
X122394Y-226480D01*
X122380Y-226492D01*
X122364Y-226505D01*
X122364Y-226505D01*
X122364Y-226505D01*
X122355Y-226510D01*
X122350Y-226519D01*
X122326Y-226549D01*
X122326Y-226549D01*
X122326Y-226549D01*
X122296Y-226574D01*
X122287Y-226579D01*
X122282Y-226588D01*
X122282Y-226588D01*
X122282Y-226588D01*
X122269Y-226605D01*
X122258Y-226618D01*
X122258Y-226618D01*
X122258Y-226618D01*
X122247Y-226627D01*
X122228Y-226643D01*
X122228Y-226643D01*
X122228Y-226643D01*
X122221Y-226647D01*
X122219Y-226648D01*
X122215Y-226657D01*
X122190Y-226687D01*
X122190Y-226687D01*
X122190Y-226687D01*
X122180Y-226695D01*
X122178Y-226697D01*
X122178Y-226698D01*
X122176Y-226723D01*
X122176Y-226723D01*
Y-226723D01*
X122174Y-226730D01*
X122165Y-226760D01*
X122165Y-226760D01*
D01*
X122147Y-226795D01*
X122131Y-226815D01*
X122123Y-226825D01*
X122123Y-226825D01*
X122123Y-226825D01*
X122111Y-226835D01*
X122109Y-226861D01*
X122098Y-226898D01*
X122080Y-226932D01*
X122056Y-226962D01*
X122026Y-226987D01*
X122017Y-226992D01*
X122012Y-227001D01*
X122012Y-227001D01*
X122012Y-227001D01*
X121998Y-227019D01*
X121988Y-227031D01*
X121988Y-227031D01*
X121988Y-227031D01*
X121974Y-227043D01*
X121958Y-227056D01*
X121958Y-227056D01*
X121958Y-227056D01*
X121949Y-227061D01*
X121944Y-227070D01*
X121944Y-227070D01*
X121944Y-227070D01*
X121926Y-227093D01*
X121920Y-227100D01*
X121920Y-227100D01*
X121920Y-227101D01*
X121901Y-227116D01*
X121890Y-227125D01*
X121890Y-227125D01*
X121890Y-227125D01*
X121881Y-227130D01*
X121876Y-227139D01*
X121876Y-227139D01*
Y-227139D01*
X121871Y-227146D01*
X121852Y-227170D01*
X121852Y-227170D01*
X121852Y-227170D01*
X121832Y-227186D01*
X121822Y-227194D01*
X121822Y-227194D01*
X121822Y-227194D01*
X121813Y-227199D01*
X121808Y-227209D01*
X121789Y-227232D01*
X121784Y-227239D01*
X121784Y-227239D01*
X121784Y-227239D01*
X121754Y-227264D01*
X121745Y-227269D01*
X121741Y-227278D01*
X121716Y-227308D01*
X121700Y-227321D01*
X121686Y-227333D01*
X121677Y-227338D01*
X121673Y-227347D01*
X121673Y-227347D01*
D01*
X121672Y-227348D01*
X121648Y-227377D01*
X121648Y-227377D01*
X121648Y-227377D01*
X121638Y-227386D01*
X121619Y-227402D01*
X121618Y-227402D01*
X121618Y-227402D01*
X121609Y-227407D01*
X121605Y-227416D01*
X121605Y-227416D01*
D01*
X121604Y-227417D01*
X121580Y-227446D01*
X121580Y-227446D01*
X121580Y-227446D01*
X121570Y-227455D01*
X121551Y-227471D01*
X121551Y-227471D01*
X121551Y-227471D01*
X121545Y-227474D01*
X121542Y-227476D01*
X121537Y-227485D01*
X121537Y-227485D01*
X121537Y-227485D01*
X121523Y-227502D01*
X121513Y-227515D01*
X121512Y-227515D01*
X121512Y-227515D01*
X121491Y-227533D01*
X121483Y-227540D01*
X121483Y-227540D01*
X121483Y-227540D01*
X121474Y-227545D01*
X121469Y-227554D01*
X121469Y-227554D01*
X121469Y-227554D01*
X121456Y-227570D01*
X121445Y-227584D01*
X121445Y-227584D01*
X121445Y-227584D01*
X121433Y-227594D01*
X121415Y-227609D01*
X121415Y-227609D01*
X121415Y-227609D01*
X121406Y-227614D01*
X121401Y-227623D01*
X121382Y-227647D01*
X121377Y-227653D01*
X121377Y-227653D01*
X121377Y-227653D01*
X121347Y-227678D01*
X121338Y-227683D01*
X121333Y-227692D01*
X121309Y-227722D01*
X121279Y-227747D01*
X121270Y-227752D01*
X121265Y-227761D01*
X121265Y-227761D01*
X121265Y-227761D01*
X121252Y-227778D01*
X121241Y-227791D01*
X121241Y-227791D01*
X121241Y-227791D01*
X121230Y-227800D01*
X121211Y-227816D01*
X121211Y-227816D01*
X121211Y-227816D01*
X121202Y-227821D01*
X121197Y-227830D01*
X121197Y-227830D01*
X121197Y-227830D01*
X121173Y-227860D01*
X121159Y-227872D01*
X121143Y-227885D01*
X121134Y-227890D01*
X121130Y-227899D01*
X121130Y-227899D01*
X121130Y-227899D01*
X121119Y-227912D01*
X121105Y-227929D01*
X121105Y-227929D01*
X121105Y-227929D01*
X121098Y-227936D01*
X121075Y-227954D01*
X121042Y-227973D01*
X121019Y-227980D01*
X121015Y-227993D01*
X121012Y-228003D01*
X121012Y-228003D01*
X121012Y-228003D01*
X121001Y-228024D01*
X120994Y-228037D01*
X120994Y-228037D01*
X120994Y-228038D01*
X120980Y-228054D01*
X120970Y-228068D01*
X120969Y-228068D01*
X120969Y-228068D01*
X120954Y-228081D01*
X120940Y-228093D01*
X120940Y-228093D01*
X120940Y-228093D01*
X120914Y-228107D01*
X120906Y-228111D01*
X120906D01*
X120906Y-228111D01*
X120878Y-228120D01*
X120869Y-228123D01*
X120869D01*
X120869Y-228123D01*
X120848Y-228125D01*
X120830Y-228127D01*
X120830D01*
X120830D01*
X120773Y-228127D01*
X120765Y-228138D01*
X120765Y-228138D01*
X120765Y-228138D01*
X120754Y-228147D01*
X120735Y-228163D01*
X120735Y-228163D01*
X120735Y-228163D01*
X120726Y-228168D01*
X120721Y-228177D01*
X120697Y-228207D01*
X120667Y-228232D01*
X120658Y-228237D01*
X120653Y-228246D01*
X120653Y-228246D01*
X120653Y-228246D01*
X120639Y-228264D01*
X120629Y-228276D01*
X120629Y-228276D01*
X120629Y-228276D01*
X120612Y-228290D01*
X120599Y-228301D01*
X120599Y-228301D01*
X120599Y-228301D01*
X120590Y-228306D01*
X120585Y-228315D01*
X120585Y-228315D01*
X120585Y-228315D01*
X120577Y-228326D01*
X120561Y-228345D01*
X120561Y-228345D01*
X120561Y-228345D01*
X120545Y-228359D01*
X120531Y-228370D01*
X120531Y-228370D01*
X120531Y-228370D01*
X120522Y-228375D01*
X120518Y-228384D01*
X120493Y-228414D01*
X120493D01*
Y-228414D01*
X120463Y-228439D01*
X120448Y-228448D01*
X120429Y-228458D01*
X120392Y-228469D01*
X120366Y-228472D01*
X120366Y-228472D01*
X120357Y-228484D01*
X120357Y-228484D01*
X120357Y-228484D01*
X120327Y-228509D01*
X120296Y-228526D01*
X120293Y-228527D01*
D01*
X120293Y-228527D01*
X120282Y-228531D01*
X120256Y-228539D01*
X120230Y-228542D01*
X120220Y-228554D01*
X120191Y-228578D01*
X120182Y-228583D01*
X120177Y-228592D01*
X120177Y-228592D01*
Y-228592D01*
X120171Y-228599D01*
X120152Y-228623D01*
X120152Y-228623D01*
X120152Y-228623D01*
X120133Y-228639D01*
X120123Y-228647D01*
X120123Y-228647D01*
X120123Y-228648D01*
X120114Y-228652D01*
X120109Y-228662D01*
X120109Y-228662D01*
D01*
X120108Y-228663D01*
X120085Y-228692D01*
X120085Y-228692D01*
X120085Y-228692D01*
X120074Y-228701D01*
X120055Y-228717D01*
X120055Y-228717D01*
X120055Y-228717D01*
X120049Y-228720D01*
X120046Y-228721D01*
X120041Y-228731D01*
X120017Y-228761D01*
X120017Y-228761D01*
X120017Y-228761D01*
X120003Y-228772D01*
X119987Y-228786D01*
X119987Y-228786D01*
X119987Y-228786D01*
X119975Y-228792D01*
X119953Y-228804D01*
X119953Y-228804D01*
X119953Y-228804D01*
X119944Y-228807D01*
X119916Y-228816D01*
X119916Y-228816D01*
X119916D01*
X119911Y-228816D01*
X119877Y-228820D01*
X119820Y-228820D01*
X119812Y-228831D01*
X119812Y-228831D01*
X119812Y-228831D01*
X119782Y-228856D01*
X119773Y-228861D01*
X119768Y-228870D01*
X119768Y-228870D01*
X119768Y-228870D01*
X119756Y-228886D01*
X119744Y-228900D01*
X119744Y-228900D01*
X119744Y-228900D01*
X119739Y-228905D01*
X119714Y-228925D01*
X119680Y-228944D01*
X119680Y-228944D01*
D01*
X119643Y-228955D01*
X119617Y-228958D01*
X119605Y-228959D01*
X119548Y-228960D01*
X119539Y-228970D01*
X119539Y-228971D01*
X119539Y-228971D01*
X119516Y-228990D01*
X119509Y-228995D01*
X119509D01*
X119509Y-228995D01*
X119500Y-229000D01*
X119496Y-229009D01*
X119496Y-229009D01*
X119496Y-229009D01*
X119483Y-229025D01*
X119471Y-229040D01*
X119471Y-229040D01*
X119471Y-229040D01*
X119466Y-229044D01*
X119442Y-229064D01*
X119407Y-229083D01*
X119407Y-229083D01*
D01*
X119370Y-229095D01*
X119344Y-229097D01*
X119332Y-229099D01*
X119275Y-229099D01*
X119266Y-229110D01*
X119266Y-229110D01*
X119266Y-229110D01*
X119255Y-229120D01*
X119237Y-229135D01*
X119237Y-229135D01*
X119237Y-229135D01*
X119228Y-229140D01*
X119223Y-229149D01*
X119223Y-229149D01*
X119223Y-229149D01*
X119213Y-229161D01*
X119199Y-229179D01*
X119199Y-229179D01*
X119199Y-229179D01*
X119169Y-229204D01*
X119146Y-229216D01*
X119135Y-229222D01*
X119135Y-229222D01*
D01*
X119128Y-229224D01*
X119098Y-229234D01*
X119098D01*
X119098Y-229234D01*
X119076Y-229236D01*
X119059Y-229238D01*
X119059D01*
X119059D01*
X119002Y-229239D01*
X118994Y-229249D01*
X118994Y-229249D01*
X118994Y-229249D01*
X118978Y-229263D01*
X118964Y-229274D01*
X118964Y-229274D01*
X118964Y-229274D01*
X118955Y-229279D01*
X118950Y-229288D01*
X118932Y-229311D01*
X118926Y-229318D01*
X118926D01*
Y-229318D01*
X118923Y-229321D01*
X118896Y-229343D01*
X118862Y-229362D01*
D01*
X118862Y-229362D01*
X118848Y-229366D01*
X118825Y-229373D01*
X118787Y-229377D01*
X118730Y-229378D01*
X118721Y-229388D01*
X118721D01*
Y-229388D01*
X118716Y-229393D01*
X118691Y-229413D01*
X118657Y-229432D01*
X118620Y-229444D01*
X118582Y-229448D01*
X118525Y-229448D01*
X118516Y-229459D01*
X118516Y-229459D01*
X118516Y-229459D01*
X118504Y-229469D01*
X118486Y-229484D01*
X118486Y-229484D01*
X118486Y-229484D01*
X118474Y-229490D01*
X118452Y-229502D01*
X118452Y-229502D01*
D01*
X118415Y-229514D01*
X118389Y-229517D01*
X118377Y-229518D01*
X118377D01*
X118377D01*
X118320Y-229518D01*
X118317Y-229522D01*
X118311Y-229529D01*
X118311D01*
Y-229529D01*
X118309Y-229531D01*
X118282Y-229554D01*
X118247Y-229573D01*
D01*
X118247Y-229573D01*
X118234Y-229577D01*
X118210Y-229584D01*
X118172Y-229588D01*
X118115Y-229589D01*
X118106Y-229599D01*
X118106Y-229599D01*
X118106Y-229599D01*
X118097Y-229608D01*
X118077Y-229624D01*
X118043Y-229643D01*
X118043Y-229643D01*
D01*
X118040Y-229644D01*
X118006Y-229654D01*
X117967Y-229659D01*
X117910Y-229659D01*
X117909Y-229661D01*
X117902Y-229669D01*
X117902Y-229669D01*
X117902Y-229670D01*
X117882Y-229686D01*
X117872Y-229694D01*
X117872Y-229694D01*
X117872Y-229694D01*
X117838Y-229713D01*
X117811Y-229721D01*
X117801Y-229725D01*
X117801D01*
X117801Y-229725D01*
X117785Y-229726D01*
X117762Y-229729D01*
X117762D01*
X117762D01*
X117705Y-229729D01*
X117697Y-229740D01*
X117697Y-229740D01*
X117697Y-229740D01*
X117686Y-229749D01*
X117667Y-229765D01*
X117667Y-229765D01*
X117667Y-229765D01*
X117663Y-229767D01*
X117633Y-229783D01*
X117633Y-229783D01*
X117633Y-229783D01*
X117619Y-229788D01*
X117596Y-229795D01*
X117596D01*
X117596Y-229795D01*
X117576Y-229797D01*
X117558Y-229799D01*
X117489Y-229800D01*
X117489D01*
X117489D01*
X117455Y-229797D01*
X117448Y-229797D01*
X117420Y-229800D01*
X117364Y-229801D01*
X117355Y-229811D01*
X117355Y-229811D01*
X117355Y-229811D01*
X117343Y-229821D01*
X117325Y-229836D01*
X117325Y-229836D01*
X117325Y-229836D01*
X117313Y-229843D01*
X117291Y-229855D01*
X117291Y-229855D01*
D01*
X117254Y-229866D01*
X117228Y-229869D01*
X117216Y-229871D01*
X117216D01*
X117216D01*
X117147Y-229871D01*
D01*
D01*
X117147D01*
X117130Y-229870D01*
X117113Y-229868D01*
X117095Y-229870D01*
X117079Y-229872D01*
X117079D01*
X117079D01*
X117022Y-229872D01*
X117013Y-229883D01*
X117013Y-229883D01*
X117013Y-229883D01*
X117004Y-229891D01*
X116983Y-229908D01*
X116977Y-229911D01*
X116949Y-229926D01*
X116912Y-229938D01*
X116885Y-229941D01*
X116874Y-229942D01*
X116874D01*
X116874D01*
X116806Y-229942D01*
X116806D01*
X116806D01*
X116805D01*
X116785Y-229941D01*
X116771Y-229940D01*
X116750Y-229942D01*
X116737Y-229943D01*
X116737D01*
X116737D01*
X115995Y-229950D01*
X115987Y-229960D01*
X115987Y-229960D01*
X115987Y-229960D01*
X115977Y-229968D01*
X115957Y-229985D01*
X115950Y-229989D01*
X115923Y-230004D01*
X115886Y-230015D01*
X115859Y-230018D01*
X115847Y-230019D01*
X115847D01*
X115847D01*
X115779Y-230020D01*
X115744Y-230017D01*
X115710Y-230021D01*
X115642Y-230021D01*
X115642D01*
X115642D01*
X115642D01*
X115628Y-230020D01*
X115608Y-230018D01*
X115597Y-230019D01*
X115573Y-230022D01*
X115505Y-230022D01*
X115505Y-230022D01*
X115505Y-230022D01*
X115489Y-230021D01*
X115466Y-230019D01*
X115466Y-230019D01*
X115466D01*
X115452Y-230015D01*
X115429Y-230008D01*
X115429Y-230008D01*
X115429Y-230008D01*
X115411Y-229998D01*
X115395Y-229990D01*
X115395Y-229990D01*
X115395Y-229990D01*
X115374Y-229973D01*
X115365Y-229966D01*
X115365Y-229966D01*
X115365Y-229966D01*
X115356Y-229955D01*
X114888Y-229959D01*
D01*
D01*
X114888D01*
X114874Y-229958D01*
X114854Y-229956D01*
X114842Y-229957D01*
X114820Y-229960D01*
X114751Y-229960D01*
X114751D01*
X114751D01*
X114730Y-229959D01*
X114713Y-229957D01*
X114712Y-229957D01*
X114712D01*
X114684Y-229949D01*
X114675Y-229946D01*
X114675Y-229946D01*
X114675Y-229946D01*
X114641Y-229928D01*
X114620Y-229911D01*
X114611Y-229904D01*
X114611Y-229904D01*
X114611Y-229904D01*
X114602Y-229893D01*
X114545Y-229894D01*
X114545D01*
X114545D01*
X114545D01*
X114527Y-229892D01*
X114506Y-229890D01*
X114506Y-229890D01*
X114506D01*
X114489Y-229885D01*
X114469Y-229879D01*
X114469Y-229879D01*
X114469Y-229879D01*
X114453Y-229871D01*
X114435Y-229861D01*
X114435Y-229861D01*
X114435Y-229861D01*
X114420Y-229850D01*
X114405Y-229837D01*
X114405Y-229837D01*
X114405Y-229837D01*
X114396Y-229827D01*
X114202Y-229828D01*
X114202D01*
X114202D01*
X114178Y-229826D01*
X114163Y-229825D01*
X114163Y-229825D01*
X114163D01*
X114146Y-229820D01*
X114126Y-229814D01*
X114126Y-229814D01*
X114126D01*
X114123Y-229812D01*
X114092Y-229796D01*
X114092Y-229796D01*
D01*
X114062Y-229771D01*
X114039Y-229745D01*
X114037Y-229742D01*
Y-229742D01*
X114037Y-229742D01*
X114032Y-229733D01*
X114023Y-229728D01*
X114002Y-229711D01*
X113993Y-229704D01*
X113993Y-229704D01*
X113993Y-229704D01*
X113984Y-229693D01*
X113927Y-229694D01*
X113927D01*
X113927D01*
X113912Y-229692D01*
X113888Y-229690D01*
X113888Y-229690D01*
X113888D01*
X113875Y-229686D01*
X113851Y-229679D01*
X113851Y-229679D01*
D01*
X113849Y-229678D01*
X113817Y-229661D01*
X113786Y-229637D01*
X113786Y-229637D01*
X113786Y-229637D01*
X113780Y-229629D01*
X113762Y-229607D01*
X113757Y-229598D01*
X113748Y-229593D01*
X113748Y-229593D01*
X113748Y-229593D01*
X113730Y-229579D01*
X113717Y-229569D01*
X113717Y-229569D01*
X113717Y-229569D01*
X113709Y-229559D01*
X113652Y-229559D01*
D01*
D01*
X113652D01*
X113613Y-229556D01*
X113580Y-229546D01*
X113576Y-229545D01*
X113576D01*
X113576Y-229545D01*
X113556Y-229535D01*
X113542Y-229527D01*
X113542Y-229527D01*
X113542Y-229527D01*
X113526Y-229514D01*
X113511Y-229502D01*
X113511Y-229502D01*
X113511Y-229502D01*
X113502Y-229491D01*
X113487Y-229473D01*
X113487Y-229473D01*
X113487Y-229473D01*
X113482Y-229464D01*
X113472Y-229459D01*
X113454Y-229444D01*
X113442Y-229435D01*
X113442Y-229435D01*
X113442Y-229435D01*
X113417Y-229405D01*
X113412Y-229396D01*
X113403Y-229391D01*
X113385Y-229376D01*
X113373Y-229367D01*
X113373Y-229367D01*
X113373Y-229367D01*
X113348Y-229337D01*
X113344Y-229328D01*
X113334Y-229323D01*
X113334Y-229323D01*
X113334D01*
X113328Y-229318D01*
X113304Y-229299D01*
X113304Y-229299D01*
X113304Y-229299D01*
X113295Y-229288D01*
X113239Y-229289D01*
X113238Y-229289D01*
X113238Y-229289D01*
X113219Y-229287D01*
X113200Y-229285D01*
X113200Y-229285D01*
X113200Y-229285D01*
X113186Y-229281D01*
X113163Y-229274D01*
X113163Y-229274D01*
X113163D01*
X113159Y-229273D01*
X113128Y-229257D01*
X113128Y-229256D01*
X113128D01*
X113124Y-229253D01*
X113098Y-229232D01*
X113098Y-229232D01*
X113098Y-229232D01*
X113086Y-229217D01*
X113073Y-229202D01*
X113073Y-229202D01*
X113073Y-229202D01*
X113062Y-229182D01*
X113055Y-229168D01*
X113055Y-229168D01*
X113055Y-229168D01*
X113049Y-229151D01*
X113048Y-229145D01*
X113024Y-229139D01*
X112990Y-229121D01*
X112960Y-229096D01*
X112960Y-229096D01*
X112960Y-229096D01*
X112954Y-229089D01*
X112935Y-229067D01*
X112917Y-229032D01*
X112917Y-229032D01*
Y-229032D01*
X112915Y-229028D01*
X112909Y-229010D01*
X112908Y-229009D01*
X112886Y-229003D01*
X112886Y-229003D01*
X112886Y-229003D01*
X112877Y-228998D01*
X112852Y-228985D01*
X112852Y-228985D01*
X112852Y-228985D01*
X112847Y-228981D01*
X112822Y-228961D01*
X112822Y-228960D01*
D01*
X112820Y-228958D01*
X112797Y-228931D01*
X112797Y-228931D01*
X112797Y-228931D01*
X112792Y-228922D01*
X112778Y-228897D01*
X112778Y-228897D01*
Y-228897D01*
X112777Y-228892D01*
X112767Y-228860D01*
X112767Y-228860D01*
X112767Y-228860D01*
X112765Y-228842D01*
X112764Y-228834D01*
X112752Y-228824D01*
X112739Y-228808D01*
X112727Y-228795D01*
X112721Y-228783D01*
X112709Y-228761D01*
X112702Y-228737D01*
X112700Y-228737D01*
X112679Y-228731D01*
X112679Y-228731D01*
D01*
X112644Y-228713D01*
X112620Y-228693D01*
X112614Y-228688D01*
Y-228688D01*
X112614D01*
X112589Y-228659D01*
X112571Y-228625D01*
X112559Y-228588D01*
X112556Y-228562D01*
X112545Y-228552D01*
X112544Y-228552D01*
X112544Y-228552D01*
X112536Y-228541D01*
X112520Y-228522D01*
X112520Y-228522D01*
X112520Y-228522D01*
X112515Y-228513D01*
X112506Y-228509D01*
X112475Y-228484D01*
X112451Y-228455D01*
X112445Y-228445D01*
X112436Y-228441D01*
X112436Y-228441D01*
D01*
X112435Y-228440D01*
X112406Y-228416D01*
X112406Y-228416D01*
X112406Y-228416D01*
X112397Y-228406D01*
X112381Y-228387D01*
X112381Y-228386D01*
X112381Y-228386D01*
X112376Y-228377D01*
X112363Y-228352D01*
X112363Y-228352D01*
X112363Y-228352D01*
X112359Y-228340D01*
X112351Y-228315D01*
Y-228315D01*
X112351Y-228315D01*
X112349Y-228300D01*
X112348Y-228290D01*
X112337Y-228280D01*
X112337Y-228280D01*
X112337Y-228280D01*
X112312Y-228250D01*
X112293Y-228216D01*
X112282Y-228179D01*
X112279Y-228153D01*
X112267Y-228144D01*
X112267Y-228144D01*
X112267Y-228144D01*
X112250Y-228124D01*
X112242Y-228114D01*
X112242Y-228114D01*
X112242Y-228114D01*
X112237Y-228105D01*
X112228Y-228100D01*
X112209Y-228085D01*
X112198Y-228076D01*
X112198Y-228076D01*
X112198Y-228076D01*
X112173Y-228046D01*
X112168Y-228037D01*
X112159Y-228032D01*
X112129Y-228008D01*
X112129Y-228008D01*
X112129Y-228008D01*
X112104Y-227978D01*
X112087Y-227947D01*
X112085Y-227944D01*
D01*
X112085Y-227944D01*
X112074Y-227907D01*
X112071Y-227878D01*
X112069Y-227869D01*
Y-227868D01*
Y-227868D01*
X112069Y-227812D01*
X112058Y-227803D01*
X112058Y-227803D01*
X112058Y-227803D01*
X112054Y-227798D01*
X112033Y-227773D01*
X112029Y-227764D01*
X112020Y-227760D01*
X111989Y-227735D01*
X111964Y-227705D01*
X111946Y-227671D01*
X111934Y-227634D01*
X111930Y-227596D01*
X111930Y-227539D01*
X111919Y-227530D01*
X111919Y-227530D01*
X111919Y-227530D01*
X111907Y-227516D01*
X111894Y-227501D01*
X111894Y-227501D01*
X111894Y-227501D01*
X111889Y-227491D01*
X111880Y-227487D01*
X111880Y-227487D01*
X111880Y-227487D01*
X111865Y-227474D01*
X111850Y-227463D01*
X111850Y-227462D01*
X111850Y-227462D01*
X111842Y-227453D01*
X111825Y-227433D01*
X111821Y-227426D01*
X111806Y-227399D01*
X111795Y-227362D01*
X111792Y-227334D01*
X111791Y-227323D01*
Y-227323D01*
Y-227323D01*
X111790Y-227266D01*
X111780Y-227258D01*
X111755Y-227228D01*
X111736Y-227194D01*
X111725Y-227157D01*
X111721Y-227118D01*
X111720Y-227061D01*
X111709Y-227053D01*
X111709Y-227053D01*
X111709Y-227053D01*
X111699Y-227040D01*
X111685Y-227023D01*
X111685Y-227023D01*
X111685Y-227023D01*
X111676Y-227007D01*
X111666Y-226989D01*
X111666Y-226989D01*
X111666Y-226989D01*
X111660Y-226969D01*
X111654Y-226952D01*
X111654Y-226952D01*
X111654Y-226952D01*
X111652Y-226932D01*
X111650Y-226913D01*
X111650Y-226856D01*
X111650Y-226856D01*
X111639Y-226848D01*
X111614Y-226818D01*
X111609Y-226809D01*
X111600Y-226804D01*
X111570Y-226780D01*
X111549Y-226755D01*
X111545Y-226750D01*
X111545Y-226750D01*
X111545Y-226750D01*
X111527Y-226716D01*
X111520Y-226693D01*
X111515Y-226679D01*
Y-226679D01*
X111515Y-226679D01*
X111514Y-226666D01*
X111511Y-226641D01*
Y-226641D01*
Y-226641D01*
X111510Y-226572D01*
D01*
D01*
Y-226572D01*
X111512Y-226553D01*
X111513Y-226538D01*
X111510Y-226504D01*
X111509Y-226447D01*
X111499Y-226438D01*
X111499Y-226438D01*
X111499Y-226438D01*
X111490Y-226428D01*
X111474Y-226409D01*
X111474Y-226408D01*
X111474Y-226408D01*
X111469Y-226399D01*
X111455Y-226374D01*
X111455Y-226374D01*
X111455Y-226374D01*
X111451Y-226362D01*
X111444Y-226337D01*
Y-226337D01*
X111444Y-226337D01*
X111442Y-226324D01*
X111440Y-226299D01*
X111439Y-226242D01*
X111428Y-226233D01*
X111408Y-226209D01*
X111404Y-226204D01*
X111404Y-226204D01*
X111404Y-226204D01*
X111385Y-226170D01*
X111378Y-226147D01*
X111373Y-226133D01*
Y-226133D01*
X111373Y-226133D01*
X111372Y-226119D01*
X111369Y-226094D01*
Y-226094D01*
Y-226094D01*
X111369Y-226026D01*
D01*
D01*
Y-226026D01*
X111369Y-226018D01*
X111372Y-225991D01*
X111368Y-225957D01*
X111367Y-225900D01*
X111357Y-225891D01*
X111357Y-225891D01*
X111357Y-225891D01*
X111349Y-225882D01*
X111332Y-225862D01*
X111313Y-225828D01*
X111313Y-225828D01*
D01*
X111313Y-225825D01*
X111302Y-225791D01*
X111298Y-225752D01*
X111297Y-225695D01*
X111287Y-225687D01*
X111287Y-225687D01*
X111286Y-225687D01*
X111262Y-225657D01*
X111249Y-225633D01*
X111243Y-225623D01*
X111243Y-225623D01*
X111243Y-225623D01*
X111239Y-225611D01*
X111232Y-225586D01*
Y-225586D01*
X111232Y-225586D01*
X111230Y-225570D01*
X111227Y-225547D01*
Y-225547D01*
Y-225547D01*
X111227Y-225479D01*
Y-225479D01*
Y-225479D01*
Y-225479D01*
X111228Y-225464D01*
X111230Y-225445D01*
X111229Y-225433D01*
X111226Y-225410D01*
X111226Y-225342D01*
D01*
X111225Y-225273D01*
Y-225273D01*
Y-225273D01*
X111224Y-225217D01*
X111214Y-225208D01*
X111214Y-225208D01*
X111214Y-225208D01*
X111196Y-225186D01*
X111189Y-225178D01*
X111189Y-225178D01*
X111189Y-225178D01*
X111178Y-225158D01*
X111170Y-225144D01*
X111170Y-225144D01*
X111170Y-225144D01*
X111167Y-225132D01*
X111159Y-225107D01*
X111159Y-225107D01*
X111159Y-225107D01*
X111157Y-225093D01*
X111155Y-225069D01*
X111155Y-225069D01*
X111155Y-225068D01*
X111154Y-225000D01*
Y-225000D01*
X111154Y-224932D01*
Y-224932D01*
Y-224932D01*
X111153Y-224875D01*
X111142Y-224866D01*
X111118Y-224836D01*
X111099Y-224802D01*
X111087Y-224765D01*
X111083Y-224727D01*
X111083Y-224658D01*
Y-224658D01*
Y-224658D01*
X111085Y-224637D01*
X111086Y-224624D01*
X111085Y-224613D01*
X111082Y-224590D01*
X111082Y-224521D01*
Y-224521D01*
Y-224521D01*
X111083Y-224501D01*
X111085Y-224487D01*
X111084Y-224478D01*
X111081Y-224453D01*
Y-224453D01*
Y-224453D01*
X111080Y-224384D01*
D01*
X111080Y-224316D01*
Y-224316D01*
Y-224316D01*
X111079Y-224248D01*
Y-224248D01*
X111079Y-224179D01*
X111079Y-224179D01*
X111079Y-224179D01*
X111078Y-224122D01*
X111067Y-224113D01*
X111067Y-224113D01*
X111067Y-224113D01*
X111042Y-224084D01*
X111029Y-224059D01*
X111024Y-224050D01*
X111024Y-224050D01*
X111024Y-224050D01*
X111020Y-224037D01*
X111012Y-224013D01*
Y-224013D01*
X111012Y-224013D01*
X111011Y-223997D01*
X111008Y-223974D01*
Y-223974D01*
Y-223974D01*
X111008Y-223906D01*
Y-223906D01*
X111007Y-223837D01*
Y-223837D01*
Y-223837D01*
X111006Y-223769D01*
D01*
X111006Y-223700D01*
Y-223700D01*
Y-223700D01*
X111005Y-223632D01*
D01*
X111005Y-223563D01*
Y-223563D01*
X111004Y-223506D01*
X110994Y-223498D01*
X110994Y-223498D01*
X110994Y-223498D01*
X110985Y-223487D01*
X110969Y-223468D01*
X110969Y-223468D01*
X110969Y-223468D01*
X110965Y-223462D01*
X110950Y-223434D01*
X110950Y-223434D01*
Y-223434D01*
X110939Y-223397D01*
X110936Y-223371D01*
X110934Y-223358D01*
Y-223358D01*
Y-223358D01*
X110934Y-223290D01*
Y-223290D01*
D01*
X110937Y-223256D01*
X110936Y-223247D01*
X110933Y-223222D01*
Y-223222D01*
Y-223221D01*
X110933Y-223153D01*
Y-223153D01*
Y-223153D01*
X110935Y-223122D01*
X110936Y-223118D01*
X110935Y-223108D01*
X110932Y-223085D01*
X110931Y-223016D01*
X110931Y-223016D01*
X110931Y-223016D01*
X110933Y-222995D01*
X110934Y-222982D01*
X110931Y-222948D01*
X110930Y-222879D01*
Y-222879D01*
Y-222879D01*
Y-222879D01*
X110932Y-222865D01*
X110934Y-222840D01*
X110934Y-222840D01*
Y-222840D01*
X110936Y-222834D01*
X110945Y-222803D01*
X110945Y-222803D01*
Y-222803D01*
X110951Y-222791D01*
X110963Y-222769D01*
X110963Y-222769D01*
X110963Y-222769D01*
X110977Y-222751D01*
X110987Y-222739D01*
X110987Y-222739D01*
X110987Y-222739D01*
X111003Y-222725D01*
X111017Y-222714D01*
X111017Y-222714D01*
X111017Y-222714D01*
X111032Y-222705D01*
X111051Y-222695D01*
X111051Y-222695D01*
X111051Y-222695D01*
X111059Y-222693D01*
X111088Y-222684D01*
X111088Y-222684D01*
D01*
X111089Y-222684D01*
X111126Y-222679D01*
X111195Y-222679D01*
X111195D01*
D01*
X111233Y-222682D01*
X111270Y-222693D01*
X111305Y-222711D01*
X111335Y-222736D01*
X111360Y-222765D01*
X111365Y-222774D01*
X111374Y-222779D01*
X111398Y-222798D01*
X111404Y-222804D01*
X111404Y-222804D01*
X111404Y-222804D01*
X111429Y-222833D01*
X111446Y-222864D01*
X111448Y-222867D01*
D01*
X111448Y-222867D01*
X111459Y-222904D01*
X111462Y-222934D01*
X111463Y-222943D01*
Y-222943D01*
Y-222943D01*
X111464Y-223000D01*
X111474Y-223008D01*
X111475Y-223008D01*
X111475Y-223008D01*
X111486Y-223022D01*
X111499Y-223038D01*
X111499Y-223038D01*
X111499Y-223038D01*
X111504Y-223047D01*
X111513Y-223052D01*
X111513Y-223052D01*
X111513Y-223052D01*
X111531Y-223066D01*
X111544Y-223076D01*
X111544Y-223076D01*
X111544Y-223076D01*
X111557Y-223092D01*
X111568Y-223106D01*
X111568Y-223106D01*
X111568Y-223106D01*
X111573Y-223115D01*
X111582Y-223120D01*
X111582Y-223120D01*
X111582Y-223120D01*
X111613Y-223144D01*
X111635Y-223171D01*
X111637Y-223174D01*
Y-223174D01*
X111637Y-223174D01*
X111656Y-223208D01*
X111663Y-223231D01*
X111663Y-223231D01*
X111686Y-223238D01*
X111686Y-223238D01*
D01*
X111688Y-223239D01*
X111721Y-223256D01*
X111751Y-223280D01*
X111751Y-223280D01*
X111751Y-223280D01*
X111763Y-223295D01*
X111776Y-223310D01*
X111776Y-223310D01*
X111776Y-223310D01*
X111780Y-223318D01*
X111794Y-223344D01*
X111801Y-223367D01*
X111824Y-223373D01*
X111825Y-223373D01*
X111825D01*
X111829Y-223376D01*
X111859Y-223391D01*
X111859Y-223391D01*
X111859Y-223391D01*
X111870Y-223400D01*
X111889Y-223416D01*
X111889Y-223416D01*
X111889Y-223416D01*
X111896Y-223424D01*
X111914Y-223445D01*
X111919Y-223454D01*
X111928Y-223459D01*
X111928Y-223459D01*
X111928Y-223459D01*
X111958Y-223483D01*
X111967Y-223494D01*
X112024Y-223494D01*
X112024D01*
X112024D01*
X112048Y-223496D01*
X112062Y-223497D01*
X112062Y-223497D01*
X112062D01*
X112080Y-223502D01*
X112100Y-223508D01*
X112100Y-223508D01*
X112100D01*
X112103Y-223510D01*
X112134Y-223526D01*
X112134Y-223526D01*
D01*
X112135Y-223527D01*
X112164Y-223550D01*
X112164Y-223550D01*
X112164Y-223550D01*
X112174Y-223563D01*
X112189Y-223580D01*
X112189Y-223580D01*
X112189Y-223580D01*
X112191Y-223584D01*
X112194Y-223589D01*
X112203Y-223594D01*
X112233Y-223618D01*
X112242Y-223629D01*
X112436Y-223627D01*
D01*
D01*
X112436D01*
X112450Y-223628D01*
X112474Y-223630D01*
X112474Y-223630D01*
X112474D01*
X112479Y-223632D01*
X112512Y-223641D01*
X112546Y-223659D01*
X112546Y-223659D01*
X112546Y-223659D01*
X112553Y-223665D01*
X112576Y-223684D01*
X112585Y-223694D01*
X112642Y-223694D01*
X112642D01*
X112642D01*
X112657Y-223695D01*
X112676Y-223697D01*
X112681Y-223696D01*
X112710Y-223693D01*
X112779Y-223692D01*
X112779Y-223692D01*
X112779Y-223692D01*
X112795Y-223694D01*
X112813Y-223695D01*
X112824Y-223694D01*
X112847Y-223692D01*
X112916Y-223691D01*
X112916Y-223691D01*
X112916Y-223691D01*
X112936Y-223693D01*
X112954Y-223695D01*
X112954Y-223695D01*
X112954Y-223695D01*
X112972Y-223700D01*
X112991Y-223706D01*
X112992Y-223706D01*
X112992Y-223706D01*
X113002Y-223711D01*
X113026Y-223724D01*
X113026Y-223724D01*
X113026Y-223724D01*
X113038Y-223733D01*
X113056Y-223748D01*
X113056Y-223748D01*
X113056Y-223748D01*
X113065Y-223758D01*
X113247Y-223757D01*
X113256Y-223746D01*
X113256Y-223746D01*
X113256Y-223746D01*
X113276Y-223730D01*
X113286Y-223721D01*
X113286Y-223721D01*
X113286Y-223721D01*
X113304Y-223711D01*
X113320Y-223703D01*
X113320Y-223703D01*
X113320Y-223703D01*
X113332Y-223699D01*
X113356Y-223691D01*
X113357D01*
X113357Y-223691D01*
X113372Y-223690D01*
X113395Y-223687D01*
X113464Y-223686D01*
X113464D01*
D01*
X113502Y-223690D01*
X113539Y-223701D01*
X113567Y-223715D01*
X113577Y-223709D01*
X113593Y-223700D01*
X113593Y-223700D01*
X113593Y-223700D01*
X113606Y-223696D01*
X113630Y-223689D01*
X113630D01*
X113630Y-223689D01*
X113644Y-223687D01*
X113669Y-223685D01*
X113737Y-223684D01*
X113737Y-223684D01*
X113737Y-223684D01*
X113758Y-223686D01*
X113772Y-223687D01*
X113788Y-223685D01*
X113806Y-223683D01*
X113874Y-223683D01*
D01*
D01*
X113874D01*
X113882Y-223684D01*
X113909Y-223686D01*
X113919Y-223685D01*
X113943Y-223682D01*
X114011Y-223682D01*
X114046Y-223685D01*
X114080Y-223681D01*
X114137Y-223680D01*
X114145Y-223670D01*
X114145Y-223670D01*
X114145Y-223670D01*
X114157Y-223660D01*
X114175Y-223645D01*
X114175Y-223645D01*
X114175Y-223645D01*
X114188Y-223638D01*
X114209Y-223626D01*
X114209Y-223626D01*
D01*
X114246Y-223615D01*
X114272Y-223612D01*
X114285Y-223611D01*
X114285D01*
X114285D01*
X114353Y-223610D01*
D01*
D01*
X114353D01*
X114387Y-223613D01*
X114422Y-223610D01*
X114752Y-223607D01*
X114761Y-223596D01*
X114761Y-223596D01*
X114761Y-223596D01*
X114772Y-223587D01*
X114791Y-223571D01*
X114791Y-223571D01*
X114791Y-223571D01*
X114797Y-223568D01*
X114825Y-223553D01*
X114825Y-223553D01*
X114825D01*
X114862Y-223541D01*
X114888Y-223538D01*
X114900Y-223537D01*
X114900D01*
X114901D01*
X114969Y-223536D01*
D01*
D01*
X114969D01*
X114986Y-223538D01*
X115003Y-223539D01*
X115013Y-223538D01*
X115037Y-223536D01*
X115106Y-223535D01*
X115127Y-223537D01*
X115140Y-223538D01*
X115174Y-223534D01*
X115231Y-223534D01*
X115240Y-223523D01*
X115240Y-223523D01*
X115240Y-223523D01*
X115270Y-223499D01*
X115301Y-223482D01*
X115304Y-223480D01*
D01*
X115304Y-223480D01*
X115314Y-223477D01*
X115341Y-223468D01*
X115379Y-223464D01*
X115448Y-223464D01*
X115482Y-223467D01*
X115516Y-223463D01*
X115710Y-223461D01*
X115718Y-223451D01*
X115748Y-223426D01*
X115782Y-223407D01*
X115811Y-223398D01*
X115819Y-223396D01*
X115858Y-223392D01*
X115926Y-223391D01*
X115926Y-223391D01*
X115927Y-223391D01*
X115947Y-223393D01*
X115961Y-223394D01*
X115972Y-223393D01*
X115995Y-223390D01*
X116063Y-223390D01*
X116063D01*
X116063D01*
X116095Y-223393D01*
X116098Y-223393D01*
X116132Y-223389D01*
X116189Y-223389D01*
X116197Y-223378D01*
X116197Y-223378D01*
X116197Y-223378D01*
X116208Y-223369D01*
X116227Y-223353D01*
X116227Y-223353D01*
X116227Y-223353D01*
X116233Y-223350D01*
X116261Y-223335D01*
X116261Y-223335D01*
X116261D01*
X116298Y-223323D01*
X116324Y-223320D01*
X116337Y-223319D01*
X116337D01*
X116337D01*
X116405Y-223318D01*
X116405D01*
X116405D01*
X116405D01*
X116419Y-223320D01*
X116439Y-223321D01*
X116474Y-223318D01*
X116941Y-223314D01*
X116950Y-223303D01*
X116950Y-223303D01*
X116950Y-223303D01*
X116960Y-223294D01*
X116980Y-223278D01*
X116980Y-223278D01*
X116980Y-223278D01*
X116984Y-223276D01*
X117014Y-223260D01*
X117014Y-223260D01*
X117014Y-223260D01*
X117032Y-223254D01*
X117051Y-223248D01*
X117051D01*
X117051Y-223248D01*
X117072Y-223246D01*
X117089Y-223244D01*
X117146Y-223243D01*
X117155Y-223233D01*
X117155Y-223233D01*
X117155Y-223233D01*
X117171Y-223219D01*
X117184Y-223208D01*
X117185Y-223208D01*
X117185Y-223208D01*
X117211Y-223194D01*
X117219Y-223189D01*
X117219D01*
X117219Y-223189D01*
X117246Y-223181D01*
X117256Y-223178D01*
X117256D01*
X117256Y-223178D01*
X117277Y-223176D01*
X117294Y-223174D01*
X117294D01*
X117294D01*
X117363Y-223173D01*
D01*
D01*
X117363D01*
X117382Y-223175D01*
X117397Y-223176D01*
X117431Y-223172D01*
X117500Y-223172D01*
X117500D01*
X117500D01*
X117515Y-223173D01*
X117534Y-223175D01*
X117552Y-223173D01*
X117568Y-223171D01*
X117568D01*
X117568D01*
X117625Y-223171D01*
X117633Y-223160D01*
X117634Y-223160D01*
X117634Y-223160D01*
X117648Y-223148D01*
X117663Y-223135D01*
X117663Y-223135D01*
X117663Y-223135D01*
X117681Y-223126D01*
X117697Y-223117D01*
X117697Y-223117D01*
X117698Y-223117D01*
X117726Y-223108D01*
X117734Y-223105D01*
X117734D01*
X117734Y-223105D01*
X117757Y-223103D01*
X117773Y-223101D01*
X117773Y-223101D01*
X117773Y-223101D01*
X117841Y-223100D01*
X117841D01*
X117841D01*
X117841D01*
X117855Y-223102D01*
X117876Y-223103D01*
X117910Y-223100D01*
X117967Y-223099D01*
X117975Y-223089D01*
X117975Y-223089D01*
X117975Y-223089D01*
X117989Y-223077D01*
X118005Y-223064D01*
X118005Y-223064D01*
X118005Y-223064D01*
X118023Y-223054D01*
X118039Y-223045D01*
X118039Y-223045D01*
X118039Y-223045D01*
X118068Y-223036D01*
X118076Y-223034D01*
X118076D01*
X118076Y-223034D01*
X118099Y-223031D01*
X118115Y-223029D01*
X118115Y-223029D01*
X118115Y-223029D01*
X118183Y-223029D01*
D01*
D01*
X118183D01*
X118201Y-223030D01*
X118217Y-223032D01*
X118235Y-223030D01*
X118252Y-223028D01*
X118252D01*
X118252D01*
X118446Y-223027D01*
X118454Y-223016D01*
X118454Y-223016D01*
X118454Y-223016D01*
X118466Y-223006D01*
X118484Y-222991D01*
X118484Y-222991D01*
X118484Y-222991D01*
X118496Y-222984D01*
X118518Y-222972D01*
X118518Y-222972D01*
D01*
X118555Y-222961D01*
X118581Y-222958D01*
X118594Y-222957D01*
X118594D01*
X118594D01*
X118662Y-222956D01*
D01*
D01*
X118662D01*
X118679Y-222958D01*
X118696Y-222959D01*
X118730Y-222956D01*
X118787Y-222955D01*
X118796Y-222944D01*
X118813Y-222930D01*
X118826Y-222920D01*
X118826Y-222920D01*
X118826Y-222920D01*
X118835Y-222915D01*
X118860Y-222901D01*
X118860Y-222901D01*
X118860Y-222901D01*
X118872Y-222897D01*
X118897Y-222889D01*
X118897D01*
X118897Y-222889D01*
X118911Y-222888D01*
X118935Y-222885D01*
X119129Y-222884D01*
X119138Y-222873D01*
X119138Y-222873D01*
X119138Y-222873D01*
X119151Y-222862D01*
X119167Y-222848D01*
X119167Y-222848D01*
X119168Y-222848D01*
X119184Y-222839D01*
X119202Y-222830D01*
X119202Y-222830D01*
X119202Y-222830D01*
X119214Y-222826D01*
X119238Y-222818D01*
X119239Y-222818D01*
X119239D01*
X119245Y-222817D01*
X119277Y-222814D01*
X119334Y-222813D01*
X119343Y-222803D01*
X119343Y-222803D01*
X119343Y-222803D01*
X119348Y-222798D01*
X119372Y-222778D01*
X119406Y-222759D01*
X119406Y-222759D01*
D01*
X119444Y-222748D01*
X119473Y-222745D01*
X119482Y-222744D01*
X119676Y-222742D01*
X119676Y-222741D01*
X119684Y-222731D01*
X119684Y-222731D01*
X119684Y-222731D01*
X119702Y-222716D01*
X119714Y-222706D01*
X119714Y-222706D01*
X119714Y-222706D01*
X119742Y-222691D01*
X119748Y-222688D01*
X119748D01*
X119748Y-222688D01*
X119769Y-222681D01*
X119785Y-222676D01*
X119785D01*
X119785Y-222676D01*
X119803Y-222674D01*
X119824Y-222672D01*
X119824D01*
X119824D01*
X119881Y-222672D01*
X119885Y-222667D01*
X119889Y-222661D01*
X119889D01*
Y-222661D01*
X119919Y-222636D01*
X119953Y-222618D01*
X119990Y-222606D01*
X120028Y-222602D01*
X120028D01*
D01*
X120086Y-222601D01*
X120094Y-222591D01*
X120094Y-222591D01*
X120094Y-222591D01*
X120108Y-222579D01*
X120124Y-222566D01*
X120124Y-222566D01*
X120124Y-222566D01*
X120138Y-222558D01*
X120158Y-222547D01*
X120158Y-222547D01*
X120158Y-222547D01*
X120172Y-222543D01*
X120195Y-222536D01*
X120195Y-222536D01*
X120195Y-222536D01*
X120211Y-222534D01*
X120233Y-222532D01*
X120290Y-222531D01*
X120297Y-222523D01*
X120299Y-222520D01*
X120299D01*
X120299Y-222520D01*
X120314Y-222508D01*
X120329Y-222496D01*
X120329Y-222496D01*
X120329Y-222496D01*
X120363Y-222477D01*
X120392Y-222468D01*
X120400Y-222465D01*
X120400D01*
X120400Y-222465D01*
X120423Y-222463D01*
X120438Y-222461D01*
X120438D01*
X120438D01*
X120632Y-222460D01*
X120641Y-222449D01*
X120641Y-222449D01*
X120641Y-222449D01*
X120651Y-222441D01*
X120670Y-222424D01*
X120680Y-222419D01*
X120684Y-222410D01*
X120684Y-222410D01*
X120684Y-222410D01*
X120697Y-222394D01*
X120709Y-222380D01*
X120709Y-222380D01*
X120709Y-222380D01*
X120721Y-222370D01*
X120738Y-222355D01*
X120738Y-222355D01*
X120738Y-222355D01*
X120747Y-222350D01*
X120772Y-222337D01*
X120773Y-222337D01*
X120773D01*
X120778Y-222335D01*
X120809Y-222325D01*
X120809Y-222325D01*
X120809Y-222325D01*
X120828Y-222323D01*
X120848Y-222321D01*
X120905Y-222320D01*
X120913Y-222310D01*
X120943Y-222285D01*
X120977Y-222266D01*
X121014Y-222255D01*
X121053Y-222251D01*
X121110Y-222250D01*
X121118Y-222239D01*
X121118D01*
Y-222239D01*
X121123Y-222235D01*
X121148Y-222215D01*
X121182Y-222196D01*
X121219Y-222184D01*
X121258Y-222180D01*
X121315Y-222180D01*
X121317Y-222176D01*
X121323Y-222169D01*
X121323D01*
Y-222169D01*
X121329Y-222164D01*
X121353Y-222144D01*
X121387Y-222126D01*
D01*
X121387Y-222126D01*
X121424Y-222114D01*
X121454Y-222111D01*
X121463Y-222110D01*
X121463D01*
X121463D01*
X121519Y-222109D01*
X121528Y-222099D01*
X121528Y-222099D01*
X121528Y-222099D01*
X121540Y-222089D01*
X121558Y-222074D01*
X121558Y-222074D01*
X121558Y-222074D01*
X121570Y-222067D01*
X121592Y-222055D01*
X121592Y-222055D01*
D01*
X121629Y-222044D01*
X121655Y-222041D01*
X121667Y-222040D01*
X121667D01*
X121667D01*
X121724Y-222039D01*
X121733Y-222028D01*
X121733Y-222028D01*
X121733Y-222028D01*
X121751Y-222013D01*
X121763Y-222004D01*
X121763Y-222004D01*
X121763Y-222004D01*
X121772Y-221999D01*
X121773Y-221996D01*
X121776Y-221990D01*
X121776Y-221990D01*
X121776Y-221990D01*
X121796Y-221966D01*
X121801Y-221959D01*
X121801Y-221959D01*
X121801Y-221959D01*
X121818Y-221945D01*
X121830Y-221935D01*
X121830Y-221935D01*
X121830Y-221935D01*
X121854Y-221922D01*
X121864Y-221916D01*
X121864Y-221916D01*
X121864Y-221916D01*
X121899Y-221905D01*
X121901Y-221904D01*
X121901D01*
X121902Y-221904D01*
X121925Y-221902D01*
X121940Y-221900D01*
X121940Y-221900D01*
X121940Y-221900D01*
X121997Y-221900D01*
X122006Y-221889D01*
X122035Y-221864D01*
X122044Y-221859D01*
X122049Y-221850D01*
X122049Y-221850D01*
X122049Y-221850D01*
X122062Y-221835D01*
X122073Y-221820D01*
X122073Y-221820D01*
X122073Y-221820D01*
X122085Y-221810D01*
X122103Y-221795D01*
X122103Y-221795D01*
X122103Y-221795D01*
X122116Y-221789D01*
X122137Y-221777D01*
X122137Y-221777D01*
D01*
X122174Y-221765D01*
X122200Y-221762D01*
X122210Y-221750D01*
X122210Y-221750D01*
X122210Y-221750D01*
X122215Y-221746D01*
X122239Y-221726D01*
X122274Y-221707D01*
X122274Y-221707D01*
D01*
X122311Y-221695D01*
X122337Y-221693D01*
X122346Y-221681D01*
X122346Y-221681D01*
X122346Y-221681D01*
X122357Y-221672D01*
X122376Y-221656D01*
X122376Y-221656D01*
X122376Y-221656D01*
X122383Y-221652D01*
X122385Y-221651D01*
X122390Y-221642D01*
X122390Y-221642D01*
X122390Y-221642D01*
X122401Y-221627D01*
X122414Y-221612D01*
X122414Y-221612D01*
X122414Y-221612D01*
X122433Y-221596D01*
X122444Y-221587D01*
X122444Y-221587D01*
X122444Y-221587D01*
X122478Y-221568D01*
X122505Y-221560D01*
X122515Y-221557D01*
X122515D01*
X122515Y-221557D01*
X122534Y-221555D01*
X122541Y-221554D01*
X122550Y-221542D01*
X122550Y-221542D01*
X122550Y-221542D01*
X122556Y-221537D01*
X122580Y-221517D01*
X122614Y-221499D01*
X122614Y-221499D01*
D01*
X122651Y-221487D01*
X122677Y-221484D01*
X122687Y-221472D01*
X122716Y-221447D01*
X122725Y-221443D01*
X122730Y-221433D01*
X122730Y-221433D01*
X122730Y-221433D01*
X122744Y-221416D01*
X122755Y-221403D01*
X122755Y-221403D01*
X122755Y-221403D01*
X122778Y-221384D01*
X122784Y-221378D01*
X122784D01*
X122784Y-221378D01*
X122806Y-221367D01*
X122818Y-221360D01*
X122818Y-221360D01*
X122818Y-221360D01*
X122831Y-221356D01*
X122841Y-221353D01*
X122848Y-221330D01*
X122866Y-221295D01*
X122885Y-221272D01*
X122890Y-221265D01*
X122890D01*
Y-221265D01*
X122893Y-221263D01*
X122920Y-221240D01*
X122954Y-221222D01*
D01*
X122954Y-221222D01*
X122968Y-221217D01*
X122991Y-221210D01*
X123030Y-221206D01*
X123087Y-221205D01*
X123095Y-221195D01*
X123095Y-221195D01*
X123095Y-221195D01*
X123125Y-221170D01*
X123134Y-221165D01*
X123139Y-221156D01*
X123163Y-221126D01*
X123193Y-221101D01*
X123202Y-221096D01*
X123207Y-221087D01*
X123231Y-221057D01*
X123256Y-221036D01*
X123261Y-221032D01*
X123261Y-221032D01*
X123261Y-221032D01*
X123270Y-221027D01*
X123275Y-221018D01*
X123299Y-220988D01*
X123299Y-220988D01*
X123299Y-220988D01*
X123309Y-220979D01*
X123329Y-220963D01*
X123338Y-220958D01*
X123342Y-220949D01*
X123367Y-220918D01*
X123367Y-220918D01*
X123367Y-220918D01*
X123397Y-220894D01*
X123406Y-220889D01*
X123410Y-220880D01*
X123435Y-220849D01*
X123464Y-220825D01*
X123473Y-220820D01*
X123478Y-220811D01*
X123478Y-220811D01*
X123478Y-220811D01*
X123487Y-220800D01*
X123503Y-220780D01*
X123503Y-220780D01*
X123503Y-220780D01*
X123519Y-220767D01*
X123532Y-220756D01*
X123532Y-220756D01*
X123532Y-220756D01*
X123541Y-220751D01*
X123546Y-220742D01*
X123570Y-220711D01*
X123582Y-220702D01*
X123583Y-220692D01*
X123584Y-220675D01*
X123584Y-220675D01*
Y-220675D01*
X123589Y-220661D01*
X123595Y-220638D01*
X123595Y-220638D01*
Y-220638D01*
X123597Y-220635D01*
X123613Y-220604D01*
X123613Y-220604D01*
D01*
X123614Y-220603D01*
X123638Y-220574D01*
X123638Y-220574D01*
X123638Y-220574D01*
X123648Y-220565D01*
X123649Y-220564D01*
X123650Y-220562D01*
X123652Y-220538D01*
X123652Y-220538D01*
Y-220538D01*
X123656Y-220523D01*
X123663Y-220501D01*
X123663Y-220501D01*
X123663Y-220501D01*
X123674Y-220478D01*
X123681Y-220466D01*
X123681Y-220466D01*
X123681Y-220466D01*
X123695Y-220449D01*
X123705Y-220436D01*
X123705Y-220436D01*
X123705Y-220436D01*
X123721Y-220423D01*
X123735Y-220411D01*
X123735Y-220411D01*
X123735Y-220411D01*
X123744Y-220406D01*
X123745Y-220405D01*
X123749Y-220397D01*
X123749Y-220397D01*
X123749Y-220397D01*
X123763Y-220380D01*
X123773Y-220367D01*
X123773Y-220367D01*
X123773Y-220367D01*
X123789Y-220354D01*
X123803Y-220342D01*
X123803Y-220342D01*
X123803Y-220342D01*
X123812Y-220337D01*
X123816Y-220328D01*
X123816Y-220328D01*
X123817Y-220328D01*
X123830Y-220311D01*
X123841Y-220298D01*
X123841Y-220298D01*
X123841Y-220298D01*
X123862Y-220280D01*
X123871Y-220273D01*
X123871Y-220273D01*
X123871Y-220273D01*
X123891Y-220262D01*
X123905Y-220255D01*
X123905Y-220255D01*
X123905Y-220255D01*
X123917Y-220251D01*
X123942Y-220243D01*
X123942Y-220243D01*
X123942Y-220243D01*
X123956Y-220241D01*
X123980Y-220239D01*
X123980Y-220239D01*
X123980Y-220239D01*
X124048Y-220238D01*
X124048D01*
X124049D01*
X124049D01*
X124061Y-220239D01*
D02*
G37*
G36*
X-117305Y-216306D02*
X-117304Y-216306D01*
X-117286Y-216309D01*
X-117269Y-216312D01*
X-117133Y-216348D01*
X-117127Y-216350D01*
X-117120Y-216352D01*
X-117108Y-216357D01*
X-117097Y-216362D01*
X-117091Y-216365D01*
X-117085Y-216368D01*
X-116613Y-216641D01*
X-116611Y-216643D01*
X-116608Y-216644D01*
X-116143Y-216931D01*
X-116139Y-216935D01*
X-116133Y-216938D01*
X-115796Y-217176D01*
X-115788Y-217183D01*
X-115780Y-217188D01*
X-114667Y-218157D01*
X-114660Y-218165D01*
X-114651Y-218173D01*
X-113629Y-219290D01*
X-113622Y-219299D01*
X-113615Y-219307D01*
X-112696Y-220560D01*
X-112691Y-220569D01*
X-112685Y-220577D01*
X-111880Y-221950D01*
X-111876Y-221959D01*
X-111875Y-221960D01*
X-111669Y-222355D01*
X-111306Y-221345D01*
X-111304Y-221341D01*
X-111303Y-221337D01*
X-110801Y-220117D01*
X-110800Y-220115D01*
X-110799Y-220113D01*
X-110267Y-218896D01*
X-110257Y-218878D01*
X-110248Y-218863D01*
X-110248Y-218863D01*
X-110248Y-218862D01*
X-110235Y-218848D01*
X-110223Y-218834D01*
X-110223Y-218833D01*
X-110223Y-218833D01*
X-110209Y-218822D01*
X-110193Y-218809D01*
X-110062Y-218724D01*
X-110056Y-218721D01*
X-110050Y-218717D01*
X-110039Y-218712D01*
X-110028Y-218706D01*
X-110021Y-218704D01*
X-110015Y-218702D01*
X-110003Y-218699D01*
X-109990Y-218695D01*
X-109984Y-218695D01*
X-109977Y-218694D01*
X-109964Y-218693D01*
X-109952Y-218692D01*
X-109945Y-218693D01*
X-109938Y-218693D01*
X-109926Y-218695D01*
X-109913Y-218696D01*
X-109907Y-218699D01*
X-109900Y-218700D01*
X-109641Y-218774D01*
X-109632Y-218777D01*
X-109622Y-218780D01*
X-109614Y-218784D01*
X-109605Y-218788D01*
X-109596Y-218793D01*
X-109588Y-218798D01*
X-108936Y-219218D01*
X-108932Y-219221D01*
X-108928Y-219223D01*
X-108235Y-219719D01*
X-108230Y-219723D01*
X-108224Y-219727D01*
X-107616Y-220225D01*
X-107610Y-220231D01*
X-107603Y-220236D01*
X-106931Y-220891D01*
X-106926Y-220897D01*
X-106920Y-220903D01*
X-106215Y-221715D01*
X-106211Y-221721D01*
X-106206Y-221725D01*
X-105532Y-222615D01*
X-105528Y-222621D01*
X-105524Y-222626D01*
X-104941Y-223517D01*
X-104938Y-223523D01*
X-104934Y-223529D01*
X-104661Y-224014D01*
X-104659Y-224017D01*
X-104657Y-224020D01*
X-104277Y-224759D01*
X-104276Y-224761D01*
X-104275Y-224762D01*
X-103907Y-225504D01*
X-103904Y-225512D01*
X-103900Y-225519D01*
X-103786Y-225809D01*
X-103783Y-225819D01*
X-103781Y-225824D01*
X-103729Y-225992D01*
X-103727Y-226002D01*
X-103724Y-226012D01*
X-103723Y-226021D01*
X-103721Y-226030D01*
X-103721Y-226040D01*
X-103720Y-226050D01*
X-103721Y-226060D01*
X-103721Y-226069D01*
X-103723Y-226079D01*
X-103724Y-226089D01*
X-103727Y-226098D01*
X-103729Y-226107D01*
X-103733Y-226116D01*
X-103735Y-226126D01*
X-103740Y-226134D01*
X-103743Y-226143D01*
X-103749Y-226151D01*
X-103754Y-226160D01*
X-103760Y-226168D01*
X-103765Y-226175D01*
X-103772Y-226183D01*
X-103778Y-226190D01*
X-103786Y-226196D01*
X-103792Y-226203D01*
X-103800Y-226208D01*
X-103808Y-226215D01*
X-103816Y-226219D01*
X-103824Y-226224D01*
X-103834Y-226228D01*
X-103842Y-226233D01*
X-103851Y-226236D01*
X-103860Y-226239D01*
X-103870Y-226241D01*
X-103880Y-226244D01*
X-103889Y-226245D01*
X-103898Y-226247D01*
X-103908Y-226247D01*
X-103918Y-226248D01*
X-115110Y-226248D01*
X-115110D01*
X-115110D01*
X-122420Y-226245D01*
X-122420Y-226245D01*
X-122421Y-226245D01*
X-124829Y-226228D01*
X-124830Y-226228D01*
X-124831Y-226228D01*
X-126207Y-226204D01*
X-126207D01*
X-126207D01*
X-126208Y-226204D01*
X-126226Y-226202D01*
X-126245Y-226200D01*
X-126246Y-226199D01*
X-126247Y-226199D01*
X-126265Y-226193D01*
X-126283Y-226188D01*
X-126283Y-226187D01*
X-126283Y-226187D01*
X-126300Y-226178D01*
X-126316Y-226169D01*
X-126317Y-226169D01*
X-126317Y-226168D01*
X-126332Y-226156D01*
X-126346Y-226144D01*
X-126443Y-226044D01*
X-126447Y-226039D01*
X-126452Y-226034D01*
X-126460Y-226024D01*
X-126468Y-226014D01*
X-126471Y-226008D01*
X-126474Y-226003D01*
X-126479Y-225991D01*
X-126485Y-225980D01*
X-126487Y-225973D01*
X-126490Y-225967D01*
X-126493Y-225954D01*
X-126496Y-225942D01*
X-126497Y-225936D01*
X-126498Y-225929D01*
X-126498Y-225916D01*
X-126499Y-225904D01*
X-126499Y-225897D01*
X-126499Y-225890D01*
X-126477Y-225613D01*
X-126475Y-225605D01*
X-126474Y-225596D01*
X-126328Y-224724D01*
X-126327Y-224723D01*
X-126327Y-224722D01*
X-126163Y-223813D01*
X-126162Y-223811D01*
X-126162Y-223809D01*
X-126008Y-223048D01*
X-126007Y-223044D01*
X-126006Y-223040D01*
X-125645Y-221573D01*
X-125643Y-221568D01*
X-125642Y-221562D01*
X-125189Y-220108D01*
X-125187Y-220102D01*
X-125186Y-220097D01*
X-124666Y-218716D01*
X-124663Y-218710D01*
X-124660Y-218704D01*
X-124093Y-217460D01*
X-124090Y-217456D01*
X-124088Y-217451D01*
X-123969Y-217224D01*
X-123967Y-217221D01*
X-123966Y-217217D01*
X-123856Y-217026D01*
X-123854Y-217023D01*
X-123852Y-217020D01*
X-123756Y-216865D01*
X-123748Y-216855D01*
X-123742Y-216845D01*
X-123737Y-216840D01*
X-123732Y-216834D01*
X-123723Y-216826D01*
X-123714Y-216818D01*
X-123708Y-216813D01*
X-123703Y-216809D01*
X-123693Y-216803D01*
X-123682Y-216796D01*
X-123648Y-216777D01*
X-123631Y-216770D01*
X-123614Y-216763D01*
X-123613Y-216762D01*
X-123612Y-216762D01*
X-123594Y-216758D01*
X-123576Y-216754D01*
X-123575Y-216754D01*
X-123574Y-216754D01*
X-123556Y-216754D01*
X-123537Y-216754D01*
X-123536Y-216754D01*
X-123536Y-216754D01*
X-123517Y-216757D01*
X-123499Y-216761D01*
X-123338Y-216807D01*
X-123330Y-216810D01*
X-123322Y-216812D01*
X-123312Y-216817D01*
X-123302Y-216821D01*
X-123295Y-216826D01*
X-123287Y-216829D01*
X-122678Y-217214D01*
X-122676Y-217216D01*
X-122674Y-217217D01*
X-122076Y-217616D01*
X-122071Y-217620D01*
X-122066Y-217623D01*
X-121628Y-217953D01*
X-121622Y-217959D01*
X-121616Y-217964D01*
X-121074Y-218444D01*
X-121070Y-218449D01*
X-121065Y-218453D01*
X-120476Y-219050D01*
X-120473Y-219054D01*
X-120469Y-219057D01*
X-119912Y-219683D01*
X-119908Y-219689D01*
X-119903Y-219693D01*
X-119458Y-220266D01*
X-119455Y-220269D01*
X-119453Y-220272D01*
X-119251Y-220554D01*
X-119027Y-219892D01*
X-119027Y-219891D01*
X-119027Y-219891D01*
X-118728Y-219027D01*
X-118727Y-219025D01*
X-118726Y-219022D01*
X-118508Y-218440D01*
X-118506Y-218437D01*
X-118505Y-218433D01*
X-118279Y-217902D01*
X-118278Y-217899D01*
X-118277Y-217896D01*
X-117963Y-217222D01*
X-117962Y-217219D01*
X-117961Y-217217D01*
X-117808Y-216910D01*
X-117806Y-216906D01*
X-117805Y-216903D01*
X-117663Y-216644D01*
X-117661Y-216641D01*
X-117659Y-216638D01*
X-117534Y-216427D01*
X-117526Y-216417D01*
X-117519Y-216406D01*
X-117515Y-216401D01*
X-117511Y-216396D01*
X-117501Y-216387D01*
X-117492Y-216378D01*
X-117487Y-216374D01*
X-117482Y-216370D01*
X-117471Y-216363D01*
X-117460Y-216356D01*
X-117416Y-216331D01*
X-117400Y-216324D01*
X-117384Y-216316D01*
X-117382Y-216316D01*
X-117380Y-216315D01*
X-117363Y-216311D01*
X-117346Y-216307D01*
X-117344Y-216307D01*
X-117342Y-216307D01*
X-117325Y-216307D01*
X-117307Y-216306D01*
X-117305Y-216306D01*
D02*
G37*
G36*
X-153366Y-213249D02*
X-153357Y-213249D01*
X-153347Y-213251D01*
X-153336Y-213252D01*
X-153167Y-213284D01*
X-153156Y-213288D01*
X-153144Y-213290D01*
X-153137Y-213293D01*
X-153130Y-213296D01*
X-153119Y-213301D01*
X-153108Y-213306D01*
X-152934Y-213403D01*
X-152929Y-213406D01*
X-152924Y-213409D01*
X-152913Y-213418D01*
X-152902Y-213425D01*
X-152898Y-213429D01*
X-152893Y-213433D01*
X-152759Y-213561D01*
X-152754Y-213567D01*
X-152749Y-213572D01*
X-152742Y-213582D01*
X-152734Y-213591D01*
X-152730Y-213597D01*
X-152726Y-213603D01*
X-152720Y-213614D01*
X-152715Y-213625D01*
X-152712Y-213632D01*
X-152709Y-213638D01*
X-152665Y-213763D01*
X-152664Y-213770D01*
X-152661Y-213777D01*
X-152659Y-213789D01*
X-152656Y-213800D01*
X-152656Y-213808D01*
X-152655Y-213815D01*
X-152649Y-213895D01*
X-152169Y-217428D01*
Y-217428D01*
X-151796Y-220164D01*
X-151654Y-219154D01*
Y-219154D01*
X-151445Y-217647D01*
X-151445Y-217647D01*
X-151445Y-217647D01*
X-151043Y-214788D01*
X-151042Y-214783D01*
X-151041Y-214778D01*
X-150874Y-213919D01*
X-150872Y-213912D01*
X-150871Y-213905D01*
X-150866Y-213894D01*
X-150863Y-213882D01*
X-150860Y-213876D01*
X-150857Y-213869D01*
X-150671Y-213495D01*
X-150667Y-213489D01*
X-150664Y-213482D01*
X-150657Y-213473D01*
X-150650Y-213462D01*
X-150645Y-213457D01*
X-150641Y-213451D01*
X-150632Y-213443D01*
X-150624Y-213434D01*
X-150618Y-213430D01*
X-150612Y-213425D01*
X-150602Y-213419D01*
X-150592Y-213412D01*
X-150585Y-213408D01*
X-150579Y-213405D01*
X-150289Y-213267D01*
X-150280Y-213264D01*
X-150271Y-213259D01*
X-150262Y-213257D01*
X-150253Y-213254D01*
X-150243Y-213252D01*
X-150233Y-213250D01*
X-150224Y-213250D01*
X-150215Y-213248D01*
X-150204Y-213249D01*
X-150194Y-213248D01*
X-150185Y-213250D01*
X-150176Y-213250D01*
X-150166Y-213252D01*
X-150156Y-213254D01*
X-150147Y-213257D01*
X-150138Y-213259D01*
X-150129Y-213264D01*
X-150119Y-213267D01*
X-149832Y-213404D01*
X-149825Y-213408D01*
X-149818Y-213411D01*
X-149809Y-213418D01*
X-149799Y-213424D01*
X-149793Y-213429D01*
X-149787Y-213434D01*
X-149779Y-213442D01*
X-149770Y-213450D01*
X-149766Y-213456D01*
X-149760Y-213462D01*
X-149754Y-213472D01*
X-149747Y-213481D01*
X-149744Y-213488D01*
X-149740Y-213495D01*
X-149555Y-213866D01*
X-149552Y-213873D01*
X-149549Y-213879D01*
X-149546Y-213891D01*
X-149541Y-213902D01*
X-149540Y-213910D01*
X-149538Y-213917D01*
X-149373Y-214771D01*
X-149373Y-214776D01*
X-149372Y-214781D01*
X-148978Y-217622D01*
X-148978Y-217622D01*
X-148978Y-217622D01*
X-148773Y-219122D01*
Y-219122D01*
X-148624Y-220187D01*
X-148477Y-219135D01*
X-148477Y-219135D01*
X-148276Y-217664D01*
X-148276Y-217664D01*
X-148276Y-217664D01*
X-148071Y-216182D01*
X-148071Y-216181D01*
X-148071Y-216181D01*
X-147886Y-214906D01*
X-147886Y-214905D01*
X-147886Y-214904D01*
X-147720Y-213794D01*
X-147717Y-213781D01*
X-147714Y-213768D01*
X-147676Y-213635D01*
X-147673Y-213628D01*
X-147671Y-213620D01*
X-147666Y-213610D01*
X-147662Y-213599D01*
X-147657Y-213593D01*
X-147654Y-213585D01*
X-147612Y-213518D01*
X-147609Y-213515D01*
X-147607Y-213511D01*
X-147597Y-213500D01*
X-147588Y-213488D01*
X-147585Y-213485D01*
X-147582Y-213482D01*
X-147517Y-213418D01*
X-147503Y-213406D01*
X-147489Y-213395D01*
X-147412Y-213343D01*
X-147410Y-213342D01*
X-147408Y-213340D01*
X-147393Y-213333D01*
X-147378Y-213325D01*
X-147376Y-213324D01*
X-147373Y-213323D01*
X-147295Y-213293D01*
X-147290Y-213291D01*
X-147284Y-213289D01*
X-147271Y-213286D01*
X-147258Y-213282D01*
X-147252Y-213282D01*
X-147246Y-213281D01*
X-147044Y-213257D01*
X-147035Y-213257D01*
X-147027Y-213256D01*
X-147016Y-213257D01*
X-147005Y-213257D01*
X-146997Y-213258D01*
X-146988Y-213259D01*
X-146798Y-213292D01*
X-146786Y-213295D01*
X-146773Y-213298D01*
X-146767Y-213300D01*
X-146760Y-213302D01*
X-146749Y-213308D01*
X-146737Y-213313D01*
X-146585Y-213395D01*
X-146582Y-213397D01*
X-146580Y-213398D01*
X-146566Y-213407D01*
X-146553Y-213417D01*
X-146551Y-213419D01*
X-146548Y-213420D01*
X-146537Y-213433D01*
X-146525Y-213444D01*
X-146524Y-213446D01*
X-146522Y-213449D01*
X-146429Y-213570D01*
X-146419Y-213586D01*
X-146409Y-213601D01*
X-146409Y-213602D01*
X-146408Y-213603D01*
X-146402Y-213620D01*
X-146395Y-213637D01*
X-146340Y-213837D01*
X-146338Y-213850D01*
X-146335Y-213863D01*
X-145587Y-219378D01*
Y-219378D01*
X-144852Y-224801D01*
X-144852Y-224808D01*
X-144851Y-224815D01*
X-144834Y-225070D01*
X-143685Y-225087D01*
D01*
X-142108Y-225102D01*
X-139968Y-225106D01*
D01*
X-137776Y-225110D01*
X-137776Y-225110D01*
X-137775Y-225110D01*
X-135364Y-225121D01*
X-135364Y-225121D01*
X-135363Y-225121D01*
X-133096Y-225137D01*
X-133095Y-225137D01*
X-133095Y-225137D01*
X-131390Y-225155D01*
X-131378Y-225157D01*
X-127865Y-225206D01*
X-127847Y-225208D01*
X-127829Y-225210D01*
X-127828Y-225210D01*
X-127827Y-225211D01*
X-127810Y-225216D01*
X-127792Y-225221D01*
X-127791Y-225222D01*
X-127790Y-225222D01*
X-127774Y-225231D01*
X-127758Y-225240D01*
X-127757Y-225240D01*
X-127756Y-225241D01*
X-127742Y-225253D01*
X-127728Y-225264D01*
X-127727Y-225265D01*
X-127726Y-225266D01*
X-127715Y-225280D01*
X-127703Y-225294D01*
X-127703Y-225295D01*
X-127702Y-225296D01*
X-127694Y-225312D01*
X-127685Y-225328D01*
X-127685Y-225330D01*
X-127684Y-225331D01*
X-127679Y-225348D01*
X-127674Y-225365D01*
X-127674Y-225367D01*
X-127673Y-225368D01*
X-127672Y-225386D01*
X-127670Y-225404D01*
Y-226050D01*
X-127670Y-226051D01*
X-127670Y-226051D01*
X-127672Y-226070D01*
X-127674Y-226089D01*
X-127674Y-226089D01*
X-127674Y-226090D01*
X-127680Y-226108D01*
X-127685Y-226126D01*
X-127685Y-226126D01*
X-127685Y-226127D01*
X-127694Y-226143D01*
X-127703Y-226160D01*
X-127704Y-226161D01*
X-127704Y-226161D01*
X-127716Y-226175D01*
X-127728Y-226190D01*
X-127728Y-226190D01*
X-127728Y-226191D01*
X-127744Y-226203D01*
X-127758Y-226215D01*
X-127758Y-226215D01*
X-127758Y-226215D01*
X-127777Y-226225D01*
X-127792Y-226233D01*
X-127793Y-226233D01*
X-127793Y-226233D01*
X-127812Y-226239D01*
X-127829Y-226244D01*
X-127830Y-226244D01*
X-127830Y-226244D01*
X-127849Y-226246D01*
X-127868Y-226248D01*
X-127868Y-226248D01*
X-127868Y-226248D01*
X-145714Y-226211D01*
X-145730Y-226209D01*
X-145746Y-226208D01*
X-145749Y-226207D01*
X-145752Y-226207D01*
X-145768Y-226202D01*
X-145783Y-226198D01*
X-145786Y-226197D01*
X-145789Y-226196D01*
X-145804Y-226188D01*
X-145818Y-226181D01*
X-145821Y-226179D01*
X-145824Y-226177D01*
X-145836Y-226167D01*
X-145849Y-226157D01*
X-145851Y-226155D01*
X-145853Y-226153D01*
X-145864Y-226140D01*
X-145874Y-226128D01*
X-146008Y-225942D01*
X-146010Y-225938D01*
X-146010Y-225937D01*
X-146013Y-225932D01*
X-146019Y-225925D01*
X-146022Y-225916D01*
X-146027Y-225908D01*
X-146028Y-225905D01*
X-146029Y-225903D01*
X-146114Y-225704D01*
X-146115Y-225700D01*
X-146116Y-225697D01*
X-146120Y-225682D01*
X-146125Y-225667D01*
X-146126Y-225663D01*
X-146126Y-225660D01*
X-146252Y-224929D01*
X-146252Y-224927D01*
X-146253Y-224925D01*
X-146419Y-223823D01*
X-146419Y-223822D01*
X-146419Y-223820D01*
X-146677Y-221937D01*
Y-221937D01*
X-146677Y-221937D01*
X-146872Y-220504D01*
X-147035Y-219349D01*
X-147197Y-220456D01*
X-147399Y-221914D01*
X-147399Y-221914D01*
X-147781Y-224666D01*
X-147782Y-224671D01*
X-147783Y-224676D01*
X-147952Y-225556D01*
X-147953Y-225560D01*
X-147954Y-225566D01*
X-147959Y-225579D01*
X-147963Y-225593D01*
X-147965Y-225597D01*
X-147967Y-225602D01*
X-148149Y-225993D01*
X-148153Y-225999D01*
X-148156Y-226006D01*
X-148163Y-226016D01*
X-148169Y-226026D01*
X-148174Y-226032D01*
X-148178Y-226038D01*
X-148187Y-226046D01*
X-148195Y-226055D01*
X-148201Y-226060D01*
X-148206Y-226065D01*
X-148216Y-226071D01*
X-148226Y-226078D01*
X-148233Y-226082D01*
X-148239Y-226086D01*
X-148517Y-226226D01*
X-148524Y-226229D01*
X-148530Y-226232D01*
X-148542Y-226236D01*
X-148553Y-226240D01*
X-148560Y-226241D01*
X-148567Y-226243D01*
X-148579Y-226245D01*
X-148591Y-226247D01*
X-148598Y-226247D01*
X-148605Y-226247D01*
X-148618Y-226246D01*
X-148630Y-226246D01*
X-148637Y-226244D01*
X-148644Y-226244D01*
X-148834Y-226207D01*
X-148853Y-226201D01*
X-148871Y-226196D01*
X-148871Y-226196D01*
X-148872Y-226196D01*
X-148888Y-226187D01*
X-148905Y-226178D01*
X-149066Y-226072D01*
X-149080Y-226061D01*
X-149094Y-226051D01*
X-149095Y-226049D01*
X-149097Y-226048D01*
X-149108Y-226034D01*
X-149119Y-226021D01*
X-149239Y-225853D01*
X-149245Y-225843D01*
X-149251Y-225834D01*
X-149255Y-225826D01*
X-149259Y-225819D01*
X-149262Y-225808D01*
X-149267Y-225798D01*
X-149336Y-225579D01*
X-149339Y-225564D01*
X-149343Y-225550D01*
X-149373Y-225361D01*
X-149373Y-225359D01*
X-149374Y-225357D01*
X-149519Y-224305D01*
Y-224305D01*
X-149519Y-224305D01*
X-149687Y-223081D01*
Y-223081D01*
X-149687Y-223080D01*
X-149878Y-221676D01*
Y-221676D01*
X-150182Y-219442D01*
X-150201Y-219311D01*
X-150576Y-221990D01*
X-150576Y-221990D01*
Y-221990D01*
X-151087Y-225630D01*
X-151090Y-225641D01*
X-151091Y-225652D01*
X-151135Y-225822D01*
X-151139Y-225832D01*
X-151142Y-225843D01*
X-151146Y-225851D01*
X-151149Y-225858D01*
X-151155Y-225868D01*
X-151160Y-225878D01*
X-151231Y-225991D01*
X-151241Y-226003D01*
X-151250Y-226015D01*
X-151253Y-226018D01*
X-151255Y-226021D01*
X-151267Y-226031D01*
X-151278Y-226042D01*
X-151395Y-226131D01*
X-151402Y-226135D01*
X-151410Y-226141D01*
X-151419Y-226146D01*
X-151428Y-226151D01*
X-151436Y-226154D01*
X-151444Y-226158D01*
X-151594Y-226215D01*
X-151600Y-226217D01*
X-151604Y-226219D01*
X-151618Y-226222D01*
X-151632Y-226225D01*
X-151637Y-226226D01*
X-151642Y-226227D01*
X-151813Y-226246D01*
X-151815Y-226246D01*
X-151817Y-226247D01*
X-151834Y-226246D01*
X-151851Y-226247D01*
X-151853Y-226246D01*
X-151856Y-226246D01*
X-151872Y-226243D01*
X-151889Y-226240D01*
X-151891Y-226239D01*
X-151893Y-226238D01*
X-151909Y-226232D01*
X-151926Y-226225D01*
X-151927Y-226224D01*
X-151929Y-226223D01*
X-152190Y-226082D01*
X-152197Y-226077D01*
X-152204Y-226074D01*
X-152213Y-226066D01*
X-152222Y-226060D01*
X-152228Y-226054D01*
X-152234Y-226049D01*
X-152241Y-226041D01*
X-152249Y-226032D01*
X-152254Y-226026D01*
X-152259Y-226020D01*
X-152264Y-226009D01*
X-152271Y-226000D01*
X-152274Y-225993D01*
X-152277Y-225986D01*
X-152453Y-225575D01*
X-152453Y-225573D01*
X-152454Y-225571D01*
X-152459Y-225555D01*
X-152464Y-225538D01*
X-152464Y-225536D01*
X-152465Y-225534D01*
X-152635Y-224630D01*
X-152635Y-224625D01*
X-152636Y-224620D01*
X-153012Y-221912D01*
Y-221912D01*
X-153214Y-220455D01*
X-153374Y-219353D01*
X-153537Y-220504D01*
X-153733Y-221937D01*
X-153733Y-221937D01*
Y-221937D01*
X-153989Y-223806D01*
X-153990Y-223807D01*
X-153990Y-223809D01*
X-154157Y-224916D01*
X-154157Y-224918D01*
X-154157Y-224920D01*
X-154285Y-225661D01*
X-154286Y-225664D01*
X-154286Y-225667D01*
X-154291Y-225683D01*
X-154295Y-225698D01*
X-154296Y-225701D01*
X-154297Y-225704D01*
X-154381Y-225903D01*
X-154381Y-225904D01*
X-154383Y-225907D01*
X-154387Y-225915D01*
X-154391Y-225924D01*
X-154397Y-225932D01*
X-154399Y-225936D01*
X-154399Y-225937D01*
X-154399Y-225937D01*
X-154402Y-225941D01*
X-154534Y-226128D01*
X-154545Y-226140D01*
X-154555Y-226153D01*
X-154557Y-226155D01*
X-154559Y-226157D01*
X-154572Y-226167D01*
X-154585Y-226178D01*
X-154588Y-226179D01*
X-154590Y-226181D01*
X-154605Y-226188D01*
X-154619Y-226196D01*
X-154622Y-226197D01*
X-154624Y-226198D01*
X-154640Y-226202D01*
X-154656Y-226207D01*
X-154659Y-226207D01*
X-154662Y-226208D01*
X-154678Y-226209D01*
X-154695Y-226211D01*
X-181117Y-226248D01*
X-181117Y-226248D01*
X-181117Y-226248D01*
X-181138Y-226246D01*
X-181156Y-226244D01*
X-181156Y-226244D01*
X-181156Y-226244D01*
X-181174Y-226239D01*
X-181193Y-226233D01*
X-181193Y-226233D01*
X-181193Y-226233D01*
X-181210Y-226224D01*
X-181227Y-226215D01*
X-181227Y-226215D01*
X-181227Y-226215D01*
X-181242Y-226202D01*
X-181257Y-226190D01*
X-181257Y-226190D01*
X-181257Y-226190D01*
X-181271Y-226174D01*
X-181281Y-226161D01*
X-181281Y-226161D01*
X-181282Y-226160D01*
X-181292Y-226141D01*
X-181300Y-226126D01*
X-181300Y-226126D01*
X-181300Y-226126D01*
X-181305Y-226108D01*
X-181311Y-226089D01*
X-181311Y-226089D01*
X-181311Y-226089D01*
X-181313Y-226072D01*
X-181315Y-226051D01*
X-181315Y-226051D01*
X-181315Y-226050D01*
Y-225404D01*
X-181313Y-225386D01*
X-181312Y-225368D01*
X-181311Y-225367D01*
X-181311Y-225365D01*
X-181306Y-225348D01*
X-181301Y-225331D01*
X-181300Y-225330D01*
X-181300Y-225328D01*
X-181291Y-225313D01*
X-181283Y-225296D01*
X-181282Y-225295D01*
X-181282Y-225294D01*
X-181270Y-225280D01*
X-181259Y-225266D01*
X-181258Y-225265D01*
X-181257Y-225264D01*
X-181243Y-225253D01*
X-181229Y-225241D01*
X-181228Y-225240D01*
X-181227Y-225240D01*
X-181211Y-225231D01*
X-181195Y-225222D01*
X-181194Y-225222D01*
X-181193Y-225221D01*
X-181176Y-225216D01*
X-181158Y-225211D01*
X-181157Y-225210D01*
X-181156Y-225210D01*
X-181138Y-225208D01*
X-181120Y-225206D01*
X-177543Y-225157D01*
X-177539Y-225157D01*
X-177527Y-225155D01*
X-175561Y-225136D01*
X-175561Y-225136D01*
X-175560Y-225136D01*
X-172265Y-225120D01*
X-172265Y-225120D01*
X-172265Y-225120D01*
X-168474Y-225110D01*
X-168474Y-225110D01*
X-168474Y-225110D01*
X-164661Y-225106D01*
D01*
X-160567Y-225102D01*
X-160567D01*
X-157716Y-225087D01*
X-157716D01*
X-155570Y-225069D01*
X-155365Y-223501D01*
X-155365Y-223501D01*
Y-223501D01*
X-155124Y-221671D01*
X-155124Y-221671D01*
Y-221671D01*
X-154838Y-219513D01*
X-154838Y-219513D01*
X-154552Y-217353D01*
X-154552Y-217353D01*
X-154311Y-215521D01*
Y-215521D01*
X-154098Y-213886D01*
X-154093Y-213820D01*
X-154091Y-213806D01*
X-154089Y-213792D01*
X-154080Y-213748D01*
X-154077Y-213740D01*
X-154075Y-213731D01*
X-154071Y-213721D01*
X-154068Y-213711D01*
X-154064Y-213703D01*
X-154060Y-213695D01*
X-154026Y-213632D01*
X-154019Y-213623D01*
X-154014Y-213612D01*
X-153965Y-213544D01*
X-153958Y-213536D01*
X-153951Y-213527D01*
X-153894Y-213463D01*
X-153881Y-213451D01*
X-153868Y-213439D01*
X-153795Y-213381D01*
X-153794Y-213381D01*
X-153794Y-213381D01*
X-153778Y-213371D01*
X-153762Y-213361D01*
X-153761Y-213360D01*
X-153761Y-213360D01*
X-153664Y-213312D01*
X-153649Y-213307D01*
X-153635Y-213301D01*
X-153531Y-213268D01*
X-153531Y-213268D01*
X-153530D01*
X-153530Y-213268D01*
X-153515Y-213264D01*
X-153492Y-213260D01*
X-153395Y-213249D01*
X-153385Y-213249D01*
X-153375Y-213248D01*
X-153366Y-213249D01*
D02*
G37*
%LPC*%
G36*
X215088Y-217122D02*
X203893Y-221724D01*
X212064Y-229895D01*
X207891Y-221528D01*
X207890Y-221525D01*
X207888Y-221522D01*
X207883Y-221507D01*
X207877Y-221492D01*
X207877Y-221489D01*
X207876Y-221486D01*
X207873Y-221470D01*
X207871Y-221454D01*
X207871Y-221450D01*
X207870Y-221447D01*
X207871Y-221431D01*
X207872Y-221415D01*
X207872Y-221412D01*
X207873Y-221409D01*
X207877Y-221393D01*
X207880Y-221377D01*
X207882Y-221374D01*
X207882Y-221371D01*
X207939Y-221220D01*
X207940Y-221217D01*
X207941Y-221214D01*
X207949Y-221199D01*
X207956Y-221185D01*
X207958Y-221182D01*
X207959Y-221179D01*
X207969Y-221167D01*
X207979Y-221154D01*
X207981Y-221152D01*
X207983Y-221149D01*
X207996Y-221139D01*
X208008Y-221128D01*
X208011Y-221127D01*
X208013Y-221124D01*
X208028Y-221117D01*
X208042Y-221109D01*
X208045Y-221108D01*
X208047Y-221106D01*
X209239Y-220604D01*
X209251Y-220600D01*
X209264Y-220596D01*
X209270Y-220595D01*
X209276Y-220593D01*
X209289Y-220591D01*
X209302Y-220589D01*
X209308Y-220589D01*
X209314Y-220589D01*
X209327Y-220590D01*
X209341Y-220590D01*
X209347Y-220592D01*
X209353Y-220592D01*
X209366Y-220596D01*
X209378Y-220599D01*
X209384Y-220602D01*
X209390Y-220603D01*
X209402Y-220609D01*
X209414Y-220615D01*
X209419Y-220619D01*
X209425Y-220621D01*
X209435Y-220630D01*
X209445Y-220637D01*
X209450Y-220642D01*
X209455Y-220646D01*
X209463Y-220656D01*
X209472Y-220665D01*
X209475Y-220671D01*
X209479Y-220676D01*
X209486Y-220687D01*
X209493Y-220698D01*
X215088Y-231911D01*
X220683Y-220698D01*
X220690Y-220687D01*
X220697Y-220676D01*
X220701Y-220671D01*
X220704Y-220665D01*
X220713Y-220656D01*
X220721Y-220646D01*
X220726Y-220642D01*
X220731Y-220637D01*
X220741Y-220630D01*
X220752Y-220621D01*
X220757Y-220619D01*
X220762Y-220615D01*
X220774Y-220609D01*
X220786Y-220603D01*
X220792Y-220602D01*
X220798Y-220599D01*
X220811Y-220596D01*
X220823Y-220592D01*
X220829Y-220592D01*
X220835Y-220590D01*
X220849Y-220590D01*
X220862Y-220589D01*
X220868Y-220589D01*
X220874Y-220589D01*
X220887Y-220591D01*
X220900Y-220593D01*
X220906Y-220595D01*
X220913Y-220596D01*
X220925Y-220600D01*
X220937Y-220604D01*
X222129Y-221106D01*
X222131Y-221108D01*
X222135Y-221109D01*
X222149Y-221117D01*
X222163Y-221124D01*
X222165Y-221127D01*
X222168Y-221128D01*
X222180Y-221139D01*
X222193Y-221149D01*
X222195Y-221152D01*
X222197Y-221154D01*
X222207Y-221167D01*
X222217Y-221179D01*
X222219Y-221182D01*
X222220Y-221185D01*
X222228Y-221199D01*
X222235Y-221214D01*
X222236Y-221217D01*
X222237Y-221220D01*
X222294Y-221371D01*
X222294Y-221374D01*
X222296Y-221377D01*
X222299Y-221393D01*
X222303Y-221409D01*
X222304Y-221412D01*
X222304Y-221415D01*
X222305Y-221431D01*
X222306Y-221447D01*
X222305Y-221451D01*
X222305Y-221454D01*
X222303Y-221470D01*
X222300Y-221486D01*
X222299Y-221489D01*
X222299Y-221492D01*
X222293Y-221507D01*
X222288Y-221523D01*
X222286Y-221525D01*
X222285Y-221528D01*
X218112Y-229874D01*
X226283Y-221724D01*
X215088Y-217122D01*
D02*
G37*
G36*
X111127Y-218180D02*
X111094Y-218198D01*
D01*
X111094Y-218198D01*
X111081Y-218202D01*
X111057Y-218210D01*
X111019Y-218214D01*
X110962Y-218214D01*
X110953Y-218225D01*
X110953Y-218225D01*
X110953Y-218225D01*
X110940Y-218236D01*
X110924Y-218250D01*
X110924Y-218250D01*
X110924Y-218250D01*
X110915Y-218255D01*
X110910Y-218264D01*
X110910Y-218264D01*
X110910Y-218264D01*
X110896Y-218281D01*
X110886Y-218294D01*
X110886Y-218294D01*
X110886Y-218294D01*
X110862Y-218314D01*
X110856Y-218319D01*
X110856D01*
X110856Y-218319D01*
X110847Y-218324D01*
X110842Y-218332D01*
X110872Y-218316D01*
X110875Y-218314D01*
D01*
X110875Y-218314D01*
X110886Y-218310D01*
X110913Y-218302D01*
X110951Y-218298D01*
X111008Y-218298D01*
X111016Y-218287D01*
X111016Y-218287D01*
X111017Y-218287D01*
X111033Y-218273D01*
X111046Y-218262D01*
X111046Y-218262D01*
X111046Y-218262D01*
X111055Y-218257D01*
X111060Y-218248D01*
X111081Y-218222D01*
X111084Y-218218D01*
X111084Y-218218D01*
X111084Y-218218D01*
X111105Y-218200D01*
X111114Y-218193D01*
X111114Y-218193D01*
X111114Y-218193D01*
X111123Y-218188D01*
X111127Y-218180D01*
D02*
G37*
G36*
X110787Y-218388D02*
X110779Y-218393D01*
X110775Y-218401D01*
X110783Y-218396D01*
X110787Y-218388D01*
D02*
G37*
G36*
X110719Y-218457D02*
X110711Y-218462D01*
X110707Y-218470D01*
X110715Y-218466D01*
X110719Y-218457D01*
D02*
G37*
G36*
X110651Y-218527D02*
X110643Y-218531D01*
X110639Y-218539D01*
X110647Y-218535D01*
X110651Y-218527D01*
D02*
G37*
G36*
X110583Y-218596D02*
X110550Y-218614D01*
X110513Y-218625D01*
X110487Y-218628D01*
X110478Y-218640D01*
X110477Y-218640D01*
X110477Y-218640D01*
X110467Y-218649D01*
X110448Y-218665D01*
X110448Y-218665D01*
X110448Y-218665D01*
X110442Y-218668D01*
X110439Y-218670D01*
X110434Y-218679D01*
X110410Y-218709D01*
X110410Y-218709D01*
X110410Y-218709D01*
X110404Y-218714D01*
X110407Y-218714D01*
X110464Y-218713D01*
X110469Y-218706D01*
X110472Y-218703D01*
X110472Y-218703D01*
X110472Y-218703D01*
X110493Y-218685D01*
X110502Y-218678D01*
X110502Y-218678D01*
X110502Y-218678D01*
X110511Y-218673D01*
X110516Y-218664D01*
X110516Y-218664D01*
X110516Y-218664D01*
X110525Y-218653D01*
X110540Y-218634D01*
X110540Y-218633D01*
X110540Y-218633D01*
X110570Y-218609D01*
X110579Y-218604D01*
X110583Y-218596D01*
D02*
G37*
G36*
X110107Y-218942D02*
X110099Y-218947D01*
X110094Y-218955D01*
X110103Y-218950D01*
X110107Y-218942D01*
D02*
G37*
%LPD*%
D12*
X319803Y47244D02*
X319803Y47244D01*
X-159449Y37402D02*
G03*
X-135827Y37402I11811J0D01*
G01*
X-159449Y45191D02*
G03*
X-161503Y47244I-2054J0D01*
G01*
X-133773D02*
G03*
X-135827Y45191I0J-2054D01*
G01*
X161503Y47244D02*
G03*
X159449Y45191I0J-2054D01*
G01*
X135827D02*
G03*
X133773Y47244I-2054J0D01*
G01*
X135827Y37402D02*
G03*
X159449Y37402I11811J0D01*
G01*
X324803Y42244D02*
G03*
X319803Y47244I-5000J0D01*
G01*
Y-244094D02*
G03*
X324803Y-239094I0J5000D01*
G01*
X-324803D02*
G03*
X-319803Y-244094I5000J0D01*
G01*
Y47244D02*
G03*
X-324803Y42244I0J-5000D01*
G01*
X161503Y47244D02*
X319803D01*
X-133773D02*
X133773D01*
X-159449Y37402D02*
Y45191D01*
X-135827Y37402D02*
Y45191D01*
X159449Y37402D02*
Y45191D01*
X135827Y37402D02*
Y45191D01*
X324803Y-239094D02*
Y42244D01*
X-319803Y-244094D02*
X319803D01*
X-324803Y-239094D02*
Y42244D01*
X-319803Y47244D02*
X-161503D01*
D34*
X172244Y-151575D02*
G03*
X172244Y-151575I-24606J0D01*
G01*
X73819D02*
G03*
X73819Y-151575I-24606J0D01*
G01*
X-24606D02*
G03*
X-24606Y-151575I-24606J0D01*
G01*
X-123031Y-151575D02*
G03*
X-123031Y-151575I-24606J0D01*
G01*
X-123031Y-53150D02*
G03*
X-123031Y-53150I-24606J0D01*
G01*
X-24606D02*
G03*
X-24606Y-53150I-24606J0D01*
G01*
X73819D02*
G03*
X73819Y-53150I-24606J0D01*
G01*
X172244D02*
G03*
X172244Y-53150I-24606J0D01*
G01*
D35*
X165354Y-151575D02*
G03*
X165354Y-151575I-17717J0D01*
G01*
X116389Y-155517D02*
G03*
X116389Y-147633I31248J3942D01*
G01*
X66929Y-151575D02*
G03*
X66929Y-151575I-17717J0D01*
G01*
X17964Y-155517D02*
G03*
X17964Y-147633I31248J3942D01*
G01*
X-31496Y-151575D02*
G03*
X-31496Y-151575I-17717J0D01*
G01*
X-80461Y-155517D02*
G03*
X-80461Y-147633I31248J3942D01*
G01*
X-129921Y-151575D02*
G03*
X-129921Y-151575I-17717J0D01*
G01*
X-178886Y-155517D02*
G03*
X-178886Y-147633I31248J3942D01*
G01*
X165354Y-53150D02*
G03*
X165354Y-53150I-17717J0D01*
G01*
X116389Y-57092D02*
G03*
X116389Y-49207I31248J3942D01*
G01*
X66929Y-53150D02*
G03*
X66929Y-53150I-17717J0D01*
G01*
X17964Y-57092D02*
G03*
X17964Y-49207I31248J3942D01*
G01*
X-31496Y-53150D02*
G03*
X-31496Y-53150I-17717J0D01*
G01*
X-80461Y-57092D02*
G03*
X-80461Y-49207I31248J3942D01*
G01*
X-129921Y-53150D02*
G03*
X-129921Y-53150I-17717J0D01*
G01*
X-178886Y-57092D02*
G03*
X-178886Y-49207I31248J3942D01*
G01*
D36*
X-213977Y11811D02*
D03*
X-207284D02*
D03*
X-213977Y17716D02*
D03*
X-207284Y17716D02*
D03*
X-217126Y-196851D02*
D03*
X-223819Y-196851D02*
D03*
X-279134Y-206693D02*
D03*
X-285827Y-206693D02*
D03*
X-279134Y-128937D02*
D03*
X-285827Y-128937D02*
D03*
X-279134Y-49213D02*
D03*
X-285827Y-49213D02*
D03*
X64567Y40355D02*
D03*
X71260Y40355D02*
D03*
X43701Y21653D02*
D03*
X37007D02*
D03*
X43701Y15748D02*
D03*
X37007D02*
D03*
X77362Y40354D02*
D03*
X84055D02*
D03*
X96850D02*
D03*
X90157D02*
D03*
X93897Y2952D02*
D03*
X87204Y2952D02*
D03*
X67520Y2953D02*
D03*
X74213Y2953D02*
D03*
X102953Y27559D02*
D03*
X109646D02*
D03*
X102953Y21654D02*
D03*
X109646Y21654D02*
D03*
X226771Y984D02*
D03*
X220078Y984D02*
D03*
X249409Y-53150D02*
D03*
X242716Y-53150D02*
D03*
X249409Y-59056D02*
D03*
X242716Y-59055D02*
D03*
X249409Y-64961D02*
D03*
X242716Y-64961D02*
D03*
X295669Y-206693D02*
D03*
X288976Y-206693D02*
D03*
X223819Y-196851D02*
D03*
X217126Y-196851D02*
D03*
D37*
X-92520Y-227756D02*
D03*
X-92520Y-221063D02*
D03*
X-66930Y23032D02*
D03*
X-66929Y16339D02*
D03*
X162402Y25000D02*
D03*
X162402Y31693D02*
D03*
X168898Y34842D02*
D03*
X168898Y28149D02*
D03*
X224803Y34842D02*
D03*
X224803Y28149D02*
D03*
X287401Y-55511D02*
D03*
X287401Y-48819D02*
D03*
X287401Y-134252D02*
D03*
X287401Y-127559D02*
D03*
X-43307Y16339D02*
D03*
Y23032D02*
D03*
D38*
X-157283Y-46850D02*
D03*
X-58858D02*
D03*
X39567D02*
D03*
X137992D02*
D03*
Y-145276D02*
D03*
X39567D02*
D03*
X-58858D02*
D03*
X-157283D02*
D03*
D39*
Y-59449D02*
D03*
X-58858D02*
D03*
X39567D02*
D03*
X137992D02*
D03*
Y-157874D02*
D03*
X39567D02*
D03*
X-58858D02*
D03*
X-157283D02*
D03*
D40*
X-137992Y-59449D02*
D03*
X-39567D02*
D03*
X58858D02*
D03*
X157283D02*
D03*
Y-157874D02*
D03*
X58858D02*
D03*
X-39567D02*
D03*
X-137992D02*
D03*
D41*
Y-46850D02*
D03*
X-39567D02*
D03*
X58858D02*
D03*
X157283D02*
D03*
Y-145276D02*
D03*
X58858D02*
D03*
X-39567D02*
D03*
X-137992D02*
D03*
D42*
X-87795Y15945D02*
D03*
X-97244Y19685D02*
D03*
D43*
X-87795Y23425D02*
D03*
D44*
X-76772Y11614D02*
D03*
Y27756D02*
D03*
D45*
X-50492Y23425D02*
D03*
Y15945D02*
D03*
X-59744D02*
D03*
Y19685D02*
D03*
Y23425D02*
D03*
D46*
X95709Y31102D02*
D03*
X90709D02*
D03*
X85709D02*
D03*
X80709D02*
D03*
X95709Y12205D02*
D03*
X90709Y12205D02*
D03*
X85709D02*
D03*
X80709Y12205D02*
D03*
X65709Y31102D02*
D03*
X70709D02*
D03*
X75709D02*
D03*
X65709Y12205D02*
D03*
X70709D02*
D03*
X75709D02*
D03*
D47*
X169193Y6299D02*
D03*
Y3150D02*
D03*
X169193Y4724D02*
D03*
Y7874D02*
D03*
X153642Y12598D02*
D03*
Y11024D02*
D03*
Y9449D02*
D03*
Y7874D02*
D03*
Y6299D02*
D03*
Y4724D02*
D03*
Y3150D02*
D03*
X169193Y9449D02*
D03*
Y11024D02*
D03*
Y12598D02*
D03*
D48*
X166142Y15650D02*
D03*
X164567D02*
D03*
X162992D02*
D03*
X161417Y15650D02*
D03*
X159843Y15650D02*
D03*
X158268Y15650D02*
D03*
X156693Y15650D02*
D03*
Y98D02*
D03*
X158268D02*
D03*
X159843D02*
D03*
X161417D02*
D03*
X162992D02*
D03*
X164567D02*
D03*
X166142D02*
D03*
D49*
X161417Y7874D02*
D03*
D50*
X206890Y23435D02*
D03*
X205709D02*
D03*
X203740Y23435D02*
D03*
X201772D02*
D03*
X199803Y23435D02*
D03*
X197835D02*
D03*
X195866D02*
D03*
X193898D02*
D03*
X191929Y23435D02*
D03*
X189961Y23435D02*
D03*
X187992D02*
D03*
X186811D02*
D03*
X183563D02*
D03*
X184744D02*
D03*
X208957D02*
D03*
X210138D02*
D03*
D51*
X176890Y27037D02*
D03*
X216811D02*
D03*
D52*
Y43494D02*
D03*
X176890D02*
D03*
D53*
X211024Y1575D02*
D03*
X183465D02*
D03*
X211024Y13386D02*
D03*
X183465D02*
D03*
D54*
X149606Y-138779D02*
D03*
X145669D02*
D03*
X51181D02*
D03*
X47244D02*
D03*
X-47244D02*
D03*
X-51181D02*
D03*
X-145669D02*
D03*
X-149606D02*
D03*
X149606Y-40354D02*
D03*
X145669D02*
D03*
X51181D02*
D03*
X47244D02*
D03*
X-47244D02*
D03*
X-51181D02*
D03*
X-145669D02*
D03*
X-149606D02*
D03*
D55*
X260157Y41339D02*
D03*
X250157D02*
D03*
X-250157D02*
D03*
X-260157D02*
D03*
X-287402Y-196850D02*
D03*
X-277559D02*
D03*
X-287402Y-118110D02*
D03*
X-277559D02*
D03*
X-287402Y-39370D02*
D03*
X-277559D02*
D03*
X287402D02*
D03*
X297244D02*
D03*
X287402Y-118110D02*
D03*
X297244D02*
D03*
X287402Y-196850D02*
D03*
X297244D02*
D03*
X-25000Y26654D02*
D03*
X-15000Y16654D02*
D03*
Y26654D02*
D03*
X-5000Y16654D02*
D03*
X-5000Y26654D02*
D03*
X15000D02*
D03*
X15000Y16654D02*
D03*
X5000Y26654D02*
D03*
Y16654D02*
D03*
X25000Y26654D02*
D03*
Y16654D02*
D03*
D56*
X240158Y41339D02*
D03*
X-270158D02*
D03*
X-297244Y-196850D02*
D03*
Y-118110D02*
D03*
Y-39370D02*
D03*
X277559D02*
D03*
Y-118110D02*
D03*
Y-196850D02*
D03*
X-25000Y16654D02*
D03*
D57*
X68898Y-231791D02*
D03*
X-68898Y-217028D02*
D03*
X-213090Y-33465D02*
D03*
X-227854Y-171260D02*
D03*
X227854Y-33465D02*
D03*
X213090Y-171260D02*
D03*
D58*
X-68898Y-231791D02*
D03*
D59*
X-304724Y-169291D02*
D03*
X-270079D02*
D03*
X-304724Y-90551D02*
D03*
X-270079D02*
D03*
X-304724Y-11811D02*
D03*
X-270079D02*
D03*
X270079D02*
D03*
X304724D02*
D03*
X270079Y-90551D02*
D03*
X304724D02*
D03*
X270079Y-169291D02*
D03*
X304724D02*
D03*
D60*
X-213090Y-171260D02*
D03*
X227854D02*
D03*
D61*
X-147638Y-102362D02*
D03*
X-98425Y-53150D02*
D03*
X-98425Y-151575D02*
D03*
X-49213Y-102362D02*
D03*
X49213D02*
D03*
X98425Y-53150D02*
D03*
Y-151575D02*
D03*
X147638Y-102362D02*
D03*
D62*
X187008Y-13780D02*
D03*
X-187008D02*
D03*
X-187008Y-190945D02*
D03*
X187008Y-190945D02*
D03*
D63*
X208228Y29126D02*
D03*
X185472D02*
D03*
D64*
X-287402Y27559D02*
D03*
X287402D02*
D03*
D65*
Y-224410D02*
D03*
X-287402D02*
D03*
D66*
X-131890Y11811D02*
D03*
X-127376Y14764D02*
D03*
X75708Y25182D02*
D03*
X75709Y18125D02*
D03*
X143307Y-46850D02*
D03*
X44882D02*
D03*
X-53543D02*
D03*
X143307Y-145276D02*
D03*
X44882D02*
D03*
X-53543D02*
D03*
X-109252Y-42323D02*
D03*
Y-20222D02*
D03*
Y-140748D02*
D03*
X-151969Y-46850D02*
D03*
Y-145276D02*
D03*
X-109252Y1969D02*
D03*
X-128937Y7874D02*
D03*
X70708Y21654D02*
D03*
X90709Y18125D02*
D03*
X104724Y10630D02*
D03*
X169193Y15945D02*
D03*
X172441Y0D02*
D03*
X55512Y9449D02*
D03*
X168466Y98D02*
D03*
X54221Y6693D02*
D03*
X-273622Y-49213D02*
D03*
X-279134Y-134449D02*
D03*
X-273622Y-206693D02*
D03*
X-217126Y-202363D02*
D03*
X-87008Y-227756D02*
D03*
X229330Y-196851D02*
D03*
X301181Y-206693D02*
D03*
X287401Y-139763D02*
D03*
Y-61023D02*
D03*
X257480Y-19291D02*
D03*
X159843Y-18110D02*
D03*
X162205Y-21260D02*
D03*
X5906Y-49213D02*
D03*
Y-55512D02*
D03*
X238189Y-64961D02*
D03*
Y-20079D02*
D03*
X163386Y-6299D02*
D03*
X151575Y-21942D02*
D03*
X163744Y-37043D02*
D03*
X166535Y-18898D02*
D03*
X154724Y-6299D02*
D03*
X158661Y-6693D02*
D03*
X170866D02*
D03*
X174261Y-8661D02*
D03*
X-83468Y15945D02*
D03*
X47638Y18110D02*
D03*
X177559Y6299D02*
D03*
X174803Y4724D02*
D03*
X49606Y15748D02*
D03*
X-68898Y10827D02*
D03*
X-63976D02*
D03*
X-38189Y16535D02*
D03*
X-47244Y11024D02*
D03*
X-306112Y26530D02*
D03*
X-230315Y-14173D02*
D03*
X-255613Y-1832D02*
D03*
X-289370Y-2756D02*
D03*
X-318898Y-50787D02*
D03*
X-305512Y-70866D02*
D03*
X-248696Y-79032D02*
D03*
X-251575Y-131496D02*
D03*
X-248425Y-155512D02*
D03*
X-250356Y-182934D02*
D03*
X-312199Y-194970D02*
D03*
X-312205Y-220866D02*
D03*
X-251181Y-225590D02*
D03*
X-232677Y-231496D02*
D03*
X103685Y-214339D02*
D03*
X3795D02*
D03*
X197244Y-226772D02*
D03*
X225197Y-133858D02*
D03*
X253937Y-235827D02*
D03*
X233858Y-207874D02*
D03*
X314117Y-204516D02*
D03*
X303150Y-136614D02*
D03*
X320343Y-114311D02*
D03*
X309449Y-60630D02*
D03*
X316535Y-35827D02*
D03*
X306299Y28346D02*
D03*
X284646Y3150D02*
D03*
X248905Y-5689D02*
D03*
X236907Y13002D02*
D03*
X199606Y9843D02*
D03*
X175591Y14961D02*
D03*
X157087Y3543D02*
D03*
X165748Y12205D02*
D03*
X138976Y1229D02*
D03*
X125197Y1181D02*
D03*
X-185827Y-56299D02*
D03*
X-15795Y-23228D02*
D03*
X-22488Y-29921D02*
D03*
X143307Y-92913D02*
D03*
X113780Y21654D02*
D03*
Y27560D02*
D03*
X90708Y25182D02*
D03*
X232283Y24409D02*
D03*
X-156496Y-196850D02*
D03*
X80709Y6299D02*
D03*
X84054Y43701D02*
D03*
X224804Y24015D02*
D03*
X168898D02*
D03*
X162402Y35827D02*
D03*
X206299Y18898D02*
D03*
X187402D02*
D03*
X176890Y21723D02*
D03*
X171575Y43494D02*
D03*
X216811Y21723D02*
D03*
X-151969Y-157874D02*
D03*
X-143307Y-145276D02*
D03*
Y-157874D02*
D03*
X-53543D02*
D03*
X-44882Y-145276D02*
D03*
Y-157874D02*
D03*
X44882D02*
D03*
X53543Y-145276D02*
D03*
Y-157874D02*
D03*
X151969Y-145276D02*
D03*
Y-157874D02*
D03*
X143307Y-59449D02*
D03*
X151969Y-46850D02*
D03*
Y-59449D02*
D03*
X-151969D02*
D03*
X-143307Y-46850D02*
D03*
Y-59449D02*
D03*
X-53543D02*
D03*
X-44882Y-46850D02*
D03*
Y-59449D02*
D03*
X53543D02*
D03*
Y-46850D02*
D03*
X44882Y-59449D02*
D03*
M02*
