G04*
G04 #@! TF.GenerationSoftware,Altium Limited,Altium Designer,25.1.2 (22)*
G04*
G04 Layer_Color=8388736*
%FSLAX25Y25*%
%MOIN*%
G70*
G04*
G04 #@! TF.SameCoordinates,43F664F6-3CD5-4670-A9E5-02DBBAA50322*
G04*
G04*
G04 #@! TF.FilePolarity,Positive*
G04*
G01*
G75*
%ADD10C,0.00984*%
%ADD12C,0.00394*%
%ADD83C,0.01000*%
%ADD84C,0.00600*%
D10*
X-314961Y-326772D02*
X-312993D01*
X-313977D01*
Y-320868D01*
X-314961Y-321852D01*
X-310041Y-326772D02*
Y-325788D01*
X-309057D01*
Y-326772D01*
X-310041D01*
X-301186Y-320868D02*
X-303153Y-321852D01*
X-305121Y-323820D01*
Y-325788D01*
X-304137Y-326772D01*
X-302169D01*
X-301186Y-325788D01*
Y-324804D01*
X-302169Y-323820D01*
X-305121D01*
X-299218Y-326772D02*
Y-322836D01*
X-298234D01*
X-297250Y-323820D01*
Y-326772D01*
Y-323820D01*
X-296266Y-322836D01*
X-295282Y-323820D01*
Y-326772D01*
X-293314D02*
Y-322836D01*
X-292330D01*
X-291346Y-323820D01*
Y-326772D01*
Y-323820D01*
X-290362Y-322836D01*
X-289378Y-323820D01*
Y-326772D01*
X-281507Y-320868D02*
X-277571D01*
X-279539D01*
Y-326772D01*
X-275603Y-320868D02*
Y-326772D01*
Y-323820D01*
X-274619Y-322836D01*
X-272652D01*
X-271668Y-323820D01*
Y-326772D01*
X-269700D02*
X-267732D01*
X-268716D01*
Y-322836D01*
X-269700D01*
X-260844D02*
X-263796D01*
X-264780Y-323820D01*
Y-325788D01*
X-263796Y-326772D01*
X-260844D01*
X-258876D02*
Y-320868D01*
Y-324804D02*
X-255925Y-322836D01*
X-258876Y-324804D02*
X-255925Y-326772D01*
X-252973D02*
Y-322836D01*
X-250021D01*
X-249037Y-323820D01*
Y-326772D01*
X-244117D02*
X-246085D01*
X-247069Y-325788D01*
Y-323820D01*
X-246085Y-322836D01*
X-244117D01*
X-243133Y-323820D01*
Y-324804D01*
X-247069D01*
X-241166Y-326772D02*
X-238214D01*
X-237230Y-325788D01*
X-238214Y-324804D01*
X-240182D01*
X-241166Y-323820D01*
X-240182Y-322836D01*
X-237230D01*
X-235262Y-326772D02*
X-232310D01*
X-231326Y-325788D01*
X-232310Y-324804D01*
X-234278D01*
X-235262Y-323820D01*
X-234278Y-322836D01*
X-231326D01*
X-314961Y-297246D02*
Y-303150D01*
X-312009D01*
X-311025Y-302166D01*
Y-301182D01*
X-312009Y-300198D01*
X-314961D01*
X-312009D01*
X-311025Y-299214D01*
Y-298230D01*
X-312009Y-297246D01*
X-314961D01*
X-309057Y-303150D02*
X-307089D01*
X-308073D01*
Y-297246D01*
X-309057D01*
X-303153Y-299214D02*
X-301186D01*
X-300202Y-300198D01*
Y-303150D01*
X-303153D01*
X-304137Y-302166D01*
X-303153Y-301182D01*
X-300202D01*
X-294298Y-299214D02*
X-297250D01*
X-298234Y-300198D01*
Y-302166D01*
X-297250Y-303150D01*
X-294298D01*
X-292330D02*
Y-297246D01*
Y-301182D02*
X-289378Y-299214D01*
X-292330Y-301182D02*
X-289378Y-303150D01*
X-276587Y-298230D02*
X-277571Y-297246D01*
X-279539D01*
X-280523Y-298230D01*
Y-299214D01*
X-279539Y-300198D01*
X-277571D01*
X-276587Y-301182D01*
Y-302166D01*
X-277571Y-303150D01*
X-279539D01*
X-280523Y-302166D01*
X-274619Y-303150D02*
X-272652D01*
X-273635D01*
Y-299214D01*
X-274619D01*
X-269700Y-303150D02*
X-267732D01*
X-268716D01*
Y-297246D01*
X-269700D01*
X-264780Y-303150D02*
Y-297246D01*
Y-301182D02*
X-261828Y-299214D01*
X-264780Y-301182D02*
X-261828Y-303150D01*
X-258876D02*
X-255925D01*
X-254941Y-302166D01*
X-255925Y-301182D01*
X-257892D01*
X-258876Y-300198D01*
X-257892Y-299214D01*
X-254941D01*
X-249037D02*
X-251989D01*
X-252973Y-300198D01*
Y-302166D01*
X-251989Y-303150D01*
X-249037D01*
X-247069Y-299214D02*
Y-303150D01*
Y-301182D01*
X-246085Y-300198D01*
X-245101Y-299214D01*
X-244117D01*
X-238214Y-303150D02*
X-240182D01*
X-241166Y-302166D01*
Y-300198D01*
X-240182Y-299214D01*
X-238214D01*
X-237230Y-300198D01*
Y-301182D01*
X-241166D01*
X-232310Y-303150D02*
X-234278D01*
X-235262Y-302166D01*
Y-300198D01*
X-234278Y-299214D01*
X-232310D01*
X-231326Y-300198D01*
Y-301182D01*
X-235262D01*
X-229358Y-303150D02*
Y-299214D01*
X-226407D01*
X-225423Y-300198D01*
Y-303150D01*
X-314961Y-285435D02*
Y-291339D01*
X-312993Y-289371D01*
X-311025Y-291339D01*
Y-285435D01*
X-309057D02*
Y-291339D01*
Y-288387D01*
X-308073Y-287403D01*
X-306105D01*
X-305121Y-288387D01*
Y-291339D01*
X-303153D02*
X-301186D01*
X-302169D01*
Y-287403D01*
X-303153D01*
X-297250Y-286419D02*
Y-287403D01*
X-298234D01*
X-296266D01*
X-297250D01*
Y-290355D01*
X-296266Y-291339D01*
X-290362D02*
X-292330D01*
X-293314Y-290355D01*
Y-288387D01*
X-292330Y-287403D01*
X-290362D01*
X-289378Y-288387D01*
Y-289371D01*
X-293314D01*
X-277571Y-286419D02*
X-278555Y-285435D01*
X-280523D01*
X-281507Y-286419D01*
Y-287403D01*
X-280523Y-288387D01*
X-278555D01*
X-277571Y-289371D01*
Y-290355D01*
X-278555Y-291339D01*
X-280523D01*
X-281507Y-290355D01*
X-274619Y-291339D02*
X-272652D01*
X-271668Y-290355D01*
Y-288387D01*
X-272652Y-287403D01*
X-274619D01*
X-275603Y-288387D01*
Y-290355D01*
X-274619Y-291339D01*
X-269700D02*
X-267732D01*
X-268716D01*
Y-285435D01*
X-269700D01*
X-260844D02*
Y-291339D01*
X-263796D01*
X-264780Y-290355D01*
Y-288387D01*
X-263796Y-287403D01*
X-260844D01*
X-255925Y-291339D02*
X-257892D01*
X-258876Y-290355D01*
Y-288387D01*
X-257892Y-287403D01*
X-255925D01*
X-254941Y-288387D01*
Y-289371D01*
X-258876D01*
X-252973Y-287403D02*
Y-291339D01*
Y-289371D01*
X-251989Y-288387D01*
X-251005Y-287403D01*
X-250021D01*
X-241166Y-291339D02*
Y-285435D01*
X-239198Y-287403D01*
X-237230Y-285435D01*
Y-291339D01*
X-234278Y-287403D02*
X-232310D01*
X-231326Y-288387D01*
Y-291339D01*
X-234278D01*
X-235262Y-290355D01*
X-234278Y-289371D01*
X-231326D01*
X-229358Y-291339D02*
X-226407D01*
X-225423Y-290355D01*
X-226407Y-289371D01*
X-228375D01*
X-229358Y-288387D01*
X-228375Y-287403D01*
X-225423D01*
X-223455Y-291339D02*
Y-285435D01*
Y-289371D02*
X-220503Y-287403D01*
X-223455Y-289371D02*
X-220503Y-291339D01*
D12*
X319803Y47244D02*
X319803Y47244D01*
X-159449Y37402D02*
G03*
X-135827Y37402I11811J0D01*
G01*
X-159449Y45191D02*
G03*
X-161503Y47244I-2054J0D01*
G01*
X-133773D02*
G03*
X-135827Y45191I0J-2054D01*
G01*
X161503Y47244D02*
G03*
X159449Y45191I0J-2054D01*
G01*
X135827D02*
G03*
X133773Y47244I-2054J0D01*
G01*
X135827Y37402D02*
G03*
X159449Y37402I11811J0D01*
G01*
X324803Y42244D02*
G03*
X319803Y47244I-5000J0D01*
G01*
Y-244094D02*
G03*
X324803Y-239094I0J5000D01*
G01*
X-324803D02*
G03*
X-319803Y-244094I5000J0D01*
G01*
Y47244D02*
G03*
X-324803Y42244I0J-5000D01*
G01*
X161503Y47244D02*
X319803D01*
X-133773D02*
X133773D01*
X-159449Y37402D02*
Y45191D01*
X-135827Y37402D02*
Y45191D01*
X159449Y37402D02*
Y45191D01*
X135827Y37402D02*
Y45191D01*
X324803Y-239094D02*
Y42244D01*
X-319803Y-244094D02*
X319803D01*
X-324803Y-239094D02*
Y42244D01*
X-319803Y47244D02*
X-161503D01*
D83*
X-352362D02*
X-350362Y41244D01*
X-354362D02*
X-352362Y47244D01*
X-354362Y-238094D02*
X-352362Y-244094D01*
X-350362Y-238094D01*
X-352362Y-84930D02*
Y47244D01*
Y-244094D02*
Y-115121D01*
X-353362Y47244D02*
X-335748D01*
X-353362Y-244094D02*
X-335748D01*
X-324803Y-269685D02*
X-318803Y-267685D01*
X-324803Y-269685D02*
X-318803Y-271685D01*
X318803D02*
X324803Y-269685D01*
X318803Y-267685D02*
X324803Y-269685D01*
X-324803D02*
X-19195D01*
X15995D02*
X324803D01*
X-324803Y-270685D02*
Y-255039D01*
X324803Y-270685D02*
Y-255039D01*
D84*
X-354761Y-113521D02*
Y-109522D01*
X-353762D01*
X-349763Y-113521D01*
X-348763D01*
Y-104524D02*
X-354761D01*
X-351762Y-107523D01*
Y-103524D01*
X-348763Y-101525D02*
X-349763D01*
Y-100525D01*
X-348763D01*
Y-101525D01*
X-353762Y-96526D02*
X-354761Y-95527D01*
Y-93527D01*
X-353762Y-92528D01*
X-349763D01*
X-348763Y-93527D01*
Y-95527D01*
X-349763Y-96526D01*
X-353762D01*
Y-90528D02*
X-354761Y-89529D01*
Y-87529D01*
X-353762Y-86530D01*
X-349763D01*
X-348763Y-87529D01*
Y-89529D01*
X-349763Y-90528D01*
X-353762D01*
X-17595Y-273284D02*
X-15596D01*
X-16595D01*
Y-267286D01*
X-17595Y-268286D01*
X-8598Y-267286D02*
X-10597Y-268286D01*
X-12596Y-270285D01*
Y-272284D01*
X-11597Y-273284D01*
X-9597D01*
X-8598Y-272284D01*
Y-271285D01*
X-9597Y-270285D01*
X-12596D01*
X-2600Y-267286D02*
X-6598D01*
Y-270285D01*
X-4599Y-269285D01*
X-3599D01*
X-2600Y-270285D01*
Y-272284D01*
X-3599Y-273284D01*
X-5599D01*
X-6598Y-272284D01*
X-600Y-273284D02*
Y-272284D01*
X399D01*
Y-273284D01*
X-600D01*
X4398Y-268286D02*
X5398Y-267286D01*
X7397D01*
X8397Y-268286D01*
Y-272284D01*
X7397Y-273284D01*
X5398D01*
X4398Y-272284D01*
Y-268286D01*
X10396D02*
X11396Y-267286D01*
X13395D01*
X14395Y-268286D01*
Y-272284D01*
X13395Y-273284D01*
X11396D01*
X10396Y-272284D01*
Y-268286D01*
M02*
