G04*
G04 #@! TF.GenerationSoftware,Altium Limited,Altium Designer,25.1.2 (22)*
G04*
G04 Layer_Color=2752767*
%FSLAX25Y25*%
%MOIN*%
G70*
G04*
G04 #@! TF.SameCoordinates,43F664F6-3CD5-4670-A9E5-02DBBAA50322*
G04*
G04*
G04 #@! TF.FilePolarity,Positive*
G04*
G01*
G75*
%ADD11C,0.00591*%
%ADD12C,0.00394*%
%ADD85C,0.00200*%
%ADD86C,0.00945*%
D11*
X327512Y137442D02*
G03*
X327512Y137442I-1750J0D01*
G01*
X326812Y98072D02*
G03*
X326812Y98072I-1050J0D01*
G01*
X327512D02*
G03*
X327512Y98072I-1750J0D01*
G01*
X320853Y164826D02*
X821713D01*
X320853Y93960D02*
X821713D01*
X320853Y86086D02*
X821713D01*
Y172700D01*
X320853D02*
X821713D01*
X320853Y86086D02*
Y172700D01*
X747875Y86086D02*
Y172700D01*
X702219Y86086D02*
Y172700D01*
X656431Y86086D02*
Y172700D01*
X617072Y86086D02*
Y172700D01*
X585898Y86086D02*
Y172700D01*
X507051Y86086D02*
Y172700D01*
X468321Y86086D02*
Y172700D01*
X441556Y86086D02*
Y172700D01*
X381075Y86086D02*
Y172700D01*
X349980Y86086D02*
Y172700D01*
X324712Y160014D02*
X326812D01*
Y162114D01*
X324712D02*
X326812D01*
X324712Y160014D02*
Y162114D01*
X324012Y159314D02*
X327512D01*
Y162814D01*
X324012D02*
X327512D01*
X324012Y159314D02*
Y162814D01*
Y151440D02*
Y152315D01*
X324887Y153190D01*
X324012Y154065D02*
X324887Y153190D01*
X324012Y154065D02*
Y154940D01*
X324887D01*
X325762Y154065D01*
X326637Y154940D01*
X327512D01*
Y154065D02*
Y154940D01*
X326637Y153190D02*
X327512Y154065D01*
X326637Y153190D02*
X327512Y152315D01*
Y151440D02*
Y152315D01*
X326637Y151440D02*
X327512D01*
X325762Y152315D02*
X326637Y151440D01*
X324887D02*
X325762Y152315D01*
X324012Y151440D02*
X324887D01*
X324012Y143566D02*
X325762Y144441D01*
X327512Y143566D01*
X326637Y145316D02*
X327512Y143566D01*
X326637Y145316D02*
X327512Y147066D01*
X325762Y146191D02*
X327512Y147066D01*
X324012D02*
X325762Y146191D01*
X324012Y147066D02*
X324887Y145316D01*
X324012Y143566D02*
X324887Y145316D01*
X324012Y128693D02*
X324887D01*
X324012D02*
Y130443D01*
X324887D01*
Y131318D01*
X326637D01*
Y130443D02*
Y131318D01*
Y130443D02*
X327512D01*
Y128693D02*
Y130443D01*
X326637Y128693D02*
X327512D01*
X326637Y127818D02*
Y128693D01*
X324887Y127818D02*
X326637D01*
X324887D02*
Y128693D01*
X325762Y119944D02*
X327512Y123444D01*
X324012D02*
X327512D01*
X324012D02*
X325762Y119944D01*
X324012Y112070D02*
X327512D01*
Y115570D01*
X324012D02*
X327512D01*
X324012Y112070D02*
Y115570D01*
X324887Y105071D02*
X325762Y104196D01*
X324012Y105071D02*
X324887D01*
X324012D02*
X324887Y105946D01*
X324012Y106821D02*
X324887Y105946D01*
X324012Y106821D02*
X324887D01*
X325762Y107696D01*
X326637Y106821D01*
X327512D01*
X326637Y105946D02*
X327512Y106821D01*
X326637Y105946D02*
X327512Y105071D01*
X326637D02*
X327512D01*
X325762Y104196D02*
X326637Y105071D01*
X750238Y160889D02*
X752337D01*
X750238Y153015D02*
X752337D01*
X750238Y145141D02*
X752337D01*
X750238Y137267D02*
X752337D01*
X750238Y129393D02*
X752337D01*
X750238Y121519D02*
X752337D01*
X750238Y113645D02*
X752337D01*
X750238Y105771D02*
X752337D01*
X750238Y97896D02*
X752337D01*
X704581Y160889D02*
X706680D01*
X704581Y153015D02*
X706680D01*
X704581Y145141D02*
X706680D01*
X704581Y137267D02*
X706680D01*
X704581Y129393D02*
X706680D01*
X704581Y121519D02*
X706680D01*
X704581Y113645D02*
X706680D01*
X704581Y105771D02*
X706680D01*
X704581Y97896D02*
X706680D01*
X660892Y161413D02*
X659318D01*
X658793Y160889D01*
Y159839D01*
X659318Y159314D01*
X660892D01*
X664041Y162463D02*
X662992Y161938D01*
X661942Y160889D01*
Y159839D01*
X662467Y159314D01*
X663516D01*
X664041Y159839D01*
Y160364D01*
X663516Y160889D01*
X661942D01*
X667190Y162463D02*
X665091D01*
Y160889D01*
X666140Y161413D01*
X666665D01*
X667190Y160889D01*
Y159839D01*
X666665Y159314D01*
X665615D01*
X665091Y159839D01*
X668239Y162463D02*
Y159314D01*
Y160889D01*
X668764Y161413D01*
X669813D01*
X670338Y160889D01*
Y159314D01*
X671388D02*
Y161413D01*
X672962D01*
X673487Y160889D01*
Y159314D01*
X676635Y162463D02*
X675586Y161938D01*
X674536Y160889D01*
Y159839D01*
X675061Y159314D01*
X676111D01*
X676635Y159839D01*
Y160364D01*
X676111Y160889D01*
X674536D01*
X679784Y162463D02*
X677685D01*
Y160889D01*
X678734Y161413D01*
X679259D01*
X679784Y160889D01*
Y159839D01*
X679259Y159314D01*
X678210D01*
X677685Y159839D01*
X660892Y153539D02*
X659318D01*
X658793Y153015D01*
Y151965D01*
X659318Y151440D01*
X660892D01*
X661942Y154064D02*
X662467Y154589D01*
X663516D01*
X664041Y154064D01*
Y153539D01*
X663516Y153015D01*
X662992D01*
X663516D01*
X664041Y152490D01*
Y151965D01*
X663516Y151440D01*
X662467D01*
X661942Y151965D01*
X667190Y151440D02*
X665091D01*
X667190Y153539D01*
Y154064D01*
X666665Y154589D01*
X665615D01*
X665091Y154064D01*
X668239D02*
X668764Y154589D01*
X669813D01*
X670338Y154064D01*
Y151965D01*
X669813Y151440D01*
X668764D01*
X668239Y151965D01*
Y154064D01*
X671388Y154589D02*
Y151440D01*
Y153015D01*
X671912Y153539D01*
X672962D01*
X673487Y153015D01*
Y151440D01*
X674536D02*
Y153539D01*
X676111D01*
X676635Y153015D01*
Y151440D01*
X677685Y154064D02*
X678210Y154589D01*
X679259D01*
X679784Y154064D01*
Y153539D01*
X679259Y153015D01*
X678734D01*
X679259D01*
X679784Y152490D01*
Y151965D01*
X679259Y151440D01*
X678210D01*
X677685Y151965D01*
X682933Y151440D02*
X680833D01*
X682933Y153539D01*
Y154064D01*
X682408Y154589D01*
X681358D01*
X680833Y154064D01*
X683982D02*
X684507Y154589D01*
X685556D01*
X686081Y154064D01*
Y151965D01*
X685556Y151440D01*
X684507D01*
X683982Y151965D01*
Y154064D01*
X687131Y151440D02*
Y153539D01*
X687655D01*
X688180Y153015D01*
Y151440D01*
Y153015D01*
X688705Y153539D01*
X689230Y153015D01*
Y151440D01*
X692378Y154589D02*
X691329Y154064D01*
X690279Y153015D01*
Y151965D01*
X690804Y151440D01*
X691854D01*
X692378Y151965D01*
Y152490D01*
X691854Y153015D01*
X690279D01*
X695527Y151440D02*
X693428D01*
X695527Y153539D01*
Y154064D01*
X695002Y154589D01*
X693953D01*
X693428Y154064D01*
X696576D02*
X697101Y154589D01*
X698151D01*
X698675Y154064D01*
Y151965D01*
X698151Y151440D01*
X697101D01*
X696576Y151965D01*
Y154064D01*
X660892Y145665D02*
X659318D01*
X658793Y145141D01*
Y144091D01*
X659318Y143566D01*
X660892D01*
X661942Y146190D02*
X662467Y146715D01*
X663516D01*
X664041Y146190D01*
Y145665D01*
X663516Y145141D01*
X662992D01*
X663516D01*
X664041Y144616D01*
Y144091D01*
X663516Y143566D01*
X662467D01*
X661942Y144091D01*
X665091Y143566D02*
X666140D01*
X665615D01*
Y146715D01*
X665091Y146190D01*
X667714D02*
X668239Y146715D01*
X669289D01*
X669813Y146190D01*
Y144091D01*
X669289Y143566D01*
X668239D01*
X667714Y144091D01*
Y146190D01*
X670863Y146715D02*
Y143566D01*
Y145141D01*
X671388Y145665D01*
X672437D01*
X672962Y145141D01*
Y143566D01*
X674012D02*
Y145665D01*
X675586D01*
X676111Y145141D01*
Y143566D01*
X677160Y146190D02*
X677685Y146715D01*
X678734D01*
X679259Y146190D01*
Y145665D01*
X678734Y145141D01*
X678210D01*
X678734D01*
X679259Y144616D01*
Y144091D01*
X678734Y143566D01*
X677685D01*
X677160Y144091D01*
X680309Y143566D02*
X681358D01*
X680833D01*
Y146715D01*
X680309Y146190D01*
X682933D02*
X683457Y146715D01*
X684507D01*
X685032Y146190D01*
Y144091D01*
X684507Y143566D01*
X683457D01*
X682933Y144091D01*
Y146190D01*
X659843Y135692D02*
X658793Y136742D01*
Y137791D01*
X659843Y138841D01*
X661417Y135692D02*
Y138841D01*
X662467Y137791D01*
X663516Y138841D01*
Y135692D01*
X664566D02*
X665615D01*
X665091D01*
Y137791D01*
X664566D01*
X667190D02*
X669289Y135692D01*
X668239Y136742D01*
X669289Y137791D01*
X667190Y135692D01*
X671912D02*
X670863D01*
X670338Y136217D01*
Y137267D01*
X670863Y137791D01*
X671912D01*
X672437Y137267D01*
Y136742D01*
X670338D01*
X675586Y138841D02*
Y135692D01*
X674012D01*
X673487Y136217D01*
Y137267D01*
X674012Y137791D01*
X675586D01*
X676635Y135692D02*
X677685Y136742D01*
Y137791D01*
X676635Y138841D01*
X659843Y127818D02*
X658793Y128868D01*
Y129917D01*
X659843Y130967D01*
X661417Y127818D02*
Y130967D01*
X662467Y129917D01*
X663516Y130967D01*
Y127818D01*
X664566D02*
X665615D01*
X665091D01*
Y129917D01*
X664566D01*
X667190D02*
X669289Y127818D01*
X668239Y128868D01*
X669289Y129917D01*
X667190Y127818D01*
X671912D02*
X670863D01*
X670338Y128343D01*
Y129393D01*
X670863Y129917D01*
X671912D01*
X672437Y129393D01*
Y128868D01*
X670338D01*
X675586Y130967D02*
Y127818D01*
X674012D01*
X673487Y128343D01*
Y129393D01*
X674012Y129917D01*
X675586D01*
X676635Y127818D02*
X677685Y128868D01*
Y129917D01*
X676635Y130967D01*
X660892Y122043D02*
X659318D01*
X658793Y121519D01*
Y120469D01*
X659318Y119944D01*
X660892D01*
X663516D02*
Y123093D01*
X661942Y121519D01*
X664041D01*
X665091Y119944D02*
X666140D01*
X665615D01*
Y123093D01*
X665091Y122568D01*
X669813Y123093D02*
X668764Y122568D01*
X667714Y121519D01*
Y120469D01*
X668239Y119944D01*
X669289D01*
X669813Y120469D01*
Y120994D01*
X669289Y121519D01*
X667714D01*
X670863Y123093D02*
Y119944D01*
Y121519D01*
X671388Y122043D01*
X672437D01*
X672962Y121519D01*
Y119944D01*
X676111D02*
X674012D01*
X676111Y122043D01*
Y122568D01*
X675586Y123093D01*
X674536D01*
X674012Y122568D01*
X677160Y123093D02*
X679259D01*
Y122568D01*
X677160Y120469D01*
Y119944D01*
X680309Y123093D02*
X682408D01*
Y122568D01*
X680309Y120469D01*
Y119944D01*
X659843Y112070D02*
X658793Y113120D01*
Y114169D01*
X659843Y115219D01*
X661417Y112070D02*
Y115219D01*
X662467Y114169D01*
X663516Y115219D01*
Y112070D01*
X664566D02*
X665615D01*
X665091D01*
Y114169D01*
X664566D01*
X667190D02*
X669289Y112070D01*
X668239Y113120D01*
X669289Y114169D01*
X667190Y112070D01*
X671912D02*
X670863D01*
X670338Y112595D01*
Y113645D01*
X670863Y114169D01*
X671912D01*
X672437Y113645D01*
Y113120D01*
X670338D01*
X675586Y115219D02*
Y112070D01*
X674012D01*
X673487Y112595D01*
Y113645D01*
X674012Y114169D01*
X675586D01*
X676635Y112070D02*
X677685Y113120D01*
Y114169D01*
X676635Y115219D01*
X659843Y104196D02*
X658793Y105246D01*
Y106295D01*
X659843Y107345D01*
X661417Y104196D02*
Y107345D01*
X662467Y106295D01*
X663516Y107345D01*
Y104196D01*
X664566D02*
X665615D01*
X665091D01*
Y106295D01*
X664566D01*
X667190D02*
X669289Y104196D01*
X668239Y105246D01*
X669289Y106295D01*
X667190Y104196D01*
X671912D02*
X670863D01*
X670338Y104721D01*
Y105771D01*
X670863Y106295D01*
X671912D01*
X672437Y105771D01*
Y105246D01*
X670338D01*
X675586Y107345D02*
Y104196D01*
X674012D01*
X673487Y104721D01*
Y105771D01*
X674012Y106295D01*
X675586D01*
X676635Y104196D02*
X677685Y105246D01*
Y106295D01*
X676635Y107345D01*
X658793Y98421D02*
X659843Y96322D01*
X660892Y98421D01*
X664041Y99471D02*
X662992Y98946D01*
X661942Y97896D01*
Y96847D01*
X662467Y96322D01*
X663516D01*
X664041Y96847D01*
Y97372D01*
X663516Y97896D01*
X661942D01*
X665091Y98946D02*
X665615Y99471D01*
X666665D01*
X667190Y98946D01*
Y96847D01*
X666665Y96322D01*
X665615D01*
X665091Y96847D01*
Y98946D01*
X668239Y99471D02*
Y96322D01*
Y97896D01*
X668764Y98421D01*
X669813D01*
X670338Y97896D01*
Y96322D01*
X673487D02*
X671388D01*
X673487Y98421D01*
Y98946D01*
X672962Y99471D01*
X671912D01*
X671388Y98946D01*
X676635Y99471D02*
X674536D01*
Y97896D01*
X675586Y98421D01*
X676111D01*
X676635Y97896D01*
Y96847D01*
X676111Y96322D01*
X675061D01*
X674536Y96847D01*
X677685Y96322D02*
Y98421D01*
X678210D01*
X678734Y97896D01*
Y96322D01*
Y97896D01*
X679259Y98421D01*
X679784Y97896D01*
Y96322D01*
X682408D02*
Y99471D01*
X680833Y97896D01*
X682933D01*
X686081Y99471D02*
X683982D01*
Y97896D01*
X685032Y98421D01*
X685556D01*
X686081Y97896D01*
Y96847D01*
X685556Y96322D01*
X684507D01*
X683982Y96847D01*
X619434Y159314D02*
Y162463D01*
X621008D01*
X621533Y161938D01*
Y160889D01*
X621008Y160364D01*
X619434D01*
X620483D02*
X621533Y159314D01*
X623107D02*
X624157D01*
X624682Y159839D01*
Y160889D01*
X624157Y161413D01*
X623107D01*
X622582Y160889D01*
Y159839D01*
X623107Y159314D01*
X625731Y161413D02*
Y159839D01*
X626256Y159314D01*
X627830D01*
Y161413D01*
X628880Y159314D02*
Y161413D01*
X630454D01*
X630979Y160889D01*
Y159314D01*
X634127Y162463D02*
Y159314D01*
X632553D01*
X632028Y159839D01*
Y160889D01*
X632553Y161413D01*
X634127D01*
X636751Y159314D02*
X635702D01*
X635177Y159839D01*
Y160889D01*
X635702Y161413D01*
X636751D01*
X637276Y160889D01*
Y160364D01*
X635177D01*
X640424Y162463D02*
Y159314D01*
X638850D01*
X638325Y159839D01*
Y160889D01*
X638850Y161413D01*
X640424D01*
X619434Y151440D02*
Y154589D01*
X621008D01*
X621533Y154064D01*
Y153015D01*
X621008Y152490D01*
X619434D01*
X620483D02*
X621533Y151440D01*
X623107D02*
X624157D01*
X624682Y151965D01*
Y153015D01*
X624157Y153539D01*
X623107D01*
X622582Y153015D01*
Y151965D01*
X623107Y151440D01*
X625731Y153539D02*
Y151965D01*
X626256Y151440D01*
X627830D01*
Y153539D01*
X628880Y151440D02*
Y153539D01*
X630454D01*
X630979Y153015D01*
Y151440D01*
X634127Y154589D02*
Y151440D01*
X632553D01*
X632028Y151965D01*
Y153015D01*
X632553Y153539D01*
X634127D01*
X636751Y151440D02*
X635702D01*
X635177Y151965D01*
Y153015D01*
X635702Y153539D01*
X636751D01*
X637276Y153015D01*
Y152490D01*
X635177D01*
X640424Y154589D02*
Y151440D01*
X638850D01*
X638325Y151965D01*
Y153015D01*
X638850Y153539D01*
X640424D01*
X619434Y143566D02*
Y146715D01*
X621008D01*
X621533Y146190D01*
Y145141D01*
X621008Y144616D01*
X619434D01*
X620483D02*
X621533Y143566D01*
X623107D02*
X624157D01*
X624682Y144091D01*
Y145141D01*
X624157Y145665D01*
X623107D01*
X622582Y145141D01*
Y144091D01*
X623107Y143566D01*
X625731Y145665D02*
Y144091D01*
X626256Y143566D01*
X627830D01*
Y145665D01*
X628880Y143566D02*
Y145665D01*
X630454D01*
X630979Y145141D01*
Y143566D01*
X634127Y146715D02*
Y143566D01*
X632553D01*
X632028Y144091D01*
Y145141D01*
X632553Y145665D01*
X634127D01*
X636751Y143566D02*
X635702D01*
X635177Y144091D01*
Y145141D01*
X635702Y145665D01*
X636751D01*
X637276Y145141D01*
Y144616D01*
X635177D01*
X640424Y146715D02*
Y143566D01*
X638850D01*
X638325Y144091D01*
Y145141D01*
X638850Y145665D01*
X640424D01*
X620483Y135692D02*
X619434Y136742D01*
Y137791D01*
X620483Y138841D01*
X622058Y135692D02*
Y138841D01*
X623107Y137791D01*
X624157Y138841D01*
Y135692D01*
X625206D02*
X626256D01*
X625731D01*
Y137791D01*
X625206D01*
X627830D02*
X629929Y135692D01*
X628880Y136742D01*
X629929Y137791D01*
X627830Y135692D01*
X632553D02*
X631503D01*
X630979Y136217D01*
Y137267D01*
X631503Y137791D01*
X632553D01*
X633078Y137267D01*
Y136742D01*
X630979D01*
X636226Y138841D02*
Y135692D01*
X634652D01*
X634127Y136217D01*
Y137267D01*
X634652Y137791D01*
X636226D01*
X637276Y135692D02*
X638325Y136742D01*
Y137791D01*
X637276Y138841D01*
X619434Y127818D02*
Y130967D01*
X621008D01*
X621533Y130442D01*
Y129393D01*
X621008Y128868D01*
X619434D01*
X620483D02*
X621533Y127818D01*
X623107D02*
X624157D01*
X624682Y128343D01*
Y129393D01*
X624157Y129917D01*
X623107D01*
X622582Y129393D01*
Y128343D01*
X623107Y127818D01*
X625731Y129917D02*
Y128343D01*
X626256Y127818D01*
X627830D01*
Y129917D01*
X628880Y127818D02*
Y129917D01*
X630454D01*
X630979Y129393D01*
Y127818D01*
X634127Y130967D02*
Y127818D01*
X632553D01*
X632028Y128343D01*
Y129393D01*
X632553Y129917D01*
X634127D01*
X636751Y127818D02*
X635702D01*
X635177Y128343D01*
Y129393D01*
X635702Y129917D01*
X636751D01*
X637276Y129393D01*
Y128868D01*
X635177D01*
X640424Y130967D02*
Y127818D01*
X638850D01*
X638325Y128343D01*
Y129393D01*
X638850Y129917D01*
X640424D01*
X619434Y119944D02*
Y123093D01*
X621008D01*
X621533Y122568D01*
Y121519D01*
X621008Y120994D01*
X619434D01*
X620483D02*
X621533Y119944D01*
X623107D02*
X624157D01*
X624682Y120469D01*
Y121519D01*
X624157Y122043D01*
X623107D01*
X622582Y121519D01*
Y120469D01*
X623107Y119944D01*
X625731Y122043D02*
Y120469D01*
X626256Y119944D01*
X627830D01*
Y122043D01*
X628880Y119944D02*
Y122043D01*
X630454D01*
X630979Y121519D01*
Y119944D01*
X634127Y123093D02*
Y119944D01*
X632553D01*
X632028Y120469D01*
Y121519D01*
X632553Y122043D01*
X634127D01*
X636751Y119944D02*
X635702D01*
X635177Y120469D01*
Y121519D01*
X635702Y122043D01*
X636751D01*
X637276Y121519D01*
Y120994D01*
X635177D01*
X640424Y123093D02*
Y119944D01*
X638850D01*
X638325Y120469D01*
Y121519D01*
X638850Y122043D01*
X640424D01*
X620483Y112070D02*
X619434Y113120D01*
Y114169D01*
X620483Y115219D01*
X622058Y112070D02*
Y115219D01*
X623107Y114169D01*
X624157Y115219D01*
Y112070D01*
X625206D02*
X626256D01*
X625731D01*
Y114169D01*
X625206D01*
X627830D02*
X629929Y112070D01*
X628880Y113120D01*
X629929Y114169D01*
X627830Y112070D01*
X632553D02*
X631503D01*
X630979Y112595D01*
Y113645D01*
X631503Y114169D01*
X632553D01*
X633078Y113645D01*
Y113120D01*
X630979D01*
X636226Y115219D02*
Y112070D01*
X634652D01*
X634127Y112595D01*
Y113645D01*
X634652Y114169D01*
X636226D01*
X637276Y112070D02*
X638325Y113120D01*
Y114169D01*
X637276Y115219D01*
X620483Y104196D02*
X619434Y105246D01*
Y106295D01*
X620483Y107345D01*
X622058Y104196D02*
Y107345D01*
X623107Y106295D01*
X624157Y107345D01*
Y104196D01*
X625206D02*
X626256D01*
X625731D01*
Y106295D01*
X625206D01*
X627830D02*
X629929Y104196D01*
X628880Y105246D01*
X629929Y106295D01*
X627830Y104196D01*
X632553D02*
X631503D01*
X630979Y104721D01*
Y105771D01*
X631503Y106295D01*
X632553D01*
X633078Y105771D01*
Y105246D01*
X630979D01*
X636226Y107345D02*
Y104196D01*
X634652D01*
X634127Y104721D01*
Y105771D01*
X634652Y106295D01*
X636226D01*
X637276Y104196D02*
X638325Y105246D01*
Y106295D01*
X637276Y107345D01*
X619434Y96322D02*
Y99471D01*
X621008D01*
X621533Y98946D01*
Y97896D01*
X621008Y97372D01*
X619434D01*
X620483D02*
X621533Y96322D01*
X623107D02*
X624157D01*
X624682Y96847D01*
Y97896D01*
X624157Y98421D01*
X623107D01*
X622582Y97896D01*
Y96847D01*
X623107Y96322D01*
X625731Y98421D02*
Y96847D01*
X626256Y96322D01*
X627830D01*
Y98421D01*
X628880Y96322D02*
Y98421D01*
X630454D01*
X630979Y97896D01*
Y96322D01*
X634127Y99471D02*
Y96322D01*
X632553D01*
X632028Y96847D01*
Y97896D01*
X632553Y98421D01*
X634127D01*
X636751Y96322D02*
X635702D01*
X635177Y96847D01*
Y97896D01*
X635702Y98421D01*
X636751D01*
X637276Y97896D01*
Y97372D01*
X635177D01*
X640424Y99471D02*
Y96322D01*
X638850D01*
X638325Y96847D01*
Y97896D01*
X638850Y98421D01*
X640424D01*
X588261Y159314D02*
Y162463D01*
X589835D01*
X590360Y161938D01*
Y160889D01*
X589835Y160364D01*
X588261D01*
X591934Y161413D02*
X592984D01*
X593508Y160889D01*
Y159314D01*
X591934D01*
X591409Y159839D01*
X591934Y160364D01*
X593508D01*
X596657Y162463D02*
Y159314D01*
X595083D01*
X594558Y159839D01*
Y160889D01*
X595083Y161413D01*
X596657D01*
X588261Y151440D02*
Y154589D01*
X589835D01*
X590360Y154064D01*
Y153015D01*
X589835Y152490D01*
X588261D01*
X591934Y153539D02*
X592984D01*
X593508Y153015D01*
Y151440D01*
X591934D01*
X591409Y151965D01*
X591934Y152490D01*
X593508D01*
X596657Y154589D02*
Y151440D01*
X595083D01*
X594558Y151965D01*
Y153015D01*
X595083Y153539D01*
X596657D01*
X588261Y143566D02*
Y146715D01*
X589835D01*
X590360Y146190D01*
Y145141D01*
X589835Y144616D01*
X588261D01*
X591934Y145665D02*
X592984D01*
X593508Y145141D01*
Y143566D01*
X591934D01*
X591409Y144091D01*
X591934Y144616D01*
X593508D01*
X596657Y146715D02*
Y143566D01*
X595083D01*
X594558Y144091D01*
Y145141D01*
X595083Y145665D01*
X596657D01*
X588261Y135692D02*
Y138841D01*
X589835D01*
X590360Y138316D01*
Y137267D01*
X589835Y136742D01*
X588261D01*
X591934Y137791D02*
X592984D01*
X593508Y137267D01*
Y135692D01*
X591934D01*
X591409Y136217D01*
X591934Y136742D01*
X593508D01*
X596657Y138841D02*
Y135692D01*
X595083D01*
X594558Y136217D01*
Y137267D01*
X595083Y137791D01*
X596657D01*
X588261Y127818D02*
Y130967D01*
X589835D01*
X590360Y130442D01*
Y129393D01*
X589835Y128868D01*
X588261D01*
X591934Y129917D02*
X592984D01*
X593508Y129393D01*
Y127818D01*
X591934D01*
X591409Y128343D01*
X591934Y128868D01*
X593508D01*
X596657Y130967D02*
Y127818D01*
X595083D01*
X594558Y128343D01*
Y129393D01*
X595083Y129917D01*
X596657D01*
X588261Y119944D02*
Y123093D01*
X589835D01*
X590360Y122568D01*
Y121519D01*
X589835Y120994D01*
X588261D01*
X591934Y122043D02*
X592984D01*
X593508Y121519D01*
Y119944D01*
X591934D01*
X591409Y120469D01*
X591934Y120994D01*
X593508D01*
X596657Y123093D02*
Y119944D01*
X595083D01*
X594558Y120469D01*
Y121519D01*
X595083Y122043D01*
X596657D01*
X588261Y112070D02*
Y115219D01*
X589835D01*
X590360Y114694D01*
Y113645D01*
X589835Y113120D01*
X588261D01*
X591934Y114169D02*
X592984D01*
X593508Y113645D01*
Y112070D01*
X591934D01*
X591409Y112595D01*
X591934Y113120D01*
X593508D01*
X596657Y115219D02*
Y112070D01*
X595083D01*
X594558Y112595D01*
Y113645D01*
X595083Y114169D01*
X596657D01*
X588261Y104196D02*
Y107345D01*
X589835D01*
X590360Y106820D01*
Y105771D01*
X589835Y105246D01*
X588261D01*
X591934Y106295D02*
X592984D01*
X593508Y105771D01*
Y104196D01*
X591934D01*
X591409Y104721D01*
X591934Y105246D01*
X593508D01*
X596657Y107345D02*
Y104196D01*
X595083D01*
X594558Y104721D01*
Y105771D01*
X595083Y106295D01*
X596657D01*
X588261Y99471D02*
Y97372D01*
X589310Y96322D01*
X590360Y97372D01*
Y99471D01*
X591409Y96322D02*
X592459D01*
X591934D01*
Y98421D01*
X591409D01*
X594558D02*
X595607D01*
X596132Y97896D01*
Y96322D01*
X594558D01*
X594033Y96847D01*
X594558Y97372D01*
X596132D01*
X509413Y162463D02*
X511512D01*
X510462D01*
Y159314D01*
X513086D02*
X514136D01*
X514661Y159839D01*
Y160889D01*
X514136Y161413D01*
X513086D01*
X512562Y160889D01*
Y159839D01*
X513086Y159314D01*
X515710Y158265D02*
Y161413D01*
X517284D01*
X517809Y160889D01*
Y159839D01*
X517284Y159314D01*
X515710D01*
X522007Y162463D02*
Y159314D01*
X524106D01*
X525681Y161413D02*
X526730D01*
X527255Y160889D01*
Y159314D01*
X525681D01*
X525156Y159839D01*
X525681Y160364D01*
X527255D01*
X528304Y161413D02*
Y159839D01*
X528829Y159314D01*
X530404D01*
Y158790D01*
X529879Y158265D01*
X529354D01*
X530404Y159314D02*
Y161413D01*
X533027Y159314D02*
X531978D01*
X531453Y159839D01*
Y160889D01*
X531978Y161413D01*
X533027D01*
X533552Y160889D01*
Y160364D01*
X531453D01*
X534602Y161413D02*
Y159314D01*
Y160364D01*
X535126Y160889D01*
X535651Y161413D01*
X536176D01*
X540899Y160889D02*
X542998D01*
X547196Y162463D02*
Y159314D01*
X548770D01*
X549295Y159839D01*
Y160364D01*
X548770Y160889D01*
X547196D01*
X548770D01*
X549295Y161413D01*
Y161938D01*
X548770Y162463D01*
X547196D01*
X550869Y159314D02*
X551919D01*
X552444Y159839D01*
Y160889D01*
X551919Y161413D01*
X550869D01*
X550345Y160889D01*
Y159839D01*
X550869Y159314D01*
X554018Y161938D02*
Y161413D01*
X553493D01*
X554543D01*
X554018D01*
Y159839D01*
X554543Y159314D01*
X556642Y161938D02*
Y161413D01*
X556117D01*
X557166D01*
X556642D01*
Y159839D01*
X557166Y159314D01*
X559266D02*
X560315D01*
X560840Y159839D01*
Y160889D01*
X560315Y161413D01*
X559266D01*
X558741Y160889D01*
Y159839D01*
X559266Y159314D01*
X561889D02*
Y161413D01*
X562414D01*
X562939Y160889D01*
Y159314D01*
Y160889D01*
X563464Y161413D01*
X563988Y160889D01*
Y159314D01*
X568187Y162463D02*
Y159314D01*
X570286D01*
X571860Y161413D02*
X572909D01*
X573434Y160889D01*
Y159314D01*
X571860D01*
X571335Y159839D01*
X571860Y160364D01*
X573434D01*
X574484Y161413D02*
Y159839D01*
X575008Y159314D01*
X576583D01*
Y158790D01*
X576058Y158265D01*
X575533D01*
X576583Y159314D02*
Y161413D01*
X579207Y159314D02*
X578157D01*
X577632Y159839D01*
Y160889D01*
X578157Y161413D01*
X579207D01*
X579731Y160889D01*
Y160364D01*
X577632D01*
X580781Y161413D02*
Y159314D01*
Y160364D01*
X581306Y160889D01*
X581831Y161413D01*
X582355D01*
X509413Y154589D02*
X511512D01*
X510462D01*
Y151440D01*
X513086D02*
X514136D01*
X514661Y151965D01*
Y153015D01*
X514136Y153539D01*
X513086D01*
X512562Y153015D01*
Y151965D01*
X513086Y151440D01*
X515710Y150391D02*
Y153539D01*
X517284D01*
X517809Y153015D01*
Y151965D01*
X517284Y151440D01*
X515710D01*
X522007Y154589D02*
Y151440D01*
X524106D01*
X525681Y153539D02*
X526730D01*
X527255Y153015D01*
Y151440D01*
X525681D01*
X525156Y151965D01*
X525681Y152490D01*
X527255D01*
X528304Y153539D02*
Y151965D01*
X528829Y151440D01*
X530404D01*
Y150916D01*
X529879Y150391D01*
X529354D01*
X530404Y151440D02*
Y153539D01*
X533027Y151440D02*
X531978D01*
X531453Y151965D01*
Y153015D01*
X531978Y153539D01*
X533027D01*
X533552Y153015D01*
Y152490D01*
X531453D01*
X534602Y153539D02*
Y151440D01*
Y152490D01*
X535126Y153015D01*
X535651Y153539D01*
X536176D01*
X540899Y153015D02*
X542998D01*
X547196Y154589D02*
Y151440D01*
X548770D01*
X549295Y151965D01*
Y152490D01*
X548770Y153015D01*
X547196D01*
X548770D01*
X549295Y153539D01*
Y154064D01*
X548770Y154589D01*
X547196D01*
X550869Y151440D02*
X551919D01*
X552444Y151965D01*
Y153015D01*
X551919Y153539D01*
X550869D01*
X550345Y153015D01*
Y151965D01*
X550869Y151440D01*
X554018Y154064D02*
Y153539D01*
X553493D01*
X554543D01*
X554018D01*
Y151965D01*
X554543Y151440D01*
X556642Y154064D02*
Y153539D01*
X556117D01*
X557166D01*
X556642D01*
Y151965D01*
X557166Y151440D01*
X559266D02*
X560315D01*
X560840Y151965D01*
Y153015D01*
X560315Y153539D01*
X559266D01*
X558741Y153015D01*
Y151965D01*
X559266Y151440D01*
X561889D02*
Y153539D01*
X562414D01*
X562939Y153015D01*
Y151440D01*
Y153015D01*
X563464Y153539D01*
X563988Y153015D01*
Y151440D01*
X568187Y154589D02*
Y151440D01*
X570286D01*
X571860Y153539D02*
X572909D01*
X573434Y153015D01*
Y151440D01*
X571860D01*
X571335Y151965D01*
X571860Y152490D01*
X573434D01*
X574484Y153539D02*
Y151965D01*
X575008Y151440D01*
X576583D01*
Y150916D01*
X576058Y150391D01*
X575533D01*
X576583Y151440D02*
Y153539D01*
X579207Y151440D02*
X578157D01*
X577632Y151965D01*
Y153015D01*
X578157Y153539D01*
X579207D01*
X579731Y153015D01*
Y152490D01*
X577632D01*
X580781Y153539D02*
Y151440D01*
Y152490D01*
X581306Y153015D01*
X581831Y153539D01*
X582355D01*
X509413Y146715D02*
X511512D01*
X510462D01*
Y143566D01*
X513086D02*
X514136D01*
X514661Y144091D01*
Y145141D01*
X514136Y145665D01*
X513086D01*
X512562Y145141D01*
Y144091D01*
X513086Y143566D01*
X515710Y142517D02*
Y145665D01*
X517284D01*
X517809Y145141D01*
Y144091D01*
X517284Y143566D01*
X515710D01*
X522007Y146715D02*
Y143566D01*
X524106D01*
X525681Y145665D02*
X526730D01*
X527255Y145141D01*
Y143566D01*
X525681D01*
X525156Y144091D01*
X525681Y144616D01*
X527255D01*
X528304Y145665D02*
Y144091D01*
X528829Y143566D01*
X530404D01*
Y143041D01*
X529879Y142517D01*
X529354D01*
X530404Y143566D02*
Y145665D01*
X533027Y143566D02*
X531978D01*
X531453Y144091D01*
Y145141D01*
X531978Y145665D01*
X533027D01*
X533552Y145141D01*
Y144616D01*
X531453D01*
X534602Y145665D02*
Y143566D01*
Y144616D01*
X535126Y145141D01*
X535651Y145665D01*
X536176D01*
X540899Y145141D02*
X542998D01*
X547196Y146715D02*
Y143566D01*
X548770D01*
X549295Y144091D01*
Y144616D01*
X548770Y145141D01*
X547196D01*
X548770D01*
X549295Y145665D01*
Y146190D01*
X548770Y146715D01*
X547196D01*
X550869Y143566D02*
X551919D01*
X552444Y144091D01*
Y145141D01*
X551919Y145665D01*
X550869D01*
X550345Y145141D01*
Y144091D01*
X550869Y143566D01*
X554018Y146190D02*
Y145665D01*
X553493D01*
X554543D01*
X554018D01*
Y144091D01*
X554543Y143566D01*
X556642Y146190D02*
Y145665D01*
X556117D01*
X557166D01*
X556642D01*
Y144091D01*
X557166Y143566D01*
X559266D02*
X560315D01*
X560840Y144091D01*
Y145141D01*
X560315Y145665D01*
X559266D01*
X558741Y145141D01*
Y144091D01*
X559266Y143566D01*
X561889D02*
Y145665D01*
X562414D01*
X562939Y145141D01*
Y143566D01*
Y145141D01*
X563464Y145665D01*
X563988Y145141D01*
Y143566D01*
X568187Y146715D02*
Y143566D01*
X570286D01*
X571860Y145665D02*
X572909D01*
X573434Y145141D01*
Y143566D01*
X571860D01*
X571335Y144091D01*
X571860Y144616D01*
X573434D01*
X574484Y145665D02*
Y144091D01*
X575008Y143566D01*
X576583D01*
Y143041D01*
X576058Y142517D01*
X575533D01*
X576583Y143566D02*
Y145665D01*
X579207Y143566D02*
X578157D01*
X577632Y144091D01*
Y145141D01*
X578157Y145665D01*
X579207D01*
X579731Y145141D01*
Y144616D01*
X577632D01*
X580781Y145665D02*
Y143566D01*
Y144616D01*
X581306Y145141D01*
X581831Y145665D01*
X582355D01*
X509413Y138841D02*
X511512D01*
X510462D01*
Y135692D01*
X513086D02*
X514136D01*
X514661Y136217D01*
Y137267D01*
X514136Y137791D01*
X513086D01*
X512562Y137267D01*
Y136217D01*
X513086Y135692D01*
X515710Y134643D02*
Y137791D01*
X517284D01*
X517809Y137267D01*
Y136217D01*
X517284Y135692D01*
X515710D01*
X522007Y138841D02*
Y135692D01*
X524106D01*
X525681Y137791D02*
X526730D01*
X527255Y137267D01*
Y135692D01*
X525681D01*
X525156Y136217D01*
X525681Y136742D01*
X527255D01*
X528304Y137791D02*
Y136217D01*
X528829Y135692D01*
X530404D01*
Y135167D01*
X529879Y134643D01*
X529354D01*
X530404Y135692D02*
Y137791D01*
X533027Y135692D02*
X531978D01*
X531453Y136217D01*
Y137267D01*
X531978Y137791D01*
X533027D01*
X533552Y137267D01*
Y136742D01*
X531453D01*
X534602Y137791D02*
Y135692D01*
Y136742D01*
X535126Y137267D01*
X535651Y137791D01*
X536176D01*
X540899Y137267D02*
X542998D01*
X547196Y138841D02*
Y135692D01*
X548770D01*
X549295Y136217D01*
Y136742D01*
X548770Y137267D01*
X547196D01*
X548770D01*
X549295Y137791D01*
Y138316D01*
X548770Y138841D01*
X547196D01*
X550869Y135692D02*
X551919D01*
X552444Y136217D01*
Y137267D01*
X551919Y137791D01*
X550869D01*
X550345Y137267D01*
Y136217D01*
X550869Y135692D01*
X554018Y138316D02*
Y137791D01*
X553493D01*
X554543D01*
X554018D01*
Y136217D01*
X554543Y135692D01*
X556642Y138316D02*
Y137791D01*
X556117D01*
X557166D01*
X556642D01*
Y136217D01*
X557166Y135692D01*
X559266D02*
X560315D01*
X560840Y136217D01*
Y137267D01*
X560315Y137791D01*
X559266D01*
X558741Y137267D01*
Y136217D01*
X559266Y135692D01*
X561889D02*
Y137791D01*
X562414D01*
X562939Y137267D01*
Y135692D01*
Y137267D01*
X563464Y137791D01*
X563988Y137267D01*
Y135692D01*
X568187Y138841D02*
Y135692D01*
X570286D01*
X571860Y137791D02*
X572909D01*
X573434Y137267D01*
Y135692D01*
X571860D01*
X571335Y136217D01*
X571860Y136742D01*
X573434D01*
X574484Y137791D02*
Y136217D01*
X575008Y135692D01*
X576583D01*
Y135167D01*
X576058Y134643D01*
X575533D01*
X576583Y135692D02*
Y137791D01*
X579207Y135692D02*
X578157D01*
X577632Y136217D01*
Y137267D01*
X578157Y137791D01*
X579207D01*
X579731Y137267D01*
Y136742D01*
X577632D01*
X580781Y137791D02*
Y135692D01*
Y136742D01*
X581306Y137267D01*
X581831Y137791D01*
X582355D01*
X509413Y130967D02*
X511512D01*
X510462D01*
Y127818D01*
X513086D02*
X514136D01*
X514661Y128343D01*
Y129393D01*
X514136Y129917D01*
X513086D01*
X512562Y129393D01*
Y128343D01*
X513086Y127818D01*
X515710Y126769D02*
Y129917D01*
X517284D01*
X517809Y129393D01*
Y128343D01*
X517284Y127818D01*
X515710D01*
X522007Y130967D02*
Y127818D01*
X524106D01*
X525681Y129917D02*
X526730D01*
X527255Y129393D01*
Y127818D01*
X525681D01*
X525156Y128343D01*
X525681Y128868D01*
X527255D01*
X528304Y129917D02*
Y128343D01*
X528829Y127818D01*
X530404D01*
Y127293D01*
X529879Y126769D01*
X529354D01*
X530404Y127818D02*
Y129917D01*
X533027Y127818D02*
X531978D01*
X531453Y128343D01*
Y129393D01*
X531978Y129917D01*
X533027D01*
X533552Y129393D01*
Y128868D01*
X531453D01*
X534602Y129917D02*
Y127818D01*
Y128868D01*
X535126Y129393D01*
X535651Y129917D01*
X536176D01*
X540899Y129393D02*
X542998D01*
X547196Y130967D02*
Y127818D01*
X548770D01*
X549295Y128343D01*
Y128868D01*
X548770Y129393D01*
X547196D01*
X548770D01*
X549295Y129917D01*
Y130442D01*
X548770Y130967D01*
X547196D01*
X550869Y127818D02*
X551919D01*
X552444Y128343D01*
Y129393D01*
X551919Y129917D01*
X550869D01*
X550345Y129393D01*
Y128343D01*
X550869Y127818D01*
X554018Y130442D02*
Y129917D01*
X553493D01*
X554543D01*
X554018D01*
Y128343D01*
X554543Y127818D01*
X556642Y130442D02*
Y129917D01*
X556117D01*
X557166D01*
X556642D01*
Y128343D01*
X557166Y127818D01*
X559266D02*
X560315D01*
X560840Y128343D01*
Y129393D01*
X560315Y129917D01*
X559266D01*
X558741Y129393D01*
Y128343D01*
X559266Y127818D01*
X561889D02*
Y129917D01*
X562414D01*
X562939Y129393D01*
Y127818D01*
Y129393D01*
X563464Y129917D01*
X563988Y129393D01*
Y127818D01*
X568187Y130967D02*
Y127818D01*
X570286D01*
X571860Y129917D02*
X572909D01*
X573434Y129393D01*
Y127818D01*
X571860D01*
X571335Y128343D01*
X571860Y128868D01*
X573434D01*
X574484Y129917D02*
Y128343D01*
X575008Y127818D01*
X576583D01*
Y127293D01*
X576058Y126769D01*
X575533D01*
X576583Y127818D02*
Y129917D01*
X579207Y127818D02*
X578157D01*
X577632Y128343D01*
Y129393D01*
X578157Y129917D01*
X579207D01*
X579731Y129393D01*
Y128868D01*
X577632D01*
X580781Y129917D02*
Y127818D01*
Y128868D01*
X581306Y129393D01*
X581831Y129917D01*
X582355D01*
X509413Y123093D02*
X511512D01*
X510462D01*
Y119944D01*
X513086D02*
X514136D01*
X514661Y120469D01*
Y121519D01*
X514136Y122043D01*
X513086D01*
X512562Y121519D01*
Y120469D01*
X513086Y119944D01*
X515710Y118895D02*
Y122043D01*
X517284D01*
X517809Y121519D01*
Y120469D01*
X517284Y119944D01*
X515710D01*
X522007Y123093D02*
Y119944D01*
X524106D01*
X525681Y122043D02*
X526730D01*
X527255Y121519D01*
Y119944D01*
X525681D01*
X525156Y120469D01*
X525681Y120994D01*
X527255D01*
X528304Y122043D02*
Y120469D01*
X528829Y119944D01*
X530404D01*
Y119419D01*
X529879Y118895D01*
X529354D01*
X530404Y119944D02*
Y122043D01*
X533027Y119944D02*
X531978D01*
X531453Y120469D01*
Y121519D01*
X531978Y122043D01*
X533027D01*
X533552Y121519D01*
Y120994D01*
X531453D01*
X534602Y122043D02*
Y119944D01*
Y120994D01*
X535126Y121519D01*
X535651Y122043D01*
X536176D01*
X540899Y121519D02*
X542998D01*
X547196Y123093D02*
Y119944D01*
X548770D01*
X549295Y120469D01*
Y120994D01*
X548770Y121519D01*
X547196D01*
X548770D01*
X549295Y122043D01*
Y122568D01*
X548770Y123093D01*
X547196D01*
X550869Y119944D02*
X551919D01*
X552444Y120469D01*
Y121519D01*
X551919Y122043D01*
X550869D01*
X550345Y121519D01*
Y120469D01*
X550869Y119944D01*
X554018Y122568D02*
Y122043D01*
X553493D01*
X554543D01*
X554018D01*
Y120469D01*
X554543Y119944D01*
X556642Y122568D02*
Y122043D01*
X556117D01*
X557166D01*
X556642D01*
Y120469D01*
X557166Y119944D01*
X559266D02*
X560315D01*
X560840Y120469D01*
Y121519D01*
X560315Y122043D01*
X559266D01*
X558741Y121519D01*
Y120469D01*
X559266Y119944D01*
X561889D02*
Y122043D01*
X562414D01*
X562939Y121519D01*
Y119944D01*
Y121519D01*
X563464Y122043D01*
X563988Y121519D01*
Y119944D01*
X568187Y123093D02*
Y119944D01*
X570286D01*
X571860Y122043D02*
X572909D01*
X573434Y121519D01*
Y119944D01*
X571860D01*
X571335Y120469D01*
X571860Y120994D01*
X573434D01*
X574484Y122043D02*
Y120469D01*
X575008Y119944D01*
X576583D01*
Y119419D01*
X576058Y118895D01*
X575533D01*
X576583Y119944D02*
Y122043D01*
X579207Y119944D02*
X578157D01*
X577632Y120469D01*
Y121519D01*
X578157Y122043D01*
X579207D01*
X579731Y121519D01*
Y120994D01*
X577632D01*
X580781Y122043D02*
Y119944D01*
Y120994D01*
X581306Y121519D01*
X581831Y122043D01*
X582355D01*
X509413Y115219D02*
X511512D01*
X510462D01*
Y112070D01*
X513086D02*
X514136D01*
X514661Y112595D01*
Y113645D01*
X514136Y114169D01*
X513086D01*
X512562Y113645D01*
Y112595D01*
X513086Y112070D01*
X515710Y111021D02*
Y114169D01*
X517284D01*
X517809Y113645D01*
Y112595D01*
X517284Y112070D01*
X515710D01*
X522007Y115219D02*
Y112070D01*
X524106D01*
X525681Y114169D02*
X526730D01*
X527255Y113645D01*
Y112070D01*
X525681D01*
X525156Y112595D01*
X525681Y113120D01*
X527255D01*
X528304Y114169D02*
Y112595D01*
X528829Y112070D01*
X530404D01*
Y111545D01*
X529879Y111021D01*
X529354D01*
X530404Y112070D02*
Y114169D01*
X533027Y112070D02*
X531978D01*
X531453Y112595D01*
Y113645D01*
X531978Y114169D01*
X533027D01*
X533552Y113645D01*
Y113120D01*
X531453D01*
X534602Y114169D02*
Y112070D01*
Y113120D01*
X535126Y113645D01*
X535651Y114169D01*
X536176D01*
X540899Y113645D02*
X542998D01*
X547196Y115219D02*
Y112070D01*
X548770D01*
X549295Y112595D01*
Y113120D01*
X548770Y113645D01*
X547196D01*
X548770D01*
X549295Y114169D01*
Y114694D01*
X548770Y115219D01*
X547196D01*
X550869Y112070D02*
X551919D01*
X552444Y112595D01*
Y113645D01*
X551919Y114169D01*
X550869D01*
X550345Y113645D01*
Y112595D01*
X550869Y112070D01*
X554018Y114694D02*
Y114169D01*
X553493D01*
X554543D01*
X554018D01*
Y112595D01*
X554543Y112070D01*
X556642Y114694D02*
Y114169D01*
X556117D01*
X557166D01*
X556642D01*
Y112595D01*
X557166Y112070D01*
X559266D02*
X560315D01*
X560840Y112595D01*
Y113645D01*
X560315Y114169D01*
X559266D01*
X558741Y113645D01*
Y112595D01*
X559266Y112070D01*
X561889D02*
Y114169D01*
X562414D01*
X562939Y113645D01*
Y112070D01*
Y113645D01*
X563464Y114169D01*
X563988Y113645D01*
Y112070D01*
X568187Y115219D02*
Y112070D01*
X570286D01*
X571860Y114169D02*
X572909D01*
X573434Y113645D01*
Y112070D01*
X571860D01*
X571335Y112595D01*
X571860Y113120D01*
X573434D01*
X574484Y114169D02*
Y112595D01*
X575008Y112070D01*
X576583D01*
Y111545D01*
X576058Y111021D01*
X575533D01*
X576583Y112070D02*
Y114169D01*
X579207Y112070D02*
X578157D01*
X577632Y112595D01*
Y113645D01*
X578157Y114169D01*
X579207D01*
X579731Y113645D01*
Y113120D01*
X577632D01*
X580781Y114169D02*
Y112070D01*
Y113120D01*
X581306Y113645D01*
X581831Y114169D01*
X582355D01*
X509413Y107345D02*
X511512D01*
X510462D01*
Y104196D01*
X513086D02*
X514136D01*
X514661Y104721D01*
Y105771D01*
X514136Y106295D01*
X513086D01*
X512562Y105771D01*
Y104721D01*
X513086Y104196D01*
X515710Y103147D02*
Y106295D01*
X517284D01*
X517809Y105771D01*
Y104721D01*
X517284Y104196D01*
X515710D01*
X522007Y107345D02*
Y104196D01*
X524106D01*
X525681Y106295D02*
X526730D01*
X527255Y105771D01*
Y104196D01*
X525681D01*
X525156Y104721D01*
X525681Y105246D01*
X527255D01*
X528304Y106295D02*
Y104721D01*
X528829Y104196D01*
X530404D01*
Y103671D01*
X529879Y103147D01*
X529354D01*
X530404Y104196D02*
Y106295D01*
X533027Y104196D02*
X531978D01*
X531453Y104721D01*
Y105771D01*
X531978Y106295D01*
X533027D01*
X533552Y105771D01*
Y105246D01*
X531453D01*
X534602Y106295D02*
Y104196D01*
Y105246D01*
X535126Y105771D01*
X535651Y106295D01*
X536176D01*
X540899Y105771D02*
X542998D01*
X547196Y107345D02*
Y104196D01*
X548770D01*
X549295Y104721D01*
Y105246D01*
X548770Y105771D01*
X547196D01*
X548770D01*
X549295Y106295D01*
Y106820D01*
X548770Y107345D01*
X547196D01*
X550869Y104196D02*
X551919D01*
X552444Y104721D01*
Y105771D01*
X551919Y106295D01*
X550869D01*
X550345Y105771D01*
Y104721D01*
X550869Y104196D01*
X554018Y106820D02*
Y106295D01*
X553493D01*
X554543D01*
X554018D01*
Y104721D01*
X554543Y104196D01*
X556642Y106820D02*
Y106295D01*
X556117D01*
X557166D01*
X556642D01*
Y104721D01*
X557166Y104196D01*
X559266D02*
X560315D01*
X560840Y104721D01*
Y105771D01*
X560315Y106295D01*
X559266D01*
X558741Y105771D01*
Y104721D01*
X559266Y104196D01*
X561889D02*
Y106295D01*
X562414D01*
X562939Y105771D01*
Y104196D01*
Y105771D01*
X563464Y106295D01*
X563988Y105771D01*
Y104196D01*
X568187Y107345D02*
Y104196D01*
X570286D01*
X571860Y106295D02*
X572909D01*
X573434Y105771D01*
Y104196D01*
X571860D01*
X571335Y104721D01*
X571860Y105246D01*
X573434D01*
X574484Y106295D02*
Y104721D01*
X575008Y104196D01*
X576583D01*
Y103671D01*
X576058Y103147D01*
X575533D01*
X576583Y104196D02*
Y106295D01*
X579207Y104196D02*
X578157D01*
X577632Y104721D01*
Y105771D01*
X578157Y106295D01*
X579207D01*
X579731Y105771D01*
Y105246D01*
X577632D01*
X580781Y106295D02*
Y104196D01*
Y105246D01*
X581306Y105771D01*
X581831Y106295D01*
X582355D01*
X509413Y99471D02*
X511512D01*
X510462D01*
Y96322D01*
X513086D02*
X514136D01*
X514661Y96847D01*
Y97896D01*
X514136Y98421D01*
X513086D01*
X512562Y97896D01*
Y96847D01*
X513086Y96322D01*
X515710Y95273D02*
Y98421D01*
X517284D01*
X517809Y97896D01*
Y96847D01*
X517284Y96322D01*
X515710D01*
X522007Y99471D02*
Y96322D01*
X524106D01*
X525681Y98421D02*
X526730D01*
X527255Y97896D01*
Y96322D01*
X525681D01*
X525156Y96847D01*
X525681Y97372D01*
X527255D01*
X528304Y98421D02*
Y96847D01*
X528829Y96322D01*
X530404D01*
Y95797D01*
X529879Y95273D01*
X529354D01*
X530404Y96322D02*
Y98421D01*
X533027Y96322D02*
X531978D01*
X531453Y96847D01*
Y97896D01*
X531978Y98421D01*
X533027D01*
X533552Y97896D01*
Y97372D01*
X531453D01*
X534602Y98421D02*
Y96322D01*
Y97372D01*
X535126Y97896D01*
X535651Y98421D01*
X536176D01*
X540899Y97896D02*
X542998D01*
X547196Y99471D02*
Y96322D01*
X548770D01*
X549295Y96847D01*
Y97372D01*
X548770Y97896D01*
X547196D01*
X548770D01*
X549295Y98421D01*
Y98946D01*
X548770Y99471D01*
X547196D01*
X550869Y96322D02*
X551919D01*
X552444Y96847D01*
Y97896D01*
X551919Y98421D01*
X550869D01*
X550345Y97896D01*
Y96847D01*
X550869Y96322D01*
X554018Y98946D02*
Y98421D01*
X553493D01*
X554543D01*
X554018D01*
Y96847D01*
X554543Y96322D01*
X556642Y98946D02*
Y98421D01*
X556117D01*
X557166D01*
X556642D01*
Y96847D01*
X557166Y96322D01*
X559266D02*
X560315D01*
X560840Y96847D01*
Y97896D01*
X560315Y98421D01*
X559266D01*
X558741Y97896D01*
Y96847D01*
X559266Y96322D01*
X561889D02*
Y98421D01*
X562414D01*
X562939Y97896D01*
Y96322D01*
Y97896D01*
X563464Y98421D01*
X563988Y97896D01*
Y96322D01*
X568187Y99471D02*
Y96322D01*
X570286D01*
X571860Y98421D02*
X572909D01*
X573434Y97896D01*
Y96322D01*
X571860D01*
X571335Y96847D01*
X571860Y97372D01*
X573434D01*
X574484Y98421D02*
Y96847D01*
X575008Y96322D01*
X576583D01*
Y95797D01*
X576058Y95273D01*
X575533D01*
X576583Y96322D02*
Y98421D01*
X579207Y96322D02*
X578157D01*
X577632Y96847D01*
Y97896D01*
X578157Y98421D01*
X579207D01*
X579731Y97896D01*
Y97372D01*
X577632D01*
X580781Y98421D02*
Y96322D01*
Y97372D01*
X581306Y97896D01*
X581831Y98421D01*
X582355D01*
X470683Y159314D02*
Y162463D01*
X472257D01*
X472782Y161938D01*
Y160889D01*
X472257Y160364D01*
X470683D01*
X471733D02*
X472782Y159314D01*
X474357D02*
X475406D01*
X475931Y159839D01*
Y160889D01*
X475406Y161413D01*
X474357D01*
X473832Y160889D01*
Y159839D01*
X474357Y159314D01*
X476980Y161413D02*
Y159839D01*
X477505Y159314D01*
X479079D01*
Y161413D01*
X480129Y159314D02*
Y161413D01*
X481703D01*
X482228Y160889D01*
Y159314D01*
X485377Y162463D02*
Y159314D01*
X483802D01*
X483278Y159839D01*
Y160889D01*
X483802Y161413D01*
X485377D01*
X470683Y151440D02*
Y154589D01*
X472257D01*
X472782Y154064D01*
Y153015D01*
X472257Y152490D01*
X470683D01*
X471733D02*
X472782Y151440D01*
X474357D02*
X475406D01*
X475931Y151965D01*
Y153015D01*
X475406Y153539D01*
X474357D01*
X473832Y153015D01*
Y151965D01*
X474357Y151440D01*
X476980Y153539D02*
Y151965D01*
X477505Y151440D01*
X479079D01*
Y153539D01*
X480129Y151440D02*
Y153539D01*
X481703D01*
X482228Y153015D01*
Y151440D01*
X485377Y154589D02*
Y151440D01*
X483802D01*
X483278Y151965D01*
Y153015D01*
X483802Y153539D01*
X485377D01*
X470683Y143566D02*
Y146715D01*
X472257D01*
X472782Y146190D01*
Y145141D01*
X472257Y144616D01*
X470683D01*
X471733D02*
X472782Y143566D01*
X474357D02*
X475406D01*
X475931Y144091D01*
Y145141D01*
X475406Y145665D01*
X474357D01*
X473832Y145141D01*
Y144091D01*
X474357Y143566D01*
X476980Y145665D02*
Y144091D01*
X477505Y143566D01*
X479079D01*
Y145665D01*
X480129Y143566D02*
Y145665D01*
X481703D01*
X482228Y145141D01*
Y143566D01*
X485377Y146715D02*
Y143566D01*
X483802D01*
X483278Y144091D01*
Y145141D01*
X483802Y145665D01*
X485377D01*
X470683Y135692D02*
Y138841D01*
X472257D01*
X472782Y138316D01*
Y137267D01*
X472257Y136742D01*
X470683D01*
X471733D02*
X472782Y135692D01*
X474357D02*
X475406D01*
X475931Y136217D01*
Y137267D01*
X475406Y137791D01*
X474357D01*
X473832Y137267D01*
Y136217D01*
X474357Y135692D01*
X476980Y137791D02*
Y136217D01*
X477505Y135692D01*
X479079D01*
Y137791D01*
X480129Y135692D02*
Y137791D01*
X481703D01*
X482228Y137267D01*
Y135692D01*
X485377Y138841D02*
Y135692D01*
X483802D01*
X483278Y136217D01*
Y137267D01*
X483802Y137791D01*
X485377D01*
X470683Y127818D02*
Y130967D01*
X472257D01*
X472782Y130442D01*
Y129393D01*
X472257Y128868D01*
X470683D01*
X471733D02*
X472782Y127818D01*
X474357D02*
X475406D01*
X475931Y128343D01*
Y129393D01*
X475406Y129917D01*
X474357D01*
X473832Y129393D01*
Y128343D01*
X474357Y127818D01*
X476980Y129917D02*
Y128343D01*
X477505Y127818D01*
X479079D01*
Y129917D01*
X480129Y127818D02*
Y129917D01*
X481703D01*
X482228Y129393D01*
Y127818D01*
X485377Y130967D02*
Y127818D01*
X483802D01*
X483278Y128343D01*
Y129393D01*
X483802Y129917D01*
X485377D01*
X470683Y119944D02*
Y123093D01*
X472257D01*
X472782Y122568D01*
Y121519D01*
X472257Y120994D01*
X470683D01*
X471733D02*
X472782Y119944D01*
X474357D02*
X475406D01*
X475931Y120469D01*
Y121519D01*
X475406Y122043D01*
X474357D01*
X473832Y121519D01*
Y120469D01*
X474357Y119944D01*
X476980Y122043D02*
Y120469D01*
X477505Y119944D01*
X479079D01*
Y122043D01*
X480129Y119944D02*
Y122043D01*
X481703D01*
X482228Y121519D01*
Y119944D01*
X485377Y123093D02*
Y119944D01*
X483802D01*
X483278Y120469D01*
Y121519D01*
X483802Y122043D01*
X485377D01*
X470683Y112070D02*
Y115219D01*
X472257D01*
X472782Y114694D01*
Y113645D01*
X472257Y113120D01*
X470683D01*
X471733D02*
X472782Y112070D01*
X474357D02*
X475406D01*
X475931Y112595D01*
Y113645D01*
X475406Y114169D01*
X474357D01*
X473832Y113645D01*
Y112595D01*
X474357Y112070D01*
X476980Y114169D02*
Y112595D01*
X477505Y112070D01*
X479079D01*
Y114169D01*
X480129Y112070D02*
Y114169D01*
X481703D01*
X482228Y113645D01*
Y112070D01*
X485377Y115219D02*
Y112070D01*
X483802D01*
X483278Y112595D01*
Y113645D01*
X483802Y114169D01*
X485377D01*
X470683Y104196D02*
Y107345D01*
X472257D01*
X472782Y106820D01*
Y105771D01*
X472257Y105246D01*
X470683D01*
X471733D02*
X472782Y104196D01*
X474357D02*
X475406D01*
X475931Y104721D01*
Y105771D01*
X475406Y106295D01*
X474357D01*
X473832Y105771D01*
Y104721D01*
X474357Y104196D01*
X476980Y106295D02*
Y104721D01*
X477505Y104196D01*
X479079D01*
Y106295D01*
X480129Y104196D02*
Y106295D01*
X481703D01*
X482228Y105771D01*
Y104196D01*
X485377Y107345D02*
Y104196D01*
X483802D01*
X483278Y104721D01*
Y105771D01*
X483802Y106295D01*
X485377D01*
X470683Y96322D02*
Y99471D01*
X472257D01*
X472782Y98946D01*
Y97896D01*
X472257Y97372D01*
X470683D01*
X471733D02*
X472782Y96322D01*
X474357D02*
X475406D01*
X475931Y96847D01*
Y97896D01*
X475406Y98421D01*
X474357D01*
X473832Y97896D01*
Y96847D01*
X474357Y96322D01*
X476980Y98421D02*
Y96847D01*
X477505Y96322D01*
X479079D01*
Y98421D01*
X480129Y96322D02*
Y98421D01*
X481703D01*
X482228Y97896D01*
Y96322D01*
X485377Y99471D02*
Y96322D01*
X483802D01*
X483278Y96847D01*
Y97896D01*
X483802Y98421D01*
X485377D01*
X443918Y159314D02*
Y162463D01*
X446017Y159314D01*
Y162463D01*
X447066Y159314D02*
Y162463D01*
X448641D01*
X449166Y161938D01*
Y160889D01*
X448641Y160364D01*
X447066D01*
X450215Y162463D02*
X452314D01*
X451265D01*
Y159314D01*
X453364Y162463D02*
Y159314D01*
Y160889D01*
X455463D01*
Y162463D01*
Y159314D01*
X443918Y151440D02*
Y154589D01*
X446017Y151440D01*
Y154589D01*
X447066Y151440D02*
Y154589D01*
X448641D01*
X449166Y154064D01*
Y153015D01*
X448641Y152490D01*
X447066D01*
X450215Y154589D02*
X452314D01*
X451265D01*
Y151440D01*
X453364Y154589D02*
Y151440D01*
Y153015D01*
X455463D01*
Y154589D01*
Y151440D01*
X443918Y143566D02*
Y146715D01*
X446017Y143566D01*
Y146715D01*
X447066Y143566D02*
Y146715D01*
X448641D01*
X449166Y146190D01*
Y145141D01*
X448641Y144616D01*
X447066D01*
X450215Y146715D02*
X452314D01*
X451265D01*
Y143566D01*
X453364Y146715D02*
Y143566D01*
Y145141D01*
X455463D01*
Y146715D01*
Y143566D01*
X443918Y135692D02*
Y138841D01*
X445492D01*
X446017Y138316D01*
Y137267D01*
X445492Y136742D01*
X443918D01*
X447066Y138841D02*
X449166D01*
X448116D01*
Y135692D01*
X450215Y138841D02*
Y135692D01*
Y137267D01*
X452314D01*
Y138841D01*
Y135692D01*
X443918Y127818D02*
Y130967D01*
X446017Y127818D01*
Y130967D01*
X447066Y127818D02*
Y130967D01*
X448641D01*
X449166Y130442D01*
Y129393D01*
X448641Y128868D01*
X447066D01*
X450215Y130967D02*
X452314D01*
X451265D01*
Y127818D01*
X453364Y130967D02*
Y127818D01*
Y129393D01*
X455463D01*
Y130967D01*
Y127818D01*
X443918Y119944D02*
Y123093D01*
X445492D01*
X446017Y122568D01*
Y121519D01*
X445492Y120994D01*
X443918D01*
X447066Y123093D02*
X449166D01*
X448116D01*
Y119944D01*
X450215Y123093D02*
Y119944D01*
Y121519D01*
X452314D01*
Y123093D01*
Y119944D01*
X443918Y112070D02*
Y115219D01*
X445492D01*
X446017Y114694D01*
Y113645D01*
X445492Y113120D01*
X443918D01*
X447066Y115219D02*
X449166D01*
X448116D01*
Y112070D01*
X450215Y115219D02*
Y112070D01*
Y113645D01*
X452314D01*
Y115219D01*
Y112070D01*
X443918Y104196D02*
Y107345D01*
X445492D01*
X446017Y106820D01*
Y105771D01*
X445492Y105246D01*
X443918D01*
X447066Y107345D02*
X449166D01*
X448116D01*
Y104196D01*
X450215Y107345D02*
Y104196D01*
Y105771D01*
X452314D01*
Y107345D01*
Y104196D01*
X443918Y96322D02*
Y99471D01*
X445492D01*
X446017Y98946D01*
Y97896D01*
X445492Y97372D01*
X443918D01*
X447066Y99471D02*
X449166D01*
X448116D01*
Y96322D01*
X450215Y99471D02*
Y96322D01*
Y97896D01*
X452314D01*
Y99471D01*
Y96322D01*
X383437Y161938D02*
X383962Y162463D01*
X385011D01*
X385536Y161938D01*
Y159839D01*
X385011Y159314D01*
X383962D01*
X383437Y159839D01*
Y161938D01*
X386585Y159314D02*
Y159839D01*
X387110D01*
Y159314D01*
X386585D01*
X391308Y162463D02*
X390259Y161938D01*
X389209Y160889D01*
Y159839D01*
X389734Y159314D01*
X390784D01*
X391308Y159839D01*
Y160364D01*
X390784Y160889D01*
X389209D01*
X394457Y162463D02*
X392358D01*
Y160889D01*
X393407Y161413D01*
X393932D01*
X394457Y160889D01*
Y159839D01*
X393932Y159314D01*
X392883D01*
X392358Y159839D01*
X395507Y161938D02*
X396031Y162463D01*
X397081D01*
X397605Y161938D01*
Y159839D01*
X397081Y159314D01*
X396031D01*
X395507Y159839D01*
Y161938D01*
X398655Y159314D02*
Y161413D01*
X399180D01*
X399705Y160889D01*
Y159314D01*
Y160889D01*
X400229Y161413D01*
X400754Y160889D01*
Y159314D01*
X401804D02*
Y161413D01*
X402328D01*
X402853Y160889D01*
Y159314D01*
Y160889D01*
X403378Y161413D01*
X403903Y160889D01*
Y159314D01*
X409150D02*
X408101Y160364D01*
Y161413D01*
X409150Y162463D01*
X412824Y159314D02*
X410725D01*
X412824Y161413D01*
Y161938D01*
X412299Y162463D01*
X411249D01*
X410725Y161938D01*
X415972Y162463D02*
X413873D01*
Y160889D01*
X414923Y161413D01*
X415448D01*
X415972Y160889D01*
Y159839D01*
X415448Y159314D01*
X414398D01*
X413873Y159839D01*
X417022Y159314D02*
Y159839D01*
X417547D01*
Y159314D01*
X417022D01*
X421745Y162463D02*
X419646D01*
Y160889D01*
X420695Y161413D01*
X421220D01*
X421745Y160889D01*
Y159839D01*
X421220Y159314D01*
X420170D01*
X419646Y159839D01*
X422794D02*
X423319Y159314D01*
X424369D01*
X424893Y159839D01*
Y161938D01*
X424369Y162463D01*
X423319D01*
X422794Y161938D01*
Y161413D01*
X423319Y160889D01*
X424893D01*
X425943Y159314D02*
Y161413D01*
X426468D01*
X426992Y160889D01*
Y159314D01*
Y160889D01*
X427517Y161413D01*
X428042Y160889D01*
Y159314D01*
X429091D02*
X430141D01*
X429616D01*
Y161413D01*
X429091D01*
X431715Y159314D02*
X432765D01*
X432240D01*
Y162463D01*
X431715D01*
X434339Y159314D02*
X435389Y160364D01*
Y161413D01*
X434339Y162463D01*
X383437Y154064D02*
X383962Y154589D01*
X385011D01*
X385536Y154064D01*
Y153539D01*
X385011Y153015D01*
X384486D01*
X385011D01*
X385536Y152490D01*
Y151965D01*
X385011Y151440D01*
X383962D01*
X383437Y151965D01*
X386585Y151440D02*
Y151965D01*
X387110D01*
Y151440D01*
X386585D01*
X391308D02*
X389209D01*
X391308Y153539D01*
Y154064D01*
X390784Y154589D01*
X389734D01*
X389209Y154064D01*
X392358D02*
X392883Y154589D01*
X393932D01*
X394457Y154064D01*
Y151965D01*
X393932Y151440D01*
X392883D01*
X392358Y151965D01*
Y154064D01*
X395507D02*
X396031Y154589D01*
X397081D01*
X397605Y154064D01*
Y151965D01*
X397081Y151440D01*
X396031D01*
X395507Y151965D01*
Y154064D01*
X398655Y151440D02*
Y153539D01*
X399180D01*
X399705Y153015D01*
Y151440D01*
Y153015D01*
X400229Y153539D01*
X400754Y153015D01*
Y151440D01*
X401804D02*
Y153539D01*
X402328D01*
X402853Y153015D01*
Y151440D01*
Y153015D01*
X403378Y153539D01*
X403903Y153015D01*
Y151440D01*
X409150D02*
X408101Y152490D01*
Y153539D01*
X409150Y154589D01*
X410725Y151440D02*
X411774D01*
X411249D01*
Y154589D01*
X410725Y154064D01*
X415448Y151440D02*
X413348D01*
X415448Y153539D01*
Y154064D01*
X414923Y154589D01*
X413873D01*
X413348Y154064D01*
X418596Y154589D02*
X416497D01*
Y153015D01*
X417547Y153539D01*
X418071D01*
X418596Y153015D01*
Y151965D01*
X418071Y151440D01*
X417022D01*
X416497Y151965D01*
X419646Y151440D02*
Y151965D01*
X420170D01*
Y151440D01*
X419646D01*
X422269Y151965D02*
X422794Y151440D01*
X423844D01*
X424369Y151965D01*
Y154064D01*
X423844Y154589D01*
X422794D01*
X422269Y154064D01*
Y153539D01*
X422794Y153015D01*
X424369D01*
X425418Y154064D02*
X425943Y154589D01*
X426992D01*
X427517Y154064D01*
Y153539D01*
X426992Y153015D01*
X427517Y152490D01*
Y151965D01*
X426992Y151440D01*
X425943D01*
X425418Y151965D01*
Y152490D01*
X425943Y153015D01*
X425418Y153539D01*
Y154064D01*
X425943Y153015D02*
X426992D01*
X428567Y151440D02*
Y153539D01*
X429092D01*
X429616Y153015D01*
Y151440D01*
Y153015D01*
X430141Y153539D01*
X430666Y153015D01*
Y151440D01*
X431715D02*
X432765D01*
X432240D01*
Y153539D01*
X431715D01*
X434339Y151440D02*
X435389D01*
X434864D01*
Y154589D01*
X434339D01*
X436963Y151440D02*
X438013Y152490D01*
Y153539D01*
X436963Y154589D01*
X383437Y146190D02*
X383962Y146715D01*
X385011D01*
X385536Y146190D01*
Y145665D01*
X385011Y145141D01*
X384486D01*
X385011D01*
X385536Y144616D01*
Y144091D01*
X385011Y143566D01*
X383962D01*
X383437Y144091D01*
X386585Y143566D02*
Y144091D01*
X387110D01*
Y143566D01*
X386585D01*
X389209D02*
X390259D01*
X389734D01*
Y146715D01*
X389209Y146190D01*
X391833D02*
X392358Y146715D01*
X393407D01*
X393932Y146190D01*
Y144091D01*
X393407Y143566D01*
X392358D01*
X391833Y144091D01*
Y146190D01*
X394982D02*
X395507Y146715D01*
X396556D01*
X397081Y146190D01*
Y144091D01*
X396556Y143566D01*
X395507D01*
X394982Y144091D01*
Y146190D01*
X398130Y143566D02*
Y145665D01*
X398655D01*
X399180Y145141D01*
Y143566D01*
Y145141D01*
X399705Y145665D01*
X400229Y145141D01*
Y143566D01*
X401279D02*
Y145665D01*
X401804D01*
X402328Y145141D01*
Y143566D01*
Y145141D01*
X402853Y145665D01*
X403378Y145141D01*
Y143566D01*
X408626D02*
X407576Y144616D01*
Y145665D01*
X408626Y146715D01*
X410200Y143566D02*
X411249D01*
X410725D01*
Y146715D01*
X410200Y146190D01*
X414923Y143566D02*
X412824D01*
X414923Y145665D01*
Y146190D01*
X414398Y146715D01*
X413348D01*
X412824Y146190D01*
X418071Y143566D02*
X415972D01*
X418071Y145665D01*
Y146190D01*
X417547Y146715D01*
X416497D01*
X415972Y146190D01*
X419121Y143566D02*
Y144091D01*
X419646D01*
Y143566D01*
X419121D01*
X421745Y146190D02*
X422269Y146715D01*
X423319D01*
X423844Y146190D01*
Y144091D01*
X423319Y143566D01*
X422269D01*
X421745Y144091D01*
Y146190D01*
X426992Y146715D02*
X424893D01*
Y145141D01*
X425943Y145665D01*
X426468D01*
X426992Y145141D01*
Y144091D01*
X426468Y143566D01*
X425418D01*
X424893Y144091D01*
X428042Y143566D02*
Y145665D01*
X428567D01*
X429092Y145141D01*
Y143566D01*
Y145141D01*
X429616Y145665D01*
X430141Y145141D01*
Y143566D01*
X431190D02*
X432240D01*
X431715D01*
Y145665D01*
X431190D01*
X433814Y143566D02*
X434864D01*
X434339D01*
Y146715D01*
X433814D01*
X436438Y143566D02*
X437488Y144616D01*
Y145665D01*
X436438Y146715D01*
X383437Y135692D02*
X384486D01*
X383962D01*
Y138841D01*
X383437Y138316D01*
X386061Y135692D02*
Y136217D01*
X386585D01*
Y135692D01*
X386061D01*
X388685Y138841D02*
X390784D01*
Y138316D01*
X388685Y136217D01*
Y135692D01*
X391833Y138316D02*
X392358Y138841D01*
X393407D01*
X393932Y138316D01*
Y136217D01*
X393407Y135692D01*
X392358D01*
X391833Y136217D01*
Y138316D01*
X394982D02*
X395507Y138841D01*
X396556D01*
X397081Y138316D01*
Y136217D01*
X396556Y135692D01*
X395507D01*
X394982Y136217D01*
Y138316D01*
X398130Y135692D02*
Y137791D01*
X398655D01*
X399180Y137267D01*
Y135692D01*
Y137267D01*
X399705Y137791D01*
X400229Y137267D01*
Y135692D01*
X401279D02*
Y137791D01*
X401804D01*
X402328Y137267D01*
Y135692D01*
Y137267D01*
X402853Y137791D01*
X403378Y137267D01*
Y135692D01*
X408626D02*
X407576Y136742D01*
Y137791D01*
X408626Y138841D01*
X412299D02*
X411249Y138316D01*
X410200Y137267D01*
Y136217D01*
X410725Y135692D01*
X411774D01*
X412299Y136217D01*
Y136742D01*
X411774Y137267D01*
X410200D01*
X415448Y138841D02*
X414398Y138316D01*
X413348Y137267D01*
Y136217D01*
X413873Y135692D01*
X414923D01*
X415448Y136217D01*
Y136742D01*
X414923Y137267D01*
X413348D01*
X416497Y135692D02*
Y136217D01*
X417022D01*
Y135692D01*
X416497D01*
X419121Y136217D02*
X419646Y135692D01*
X420695D01*
X421220Y136217D01*
Y138316D01*
X420695Y138841D01*
X419646D01*
X419121Y138316D01*
Y137791D01*
X419646Y137267D01*
X421220D01*
X422269Y138316D02*
X422794Y138841D01*
X423844D01*
X424369Y138316D01*
Y137791D01*
X423844Y137267D01*
X423319D01*
X423844D01*
X424369Y136742D01*
Y136217D01*
X423844Y135692D01*
X422794D01*
X422269Y136217D01*
X425418Y135692D02*
Y137791D01*
X425943D01*
X426468Y137267D01*
Y135692D01*
Y137267D01*
X426992Y137791D01*
X427517Y137267D01*
Y135692D01*
X428567D02*
X429616D01*
X429092D01*
Y137791D01*
X428567D01*
X431190Y135692D02*
X432240D01*
X431715D01*
Y138841D01*
X431190D01*
X433814Y135692D02*
X434864Y136742D01*
Y137791D01*
X433814Y138841D01*
X383437Y130442D02*
X383962Y130967D01*
X385011D01*
X385536Y130442D01*
Y129917D01*
X385011Y129393D01*
X384486D01*
X385011D01*
X385536Y128868D01*
Y128343D01*
X385011Y127818D01*
X383962D01*
X383437Y128343D01*
X386585Y127818D02*
Y128343D01*
X387110D01*
Y127818D01*
X386585D01*
X389209Y130442D02*
X389734Y130967D01*
X390784D01*
X391308Y130442D01*
Y128343D01*
X390784Y127818D01*
X389734D01*
X389209Y128343D01*
Y130442D01*
X392358D02*
X392883Y130967D01*
X393932D01*
X394457Y130442D01*
Y128343D01*
X393932Y127818D01*
X392883D01*
X392358Y128343D01*
Y130442D01*
X395507D02*
X396031Y130967D01*
X397081D01*
X397605Y130442D01*
Y128343D01*
X397081Y127818D01*
X396031D01*
X395507Y128343D01*
Y130442D01*
X398655Y127818D02*
Y129917D01*
X399180D01*
X399705Y129393D01*
Y127818D01*
Y129393D01*
X400229Y129917D01*
X400754Y129393D01*
Y127818D01*
X401804D02*
Y129917D01*
X402328D01*
X402853Y129393D01*
Y127818D01*
Y129393D01*
X403378Y129917D01*
X403903Y129393D01*
Y127818D01*
X409150D02*
X408101Y128868D01*
Y129917D01*
X409150Y130967D01*
X410725Y127818D02*
X411774D01*
X411249D01*
Y130967D01*
X410725Y130442D01*
X413348Y127818D02*
X414398D01*
X413873D01*
Y130967D01*
X413348Y130442D01*
X415972D02*
X416497Y130967D01*
X417547D01*
X418071Y130442D01*
Y129917D01*
X417547Y129393D01*
X418071Y128868D01*
Y128343D01*
X417547Y127818D01*
X416497D01*
X415972Y128343D01*
Y128868D01*
X416497Y129393D01*
X415972Y129917D01*
Y130442D01*
X416497Y129393D02*
X417547D01*
X419121Y127818D02*
Y128343D01*
X419646D01*
Y127818D01*
X419121D01*
X421745D02*
X422794D01*
X422269D01*
Y130967D01*
X421745Y130442D01*
X424369Y127818D02*
X425418D01*
X424893D01*
Y130967D01*
X424369Y130442D01*
X426992Y127818D02*
Y129917D01*
X427517D01*
X428042Y129393D01*
Y127818D01*
Y129393D01*
X428567Y129917D01*
X429092Y129393D01*
Y127818D01*
X430141D02*
X431190D01*
X430666D01*
Y129917D01*
X430141D01*
X432765Y127818D02*
X433814D01*
X433290D01*
Y130967D01*
X432765D01*
X435389Y127818D02*
X436438Y128868D01*
Y129917D01*
X435389Y130967D01*
X385536Y119944D02*
X383437D01*
X385536Y122043D01*
Y122568D01*
X385011Y123093D01*
X383962D01*
X383437Y122568D01*
X386585Y119944D02*
Y120469D01*
X387110D01*
Y119944D01*
X386585D01*
X389209Y123093D02*
X391308D01*
Y122568D01*
X389209Y120469D01*
Y119944D01*
X392358Y123093D02*
X394457D01*
Y122568D01*
X392358Y120469D01*
Y119944D01*
X395507Y122568D02*
X396031Y123093D01*
X397081D01*
X397605Y122568D01*
Y120469D01*
X397081Y119944D01*
X396031D01*
X395507Y120469D01*
Y122568D01*
X398655Y119944D02*
Y122043D01*
X399180D01*
X399705Y121519D01*
Y119944D01*
Y121519D01*
X400229Y122043D01*
X400754Y121519D01*
Y119944D01*
X401804D02*
Y122043D01*
X402328D01*
X402853Y121519D01*
Y119944D01*
Y121519D01*
X403378Y122043D01*
X403903Y121519D01*
Y119944D01*
X409150D02*
X408101Y120994D01*
Y122043D01*
X409150Y123093D01*
X410725Y119944D02*
X411774D01*
X411249D01*
Y123093D01*
X410725Y122568D01*
X413348D02*
X413873Y123093D01*
X414923D01*
X415448Y122568D01*
Y120469D01*
X414923Y119944D01*
X413873D01*
X413348Y120469D01*
Y122568D01*
X416497Y120469D02*
X417022Y119944D01*
X418071D01*
X418596Y120469D01*
Y122568D01*
X418071Y123093D01*
X417022D01*
X416497Y122568D01*
Y122043D01*
X417022Y121519D01*
X418596D01*
X419646Y119944D02*
Y120469D01*
X420170D01*
Y119944D01*
X419646D01*
X422269Y122568D02*
X422794Y123093D01*
X423844D01*
X424369Y122568D01*
Y120469D01*
X423844Y119944D01*
X422794D01*
X422269Y120469D01*
Y122568D01*
X427517Y123093D02*
X426468Y122568D01*
X425418Y121519D01*
Y120469D01*
X425943Y119944D01*
X426992D01*
X427517Y120469D01*
Y120994D01*
X426992Y121519D01*
X425418D01*
X428567Y119944D02*
Y122043D01*
X429092D01*
X429616Y121519D01*
Y119944D01*
Y121519D01*
X430141Y122043D01*
X430666Y121519D01*
Y119944D01*
X431715D02*
X432765D01*
X432240D01*
Y122043D01*
X431715D01*
X434339Y119944D02*
X435389D01*
X434864D01*
Y123093D01*
X434339D01*
X436963Y119944D02*
X438013Y120994D01*
Y122043D01*
X436963Y123093D01*
X383437Y114694D02*
X383962Y115219D01*
X385011D01*
X385536Y114694D01*
Y112595D01*
X385011Y112070D01*
X383962D01*
X383437Y112595D01*
Y114694D01*
X386585Y112070D02*
Y112595D01*
X387110D01*
Y112070D01*
X386585D01*
X389209Y112595D02*
X389734Y112070D01*
X390784D01*
X391308Y112595D01*
Y114694D01*
X390784Y115219D01*
X389734D01*
X389209Y114694D01*
Y114169D01*
X389734Y113645D01*
X391308D01*
X392358Y114694D02*
X392883Y115219D01*
X393932D01*
X394457Y114694D01*
Y112595D01*
X393932Y112070D01*
X392883D01*
X392358Y112595D01*
Y114694D01*
X395507D02*
X396031Y115219D01*
X397081D01*
X397605Y114694D01*
Y112595D01*
X397081Y112070D01*
X396031D01*
X395507Y112595D01*
Y114694D01*
X398655Y112070D02*
Y114169D01*
X399180D01*
X399705Y113645D01*
Y112070D01*
Y113645D01*
X400229Y114169D01*
X400754Y113645D01*
Y112070D01*
X401804D02*
Y114169D01*
X402328D01*
X402853Y113645D01*
Y112070D01*
Y113645D01*
X403378Y114169D01*
X403903Y113645D01*
Y112070D01*
X409150D02*
X408101Y113120D01*
Y114169D01*
X409150Y115219D01*
X410725Y114694D02*
X411249Y115219D01*
X412299D01*
X412824Y114694D01*
Y114169D01*
X412299Y113645D01*
X411774D01*
X412299D01*
X412824Y113120D01*
Y112595D01*
X412299Y112070D01*
X411249D01*
X410725Y112595D01*
X415972Y115219D02*
X413873D01*
Y113645D01*
X414923Y114169D01*
X415448D01*
X415972Y113645D01*
Y112595D01*
X415448Y112070D01*
X414398D01*
X413873Y112595D01*
X417022Y112070D02*
Y112595D01*
X417547D01*
Y112070D01*
X417022D01*
X421220D02*
Y115219D01*
X419646Y113645D01*
X421745D01*
X422794Y114694D02*
X423319Y115219D01*
X424369D01*
X424893Y114694D01*
Y114169D01*
X424369Y113645D01*
X423844D01*
X424369D01*
X424893Y113120D01*
Y112595D01*
X424369Y112070D01*
X423319D01*
X422794Y112595D01*
X425943Y112070D02*
Y114169D01*
X426468D01*
X426992Y113645D01*
Y112070D01*
Y113645D01*
X427517Y114169D01*
X428042Y113645D01*
Y112070D01*
X429091D02*
X430141D01*
X429616D01*
Y114169D01*
X429091D01*
X431715Y112070D02*
X432765D01*
X432240D01*
Y115219D01*
X431715D01*
X434339Y112070D02*
X435389Y113120D01*
Y114169D01*
X434339Y115219D01*
X383437Y104196D02*
X384486D01*
X383962D01*
Y107345D01*
X383437Y106820D01*
X386061Y104196D02*
Y104721D01*
X386585D01*
Y104196D01*
X386061D01*
X388685Y106820D02*
X389209Y107345D01*
X390259D01*
X390784Y106820D01*
Y104721D01*
X390259Y104196D01*
X389209D01*
X388685Y104721D01*
Y106820D01*
X391833D02*
X392358Y107345D01*
X393407D01*
X393932Y106820D01*
Y104721D01*
X393407Y104196D01*
X392358D01*
X391833Y104721D01*
Y106820D01*
X394982D02*
X395507Y107345D01*
X396556D01*
X397081Y106820D01*
Y104721D01*
X396556Y104196D01*
X395507D01*
X394982Y104721D01*
Y106820D01*
X398130Y104196D02*
Y106295D01*
X398655D01*
X399180Y105771D01*
Y104196D01*
Y105771D01*
X399705Y106295D01*
X400229Y105771D01*
Y104196D01*
X401279D02*
Y106295D01*
X401804D01*
X402328Y105771D01*
Y104196D01*
Y105771D01*
X402853Y106295D01*
X403378Y105771D01*
Y104196D01*
X408626D02*
X407576Y105246D01*
Y106295D01*
X408626Y107345D01*
X410200Y106820D02*
X410725Y107345D01*
X411774D01*
X412299Y106820D01*
Y106295D01*
X411774Y105771D01*
X411249D01*
X411774D01*
X412299Y105246D01*
Y104721D01*
X411774Y104196D01*
X410725D01*
X410200Y104721D01*
X413348D02*
X413873Y104196D01*
X414923D01*
X415448Y104721D01*
Y106820D01*
X414923Y107345D01*
X413873D01*
X413348Y106820D01*
Y106295D01*
X413873Y105771D01*
X415448D01*
X416497Y104196D02*
Y104721D01*
X417022D01*
Y104196D01*
X416497D01*
X419121Y106820D02*
X419646Y107345D01*
X420695D01*
X421220Y106820D01*
Y106295D01*
X420695Y105771D01*
X420170D01*
X420695D01*
X421220Y105246D01*
Y104721D01*
X420695Y104196D01*
X419646D01*
X419121Y104721D01*
X422269Y107345D02*
X424369D01*
Y106820D01*
X422269Y104721D01*
Y104196D01*
X425418D02*
Y106295D01*
X425943D01*
X426468Y105771D01*
Y104196D01*
Y105771D01*
X426992Y106295D01*
X427517Y105771D01*
Y104196D01*
X428567D02*
X429616D01*
X429092D01*
Y106295D01*
X428567D01*
X431190Y104196D02*
X432240D01*
X431715D01*
Y107345D01*
X431190D01*
X433814Y104196D02*
X434864Y105246D01*
Y106295D01*
X433814Y107345D01*
X383437Y98946D02*
X383962Y99471D01*
X385011D01*
X385536Y98946D01*
Y96847D01*
X385011Y96322D01*
X383962D01*
X383437Y96847D01*
Y98946D01*
X386585Y96322D02*
Y96847D01*
X387110D01*
Y96322D01*
X386585D01*
X391308D02*
X389209D01*
X391308Y98421D01*
Y98946D01*
X390784Y99471D01*
X389734D01*
X389209Y98946D01*
X394457Y99471D02*
X392358D01*
Y97896D01*
X393407Y98421D01*
X393932D01*
X394457Y97896D01*
Y96847D01*
X393932Y96322D01*
X392883D01*
X392358Y96847D01*
X395507Y98946D02*
X396031Y99471D01*
X397081D01*
X397605Y98946D01*
Y96847D01*
X397081Y96322D01*
X396031D01*
X395507Y96847D01*
Y98946D01*
X398655Y96322D02*
Y98421D01*
X399180D01*
X399705Y97896D01*
Y96322D01*
Y97896D01*
X400229Y98421D01*
X400754Y97896D01*
Y96322D01*
X401804D02*
Y98421D01*
X402328D01*
X402853Y97896D01*
Y96322D01*
Y97896D01*
X403378Y98421D01*
X403903Y97896D01*
Y96322D01*
X409150D02*
X408101Y97372D01*
Y98421D01*
X409150Y99471D01*
X410725Y96847D02*
X411249Y96322D01*
X412299D01*
X412824Y96847D01*
Y98946D01*
X412299Y99471D01*
X411249D01*
X410725Y98946D01*
Y98421D01*
X411249Y97896D01*
X412824D01*
X413873Y96322D02*
Y96847D01*
X414398D01*
Y96322D01*
X413873D01*
X416497Y98946D02*
X417022Y99471D01*
X418071D01*
X418596Y98946D01*
Y98421D01*
X418071Y97896D01*
X418596Y97372D01*
Y96847D01*
X418071Y96322D01*
X417022D01*
X416497Y96847D01*
Y97372D01*
X417022Y97896D01*
X416497Y98421D01*
Y98946D01*
X417022Y97896D02*
X418071D01*
X421220Y96322D02*
Y99471D01*
X419646Y97896D01*
X421745D01*
X422794Y96322D02*
Y98421D01*
X423319D01*
X423844Y97896D01*
Y96322D01*
Y97896D01*
X424369Y98421D01*
X424893Y97896D01*
Y96322D01*
X425943D02*
X426992D01*
X426468D01*
Y98421D01*
X425943D01*
X428567Y96322D02*
X429616D01*
X429092D01*
Y99471D01*
X428567D01*
X431190Y96322D02*
X432240Y97372D01*
Y98421D01*
X431190Y99471D01*
X354442Y88448D02*
X352343D01*
X354442Y90547D01*
Y91072D01*
X353917Y91597D01*
X352867D01*
X352343Y91072D01*
X355491Y88448D02*
X356541D01*
X356016D01*
Y91597D01*
X355491Y91072D01*
X358115D02*
X358640Y91597D01*
X359689D01*
X360214Y91072D01*
Y88973D01*
X359689Y88448D01*
X358640D01*
X358115Y88973D01*
Y91072D01*
X364412Y91597D02*
X366511D01*
X365462D01*
Y88448D01*
X368086D02*
X369135D01*
X369660Y88973D01*
Y90022D01*
X369135Y90547D01*
X368086D01*
X367561Y90022D01*
Y88973D01*
X368086Y88448D01*
X371234Y91072D02*
Y90547D01*
X370709D01*
X371759D01*
X371234D01*
Y88973D01*
X371759Y88448D01*
X373858Y90547D02*
X374908D01*
X375432Y90022D01*
Y88448D01*
X373858D01*
X373333Y88973D01*
X373858Y89498D01*
X375432D01*
X376482Y88448D02*
X377531D01*
X377007D01*
Y91597D01*
X376482D01*
X354442Y159314D02*
X352343D01*
X354442Y161413D01*
Y161938D01*
X353917Y162463D01*
X352867D01*
X352343Y161938D01*
X354442Y151440D02*
X352343D01*
X354442Y153539D01*
Y154064D01*
X353917Y154589D01*
X352867D01*
X352343Y154064D01*
X353917Y143566D02*
Y146715D01*
X352343Y145141D01*
X354442D01*
X352343Y136217D02*
X352867Y135692D01*
X353917D01*
X354442Y136217D01*
Y138316D01*
X353917Y138841D01*
X352867D01*
X352343Y138316D01*
Y137791D01*
X352867Y137267D01*
X354442D01*
X352343Y127818D02*
X353392D01*
X352867D01*
Y130967D01*
X352343Y130442D01*
X354966D02*
X355491Y130967D01*
X356541D01*
X357066Y130442D01*
Y128343D01*
X356541Y127818D01*
X355491D01*
X354966Y128343D01*
Y130442D01*
X352343Y119944D02*
X353392D01*
X352867D01*
Y123093D01*
X352343Y122568D01*
X357066Y119944D02*
X354966D01*
X357066Y122043D01*
Y122568D01*
X356541Y123093D01*
X355491D01*
X354966Y122568D01*
X352343Y112070D02*
X353392D01*
X352867D01*
Y115219D01*
X352343Y114694D01*
X354966D02*
X355491Y115219D01*
X356541D01*
X357066Y114694D01*
Y114169D01*
X356541Y113645D01*
X357066Y113120D01*
Y112595D01*
X356541Y112070D01*
X355491D01*
X354966Y112595D01*
Y113120D01*
X355491Y113645D01*
X354966Y114169D01*
Y114694D01*
X355491Y113645D02*
X356541D01*
X352343Y104196D02*
X353392D01*
X352867D01*
Y107345D01*
X352343Y106820D01*
X354966D02*
X355491Y107345D01*
X356541D01*
X357066Y106820D01*
Y106295D01*
X356541Y105771D01*
X357066Y105246D01*
Y104721D01*
X356541Y104196D01*
X355491D01*
X354966Y104721D01*
Y105246D01*
X355491Y105771D01*
X354966Y106295D01*
Y106820D01*
X355491Y105771D02*
X356541D01*
X352343Y96322D02*
X353392D01*
X352867D01*
Y99471D01*
X352343Y98946D01*
X354966D02*
X355491Y99471D01*
X356541D01*
X357066Y98946D01*
Y98421D01*
X356541Y97896D01*
X356016D01*
X356541D01*
X357066Y97372D01*
Y96847D01*
X356541Y96322D01*
X355491D01*
X354966Y96847D01*
X360214Y99471D02*
X358115D01*
Y97896D01*
X359165Y98421D01*
X359689D01*
X360214Y97896D01*
Y96847D01*
X359689Y96322D01*
X358640D01*
X358115Y96847D01*
D12*
X319803Y47244D02*
X319803Y47244D01*
X-159449Y37402D02*
G03*
X-135827Y37402I11811J0D01*
G01*
X-159449Y45191D02*
G03*
X-161503Y47244I-2054J0D01*
G01*
X-133773D02*
G03*
X-135827Y45191I0J-2054D01*
G01*
X161503Y47244D02*
G03*
X159449Y45191I0J-2054D01*
G01*
X135827D02*
G03*
X133773Y47244I-2054J0D01*
G01*
X135827Y37402D02*
G03*
X159449Y37402I11811J0D01*
G01*
X324803Y42244D02*
G03*
X319803Y47244I-5000J0D01*
G01*
Y-244094D02*
G03*
X324803Y-239094I0J5000D01*
G01*
X-324803D02*
G03*
X-319803Y-244094I5000J0D01*
G01*
Y47244D02*
G03*
X-324803Y42244I0J-5000D01*
G01*
X161503Y47244D02*
X319803D01*
X-133773D02*
X133773D01*
X-159449Y37402D02*
Y45191D01*
X-135827Y37402D02*
Y45191D01*
X159449Y37402D02*
Y45191D01*
X135827Y37402D02*
Y45191D01*
X324803Y-239094D02*
Y42244D01*
X-319803Y-244094D02*
X319803D01*
X-324803Y-239094D02*
Y42244D01*
X-319803Y47244D02*
X-161503D01*
D85*
X45482Y-59449D02*
G03*
X45482Y-59449I-600J0D01*
G01*
X45882D02*
G03*
X45882Y-59449I-1000J0D01*
G01*
X54143Y-46850D02*
G03*
X54143Y-46850I-600J0D01*
G01*
X54543D02*
G03*
X54543Y-46850I-1000J0D01*
G01*
X54143Y-59449D02*
G03*
X54143Y-59449I-600J0D01*
G01*
X54543D02*
G03*
X54543Y-59449I-1000J0D01*
G01*
X-44282D02*
G03*
X-44282Y-59449I-600J0D01*
G01*
X-43882D02*
G03*
X-43882Y-59449I-1000J0D01*
G01*
X-44282Y-46850D02*
G03*
X-44282Y-46850I-600J0D01*
G01*
X-43882D02*
G03*
X-43882Y-46850I-1000J0D01*
G01*
X-52943Y-59449D02*
G03*
X-52943Y-59449I-600J0D01*
G01*
X-52543D02*
G03*
X-52543Y-59449I-1000J0D01*
G01*
X-142707D02*
G03*
X-142707Y-59449I-600J0D01*
G01*
X-142307D02*
G03*
X-142307Y-59449I-1000J0D01*
G01*
X-142707Y-46850D02*
G03*
X-142707Y-46850I-600J0D01*
G01*
X-142307D02*
G03*
X-142307Y-46850I-1000J0D01*
G01*
X-151368Y-59449D02*
G03*
X-151368Y-59449I-600J0D01*
G01*
X-150969D02*
G03*
X-150969Y-59449I-1000J0D01*
G01*
X152568D02*
G03*
X152568Y-59449I-600J0D01*
G01*
X152969D02*
G03*
X152969Y-59449I-1000J0D01*
G01*
X152568Y-46850D02*
G03*
X152568Y-46850I-600J0D01*
G01*
X152969D02*
G03*
X152969Y-46850I-1000J0D01*
G01*
X143907Y-59449D02*
G03*
X143907Y-59449I-600J0D01*
G01*
X144307D02*
G03*
X144307Y-59449I-1000J0D01*
G01*
X152568Y-157874D02*
G03*
X152568Y-157874I-600J0D01*
G01*
X152969D02*
G03*
X152969Y-157874I-1000J0D01*
G01*
X152568Y-145276D02*
G03*
X152568Y-145276I-600J0D01*
G01*
X152969D02*
G03*
X152969Y-145276I-1000J0D01*
G01*
X54143Y-157874D02*
G03*
X54143Y-157874I-600J0D01*
G01*
X54543D02*
G03*
X54543Y-157874I-1000J0D01*
G01*
X54143Y-145276D02*
G03*
X54143Y-145276I-600J0D01*
G01*
X54543D02*
G03*
X54543Y-145276I-1000J0D01*
G01*
X45482Y-157874D02*
G03*
X45482Y-157874I-600J0D01*
G01*
X45882D02*
G03*
X45882Y-157874I-1000J0D01*
G01*
X-44282D02*
G03*
X-44282Y-157874I-600J0D01*
G01*
X-43882D02*
G03*
X-43882Y-157874I-1000J0D01*
G01*
X-44282Y-145276D02*
G03*
X-44282Y-145276I-600J0D01*
G01*
X-43882D02*
G03*
X-43882Y-145276I-1000J0D01*
G01*
X-52943Y-157874D02*
G03*
X-52943Y-157874I-600J0D01*
G01*
X-52543D02*
G03*
X-52543Y-157874I-1000J0D01*
G01*
X-142707D02*
G03*
X-142707Y-157874I-600J0D01*
G01*
X-142307D02*
G03*
X-142307Y-157874I-1000J0D01*
G01*
X-142707Y-145276D02*
G03*
X-142707Y-145276I-600J0D01*
G01*
X-142307D02*
G03*
X-142307Y-145276I-1000J0D01*
G01*
X-151368Y-157874D02*
G03*
X-151368Y-157874I-600J0D01*
G01*
X-150969D02*
G03*
X-150969Y-157874I-1000J0D01*
G01*
X217411Y21723D02*
G03*
X217411Y21723I-600J0D01*
G01*
X217811D02*
G03*
X217811Y21723I-1000J0D01*
G01*
X172175Y43494D02*
G03*
X172175Y43494I-600J0D01*
G01*
X172575D02*
G03*
X172575Y43494I-1000J0D01*
G01*
X177490Y21723D02*
G03*
X177490Y21723I-600J0D01*
G01*
X177890D02*
G03*
X177890Y21723I-1000J0D01*
G01*
X188002Y18898D02*
G03*
X188002Y18898I-600J0D01*
G01*
X188402D02*
G03*
X188402Y18898I-1000J0D01*
G01*
X206899D02*
G03*
X206899Y18898I-600J0D01*
G01*
X207299D02*
G03*
X207299Y18898I-1000J0D01*
G01*
X163002Y35827D02*
G03*
X163002Y35827I-600J0D01*
G01*
X163402D02*
G03*
X163402Y35827I-1000J0D01*
G01*
X169498Y24015D02*
G03*
X169498Y24015I-600J0D01*
G01*
X169898D02*
G03*
X169898Y24015I-1000J0D01*
G01*
X225404D02*
G03*
X225404Y24015I-600J0D01*
G01*
X225804D02*
G03*
X225804Y24015I-1000J0D01*
G01*
X84654Y43701D02*
G03*
X84654Y43701I-600J0D01*
G01*
X85054D02*
G03*
X85054Y43701I-1000J0D01*
G01*
X81309Y6299D02*
G03*
X81309Y6299I-600J0D01*
G01*
X81709D02*
G03*
X81709Y6299I-1000J0D01*
G01*
X-155896Y-196850D02*
G03*
X-155896Y-196850I-600J0D01*
G01*
X-155496D02*
G03*
X-155496Y-196850I-1000J0D01*
G01*
X232884Y24409D02*
G03*
X232884Y24409I-600J0D01*
G01*
X233283D02*
G03*
X233283Y24409I-1000J0D01*
G01*
X91308Y25182D02*
G03*
X91308Y25182I-600J0D01*
G01*
X91708D02*
G03*
X91708Y25182I-1000J0D01*
G01*
X114380Y27560D02*
G03*
X114380Y27560I-600J0D01*
G01*
X114780D02*
G03*
X114780Y27560I-1000J0D01*
G01*
X114380Y21654D02*
G03*
X114380Y21654I-600J0D01*
G01*
X114780D02*
G03*
X114780Y21654I-1000J0D01*
G01*
X143907Y-92913D02*
G03*
X143907Y-92913I-600J0D01*
G01*
X144307D02*
G03*
X144307Y-92913I-1000J0D01*
G01*
X-21888Y-29921D02*
G03*
X-21888Y-29921I-600J0D01*
G01*
X-21488D02*
G03*
X-21488Y-29921I-1000J0D01*
G01*
X-15195Y-23228D02*
G03*
X-15195Y-23228I-600J0D01*
G01*
X-14795D02*
G03*
X-14795Y-23228I-1000J0D01*
G01*
X-185227Y-56299D02*
G03*
X-185227Y-56299I-600J0D01*
G01*
X-184827D02*
G03*
X-184827Y-56299I-1000J0D01*
G01*
X125797Y1181D02*
G03*
X125797Y1181I-600J0D01*
G01*
X126197D02*
G03*
X126197Y1181I-1000J0D01*
G01*
X139576Y1229D02*
G03*
X139576Y1229I-600J0D01*
G01*
X139976D02*
G03*
X139976Y1229I-1000J0D01*
G01*
X166348Y12205D02*
G03*
X166348Y12205I-600J0D01*
G01*
X166748D02*
G03*
X166748Y12205I-1000J0D01*
G01*
X157687Y3543D02*
G03*
X157687Y3543I-600J0D01*
G01*
X158087D02*
G03*
X158087Y3543I-1000J0D01*
G01*
X176191Y14961D02*
G03*
X176191Y14961I-600J0D01*
G01*
X176591D02*
G03*
X176591Y14961I-1000J0D01*
G01*
X200206Y9843D02*
G03*
X200206Y9843I-600J0D01*
G01*
X200606D02*
G03*
X200606Y9843I-1000J0D01*
G01*
X237507Y13002D02*
G03*
X237507Y13002I-600J0D01*
G01*
X237907D02*
G03*
X237907Y13002I-1000J0D01*
G01*
X249505Y-5689D02*
G03*
X249505Y-5689I-600J0D01*
G01*
X249905D02*
G03*
X249905Y-5689I-1000J0D01*
G01*
X285246Y3150D02*
G03*
X285246Y3150I-600J0D01*
G01*
X285646D02*
G03*
X285646Y3150I-1000J0D01*
G01*
X306899Y28346D02*
G03*
X306899Y28346I-600J0D01*
G01*
X307299D02*
G03*
X307299Y28346I-1000J0D01*
G01*
X317135Y-35827D02*
G03*
X317135Y-35827I-600J0D01*
G01*
X317535D02*
G03*
X317535Y-35827I-1000J0D01*
G01*
X310049Y-60630D02*
G03*
X310049Y-60630I-600J0D01*
G01*
X310449D02*
G03*
X310449Y-60630I-1000J0D01*
G01*
X320943Y-114311D02*
G03*
X320943Y-114311I-600J0D01*
G01*
X321343D02*
G03*
X321343Y-114311I-1000J0D01*
G01*
X303750Y-136614D02*
G03*
X303750Y-136614I-600J0D01*
G01*
X304150D02*
G03*
X304150Y-136614I-1000J0D01*
G01*
X314717Y-204516D02*
G03*
X314717Y-204516I-600J0D01*
G01*
X315117D02*
G03*
X315117Y-204516I-1000J0D01*
G01*
X234458Y-207874D02*
G03*
X234458Y-207874I-600J0D01*
G01*
X234858D02*
G03*
X234858Y-207874I-1000J0D01*
G01*
X254537Y-235827D02*
G03*
X254537Y-235827I-600J0D01*
G01*
X254937D02*
G03*
X254937Y-235827I-1000J0D01*
G01*
X225797Y-133858D02*
G03*
X225797Y-133858I-600J0D01*
G01*
X226197D02*
G03*
X226197Y-133858I-1000J0D01*
G01*
X197844Y-226772D02*
G03*
X197844Y-226772I-600J0D01*
G01*
X198244D02*
G03*
X198244Y-226772I-1000J0D01*
G01*
X4395Y-214339D02*
G03*
X4395Y-214339I-600J0D01*
G01*
X4795D02*
G03*
X4795Y-214339I-1000J0D01*
G01*
X104285D02*
G03*
X104285Y-214339I-600J0D01*
G01*
X104685D02*
G03*
X104685Y-214339I-1000J0D01*
G01*
X-232077Y-231496D02*
G03*
X-232077Y-231496I-600J0D01*
G01*
X-231677D02*
G03*
X-231677Y-231496I-1000J0D01*
G01*
X-250581Y-225590D02*
G03*
X-250581Y-225590I-600J0D01*
G01*
X-250181D02*
G03*
X-250181Y-225590I-1000J0D01*
G01*
X-311605Y-220866D02*
G03*
X-311605Y-220866I-600J0D01*
G01*
X-311205D02*
G03*
X-311205Y-220866I-1000J0D01*
G01*
X-311599Y-194970D02*
G03*
X-311599Y-194970I-600J0D01*
G01*
X-311199D02*
G03*
X-311199Y-194970I-1000J0D01*
G01*
X-249756Y-182934D02*
G03*
X-249756Y-182934I-600J0D01*
G01*
X-249356D02*
G03*
X-249356Y-182934I-1000J0D01*
G01*
X-247825Y-155512D02*
G03*
X-247825Y-155512I-600J0D01*
G01*
X-247425D02*
G03*
X-247425Y-155512I-1000J0D01*
G01*
X-250975Y-131496D02*
G03*
X-250975Y-131496I-600J0D01*
G01*
X-250575D02*
G03*
X-250575Y-131496I-1000J0D01*
G01*
X-248096Y-79032D02*
G03*
X-248096Y-79032I-600J0D01*
G01*
X-247696D02*
G03*
X-247696Y-79032I-1000J0D01*
G01*
X-304912Y-70866D02*
G03*
X-304912Y-70866I-600J0D01*
G01*
X-304512D02*
G03*
X-304512Y-70866I-1000J0D01*
G01*
X-318298Y-50787D02*
G03*
X-318298Y-50787I-600J0D01*
G01*
X-317898D02*
G03*
X-317898Y-50787I-1000J0D01*
G01*
X-288770Y-2756D02*
G03*
X-288770Y-2756I-600J0D01*
G01*
X-288370D02*
G03*
X-288370Y-2756I-1000J0D01*
G01*
X-255013Y-1832D02*
G03*
X-255013Y-1832I-600J0D01*
G01*
X-254613D02*
G03*
X-254613Y-1832I-1000J0D01*
G01*
X-229715Y-14173D02*
G03*
X-229715Y-14173I-600J0D01*
G01*
X-229315D02*
G03*
X-229315Y-14173I-1000J0D01*
G01*
X-305512Y26530D02*
G03*
X-305512Y26530I-600J0D01*
G01*
X-305112D02*
G03*
X-305112Y26530I-1000J0D01*
G01*
X-46644Y11024D02*
G03*
X-46644Y11024I-600J0D01*
G01*
X-46244D02*
G03*
X-46244Y11024I-1000J0D01*
G01*
X-37589Y16535D02*
G03*
X-37589Y16535I-600J0D01*
G01*
X-37189D02*
G03*
X-37189Y16535I-1000J0D01*
G01*
X-63376Y10827D02*
G03*
X-63376Y10827I-600J0D01*
G01*
X-62976D02*
G03*
X-62976Y10827I-1000J0D01*
G01*
X-68298D02*
G03*
X-68298Y10827I-600J0D01*
G01*
X-67898D02*
G03*
X-67898Y10827I-1000J0D01*
G01*
X50206Y15748D02*
G03*
X50206Y15748I-600J0D01*
G01*
X50606D02*
G03*
X50606Y15748I-1000J0D01*
G01*
X175403Y4724D02*
G03*
X175403Y4724I-600J0D01*
G01*
X175803D02*
G03*
X175803Y4724I-1000J0D01*
G01*
X178159Y6299D02*
G03*
X178159Y6299I-600J0D01*
G01*
X178559D02*
G03*
X178559Y6299I-1000J0D01*
G01*
X48238Y18110D02*
G03*
X48238Y18110I-600J0D01*
G01*
X48638D02*
G03*
X48638Y18110I-1000J0D01*
G01*
X-82868Y15945D02*
G03*
X-82868Y15945I-600J0D01*
G01*
X-82468D02*
G03*
X-82468Y15945I-1000J0D01*
G01*
X174861Y-8661D02*
G03*
X174861Y-8661I-600J0D01*
G01*
X175261D02*
G03*
X175261Y-8661I-1000J0D01*
G01*
X171466Y-6693D02*
G03*
X171466Y-6693I-600J0D01*
G01*
X171866D02*
G03*
X171866Y-6693I-1000J0D01*
G01*
X159261D02*
G03*
X159261Y-6693I-600J0D01*
G01*
X159661D02*
G03*
X159661Y-6693I-1000J0D01*
G01*
X155324Y-6299D02*
G03*
X155324Y-6299I-600J0D01*
G01*
X155724D02*
G03*
X155724Y-6299I-1000J0D01*
G01*
X167135Y-18898D02*
G03*
X167135Y-18898I-600J0D01*
G01*
X167535D02*
G03*
X167535Y-18898I-1000J0D01*
G01*
X164344Y-37043D02*
G03*
X164344Y-37043I-600J0D01*
G01*
X164744D02*
G03*
X164744Y-37043I-1000J0D01*
G01*
X152175Y-21942D02*
G03*
X152175Y-21942I-600J0D01*
G01*
X152575D02*
G03*
X152575Y-21942I-1000J0D01*
G01*
X163986Y-6299D02*
G03*
X163986Y-6299I-600J0D01*
G01*
X164386D02*
G03*
X164386Y-6299I-1000J0D01*
G01*
X238789Y-20079D02*
G03*
X238789Y-20079I-600J0D01*
G01*
X239189D02*
G03*
X239189Y-20079I-1000J0D01*
G01*
X238789Y-64961D02*
G03*
X238789Y-64961I-600J0D01*
G01*
X239189D02*
G03*
X239189Y-64961I-1000J0D01*
G01*
X6505Y-55512D02*
G03*
X6505Y-55512I-600J0D01*
G01*
X6905D02*
G03*
X6905Y-55512I-1000J0D01*
G01*
X6505Y-49213D02*
G03*
X6505Y-49213I-600J0D01*
G01*
X6905D02*
G03*
X6905Y-49213I-1000J0D01*
G01*
X162805Y-21260D02*
G03*
X162805Y-21260I-600J0D01*
G01*
X163205D02*
G03*
X163205Y-21260I-1000J0D01*
G01*
X160442Y-18110D02*
G03*
X160442Y-18110I-600J0D01*
G01*
X160843D02*
G03*
X160843Y-18110I-1000J0D01*
G01*
X258080Y-19291D02*
G03*
X258080Y-19291I-600J0D01*
G01*
X258480D02*
G03*
X258480Y-19291I-1000J0D01*
G01*
X288001Y-61023D02*
G03*
X288001Y-61023I-600J0D01*
G01*
X288401D02*
G03*
X288401Y-61023I-1000J0D01*
G01*
X288001Y-139763D02*
G03*
X288001Y-139763I-600J0D01*
G01*
X288401D02*
G03*
X288401Y-139763I-1000J0D01*
G01*
X301781Y-206693D02*
G03*
X301781Y-206693I-600J0D01*
G01*
X302181D02*
G03*
X302181Y-206693I-1000J0D01*
G01*
X229930Y-196851D02*
G03*
X229930Y-196851I-600J0D01*
G01*
X230330D02*
G03*
X230330Y-196851I-1000J0D01*
G01*
X-86408Y-227756D02*
G03*
X-86408Y-227756I-600J0D01*
G01*
X-86008D02*
G03*
X-86008Y-227756I-1000J0D01*
G01*
X-216526Y-202363D02*
G03*
X-216526Y-202363I-600J0D01*
G01*
X-216126D02*
G03*
X-216126Y-202363I-1000J0D01*
G01*
X-273022Y-206693D02*
G03*
X-273022Y-206693I-600J0D01*
G01*
X-272622D02*
G03*
X-272622Y-206693I-1000J0D01*
G01*
X-278534Y-134449D02*
G03*
X-278534Y-134449I-600J0D01*
G01*
X-278134D02*
G03*
X-278134Y-134449I-1000J0D01*
G01*
X-273022Y-49213D02*
G03*
X-273022Y-49213I-600J0D01*
G01*
X-272622D02*
G03*
X-272622Y-49213I-1000J0D01*
G01*
X54821Y6693D02*
G03*
X54821Y6693I-600J0D01*
G01*
X55221D02*
G03*
X55221Y6693I-1000J0D01*
G01*
X169066Y98D02*
G03*
X169066Y98I-600J0D01*
G01*
X169466D02*
G03*
X169466Y98I-1000J0D01*
G01*
X56112Y9449D02*
G03*
X56112Y9449I-600J0D01*
G01*
X56512D02*
G03*
X56512Y9449I-1000J0D01*
G01*
X173041Y0D02*
G03*
X173041Y0I-600J0D01*
G01*
X173441D02*
G03*
X173441Y0I-1000J0D01*
G01*
X169793Y15945D02*
G03*
X169793Y15945I-600J0D01*
G01*
X170193D02*
G03*
X170193Y15945I-1000J0D01*
G01*
X105324Y10630D02*
G03*
X105324Y10630I-600J0D01*
G01*
X105724D02*
G03*
X105724Y10630I-1000J0D01*
G01*
X91309Y18125D02*
G03*
X91309Y18125I-600J0D01*
G01*
X91709D02*
G03*
X91709Y18125I-1000J0D01*
G01*
X71308Y21654D02*
G03*
X71308Y21654I-600J0D01*
G01*
X71708D02*
G03*
X71708Y21654I-1000J0D01*
G01*
X-128337Y7874D02*
G03*
X-128337Y7874I-600J0D01*
G01*
X-127937D02*
G03*
X-127937Y7874I-1000J0D01*
G01*
X-108652Y1969D02*
G03*
X-108652Y1969I-600J0D01*
G01*
X-108252D02*
G03*
X-108252Y1969I-1000J0D01*
G01*
X-151368Y-145276D02*
G03*
X-151368Y-145276I-600J0D01*
G01*
X-150969D02*
G03*
X-150969Y-145276I-1000J0D01*
G01*
X-151368Y-46850D02*
G03*
X-151368Y-46850I-600J0D01*
G01*
X-150969D02*
G03*
X-150969Y-46850I-1000J0D01*
G01*
X-108652Y-140748D02*
G03*
X-108652Y-140748I-600J0D01*
G01*
X-108252D02*
G03*
X-108252Y-140748I-1000J0D01*
G01*
X-108652Y-20222D02*
G03*
X-108652Y-20222I-600J0D01*
G01*
X-108252D02*
G03*
X-108252Y-20222I-1000J0D01*
G01*
X-108652Y-42323D02*
G03*
X-108652Y-42323I-600J0D01*
G01*
X-108252D02*
G03*
X-108252Y-42323I-1000J0D01*
G01*
X-52943Y-145276D02*
G03*
X-52943Y-145276I-600J0D01*
G01*
X-52543D02*
G03*
X-52543Y-145276I-1000J0D01*
G01*
X45482D02*
G03*
X45482Y-145276I-600J0D01*
G01*
X45882D02*
G03*
X45882Y-145276I-1000J0D01*
G01*
X143907D02*
G03*
X143907Y-145276I-600J0D01*
G01*
X144307D02*
G03*
X144307Y-145276I-1000J0D01*
G01*
X-52943Y-46850D02*
G03*
X-52943Y-46850I-600J0D01*
G01*
X-52543D02*
G03*
X-52543Y-46850I-1000J0D01*
G01*
X45482D02*
G03*
X45482Y-46850I-600J0D01*
G01*
X45882D02*
G03*
X45882Y-46850I-1000J0D01*
G01*
X143907D02*
G03*
X143907Y-46850I-600J0D01*
G01*
X144307D02*
G03*
X144307Y-46850I-1000J0D01*
G01*
X76309Y18125D02*
G03*
X76309Y18125I-600J0D01*
G01*
X76709D02*
G03*
X76709Y18125I-1000J0D01*
G01*
X76308Y25182D02*
G03*
X76308Y25182I-600J0D01*
G01*
X76708D02*
G03*
X76708Y25182I-1000J0D01*
G01*
X-126776Y14764D02*
G03*
X-126776Y14764I-600J0D01*
G01*
X-126376D02*
G03*
X-126376Y14764I-1000J0D01*
G01*
X-131290Y11811D02*
G03*
X-131290Y11811I-600J0D01*
G01*
X-130890D02*
G03*
X-130890Y11811I-1000J0D01*
G01*
X228854Y-171260D02*
G03*
X228854Y-171260I-1000J0D01*
G01*
X214090D02*
G03*
X214090Y-171260I-1000J0D01*
G01*
X228854Y-33465D02*
G03*
X228854Y-33465I-1000J0D01*
G01*
X-212090Y-171260D02*
G03*
X-212090Y-171260I-1000J0D01*
G01*
X-226854D02*
G03*
X-226854Y-171260I-1000J0D01*
G01*
X-212090Y-33465D02*
G03*
X-212090Y-33465I-1000J0D01*
G01*
X-67898Y-231791D02*
G03*
X-67898Y-231791I-1000J0D01*
G01*
Y-217028D02*
G03*
X-67898Y-217028I-1000J0D01*
G01*
X69898Y-231791D02*
G03*
X69898Y-231791I-1000J0D01*
G01*
X24000Y15653D02*
X26000D01*
Y17653D01*
X24000D02*
X26000D01*
X24000Y15653D02*
Y17653D01*
Y25653D02*
X26000D01*
Y27654D01*
X24000D02*
X26000D01*
X24000Y25653D02*
Y27654D01*
X4000Y15653D02*
X6000D01*
Y17653D01*
X4000D02*
X6000D01*
X4000Y15653D02*
Y17653D01*
Y25653D02*
X6000D01*
Y27654D01*
X4000D02*
X6000D01*
X4000Y25653D02*
Y27654D01*
X14000Y15653D02*
X16000D01*
Y17653D01*
X14000D02*
X16000D01*
X14000Y15653D02*
Y17653D01*
X14000Y25653D02*
X16000D01*
Y27654D01*
X14000D02*
X16000D01*
X14000Y25653D02*
Y27654D01*
X-6000Y25653D02*
X-4000D01*
Y27654D01*
X-6000D02*
X-4000D01*
X-6000Y25653D02*
Y27654D01*
X-6000Y15653D02*
X-4000D01*
Y17653D01*
X-6000D02*
X-4000D01*
X-6000Y15653D02*
Y17653D01*
X-16000Y25653D02*
X-14000D01*
Y27654D01*
X-16000D02*
X-14000D01*
X-16000Y25653D02*
Y27654D01*
Y15653D02*
X-14000D01*
Y17653D01*
X-16000D02*
X-14000D01*
X-16000Y15653D02*
Y17653D01*
X-26000Y25653D02*
X-24000D01*
Y27654D01*
X-26000D02*
X-24000D01*
X-26000Y25653D02*
Y27654D01*
Y15653D02*
X-24000D01*
Y17653D01*
X-26000D02*
X-24000D01*
X-26000Y15653D02*
Y17653D01*
X-288402Y-225410D02*
Y-224909D01*
X-287902Y-224410D01*
X-288402Y-223909D02*
X-287902Y-224410D01*
X-288402Y-223909D02*
Y-223410D01*
X-287902D01*
X-287402Y-223909D01*
X-286902Y-223410D01*
X-286402D01*
Y-223909D02*
Y-223410D01*
X-286902Y-224410D02*
X-286402Y-223909D01*
X-286902Y-224410D02*
X-286402Y-224909D01*
Y-225410D02*
Y-224909D01*
X-286902Y-225410D02*
X-286402D01*
X-287402Y-224909D02*
X-286902Y-225410D01*
X-287902D02*
X-287402Y-224909D01*
X-288402Y-225410D02*
X-287902D01*
X286402D02*
Y-224909D01*
X286902Y-224410D01*
X286402Y-223909D02*
X286902Y-224410D01*
X286402Y-223909D02*
Y-223410D01*
X286902D01*
X287402Y-223909D01*
X287902Y-223410D01*
X288402D01*
Y-223909D02*
Y-223410D01*
X287902Y-224410D02*
X288402Y-223909D01*
X287902Y-224410D02*
X288402Y-224909D01*
Y-225410D02*
Y-224909D01*
X287902Y-225410D02*
X288402D01*
X287402Y-224909D02*
X287902Y-225410D01*
X286902D02*
X287402Y-224909D01*
X286402Y-225410D02*
X286902D01*
X286402Y27059D02*
X286902D01*
X286402D02*
Y28059D01*
X286902D01*
Y28559D01*
X287902D01*
Y28059D02*
Y28559D01*
Y28059D02*
X288402D01*
Y27059D02*
Y28059D01*
X287902Y27059D02*
X288402D01*
X287902Y26559D02*
Y27059D01*
X286902Y26559D02*
X287902D01*
X286902D02*
Y27059D01*
X-288402D02*
X-287902D01*
X-288402D02*
Y28059D01*
X-287902D01*
Y28559D01*
X-286902D01*
Y28059D02*
Y28559D01*
Y28059D02*
X-286402D01*
Y27059D02*
Y28059D01*
X-286902Y27059D02*
X-286402D01*
X-286902Y26559D02*
Y27059D01*
X-287902Y26559D02*
X-286902D01*
X-287902D02*
Y27059D01*
X304724Y-170291D02*
X305724Y-168291D01*
X303724D02*
X305724D01*
X303724D02*
X304724Y-170291D01*
X270079D02*
X271079Y-168291D01*
X269079D02*
X271079D01*
X269079D02*
X270079Y-170291D01*
X296744Y-197350D02*
X297244Y-197850D01*
X296244Y-197350D02*
X296744D01*
X296244D02*
X296744Y-196850D01*
X296244Y-196350D02*
X296744Y-196850D01*
X296244Y-196350D02*
X296744D01*
X297244Y-195850D01*
X297744Y-196350D01*
X298244D01*
X297744Y-196850D02*
X298244Y-196350D01*
X297744Y-196850D02*
X298244Y-197350D01*
X297744D02*
X298244D01*
X297244Y-197850D02*
X297744Y-197350D01*
X286902D02*
X287402Y-197850D01*
X286402Y-197350D02*
X286902D01*
X286402D02*
X286902Y-196850D01*
X286402Y-196350D02*
X286902Y-196850D01*
X286402Y-196350D02*
X286902D01*
X287402Y-195850D01*
X287902Y-196350D01*
X288402D01*
X287902Y-196850D02*
X288402Y-196350D01*
X287902Y-196850D02*
X288402Y-197350D01*
X287902D02*
X288402D01*
X287402Y-197850D02*
X287902Y-197350D01*
X277059D02*
X277559Y-197850D01*
X276559Y-197350D02*
X277059D01*
X276559D02*
X277059Y-196850D01*
X276559Y-196350D02*
X277059Y-196850D01*
X276559Y-196350D02*
X277059D01*
X277559Y-195850D01*
X278059Y-196350D01*
X278559D01*
X278059Y-196850D02*
X278559Y-196350D01*
X278059Y-196850D02*
X278559Y-197350D01*
X278059D02*
X278559D01*
X277559Y-197850D02*
X278059Y-197350D01*
X304724Y-91551D02*
X305724Y-89551D01*
X303724D02*
X305724D01*
X303724D02*
X304724Y-91551D01*
X270079D02*
X271079Y-89551D01*
X269079D02*
X271079D01*
X269079D02*
X270079Y-91551D01*
X296744Y-118610D02*
X297244Y-119110D01*
X296244Y-118610D02*
X296744D01*
X296244D02*
X296744Y-118110D01*
X296244Y-117610D02*
X296744Y-118110D01*
X296244Y-117610D02*
X296744D01*
X297244Y-117110D01*
X297744Y-117610D01*
X298244D01*
X297744Y-118110D02*
X298244Y-117610D01*
X297744Y-118110D02*
X298244Y-118610D01*
X297744D02*
X298244D01*
X297244Y-119110D02*
X297744Y-118610D01*
X286902D02*
X287402Y-119110D01*
X286402Y-118610D02*
X286902D01*
X286402D02*
X286902Y-118110D01*
X286402Y-117610D02*
X286902Y-118110D01*
X286402Y-117610D02*
X286902D01*
X287402Y-117110D01*
X287902Y-117610D01*
X288402D01*
X287902Y-118110D02*
X288402Y-117610D01*
X287902Y-118110D02*
X288402Y-118610D01*
X287902D02*
X288402D01*
X287402Y-119110D02*
X287902Y-118610D01*
X277059D02*
X277559Y-119110D01*
X276559Y-118610D02*
X277059D01*
X276559D02*
X277059Y-118110D01*
X276559Y-117610D02*
X277059Y-118110D01*
X276559Y-117610D02*
X277059D01*
X277559Y-117110D01*
X278059Y-117610D01*
X278559D01*
X278059Y-118110D02*
X278559Y-117610D01*
X278059Y-118110D02*
X278559Y-118610D01*
X278059D02*
X278559D01*
X277559Y-119110D02*
X278059Y-118610D01*
X304724Y-12811D02*
X305724Y-10811D01*
X303724D02*
X305724D01*
X303724D02*
X304724Y-12811D01*
X270079D02*
X271079Y-10811D01*
X269079D02*
X271079D01*
X269079D02*
X270079Y-12811D01*
X296744Y-39870D02*
X297244Y-40370D01*
X296244Y-39870D02*
X296744D01*
X296244D02*
X296744Y-39370D01*
X296244Y-38870D02*
X296744Y-39370D01*
X296244Y-38870D02*
X296744D01*
X297244Y-38370D01*
X297744Y-38870D01*
X298244D01*
X297744Y-39370D02*
X298244Y-38870D01*
X297744Y-39370D02*
X298244Y-39870D01*
X297744D02*
X298244D01*
X297244Y-40370D02*
X297744Y-39870D01*
X286902D02*
X287402Y-40370D01*
X286402Y-39870D02*
X286902D01*
X286402D02*
X286902Y-39370D01*
X286402Y-38870D02*
X286902Y-39370D01*
X286402Y-38870D02*
X286902D01*
X287402Y-38370D01*
X287902Y-38870D01*
X288402D01*
X287902Y-39370D02*
X288402Y-38870D01*
X287902Y-39370D02*
X288402Y-39870D01*
X287902D02*
X288402D01*
X287402Y-40370D02*
X287902Y-39870D01*
X277059D02*
X277559Y-40370D01*
X276559Y-39870D02*
X277059D01*
X276559D02*
X277059Y-39370D01*
X276559Y-38870D02*
X277059Y-39370D01*
X276559Y-38870D02*
X277059D01*
X277559Y-38370D01*
X278059Y-38870D01*
X278559D01*
X278059Y-39370D02*
X278559Y-38870D01*
X278059Y-39370D02*
X278559Y-39870D01*
X278059D02*
X278559D01*
X277559Y-40370D02*
X278059Y-39870D01*
X184872Y28526D02*
X186072D01*
Y29726D01*
X184872D02*
X186072D01*
X184872Y28526D02*
Y29726D01*
X184472Y28126D02*
X186472D01*
Y30126D01*
X184472D02*
X186472D01*
X184472Y28126D02*
Y30126D01*
X207628Y28526D02*
X208828D01*
Y29726D01*
X207628D02*
X208828D01*
X207628Y28526D02*
Y29726D01*
X207228Y28126D02*
X209228D01*
Y30126D01*
X207228D02*
X209228D01*
X207228Y28126D02*
Y30126D01*
X146638Y-102862D02*
X147138D01*
X146638D02*
Y-101862D01*
X147138D01*
Y-101362D01*
X148138D01*
Y-101862D02*
Y-101362D01*
Y-101862D02*
X148638D01*
Y-102862D02*
Y-101862D01*
X148138Y-102862D02*
X148638D01*
X148138Y-103362D02*
Y-102862D01*
X147138Y-103362D02*
X148138D01*
X147138D02*
Y-102862D01*
X97425Y-152075D02*
X97925D01*
X97425D02*
Y-151075D01*
X97925D01*
Y-150575D01*
X98925D01*
Y-151075D02*
Y-150575D01*
Y-151075D02*
X99425D01*
Y-152075D02*
Y-151075D01*
X98925Y-152075D02*
X99425D01*
X98925Y-152575D02*
Y-152075D01*
X97925Y-152575D02*
X98925D01*
X97925D02*
Y-152075D01*
X97425Y-53650D02*
X97925D01*
X97425D02*
Y-52650D01*
X97925D01*
Y-52150D01*
X98925D01*
Y-52650D02*
Y-52150D01*
Y-52650D02*
X99425D01*
Y-53650D02*
Y-52650D01*
X98925Y-53650D02*
X99425D01*
X98925Y-54150D02*
Y-53650D01*
X97925Y-54150D02*
X98925D01*
X97925D02*
Y-53650D01*
X48213Y-102862D02*
X48713D01*
X48213D02*
Y-101862D01*
X48713D01*
Y-101362D01*
X49713D01*
Y-101862D02*
Y-101362D01*
Y-101862D02*
X50213D01*
Y-102862D02*
Y-101862D01*
X49713Y-102862D02*
X50213D01*
X49713Y-103362D02*
Y-102862D01*
X48713Y-103362D02*
X49713D01*
X48713D02*
Y-102862D01*
X186008Y-191945D02*
X187008Y-191445D01*
X188008Y-191945D01*
X187508Y-190945D02*
X188008Y-191945D01*
X187508Y-190945D02*
X188008Y-189945D01*
X187008Y-190445D02*
X188008Y-189945D01*
X186008D02*
X187008Y-190445D01*
X186008Y-189945D02*
X186508Y-190945D01*
X186008Y-191945D02*
X186508Y-190945D01*
X-188008Y-191945D02*
X-187008Y-191445D01*
X-186008Y-191945D01*
X-186508Y-190945D02*
X-186008Y-191945D01*
X-186508Y-190945D02*
X-186008Y-189945D01*
X-187008Y-190445D02*
X-186008Y-189945D01*
X-188008D02*
X-187008Y-190445D01*
X-188008Y-189945D02*
X-187508Y-190945D01*
X-188008Y-191945D02*
X-187508Y-190945D01*
X-188008Y-14780D02*
X-187008Y-14279D01*
X-186008Y-14780D01*
X-186508Y-13780D02*
X-186008Y-14780D01*
X-186508Y-13780D02*
X-186008Y-12779D01*
X-187008Y-13280D02*
X-186008Y-12779D01*
X-188008D02*
X-187008Y-13280D01*
X-188008Y-12779D02*
X-187508Y-13780D01*
X-188008Y-14780D02*
X-187508Y-13780D01*
X186008Y-14780D02*
X187008Y-14279D01*
X188008Y-14780D01*
X187508Y-13780D02*
X188008Y-14780D01*
X187508Y-13780D02*
X188008Y-12779D01*
X187008Y-13280D02*
X188008Y-12779D01*
X186008D02*
X187008Y-13280D01*
X186008Y-12779D02*
X186508Y-13780D01*
X186008Y-14780D02*
X186508Y-13780D01*
X-50213Y-102862D02*
X-49713D01*
X-50213D02*
Y-101862D01*
X-49713D01*
Y-101362D01*
X-48713D01*
Y-101862D02*
Y-101362D01*
Y-101862D02*
X-48213D01*
Y-102862D02*
Y-101862D01*
X-48713Y-102862D02*
X-48213D01*
X-48713Y-103362D02*
Y-102862D01*
X-49713Y-103362D02*
X-48713D01*
X-49713D02*
Y-102862D01*
X-99425Y-152075D02*
X-98925D01*
X-99425D02*
Y-151075D01*
X-98925D01*
Y-150575D01*
X-97925D01*
Y-151075D02*
Y-150575D01*
Y-151075D02*
X-97425D01*
Y-152075D02*
Y-151075D01*
X-97925Y-152075D02*
X-97425D01*
X-97925Y-152575D02*
Y-152075D01*
X-98925Y-152575D02*
X-97925D01*
X-98925D02*
Y-152075D01*
X-99425Y-53650D02*
X-98925D01*
X-99425D02*
Y-52650D01*
X-98925D01*
Y-52150D01*
X-97925D01*
Y-52650D02*
Y-52150D01*
Y-52650D02*
X-97425D01*
Y-53650D02*
Y-52650D01*
X-97925Y-53650D02*
X-97425D01*
X-97925Y-54150D02*
Y-53650D01*
X-98925Y-54150D02*
X-97925D01*
X-98925D02*
Y-53650D01*
X-148638Y-102862D02*
X-148138D01*
X-148638D02*
Y-101862D01*
X-148138D01*
Y-101362D01*
X-147138D01*
Y-101862D02*
Y-101362D01*
Y-101862D02*
X-146638D01*
Y-102862D02*
Y-101862D01*
X-147138Y-102862D02*
X-146638D01*
X-147138Y-103362D02*
Y-102862D01*
X-148138Y-103362D02*
X-147138D01*
X-148138D02*
Y-102862D01*
X-270079Y-12811D02*
X-269079Y-10811D01*
X-271079D02*
X-269079D01*
X-271079D02*
X-270079Y-12811D01*
X-304724D02*
X-303724Y-10811D01*
X-305724D02*
X-303724D01*
X-305724D02*
X-304724Y-12811D01*
X-278059Y-39870D02*
X-277559Y-40370D01*
X-278559Y-39870D02*
X-278059D01*
X-278559D02*
X-278059Y-39370D01*
X-278559Y-38870D02*
X-278059Y-39370D01*
X-278559Y-38870D02*
X-278059D01*
X-277559Y-38370D01*
X-277059Y-38870D01*
X-276559D01*
X-277059Y-39370D02*
X-276559Y-38870D01*
X-277059Y-39370D02*
X-276559Y-39870D01*
X-277059D02*
X-276559D01*
X-277559Y-40370D02*
X-277059Y-39870D01*
X-287902D02*
X-287402Y-40370D01*
X-288402Y-39870D02*
X-287902D01*
X-288402D02*
X-287902Y-39370D01*
X-288402Y-38870D02*
X-287902Y-39370D01*
X-288402Y-38870D02*
X-287902D01*
X-287402Y-38370D01*
X-286902Y-38870D01*
X-286402D01*
X-286902Y-39370D02*
X-286402Y-38870D01*
X-286902Y-39370D02*
X-286402Y-39870D01*
X-286902D02*
X-286402D01*
X-287402Y-40370D02*
X-286902Y-39870D01*
X-297744D02*
X-297244Y-40370D01*
X-298244Y-39870D02*
X-297744D01*
X-298244D02*
X-297744Y-39370D01*
X-298244Y-38870D02*
X-297744Y-39370D01*
X-298244Y-38870D02*
X-297744D01*
X-297244Y-38370D01*
X-296744Y-38870D01*
X-296244D01*
X-296744Y-39370D02*
X-296244Y-38870D01*
X-296744Y-39370D02*
X-296244Y-39870D01*
X-296744D02*
X-296244D01*
X-297244Y-40370D02*
X-296744Y-39870D01*
X-270079Y-91551D02*
X-269079Y-89551D01*
X-271079D02*
X-269079D01*
X-271079D02*
X-270079Y-91551D01*
X-304724D02*
X-303724Y-89551D01*
X-305724D02*
X-303724D01*
X-305724D02*
X-304724Y-91551D01*
X-278059Y-118610D02*
X-277559Y-119110D01*
X-278559Y-118610D02*
X-278059D01*
X-278559D02*
X-278059Y-118110D01*
X-278559Y-117610D02*
X-278059Y-118110D01*
X-278559Y-117610D02*
X-278059D01*
X-277559Y-117110D01*
X-277059Y-117610D01*
X-276559D01*
X-277059Y-118110D02*
X-276559Y-117610D01*
X-277059Y-118110D02*
X-276559Y-118610D01*
X-277059D02*
X-276559D01*
X-277559Y-119110D02*
X-277059Y-118610D01*
X-287902D02*
X-287402Y-119110D01*
X-288402Y-118610D02*
X-287902D01*
X-288402D02*
X-287902Y-118110D01*
X-288402Y-117610D02*
X-287902Y-118110D01*
X-288402Y-117610D02*
X-287902D01*
X-287402Y-117110D01*
X-286902Y-117610D01*
X-286402D01*
X-286902Y-118110D02*
X-286402Y-117610D01*
X-286902Y-118110D02*
X-286402Y-118610D01*
X-286902D02*
X-286402D01*
X-287402Y-119110D02*
X-286902Y-118610D01*
X-297744D02*
X-297244Y-119110D01*
X-298244Y-118610D02*
X-297744D01*
X-298244D02*
X-297744Y-118110D01*
X-298244Y-117610D02*
X-297744Y-118110D01*
X-298244Y-117610D02*
X-297744D01*
X-297244Y-117110D01*
X-296744Y-117610D01*
X-296244D01*
X-296744Y-118110D02*
X-296244Y-117610D01*
X-296744Y-118110D02*
X-296244Y-118610D01*
X-296744D02*
X-296244D01*
X-297244Y-119110D02*
X-296744Y-118610D01*
X-270079Y-170291D02*
X-269079Y-168291D01*
X-271079D02*
X-269079D01*
X-271079D02*
X-270079Y-170291D01*
X-304724D02*
X-303724Y-168291D01*
X-305724D02*
X-303724D01*
X-305724D02*
X-304724Y-170291D01*
X-278059Y-197350D02*
X-277559Y-197850D01*
X-278559Y-197350D02*
X-278059D01*
X-278559D02*
X-278059Y-196850D01*
X-278559Y-196350D02*
X-278059Y-196850D01*
X-278559Y-196350D02*
X-278059D01*
X-277559Y-195850D01*
X-277059Y-196350D01*
X-276559D01*
X-277059Y-196850D02*
X-276559Y-196350D01*
X-277059Y-196850D02*
X-276559Y-197350D01*
X-277059D02*
X-276559D01*
X-277559Y-197850D02*
X-277059Y-197350D01*
X-287902D02*
X-287402Y-197850D01*
X-288402Y-197350D02*
X-287902D01*
X-288402D02*
X-287902Y-196850D01*
X-288402Y-196350D02*
X-287902Y-196850D01*
X-288402Y-196350D02*
X-287902D01*
X-287402Y-195850D01*
X-286902Y-196350D01*
X-286402D01*
X-286902Y-196850D02*
X-286402Y-196350D01*
X-286902Y-196850D02*
X-286402Y-197350D01*
X-286902D02*
X-286402D01*
X-287402Y-197850D02*
X-286902Y-197350D01*
X-297744D02*
X-297244Y-197850D01*
X-298244Y-197350D02*
X-297744D01*
X-298244D02*
X-297744Y-196850D01*
X-298244Y-196350D02*
X-297744Y-196850D01*
X-298244Y-196350D02*
X-297744D01*
X-297244Y-195850D01*
X-296744Y-196350D01*
X-296244D01*
X-296744Y-196850D02*
X-296244Y-196350D01*
X-296744Y-196850D02*
X-296244Y-197350D01*
X-296744D02*
X-296244D01*
X-297244Y-197850D02*
X-296744Y-197350D01*
X-271158Y40339D02*
X-269158D01*
Y42339D01*
X-271158D02*
X-269158D01*
X-271158Y40339D02*
Y42339D01*
X-261157Y40339D02*
X-259157D01*
Y42339D01*
X-261157D02*
X-259157D01*
X-261157Y40339D02*
Y42339D01*
X-251157Y40339D02*
X-249158D01*
Y42339D01*
X-251157D02*
X-249158D01*
X-251157Y40339D02*
Y42339D01*
X239158Y40339D02*
X241158D01*
Y42339D01*
X239158D02*
X241158D01*
X239158Y40339D02*
Y42339D01*
X249158Y40339D02*
X251157D01*
Y42339D01*
X249158D02*
X251157D01*
X249158Y40339D02*
Y42339D01*
X259157Y40339D02*
X261157D01*
Y42339D01*
X259157D02*
X261157D01*
X259157Y40339D02*
Y42339D01*
D86*
X750238Y167188D02*
Y170967D01*
X752127D01*
X752757Y170337D01*
Y169077D01*
X752127Y168448D01*
X750238D01*
X751497D02*
X752757Y167188D01*
X754646D02*
X755905D01*
X756535Y167818D01*
Y169077D01*
X755905Y169707D01*
X754646D01*
X754016Y169077D01*
Y167818D01*
X754646Y167188D01*
X757794Y169707D02*
Y167818D01*
X758424Y167188D01*
X760313D01*
Y169707D01*
X762202Y170337D02*
Y169707D01*
X761573D01*
X762832D01*
X762202D01*
Y167818D01*
X762832Y167188D01*
X766610D02*
X765351D01*
X764721Y167818D01*
Y169077D01*
X765351Y169707D01*
X766610D01*
X767240Y169077D01*
Y168448D01*
X764721D01*
X771018Y170967D02*
Y167188D01*
X769129D01*
X768500Y167818D01*
Y169077D01*
X769129Y169707D01*
X771018D01*
X776056Y167188D02*
Y170967D01*
X777945D01*
X778575Y170337D01*
Y169077D01*
X777945Y168448D01*
X776056D01*
X780464Y169707D02*
X781724D01*
X782353Y169077D01*
Y167188D01*
X780464D01*
X779835Y167818D01*
X780464Y168448D01*
X782353D01*
X784242Y170337D02*
Y169707D01*
X783613D01*
X784872D01*
X784242D01*
Y167818D01*
X784872Y167188D01*
X786761Y170967D02*
Y167188D01*
Y169077D01*
X787391Y169707D01*
X788651D01*
X789280Y169077D01*
Y167188D01*
X794318Y170967D02*
Y167188D01*
X796837D01*
X799985D02*
X798726D01*
X798096Y167818D01*
Y169077D01*
X798726Y169707D01*
X799985D01*
X800615Y169077D01*
Y168448D01*
X798096D01*
X801875Y167188D02*
Y169707D01*
X803764D01*
X804393Y169077D01*
Y167188D01*
X806912Y165929D02*
X807542D01*
X808172Y166559D01*
Y169707D01*
X806283D01*
X805653Y169077D01*
Y167818D01*
X806283Y167188D01*
X808172D01*
X810061Y170337D02*
Y169707D01*
X809431D01*
X810691D01*
X810061D01*
Y167818D01*
X810691Y167188D01*
X812580Y170967D02*
Y167188D01*
Y169077D01*
X813210Y169707D01*
X814469D01*
X815099Y169077D01*
Y167188D01*
X704581Y170967D02*
Y167188D01*
Y169077D01*
X707100D01*
Y170967D01*
Y167188D01*
X708989D02*
X710249D01*
X710878Y167818D01*
Y169077D01*
X710249Y169707D01*
X708989D01*
X708359Y169077D01*
Y167818D01*
X708989Y167188D01*
X712138D02*
X713397D01*
X712767D01*
Y170967D01*
X712138D01*
X717175Y167188D02*
X715916D01*
X715286Y167818D01*
Y169077D01*
X715916Y169707D01*
X717175D01*
X717805Y169077D01*
Y168448D01*
X715286D01*
X722843Y170967D02*
Y167188D01*
X725362D01*
X728510D02*
X727251D01*
X726621Y167818D01*
Y169077D01*
X727251Y169707D01*
X728510D01*
X729140Y169077D01*
Y168448D01*
X726621D01*
X730400Y167188D02*
Y169707D01*
X732289D01*
X732918Y169077D01*
Y167188D01*
X735437Y165929D02*
X736067D01*
X736697Y166559D01*
Y169707D01*
X734807D01*
X734178Y169077D01*
Y167818D01*
X734807Y167188D01*
X736697D01*
X738586Y170337D02*
Y169707D01*
X737956D01*
X739216D01*
X738586D01*
Y167818D01*
X739216Y167188D01*
X741105Y170967D02*
Y167188D01*
Y169077D01*
X741734Y169707D01*
X742994D01*
X743623Y169077D01*
Y167188D01*
X658793Y170967D02*
X661312D01*
X660053D01*
Y167188D01*
X664461D02*
X663201D01*
X662572Y167818D01*
Y169077D01*
X663201Y169707D01*
X664461D01*
X665091Y169077D01*
Y168448D01*
X662572D01*
X666350Y167188D02*
Y169707D01*
X666980D01*
X667610Y169077D01*
Y167188D01*
Y169077D01*
X668239Y169707D01*
X668869Y169077D01*
Y167188D01*
X670128Y165929D02*
Y169707D01*
X672017D01*
X672647Y169077D01*
Y167818D01*
X672017Y167188D01*
X670128D01*
X673907D02*
X675166D01*
X674536D01*
Y170967D01*
X673907D01*
X677685Y169707D02*
X678944D01*
X679574Y169077D01*
Y167188D01*
X677685D01*
X677055Y167818D01*
X677685Y168448D01*
X679574D01*
X681463Y170337D02*
Y169707D01*
X680833D01*
X682093D01*
X681463D01*
Y167818D01*
X682093Y167188D01*
X685871D02*
X684612D01*
X683982Y167818D01*
Y169077D01*
X684612Y169707D01*
X685871D01*
X686501Y169077D01*
Y168448D01*
X683982D01*
X619434Y167188D02*
Y170967D01*
X621323D01*
X621953Y170337D01*
Y169077D01*
X621323Y168448D01*
X619434D01*
X623842Y169707D02*
X625101D01*
X625731Y169077D01*
Y167188D01*
X623842D01*
X623212Y167818D01*
X623842Y168448D01*
X625731D01*
X629509Y170967D02*
Y167188D01*
X627620D01*
X626991Y167818D01*
Y169077D01*
X627620Y169707D01*
X629509D01*
X637066Y170337D02*
X636436Y170967D01*
X635177D01*
X634547Y170337D01*
Y169707D01*
X635177Y169077D01*
X636436D01*
X637066Y168448D01*
Y167818D01*
X636436Y167188D01*
X635177D01*
X634547Y167818D01*
X638325Y170967D02*
Y167188D01*
Y169077D01*
X638955Y169707D01*
X640215D01*
X640844Y169077D01*
Y167188D01*
X642733Y169707D02*
X643993D01*
X644623Y169077D01*
Y167188D01*
X642733D01*
X642104Y167818D01*
X642733Y168448D01*
X644623D01*
X645882Y165929D02*
Y169707D01*
X647771D01*
X648401Y169077D01*
Y167818D01*
X647771Y167188D01*
X645882D01*
X651549D02*
X650290D01*
X649660Y167818D01*
Y169077D01*
X650290Y169707D01*
X651549D01*
X652179Y169077D01*
Y168448D01*
X649660D01*
X588261Y170967D02*
Y168448D01*
X589520Y167188D01*
X590780Y168448D01*
Y170967D01*
X592039Y167188D02*
X593298D01*
X592669D01*
Y169707D01*
X592039D01*
X595817D02*
X597077D01*
X597707Y169077D01*
Y167188D01*
X595817D01*
X595188Y167818D01*
X595817Y168448D01*
X597707D01*
X598966Y167188D02*
X601485Y169707D01*
X602744Y167188D02*
Y170967D01*
X604633D01*
X605263Y170337D01*
Y169077D01*
X604633Y168448D01*
X602744D01*
X607152Y169707D02*
X608412D01*
X609041Y169077D01*
Y167188D01*
X607152D01*
X606523Y167818D01*
X607152Y168448D01*
X609041D01*
X612820Y170967D02*
Y167188D01*
X610931D01*
X610301Y167818D01*
Y169077D01*
X610931Y169707D01*
X612820D01*
X509413Y170967D02*
Y167188D01*
X511302D01*
X511932Y167818D01*
Y170337D01*
X511302Y170967D01*
X509413D01*
X513191Y169707D02*
Y167188D01*
Y168448D01*
X513821Y169077D01*
X514451Y169707D01*
X515080D01*
X516969Y167188D02*
X518229D01*
X517599D01*
Y169707D01*
X516969D01*
X520118Y167188D02*
X521378D01*
X520748D01*
Y170967D01*
X520118D01*
X523267Y167188D02*
X524526D01*
X523896D01*
Y170967D01*
X523267D01*
X530194D02*
Y167188D01*
X532712D01*
X534602Y169707D02*
X535861D01*
X536491Y169077D01*
Y167188D01*
X534602D01*
X533972Y167818D01*
X534602Y168448D01*
X536491D01*
X537750Y169707D02*
Y167818D01*
X538380Y167188D01*
X540269D01*
Y166559D01*
X539639Y165929D01*
X539010D01*
X540269Y167188D02*
Y169707D01*
X543418Y167188D02*
X542158D01*
X541529Y167818D01*
Y169077D01*
X542158Y169707D01*
X543418D01*
X544047Y169077D01*
Y168448D01*
X541529D01*
X545307Y169707D02*
Y167188D01*
Y168448D01*
X545936Y169077D01*
X546566Y169707D01*
X547196D01*
X552863Y167188D02*
Y170967D01*
X554753D01*
X555382Y170337D01*
Y169077D01*
X554753Y168448D01*
X552863D01*
X557271Y169707D02*
X558531D01*
X559161Y169077D01*
Y167188D01*
X557271D01*
X556642Y167818D01*
X557271Y168448D01*
X559161D01*
X560420Y167188D02*
X561680D01*
X561050D01*
Y169707D01*
X560420D01*
X563569D02*
Y167188D01*
Y168448D01*
X564198Y169077D01*
X564828Y169707D01*
X565458D01*
X470683Y170967D02*
Y167188D01*
Y169077D01*
X473202D01*
Y170967D01*
Y167188D01*
X475091D02*
X476351D01*
X476980Y167818D01*
Y169077D01*
X476351Y169707D01*
X475091D01*
X474461Y169077D01*
Y167818D01*
X475091Y167188D01*
X478240D02*
X479499D01*
X478869D01*
Y170967D01*
X478240D01*
X483278Y167188D02*
X482018D01*
X481388Y167818D01*
Y169077D01*
X482018Y169707D01*
X483278D01*
X483907Y169077D01*
Y168448D01*
X481388D01*
X488945Y170967D02*
X491464D01*
X490204D01*
Y167188D01*
X492723Y169707D02*
Y167818D01*
X493353Y167188D01*
X495242D01*
Y166559D01*
X494612Y165929D01*
X493983D01*
X495242Y167188D02*
Y169707D01*
X496501Y165929D02*
Y169707D01*
X498391D01*
X499020Y169077D01*
Y167818D01*
X498391Y167188D01*
X496501D01*
X502169D02*
X500910D01*
X500280Y167818D01*
Y169077D01*
X500910Y169707D01*
X502169D01*
X502799Y169077D01*
Y168448D01*
X500280D01*
X443918Y167188D02*
Y170967D01*
X445807D01*
X446437Y170337D01*
Y169077D01*
X445807Y168448D01*
X443918D01*
X447696Y167188D02*
X448956D01*
X448326D01*
Y170967D01*
X447696D01*
X451475Y169707D02*
X452734D01*
X453364Y169077D01*
Y167188D01*
X451475D01*
X450845Y167818D01*
X451475Y168448D01*
X453364D01*
X455253Y170337D02*
Y169707D01*
X454623D01*
X455883D01*
X455253D01*
Y167818D01*
X455883Y167188D01*
X459661D02*
X458401D01*
X457772Y167818D01*
Y169077D01*
X458401Y169707D01*
X459661D01*
X460291Y169077D01*
Y168448D01*
X457772D01*
X464069Y170967D02*
Y167188D01*
X462180D01*
X461550Y167818D01*
Y169077D01*
X462180Y169707D01*
X464069D01*
X383437Y170967D02*
Y167188D01*
Y169077D01*
X385956D01*
Y170967D01*
Y167188D01*
X387845D02*
X389104D01*
X389734Y167818D01*
Y169077D01*
X389104Y169707D01*
X387845D01*
X387215Y169077D01*
Y167818D01*
X387845Y167188D01*
X390993D02*
X392253D01*
X391623D01*
Y170967D01*
X390993D01*
X396031Y167188D02*
X394772D01*
X394142Y167818D01*
Y169077D01*
X394772Y169707D01*
X396031D01*
X396661Y169077D01*
Y168448D01*
X394142D01*
X404218Y170337D02*
X403588Y170967D01*
X402328D01*
X401699Y170337D01*
Y169707D01*
X402328Y169077D01*
X403588D01*
X404218Y168448D01*
Y167818D01*
X403588Y167188D01*
X402328D01*
X401699Y167818D01*
X405477Y167188D02*
X406737D01*
X406107D01*
Y169707D01*
X405477D01*
X408626D02*
X411144D01*
X408626Y167188D01*
X411144D01*
X414293D02*
X413034D01*
X412404Y167818D01*
Y169077D01*
X413034Y169707D01*
X414293D01*
X414923Y169077D01*
Y168448D01*
X412404D01*
X354861Y170337D02*
X354232Y170967D01*
X352972D01*
X352343Y170337D01*
Y167818D01*
X352972Y167188D01*
X354232D01*
X354861Y167818D01*
X356751Y167188D02*
X358010D01*
X358640Y167818D01*
Y169077D01*
X358010Y169707D01*
X356751D01*
X356121Y169077D01*
Y167818D01*
X356751Y167188D01*
X359899Y169707D02*
Y167818D01*
X360529Y167188D01*
X362418D01*
Y169707D01*
X363678Y167188D02*
Y169707D01*
X365567D01*
X366196Y169077D01*
Y167188D01*
X368086Y170337D02*
Y169707D01*
X367456D01*
X368715D01*
X368086D01*
Y167818D01*
X368715Y167188D01*
X328096Y170337D02*
X327467Y170967D01*
X326207D01*
X325577Y170337D01*
Y169707D01*
X326207Y169077D01*
X327467D01*
X328096Y168448D01*
Y167818D01*
X327467Y167188D01*
X326207D01*
X325577Y167818D01*
X329356Y169707D02*
Y167818D01*
X329986Y167188D01*
X331875D01*
Y166559D01*
X331245Y165929D01*
X330615D01*
X331875Y167188D02*
Y169707D01*
X333134Y167188D02*
Y169707D01*
X333764D01*
X334394Y169077D01*
Y167188D01*
Y169077D01*
X335023Y169707D01*
X335653Y169077D01*
Y167188D01*
X336912Y170967D02*
Y167188D01*
X338802D01*
X339431Y167818D01*
Y168448D01*
Y169077D01*
X338802Y169707D01*
X336912D01*
X341320Y167188D02*
X342580D01*
X343210Y167818D01*
Y169077D01*
X342580Y169707D01*
X341320D01*
X340691Y169077D01*
Y167818D01*
X341320Y167188D01*
X344469D02*
X345728D01*
X345099D01*
Y170967D01*
X344469D01*
M02*
