G04*
G04 #@! TF.GenerationSoftware,Altium Limited,Altium Designer,26.1.1 (7)*
G04*
G04 Layer_Physical_Order=2*
G04 Layer_Color=3381759*
%FSLAX25Y25*%
%MOIN*%
G70*
G04*
G04 #@! TF.SameCoordinates,DC955D53-45C1-4FB8-BDE6-5FAE57B1BA87*
G04*
G04*
G04 #@! TF.FilePolarity,Positive*
G04*
G01*
G75*
%ADD10C,0.00591*%
%ADD12C,0.00984*%
%ADD13C,0.00787*%
%ADD14C,0.00394*%
%ADD66C,0.12205*%
%ADD71C,0.01968*%
%ADD72C,0.01181*%
%ADD76C,0.05906*%
%ADD77R,0.05906X0.05906*%
%ADD78C,0.10039*%
%ADD79R,0.10039X0.10039*%
%ADD80C,0.16358*%
%ADD81R,0.10039X0.10039*%
%ADD82C,0.11811*%
%ADD83C,0.02559*%
%ADD84C,0.12598*%
%ADD85C,0.02362*%
G36*
X235699Y46241D02*
X236221Y45276D01*
Y40441D01*
X181788D01*
Y40457D01*
X179251Y40291D01*
X176756Y39795D01*
X174348Y38977D01*
X172067Y37852D01*
X169953Y36439D01*
X168041Y34763D01*
X168052Y34751D01*
X161169Y27867D01*
X161136Y27819D01*
X159861Y26772D01*
X158354Y25967D01*
X156720Y25471D01*
X155077Y25309D01*
X155020Y25320D01*
X154891D01*
X154836Y25420D01*
X154399Y26519D01*
X155898Y27609D01*
X155952Y27667D01*
X156018Y27711D01*
X157328Y29021D01*
X157373Y29087D01*
X157431Y29141D01*
X158520Y30641D01*
X158553Y30713D01*
X158602Y30775D01*
X159444Y32426D01*
X159465Y32502D01*
X159504Y32572D01*
X160077Y34334D01*
X160086Y34413D01*
X160114Y34487D01*
X160404Y36318D01*
X160401Y36378D01*
X160415Y36435D01*
X160451Y37362D01*
X160448Y37382D01*
X160452Y37402D01*
Y45399D01*
X160612Y45785D01*
X160908Y46081D01*
X161294Y46241D01*
X161503D01*
X235699Y46241D01*
D02*
G37*
G36*
X237217Y38545D02*
X237211Y38601D01*
X237193Y38652D01*
X237164Y38696D01*
X237122Y38734D01*
X237069Y38767D01*
X237004Y38793D01*
X236927Y38814D01*
X236839Y38829D01*
X236738Y38838D01*
X236626Y38841D01*
Y39431D01*
X236738Y39434D01*
X236839Y39443D01*
X236927Y39458D01*
X237004Y39478D01*
X237069Y39505D01*
X237122Y39538D01*
X237164Y39576D01*
X237193Y39620D01*
X237211Y39670D01*
X237217Y39726D01*
Y38545D01*
D02*
G37*
G36*
X74680Y26635D02*
X74761Y26576D01*
X74850Y26525D01*
X74947Y26481D01*
X75052Y26443D01*
X75165Y26413D01*
X75286Y26390D01*
X75415Y26374D01*
X75552Y26365D01*
X75696Y26363D01*
X74527Y25194D01*
X74525Y25338D01*
X74500Y25604D01*
X74477Y25725D01*
X74447Y25838D01*
X74409Y25943D01*
X74365Y26040D01*
X74314Y26129D01*
X74255Y26210D01*
X74190Y26283D01*
X74607Y26700D01*
X74680Y26635D01*
D02*
G37*
G36*
X134368Y46081D02*
X134663Y45785D01*
X134823Y45399D01*
Y37402D01*
X134827Y37382D01*
X134824Y37362D01*
X134861Y36435D01*
X134874Y36378D01*
X134872Y36318D01*
X135162Y34487D01*
X135189Y34413D01*
X135199Y34334D01*
X135772Y32572D01*
X135810Y32502D01*
X135832Y32426D01*
X136673Y30775D01*
X136722Y30713D01*
X136755Y30641D01*
X137845Y29141D01*
X137903Y29087D01*
X137947Y29021D01*
X139258Y27711D01*
X139323Y27667D01*
X139377Y27609D01*
X140877Y26519D01*
X140439Y25420D01*
X140385Y25320D01*
X93523D01*
Y25322D01*
X92874Y25408D01*
Y25612D01*
X92544Y26408D01*
X91935Y27017D01*
X91139Y27347D01*
X90278D01*
X89482Y27017D01*
X88873Y26408D01*
X88543Y25612D01*
Y24751D01*
X88873Y23955D01*
X89404Y23423D01*
Y19883D01*
X88873Y19352D01*
X88600Y18692D01*
X88123Y18390D01*
X87570Y18172D01*
X87362Y18182D01*
X86996Y18660D01*
X86732Y19298D01*
X86646Y19950D01*
X86653Y19984D01*
X86644Y20028D01*
X86515Y21671D01*
X86120Y23317D01*
X85472Y24880D01*
X84588Y26323D01*
X83517Y27577D01*
X83492Y27614D01*
X73799Y37308D01*
X73788Y37315D01*
X72365Y38530D01*
X70759Y39514D01*
X69018Y40235D01*
X67186Y40675D01*
X65321Y40822D01*
X65308Y40824D01*
X-57903D01*
Y40827D01*
X-59563Y40663D01*
X-61160Y40179D01*
X-62631Y39393D01*
X-63921Y38334D01*
X-63919Y38333D01*
X-84313Y17939D01*
X-84695Y17781D01*
X-85304Y17172D01*
X-85634Y16376D01*
Y15514D01*
X-85372Y14884D01*
X-85446Y14389D01*
X-85808Y13552D01*
X-86750Y13266D01*
X-88393Y13104D01*
X-88450Y13116D01*
X-120655D01*
X-120669Y13113D01*
X-121549Y13229D01*
X-122381Y13574D01*
X-122501Y13665D01*
X-123365Y14430D01*
X-123365Y14430D01*
X-124540Y15332D01*
X-125418Y15696D01*
X-125540Y15990D01*
X-126150Y16600D01*
X-126945Y16929D01*
X-127807D01*
X-128603Y16600D01*
X-129212Y15990D01*
X-129542Y15194D01*
Y14333D01*
X-129526Y14297D01*
X-129580Y14192D01*
X-130663Y13647D01*
X-131459Y13976D01*
X-132320D01*
X-133116Y13647D01*
X-133726Y13038D01*
X-134055Y12242D01*
Y11380D01*
X-133726Y10584D01*
X-133116Y9975D01*
X-132320Y9646D01*
X-131771D01*
X-131146Y8909D01*
X-130997Y8558D01*
X-131102Y8305D01*
Y7443D01*
X-130773Y6647D01*
X-130164Y6038D01*
X-129368Y5709D01*
X-128506D01*
X-127710Y6038D01*
X-127179Y6569D01*
X-88450D01*
Y6547D01*
X-86062Y6735D01*
X-83733Y7294D01*
X-81521Y8211D01*
X-79478Y9463D01*
X-77657Y11018D01*
X-77673Y11034D01*
X-60077Y28629D01*
X-60045Y28677D01*
X-58769Y29724D01*
X-57263Y30530D01*
X-55628Y31025D01*
X-53986Y31187D01*
X-53929Y31176D01*
X-27435D01*
X-27119Y29995D01*
X-27427Y29816D01*
X-28163Y29081D01*
X-28683Y28179D01*
X-28953Y27174D01*
Y27154D01*
X-21047D01*
Y27174D01*
X-21317Y28179D01*
X-21837Y29081D01*
X-22573Y29816D01*
X-22881Y29995D01*
X-22565Y31176D01*
X-17404D01*
X-17087Y29995D01*
X-17417Y29804D01*
X-18150Y29071D01*
X-18669Y28173D01*
X-18937Y27172D01*
Y26135D01*
X-18669Y25134D01*
X-18150Y24236D01*
X-17417Y23503D01*
X-16520Y22985D01*
X-15518Y22716D01*
X-14482D01*
X-13480Y22985D01*
X-12583Y23503D01*
X-11850Y24236D01*
X-11331Y25134D01*
X-11063Y26135D01*
Y27172D01*
X-11331Y28173D01*
X-11850Y29071D01*
X-12583Y29804D01*
X-12913Y29995D01*
X-12596Y31176D01*
X-7403D01*
X-7087Y29995D01*
X-7417Y29804D01*
X-8150Y29071D01*
X-8669Y28173D01*
X-8937Y27172D01*
Y26135D01*
X-8669Y25134D01*
X-8150Y24236D01*
X-7417Y23503D01*
X-6520Y22985D01*
X-5518Y22716D01*
X-4482D01*
X-3480Y22985D01*
X-2583Y23503D01*
X-1850Y24236D01*
X-1331Y25134D01*
X-1063Y26135D01*
Y27172D01*
X-1331Y28173D01*
X-1850Y29071D01*
X-2583Y29804D01*
X-2913Y29995D01*
X-2596Y31176D01*
X2596D01*
X2913Y29995D01*
X2583Y29804D01*
X1850Y29071D01*
X1331Y28173D01*
X1063Y27172D01*
Y26135D01*
X1331Y25134D01*
X1850Y24236D01*
X2583Y23503D01*
X3480Y22985D01*
X4482Y22716D01*
X5518D01*
X6520Y22985D01*
X7417Y23503D01*
X8150Y24236D01*
X8669Y25134D01*
X8937Y26135D01*
Y27172D01*
X8669Y28173D01*
X8150Y29071D01*
X7417Y29804D01*
X7087Y29995D01*
X7404Y31176D01*
X12596D01*
X12913Y29995D01*
X12583Y29804D01*
X11850Y29071D01*
X11331Y28173D01*
X11063Y27172D01*
Y26135D01*
X11331Y25134D01*
X11850Y24236D01*
X12583Y23503D01*
X13480Y22985D01*
X14482Y22716D01*
X15518D01*
X16520Y22985D01*
X17417Y23503D01*
X18150Y24236D01*
X18669Y25134D01*
X18937Y26135D01*
Y27172D01*
X18669Y28173D01*
X18150Y29071D01*
X17417Y29804D01*
X17087Y29995D01*
X17404Y31176D01*
X22596D01*
X22913Y29995D01*
X22583Y29804D01*
X21850Y29071D01*
X21331Y28173D01*
X21063Y27172D01*
Y26135D01*
X21331Y25134D01*
X21850Y24236D01*
X22583Y23503D01*
X23480Y22985D01*
X24482Y22716D01*
X25518D01*
X26520Y22985D01*
X27417Y23503D01*
X28150Y24236D01*
X28669Y25134D01*
X28937Y26135D01*
Y27172D01*
X28669Y28173D01*
X28150Y29071D01*
X27417Y29804D01*
X27087Y29995D01*
X27404Y31176D01*
X57131D01*
X57195Y31188D01*
X58517Y31014D01*
X59809Y30479D01*
X60016Y30321D01*
X60904Y29613D01*
X60904Y29613D01*
X68543Y21974D01*
Y21223D01*
X68873Y20427D01*
X69482Y19818D01*
X70278Y19488D01*
X71139D01*
X71935Y19818D01*
X72544Y20427D01*
X72874Y21223D01*
Y22084D01*
X72544Y22880D01*
X71935Y23489D01*
X71139Y23819D01*
X70388D01*
X62749Y31458D01*
X62758Y31468D01*
X62758Y31468D01*
X62154Y31963D01*
X62577Y33144D01*
X62897D01*
X62931Y33151D01*
X64314Y33015D01*
X65676Y32601D01*
X66931Y31930D01*
X67147Y31753D01*
X68025Y31020D01*
X68025Y31020D01*
X68860Y30185D01*
X73543Y25502D01*
Y24751D01*
X73873Y23955D01*
X74482Y23346D01*
X75278Y23016D01*
X75607D01*
X75621Y23013D01*
X76462Y22094D01*
X76521Y21925D01*
X76356Y21379D01*
X75774Y20291D01*
X75278D01*
X74482Y19961D01*
X73873Y19352D01*
X73544Y18556D01*
Y17695D01*
X73873Y16899D01*
X74482Y16290D01*
X75278Y15960D01*
X76140D01*
X76936Y16290D01*
X77545Y16899D01*
X77874Y17695D01*
Y18556D01*
X77839Y18640D01*
X77870Y18677D01*
X78778Y20376D01*
X79337Y22220D01*
X79526Y24137D01*
X79526D01*
X79525Y24270D01*
X80006Y24601D01*
X80248Y24667D01*
X80678Y24759D01*
X80714Y24735D01*
X81514Y23761D01*
X82142Y22585D01*
X82529Y21310D01*
X82653Y20055D01*
X82639Y19984D01*
X82652Y19918D01*
X82773Y18688D01*
X83151Y17441D01*
X83765Y16293D01*
X84054Y15940D01*
X83496Y14759D01*
X55634D01*
X54511Y14901D01*
X53823Y15429D01*
X53588Y15527D01*
X53021Y15762D01*
X52160Y15875D01*
X51101Y16171D01*
X50870Y16403D01*
X50074Y16732D01*
X49213D01*
X48417Y16403D01*
X47808Y15793D01*
X47478Y14998D01*
Y14136D01*
X47808Y13340D01*
X48417Y12731D01*
X49213Y12402D01*
X49893D01*
X50000Y12242D01*
Y11380D01*
X50330Y10584D01*
X50939Y9975D01*
X51735Y9646D01*
X52606Y8468D01*
X52583Y8117D01*
X52385Y7920D01*
X52056Y7124D01*
Y6262D01*
X52385Y5466D01*
X52995Y4857D01*
X53790Y4528D01*
X54652D01*
X55448Y4857D01*
X55973Y5382D01*
X57154Y5379D01*
X58190Y5516D01*
X58269Y5548D01*
X59077Y5883D01*
X59155Y5915D01*
X59984Y6551D01*
X60187Y6680D01*
X61049Y5889D01*
X60827Y5352D01*
X60827Y5352D01*
X60713Y4521D01*
X59445Y2976D01*
X58503Y1213D01*
X57922Y-700D01*
X57727Y-2689D01*
X57244Y-3670D01*
X57219Y-3695D01*
X56890Y-4491D01*
Y-5352D01*
X57219Y-6148D01*
X57828Y-6757D01*
X58624Y-7087D01*
X59486D01*
X60282Y-6757D01*
X60891Y-6148D01*
X62008Y-6537D01*
X62561Y-6766D01*
X63423D01*
X64219Y-6437D01*
X64828Y-5827D01*
X65158Y-5032D01*
Y-4170D01*
X64828Y-3374D01*
X64397Y-2944D01*
Y-673D01*
X64828Y-242D01*
X65158Y554D01*
Y1415D01*
X64828Y2211D01*
X64311Y2953D01*
X64828Y3695D01*
X65158Y4491D01*
Y5352D01*
X64828Y6148D01*
X64800Y6176D01*
X65289Y7357D01*
X128968D01*
X129060Y7375D01*
X131979Y7184D01*
X134938Y6595D01*
X137795Y5626D01*
X140501Y4291D01*
X143010Y2615D01*
X145278Y625D01*
X145473Y404D01*
Y-431D01*
X145802Y-1227D01*
X146411Y-1836D01*
X147207Y-2165D01*
X148068D01*
X148864Y-1836D01*
X149474Y-1227D01*
X150151Y-1737D01*
X150947Y-2067D01*
X151809D01*
X152604Y-1737D01*
X153214Y-1128D01*
X153543Y-332D01*
Y529D01*
X153214Y1325D01*
X152604Y1934D01*
X151809Y2264D01*
X151058D01*
X145092Y8230D01*
X145098Y8237D01*
X143824Y9325D01*
X143827Y9518D01*
X144468Y10505D01*
X146671Y10360D01*
X149092Y9879D01*
X151430Y9085D01*
X153644Y7993D01*
X155697Y6622D01*
X157509Y5033D01*
X157542Y4983D01*
X158137Y4389D01*
X158952Y3545D01*
Y3545D01*
X159819Y2785D01*
X160992Y1756D01*
X163248Y249D01*
X165681Y-951D01*
X166069Y-1082D01*
X165874Y-2263D01*
X160525D01*
Y-2260D01*
X159362Y-2374D01*
X158244Y-2714D01*
X157213Y-3264D01*
X156310Y-4006D01*
X156310D01*
X155349Y-4536D01*
X154995Y-4606D01*
X154970Y-4601D01*
X114378D01*
X114321Y-4612D01*
X112679Y-4451D01*
X111044Y-3955D01*
X109538Y-3150D01*
X108262Y-2103D01*
X108230Y-2054D01*
X105512Y664D01*
Y1415D01*
X105182Y2211D01*
X104573Y2820D01*
X103777Y3150D01*
X102916D01*
X102120Y2820D01*
X101511Y2211D01*
X101357Y1839D01*
X101154Y1409D01*
X100095Y1181D01*
X99233D01*
X98437Y851D01*
X97828Y242D01*
X97499Y-554D01*
Y-1415D01*
X97828Y-2211D01*
X98437Y-2820D01*
X99233Y-3150D01*
X99984D01*
X102702Y-5868D01*
X102702Y-5868D01*
X102695Y-5875D01*
X104045Y-7028D01*
X105559Y-7955D01*
X107200Y-8635D01*
X108926Y-9049D01*
X110696Y-9188D01*
Y-9179D01*
X155599D01*
X156130Y-9710D01*
X156926Y-10039D01*
X157788D01*
X158538Y-10541D01*
Y-16353D01*
X158007Y-16884D01*
X157677Y-17680D01*
Y-18541D01*
X158007Y-19337D01*
X158616Y-19946D01*
X159412Y-20276D01*
X159669D01*
X160039Y-20829D01*
Y-21690D01*
X160369Y-22486D01*
X160978Y-23096D01*
X161774Y-23425D01*
X162635D01*
X163431Y-23096D01*
X164040Y-22486D01*
X164370Y-21690D01*
Y-20829D01*
X165260Y-20082D01*
X165379Y-20058D01*
X165657Y-20173D01*
X166519D01*
X166727Y-20087D01*
X167409Y-20444D01*
X167782Y-20920D01*
X167435Y-22064D01*
X166751Y-23343D01*
X166558Y-23578D01*
X165824Y-24456D01*
X165473Y-24807D01*
X164722D01*
X163926Y-25137D01*
X163317Y-25746D01*
X162987Y-26542D01*
Y-27403D01*
X163317Y-28199D01*
X163926Y-28808D01*
X164722Y-29138D01*
X165583D01*
X166379Y-28808D01*
X166988Y-28199D01*
X167318Y-27403D01*
Y-27346D01*
X167685Y-26317D01*
X168931Y-24799D01*
X169857Y-23068D01*
X170427Y-21189D01*
X170619Y-19235D01*
X170596D01*
Y-14198D01*
X170584Y-14141D01*
X170628Y-13695D01*
X170772Y-13569D01*
X171860Y-13239D01*
X172334Y-13708D01*
Y-23887D01*
X172338Y-23910D01*
X172214Y-25170D01*
X171840Y-26404D01*
X171232Y-27541D01*
X170429Y-28520D01*
X170409Y-28533D01*
X164064Y-34878D01*
X163313D01*
X162517Y-35208D01*
X161908Y-35817D01*
X161579Y-36613D01*
Y-37474D01*
X161908Y-38270D01*
X162517Y-38879D01*
X163313Y-39209D01*
X164175D01*
X164971Y-38879D01*
X165580Y-38270D01*
X165909Y-37474D01*
Y-36723D01*
X172254Y-30378D01*
X172254Y-30378D01*
X172268Y-30392D01*
X173412Y-28998D01*
X174262Y-27407D01*
X174785Y-25682D01*
X174962Y-23887D01*
X174943D01*
Y-20464D01*
X176124Y-20131D01*
X176784Y-21208D01*
X178072Y-22715D01*
X179580Y-24003D01*
X181271Y-25039D01*
X183103Y-25798D01*
X185031Y-26261D01*
X187008Y-26417D01*
X188985Y-26261D01*
X190913Y-25798D01*
X192745Y-25039D01*
X194436Y-24003D01*
X195944Y-22715D01*
X197232Y-21208D01*
X198268Y-19517D01*
X199027Y-17685D01*
X199490Y-15756D01*
X199645Y-13780D01*
X199512Y-12082D01*
X200519Y-11419D01*
X210716Y-21616D01*
X210709Y-21622D01*
X212059Y-22776D01*
X213572Y-23703D01*
X215213Y-24383D01*
X216939Y-24797D01*
X218709Y-24936D01*
Y-24927D01*
X231359D01*
X231397Y-24919D01*
X232491Y-25063D01*
X233545Y-25500D01*
X234421Y-26172D01*
X234442Y-26204D01*
X235347Y-27109D01*
X235399Y-27143D01*
X236199Y-28185D01*
X236725Y-29456D01*
X236896Y-30759D01*
X236884Y-30820D01*
Y-63203D01*
X236353Y-63734D01*
X236024Y-64530D01*
Y-65391D01*
X236353Y-66187D01*
X236962Y-66796D01*
X237758Y-67126D01*
X238620D01*
X239416Y-66796D01*
X240025Y-66187D01*
X240354Y-65391D01*
Y-64530D01*
X240025Y-63734D01*
X239494Y-63203D01*
Y-30820D01*
X239506D01*
X239355Y-29284D01*
X238907Y-27808D01*
X238180Y-26447D01*
X237201Y-25255D01*
X237201Y-25255D01*
X236666Y-24731D01*
X236293Y-24353D01*
X236293Y-24353D01*
X235236Y-23485D01*
X234030Y-22840D01*
X232720Y-22443D01*
X231359Y-22309D01*
Y-22318D01*
X218709D01*
X218652Y-22329D01*
X217009Y-22167D01*
X215375Y-21671D01*
X213869Y-20866D01*
X212593Y-19819D01*
X212561Y-19771D01*
X190086Y2703D01*
X189274Y3548D01*
X189274Y3548D01*
X187768Y4784D01*
X186051Y5702D01*
X184187Y6267D01*
X182249Y6458D01*
Y6435D01*
X168466D01*
X168436Y6429D01*
X167409Y6564D01*
X166423Y6973D01*
X165577Y7622D01*
X164927Y8468D01*
X164519Y9454D01*
X164380Y10512D01*
X164438Y10952D01*
X164676Y11745D01*
X164821Y12112D01*
X164866Y12180D01*
X164933Y12225D01*
X165949Y12624D01*
X169268D01*
X169268Y12624D01*
Y12602D01*
X170701Y12790D01*
X171505Y13123D01*
X171813Y12996D01*
X172675D01*
X173471Y13325D01*
X174080Y13935D01*
X174409Y14730D01*
Y15592D01*
X174361Y15710D01*
X175120Y16891D01*
X186589D01*
X186971Y16732D01*
X187832D01*
X188628Y17062D01*
X189237Y17671D01*
X189567Y18467D01*
Y19328D01*
X189409Y19711D01*
Y23031D01*
X189387Y23140D01*
X189561Y24457D01*
X190111Y25786D01*
X190987Y26927D01*
X192127Y27802D01*
X193456Y28353D01*
X194774Y28526D01*
X194882Y28505D01*
X196299D01*
X196391Y28523D01*
X197864Y28378D01*
X199368Y27921D01*
X200755Y27180D01*
X201970Y26183D01*
X202968Y24968D01*
X203709Y23581D01*
X204165Y22076D01*
X204310Y20603D01*
X204292Y20512D01*
Y19711D01*
X204134Y19328D01*
Y18467D01*
X204464Y17671D01*
X205073Y17062D01*
X205869Y16732D01*
X206730D01*
X207526Y17062D01*
X208135Y17671D01*
X208465Y18467D01*
Y19328D01*
X208306Y19711D01*
Y20512D01*
X208304Y20525D01*
X208157Y22390D01*
X207717Y24222D01*
X207024Y25896D01*
X207131Y26118D01*
X207501Y26543D01*
X207830Y26862D01*
X208679D01*
X209511Y27207D01*
X210148Y27844D01*
X210492Y28676D01*
Y29576D01*
X210148Y30408D01*
X209511Y31045D01*
X208679Y31390D01*
X207778D01*
X206946Y31045D01*
X206309Y30408D01*
X205965Y29576D01*
Y29443D01*
X204804Y29007D01*
X204783Y29005D01*
X203356Y30224D01*
X201750Y31209D01*
X200009Y31930D01*
X198177Y32370D01*
X196312Y32516D01*
X196299Y32519D01*
X194882D01*
Y32526D01*
X193030Y32344D01*
X191249Y31803D01*
X189607Y30926D01*
X188748Y30221D01*
X187410Y30406D01*
X187288Y30512D01*
X186755Y31045D01*
X185923Y31390D01*
X185022D01*
X184190Y31045D01*
X183553Y30408D01*
X183209Y29576D01*
Y28676D01*
X183553Y27844D01*
X184190Y27207D01*
X185022Y26862D01*
X185812Y25681D01*
X185570Y24884D01*
X185387Y23031D01*
X185395D01*
Y20905D01*
X161994D01*
X161661Y22086D01*
X163063Y22945D01*
X164696Y24340D01*
X164696Y24340D01*
X165519Y25187D01*
X171568Y31236D01*
X171608Y31296D01*
X173281Y32725D01*
X175217Y33911D01*
X177316Y34780D01*
X179524Y35311D01*
X181717Y35483D01*
X181788Y35469D01*
X225996D01*
X226046Y35479D01*
X227611Y35325D01*
X229163Y34854D01*
X230594Y34089D01*
X230963Y33787D01*
X231838Y33049D01*
X231838Y33049D01*
X231838Y33049D01*
X242828Y22060D01*
X242825Y22058D01*
X243711Y21331D01*
X244721Y20791D01*
X245818Y20458D01*
X246958Y20346D01*
Y20349D01*
X254148D01*
X254679Y19818D01*
X255475Y19488D01*
X256336D01*
X257132Y19818D01*
X257741Y20427D01*
X258071Y21223D01*
Y22084D01*
X257741Y22880D01*
X257132Y23489D01*
X256336Y23819D01*
X255475D01*
X254679Y23489D01*
X254148Y22958D01*
X248018D01*
X247229Y24139D01*
X247244Y24176D01*
Y25037D01*
X246914Y25833D01*
X246305Y26442D01*
X245510Y26772D01*
X244758D01*
X236278Y35252D01*
X236290Y35265D01*
X236290Y35265D01*
X234667Y36650D01*
X234664Y36691D01*
X235005Y37831D01*
X236221D01*
Y37402D01*
X244094D01*
Y45059D01*
X244616Y46241D01*
X248677D01*
X248833Y45059D01*
X248638Y45007D01*
X247740Y44489D01*
X247007Y43756D01*
X246489Y42858D01*
X246220Y41857D01*
Y40820D01*
X246489Y39819D01*
X247007Y38921D01*
X247740Y38188D01*
X248638Y37670D01*
X249639Y37402D01*
X250676D01*
X251677Y37670D01*
X252575Y38188D01*
X253308Y38921D01*
X253826Y39819D01*
X254095Y40820D01*
Y41857D01*
X253826Y42858D01*
X253308Y43756D01*
X252575Y44489D01*
X251677Y45007D01*
X251482Y45059D01*
X251638Y46241D01*
X258677D01*
X258833Y45059D01*
X258638Y45007D01*
X257740Y44489D01*
X257007Y43756D01*
X256489Y42858D01*
X256221Y41857D01*
Y40820D01*
X256489Y39819D01*
X257007Y38921D01*
X257740Y38188D01*
X258638Y37670D01*
X259639Y37402D01*
X260676D01*
X261677Y37670D01*
X262575Y38188D01*
X263308Y38921D01*
X263826Y39819D01*
X264094Y40820D01*
Y41857D01*
X263826Y42858D01*
X263308Y43756D01*
X262575Y44489D01*
X261677Y45007D01*
X261482Y45059D01*
X261638Y46241D01*
X319803Y46241D01*
X320197D01*
X320969Y46087D01*
X321696Y45786D01*
X322351Y45348D01*
X322907Y44792D01*
X323345Y44137D01*
X323646Y43410D01*
X323800Y42638D01*
Y42244D01*
Y-239094D01*
Y-239488D01*
X323646Y-240260D01*
X323345Y-240987D01*
X322907Y-241642D01*
X322351Y-242199D01*
X321696Y-242636D01*
X320969Y-242937D01*
X320197Y-243091D01*
X-320197D01*
X-320969Y-242937D01*
X-321696Y-242636D01*
X-322351Y-242199D01*
X-322907Y-241642D01*
X-323345Y-240987D01*
X-323646Y-240260D01*
X-323800Y-239488D01*
Y-239094D01*
Y42244D01*
Y42638D01*
X-323646Y43410D01*
X-323345Y44137D01*
X-322907Y44792D01*
X-322351Y45348D01*
X-321696Y45786D01*
X-320969Y46087D01*
X-320197Y46241D01*
X-319803D01*
X-274616Y46241D01*
X-274095Y45059D01*
Y37402D01*
X-266220D01*
Y45059D01*
X-266220Y45276D01*
X-265699Y46241D01*
X-261638D01*
X-261482Y45059D01*
X-261677Y45007D01*
X-262575Y44489D01*
X-263308Y43756D01*
X-263826Y42858D01*
X-264094Y41857D01*
Y40820D01*
X-263826Y39819D01*
X-263308Y38921D01*
X-262575Y38188D01*
X-261677Y37670D01*
X-260676Y37402D01*
X-259639D01*
X-258638Y37670D01*
X-257740Y38188D01*
X-257007Y38921D01*
X-256489Y39819D01*
X-256221Y40820D01*
Y41857D01*
X-256489Y42858D01*
X-257007Y43756D01*
X-257740Y44489D01*
X-258638Y45007D01*
X-258833Y45059D01*
X-258677Y46241D01*
X-251638D01*
X-251482Y45059D01*
X-251677Y45007D01*
X-252575Y44489D01*
X-253308Y43756D01*
X-253826Y42858D01*
X-254095Y41857D01*
Y40820D01*
X-253826Y39819D01*
X-253308Y38921D01*
X-252575Y38188D01*
X-251677Y37670D01*
X-250676Y37402D01*
X-249639D01*
X-248638Y37670D01*
X-247740Y38188D01*
X-247007Y38921D01*
X-246489Y39819D01*
X-246220Y40820D01*
Y41857D01*
X-246489Y42858D01*
X-247007Y43756D01*
X-247740Y44489D01*
X-248638Y45007D01*
X-248833Y45059D01*
X-248677Y46241D01*
X-161503Y46241D01*
X-161294D01*
X-160908Y46081D01*
X-160612Y45785D01*
X-160452Y45399D01*
Y37402D01*
X-160448Y37382D01*
X-160451Y37362D01*
X-160415Y36435D01*
X-160401Y36378D01*
X-160404Y36318D01*
X-160114Y34487D01*
X-160086Y34413D01*
X-160077Y34334D01*
X-159504Y32572D01*
X-159465Y32502D01*
X-159444Y32426D01*
X-158602Y30775D01*
X-158553Y30713D01*
X-158520Y30641D01*
X-157431Y29141D01*
X-157373Y29087D01*
X-157328Y29021D01*
X-156018Y27711D01*
X-155952Y27667D01*
X-155898Y27609D01*
X-154399Y26519D01*
X-154327Y26486D01*
X-154265Y26437D01*
X-152613Y25596D01*
X-152537Y25574D01*
X-152468Y25535D01*
X-150705Y24962D01*
X-150626Y24953D01*
X-150552Y24926D01*
X-148722Y24636D01*
X-148642Y24639D01*
X-148565Y24623D01*
X-146711D01*
X-146633Y24639D01*
X-146554Y24636D01*
X-144724Y24926D01*
X-144649Y24953D01*
X-144571Y24962D01*
X-142808Y25535D01*
X-142739Y25574D01*
X-142662Y25596D01*
X-141011Y26437D01*
X-140949Y26486D01*
X-140877Y26519D01*
X-139377Y27609D01*
X-139323Y27667D01*
X-139258Y27711D01*
X-137947Y29021D01*
X-137903Y29087D01*
X-137845Y29141D01*
X-136755Y30641D01*
X-136722Y30713D01*
X-136673Y30775D01*
X-135832Y32426D01*
X-135810Y32502D01*
X-135772Y32572D01*
X-135199Y34334D01*
X-135189Y34413D01*
X-135162Y34487D01*
X-134872Y36318D01*
X-134874Y36378D01*
X-134861Y36435D01*
X-134824Y37362D01*
X-134827Y37382D01*
X-134823Y37402D01*
Y45399D01*
X-134663Y45785D01*
X-134368Y46081D01*
X-133982Y46241D01*
X133982D01*
X134368Y46081D01*
D02*
G37*
G36*
X244051Y26059D02*
X244132Y26001D01*
X244221Y25950D01*
X244318Y25905D01*
X244423Y25868D01*
X244535Y25838D01*
X244656Y25815D01*
X244785Y25798D01*
X244922Y25789D01*
X245067Y25787D01*
X243898Y24618D01*
X243896Y24763D01*
X243870Y25029D01*
X243847Y25150D01*
X243817Y25262D01*
X243780Y25367D01*
X243735Y25464D01*
X243684Y25553D01*
X243626Y25634D01*
X243560Y25707D01*
X243978Y26125D01*
X244051Y26059D01*
D02*
G37*
G36*
X91902Y25205D02*
X91934Y25076D01*
X91973Y24959D01*
X92020Y24853D01*
X92074Y24760D01*
X92136Y24678D01*
X92205Y24608D01*
X92282Y24550D01*
X92366Y24503D01*
X92457Y24468D01*
X92091Y23968D01*
X91995Y23998D01*
X91894Y24022D01*
X91788Y24041D01*
X91676Y24054D01*
X91560Y24062D01*
X91310Y24060D01*
X91289Y24059D01*
X91265Y24029D01*
X91196Y23927D01*
X91137Y23826D01*
X91089Y23725D01*
X91052Y23625D01*
X91026Y23526D01*
X91010Y23427D01*
X91004Y23330D01*
X90414Y23329D01*
X90408Y23427D01*
X90393Y23526D01*
X90366Y23625D01*
X90329Y23725D01*
X90281Y23825D01*
X90222Y23926D01*
X90153Y24028D01*
X90074Y24131D01*
X89983Y24234D01*
X89882Y24338D01*
X91134Y24339D01*
X91878Y25345D01*
X91902Y25205D01*
D02*
G37*
G36*
X69680Y23107D02*
X69761Y23048D01*
X69850Y22997D01*
X69947Y22952D01*
X70052Y22915D01*
X70165Y22885D01*
X70286Y22862D01*
X70415Y22846D01*
X70552Y22837D01*
X70697Y22835D01*
X69527Y21665D01*
X69525Y21810D01*
X69500Y22076D01*
X69477Y22197D01*
X69447Y22310D01*
X69409Y22415D01*
X69365Y22512D01*
X69314Y22601D01*
X69255Y22682D01*
X69190Y22754D01*
X69607Y23172D01*
X69680Y23107D01*
D02*
G37*
G36*
X255062Y20827D02*
X254958Y20928D01*
X254752Y21098D01*
X254651Y21167D01*
X254549Y21225D01*
X254449Y21273D01*
X254349Y21310D01*
X254250Y21337D01*
X254151Y21353D01*
X254053Y21358D01*
Y21949D01*
X254151Y21954D01*
X254250Y21970D01*
X254349Y21997D01*
X254449Y22034D01*
X254549Y22082D01*
X254651Y22140D01*
X254752Y22209D01*
X254855Y22289D01*
X254958Y22379D01*
X255062Y22480D01*
Y20827D01*
D02*
G37*
G36*
X101722Y21041D02*
X101928Y20871D01*
X102030Y20802D01*
X102131Y20743D01*
X102231Y20695D01*
X102331Y20658D01*
X102430Y20631D01*
X102529Y20616D01*
X102627Y20610D01*
Y20020D01*
X102529Y20014D01*
X102430Y19998D01*
X102331Y19972D01*
X102231Y19935D01*
X102131Y19887D01*
X102030Y19828D01*
X101928Y19759D01*
X101825Y19680D01*
X101722Y19589D01*
X101618Y19488D01*
Y21142D01*
X101722Y21041D01*
D02*
G37*
G36*
X91010Y19880D02*
X91026Y19781D01*
X91052Y19682D01*
X91089Y19582D01*
X91137Y19481D01*
X91196Y19380D01*
X91265Y19278D01*
X91344Y19176D01*
X91435Y19073D01*
X91536Y18969D01*
X89882D01*
X89983Y19073D01*
X90153Y19278D01*
X90222Y19380D01*
X90281Y19481D01*
X90329Y19582D01*
X90366Y19682D01*
X90393Y19781D01*
X90408Y19880D01*
X90414Y19978D01*
X91004D01*
X91010Y19880D01*
D02*
G37*
G36*
X77092Y19371D02*
X77042Y19286D01*
X76999Y19194D01*
X76962Y19095D01*
X76932Y18990D01*
X76908Y18878D01*
X76891Y18760D01*
X76880Y18634D01*
X76876Y18503D01*
X76886Y18219D01*
X75639Y19304D01*
X75782Y19317D01*
X75916Y19337D01*
X76040Y19364D01*
X76155Y19399D01*
X76260Y19441D01*
X76355Y19491D01*
X76441Y19548D01*
X76518Y19613D01*
X76584Y19684D01*
X76641Y19764D01*
X77092Y19371D01*
D02*
G37*
G36*
X98637Y18854D02*
X98847Y18686D01*
X98950Y18618D01*
X99053Y18560D01*
X99154Y18513D01*
X99254Y18476D01*
X99354Y18450D01*
X99452Y18434D01*
X99549Y18429D01*
X99561Y17838D01*
X99463Y17833D01*
X99364Y17817D01*
X99265Y17790D01*
X99166Y17752D01*
X99066Y17704D01*
X98966Y17645D01*
X98866Y17574D01*
X98765Y17494D01*
X98664Y17402D01*
X98563Y17300D01*
X98531Y18953D01*
X98637Y18854D01*
D02*
G37*
G36*
X168292Y15215D02*
X168188Y15316D01*
X167982Y15486D01*
X167880Y15555D01*
X167779Y15614D01*
X167679Y15662D01*
X167579Y15699D01*
X167480Y15725D01*
X167381Y15741D01*
X167283Y15746D01*
Y16337D01*
X167381Y16342D01*
X167480Y16358D01*
X167579Y16385D01*
X167679Y16422D01*
X167779Y16470D01*
X167880Y16528D01*
X167982Y16598D01*
X168085Y16677D01*
X168188Y16768D01*
X168292Y16869D01*
Y15215D01*
D02*
G37*
G36*
X-126340Y15353D02*
X-126162Y15147D01*
X-126073Y15056D01*
X-125894Y14898D01*
X-125805Y14831D01*
X-125715Y14772D01*
X-125625Y14721D01*
X-125535Y14678D01*
X-125620Y14068D01*
X-125711Y14104D01*
X-125805Y14127D01*
X-125901Y14137D01*
X-126000Y14133D01*
X-126102Y14116D01*
X-126207Y14086D01*
X-126314Y14042D01*
X-126424Y13985D01*
X-126537Y13914D01*
X-126653Y13830D01*
X-126428Y15468D01*
X-126340Y15353D01*
D02*
G37*
G36*
X172067Y13993D02*
X171923Y14013D01*
X171652Y14034D01*
X171524Y14037D01*
X171286Y14024D01*
X171175Y14009D01*
X171069Y13988D01*
X170969Y13961D01*
X170874Y13929D01*
X170505Y14424D01*
X170596Y14461D01*
X170679Y14510D01*
X170754Y14570D01*
X170822Y14642D01*
X170883Y14726D01*
X170936Y14820D01*
X170981Y14927D01*
X171019Y15045D01*
X171050Y15174D01*
X171073Y15315D01*
X172067Y13993D01*
D02*
G37*
G36*
X50591Y15293D02*
X50796Y15123D01*
X50898Y15054D01*
X50999Y14995D01*
X51100Y14947D01*
X51200Y14910D01*
X51299Y14884D01*
X51398Y14867D01*
X51496Y14862D01*
Y14272D01*
X51398Y14266D01*
X51299Y14250D01*
X51200Y14224D01*
X51100Y14187D01*
X50999Y14139D01*
X50898Y14080D01*
X50796Y14011D01*
X50694Y13931D01*
X50591Y13841D01*
X50487Y13740D01*
Y15394D01*
X50591Y15293D01*
D02*
G37*
G36*
X53113Y12537D02*
X53318Y12367D01*
X53420Y12298D01*
X53522Y12239D01*
X53622Y12191D01*
X53722Y12154D01*
X53821Y12128D01*
X53920Y12112D01*
X54018Y12106D01*
Y11516D01*
X53920Y11510D01*
X53821Y11495D01*
X53722Y11468D01*
X53622Y11431D01*
X53522Y11383D01*
X53420Y11324D01*
X53318Y11255D01*
X53216Y11176D01*
X53113Y11085D01*
X53009Y10984D01*
Y12638D01*
X53113Y12537D01*
D02*
G37*
G36*
X-130942D02*
X-130737Y12367D01*
X-130635Y12298D01*
X-130534Y12239D01*
X-130433Y12191D01*
X-130333Y12154D01*
X-130234Y12128D01*
X-130135Y12112D01*
X-130037Y12106D01*
Y11516D01*
X-130135Y11510D01*
X-130234Y11495D01*
X-130333Y11468D01*
X-130433Y11431D01*
X-130534Y11383D01*
X-130635Y11324D01*
X-130737Y11255D01*
X-130839Y11176D01*
X-130942Y11085D01*
X-131046Y10984D01*
Y12638D01*
X-130942Y12537D01*
D02*
G37*
G36*
X55923Y10567D02*
X56318Y10503D01*
X56441Y10491D01*
X56674Y10481D01*
X56785Y10483D01*
X56993Y10502D01*
X57330Y9939D01*
X57232Y9929D01*
X57141Y9904D01*
X57057Y9866D01*
X56980Y9813D01*
X56910Y9746D01*
X56847Y9665D01*
X56791Y9570D01*
X56743Y9461D01*
X56701Y9338D01*
X56667Y9201D01*
X55783Y10598D01*
X55923Y10567D01*
D02*
G37*
G36*
X-127990Y8600D02*
X-127784Y8430D01*
X-127682Y8361D01*
X-127581Y8302D01*
X-127480Y8254D01*
X-127380Y8217D01*
X-127281Y8190D01*
X-127183Y8175D01*
X-127085Y8169D01*
X-127085Y7579D01*
X-127183Y7573D01*
X-127281Y7558D01*
X-127380Y7531D01*
X-127480Y7494D01*
X-127581Y7446D01*
X-127682Y7387D01*
X-127784Y7318D01*
X-127886Y7239D01*
X-127990Y7148D01*
X-128094Y7047D01*
X-128094Y8701D01*
X-127990Y8600D01*
D02*
G37*
G36*
X55169Y7419D02*
X55374Y7249D01*
X55476Y7180D01*
X55577Y7121D01*
X55678Y7073D01*
X55778Y7036D01*
X55877Y7009D01*
X55976Y6994D01*
X56073Y6988D01*
Y6398D01*
X55976Y6392D01*
X55877Y6376D01*
X55778Y6350D01*
X55678Y6313D01*
X55577Y6265D01*
X55476Y6206D01*
X55374Y6137D01*
X55272Y6058D01*
X55169Y5967D01*
X55065Y5866D01*
Y7520D01*
X55169Y7419D01*
D02*
G37*
G36*
X62980Y3740D02*
X62836Y3738D01*
X62570Y3713D01*
X62449Y3690D01*
X62336Y3660D01*
X62231Y3622D01*
X62134Y3578D01*
X62045Y3527D01*
X61964Y3468D01*
X61891Y3403D01*
X61474Y3820D01*
X61539Y3893D01*
X61598Y3974D01*
X61649Y4063D01*
X61693Y4160D01*
X61730Y4265D01*
X61761Y4378D01*
X61784Y4499D01*
X61800Y4628D01*
X61809Y4765D01*
X61811Y4909D01*
X62980Y3740D01*
D02*
G37*
G36*
X173391Y305D02*
X173287Y406D01*
X173081Y576D01*
X172979Y646D01*
X172878Y704D01*
X172778Y752D01*
X172678Y789D01*
X172579Y816D01*
X172480Y831D01*
X172382Y837D01*
Y1427D01*
X172480Y1433D01*
X172579Y1449D01*
X172678Y1475D01*
X172778Y1512D01*
X172878Y1560D01*
X172979Y1619D01*
X173081Y1688D01*
X173184Y1767D01*
X173287Y1858D01*
X173391Y1959D01*
Y305D01*
D02*
G37*
G36*
X150350Y1551D02*
X150431Y1493D01*
X150520Y1442D01*
X150617Y1397D01*
X150722Y1360D01*
X150835Y1330D01*
X150955Y1307D01*
X151084Y1291D01*
X151221Y1281D01*
X151366Y1280D01*
X150197Y110D01*
X150195Y255D01*
X150170Y521D01*
X150146Y642D01*
X150116Y755D01*
X150079Y860D01*
X150035Y957D01*
X149983Y1045D01*
X149925Y1126D01*
X149859Y1199D01*
X150277Y1617D01*
X150350Y1551D01*
D02*
G37*
G36*
X146654Y1481D02*
X146734Y1421D01*
X146823Y1367D01*
X146919Y1321D01*
X147024Y1280D01*
X147136Y1247D01*
X147256Y1220D01*
X147383Y1200D01*
X147519Y1187D01*
X147662Y1181D01*
X146458Y48D01*
X146460Y194D01*
X146443Y462D01*
X146423Y584D01*
X146396Y698D01*
X146362Y803D01*
X146320Y900D01*
X146271Y990D01*
X146214Y1071D01*
X146151Y1144D01*
X146581Y1549D01*
X146654Y1481D01*
D02*
G37*
G36*
X104530Y828D02*
X104555Y562D01*
X104578Y441D01*
X104608Y328D01*
X104645Y223D01*
X104690Y126D01*
X104741Y37D01*
X104799Y-44D01*
X104865Y-117D01*
X104447Y-534D01*
X104374Y-469D01*
X104294Y-410D01*
X104204Y-359D01*
X104108Y-315D01*
X104003Y-277D01*
X103890Y-247D01*
X103769Y-224D01*
X103640Y-208D01*
X103503Y-199D01*
X103358Y-197D01*
X104527Y972D01*
X104530Y828D01*
D02*
G37*
G36*
X171018Y-1857D02*
X170926Y-1744D01*
X170742Y-1549D01*
X170649Y-1466D01*
X170556Y-1394D01*
X170462Y-1331D01*
X170368Y-1279D01*
X170273Y-1236D01*
X170178Y-1204D01*
X170082Y-1181D01*
X170150Y-593D01*
X170247Y-605D01*
X170346Y-606D01*
X170448Y-596D01*
X170551Y-575D01*
X170655Y-543D01*
X170762Y-500D01*
X170871Y-445D01*
X170982Y-379D01*
X171095Y-303D01*
X171210Y-215D01*
X171018Y-1857D01*
D02*
G37*
G36*
X63737Y55D02*
X63663Y-34D01*
X63598Y-126D01*
X63542Y-220D01*
X63494Y-316D01*
X63455Y-415D01*
X63425Y-517D01*
X63403Y-622D01*
X63390Y-728D01*
X63386Y-838D01*
X62598D01*
X62594Y-728D01*
X62581Y-622D01*
X62559Y-517D01*
X62529Y-415D01*
X62490Y-316D01*
X62442Y-220D01*
X62386Y-126D01*
X62321Y-34D01*
X62248Y55D01*
X62165Y141D01*
X63819D01*
X63737Y55D01*
D02*
G37*
G36*
X100847Y-1141D02*
X100872Y-1407D01*
X100895Y-1527D01*
X100926Y-1640D01*
X100963Y-1745D01*
X101007Y-1842D01*
X101059Y-1931D01*
X101117Y-2012D01*
X101182Y-2085D01*
X100765Y-2503D01*
X100692Y-2437D01*
X100611Y-2379D01*
X100522Y-2327D01*
X100425Y-2283D01*
X100320Y-2246D01*
X100207Y-2216D01*
X100086Y-2193D01*
X99958Y-2176D01*
X99821Y-2167D01*
X99676Y-2165D01*
X100845Y-996D01*
X100847Y-1141D01*
D02*
G37*
G36*
X63390Y-2888D02*
X63403Y-2995D01*
X63425Y-3100D01*
X63455Y-3201D01*
X63494Y-3300D01*
X63542Y-3397D01*
X63598Y-3491D01*
X63663Y-3582D01*
X63737Y-3671D01*
X63819Y-3757D01*
X62165D01*
X62248Y-3671D01*
X62321Y-3582D01*
X62386Y-3491D01*
X62442Y-3397D01*
X62490Y-3300D01*
X62529Y-3201D01*
X62559Y-3100D01*
X62581Y-2995D01*
X62594Y-2888D01*
X62598Y-2779D01*
X63386D01*
X63390Y-2888D01*
D02*
G37*
G36*
X59356Y-3167D02*
X59372Y-3266D01*
X59398Y-3365D01*
X59435Y-3465D01*
X59483Y-3565D01*
X59542Y-3666D01*
X59611Y-3768D01*
X59690Y-3871D01*
X59781Y-3974D01*
X59882Y-4078D01*
X58228D01*
X58329Y-3974D01*
X58499Y-3768D01*
X58569Y-3666D01*
X58627Y-3565D01*
X58675Y-3465D01*
X58712Y-3365D01*
X58739Y-3266D01*
X58754Y-3167D01*
X58760Y-3069D01*
X59350D01*
X59356Y-3167D01*
D02*
G37*
G36*
X169248Y-4452D02*
X169329Y-4511D01*
X169418Y-4562D01*
X169515Y-4606D01*
X169619Y-4644D01*
X169732Y-4674D01*
X169853Y-4697D01*
X169982Y-4713D01*
X170119Y-4722D01*
X170264Y-4724D01*
X169095Y-5894D01*
X169093Y-5749D01*
X169067Y-5483D01*
X169044Y-5362D01*
X169014Y-5249D01*
X168977Y-5144D01*
X168932Y-5047D01*
X168881Y-4958D01*
X168823Y-4877D01*
X168757Y-4805D01*
X169175Y-4387D01*
X169248Y-4452D01*
D02*
G37*
G36*
X163681Y-6853D02*
X163511Y-7059D01*
X163442Y-7160D01*
X163383Y-7262D01*
X163335Y-7362D01*
X163298Y-7462D01*
X163272Y-7561D01*
X163256Y-7660D01*
X163250Y-7758D01*
X162660D01*
X162654Y-7660D01*
X162639Y-7561D01*
X162612Y-7462D01*
X162575Y-7362D01*
X162527Y-7262D01*
X162469Y-7160D01*
X162399Y-7059D01*
X162320Y-6956D01*
X162229Y-6853D01*
X162128Y-6749D01*
X163782D01*
X163681Y-6853D01*
D02*
G37*
G36*
X160682Y-6780D02*
X160578Y-6879D01*
X160486Y-6978D01*
X160404Y-7076D01*
X160334Y-7175D01*
X160274Y-7274D01*
X160225Y-7373D01*
X160187Y-7472D01*
X160160Y-7571D01*
X160143Y-7670D01*
X160138Y-7769D01*
X159547Y-7745D01*
X159542Y-7648D01*
X159527Y-7550D01*
X159501Y-7451D01*
X159464Y-7350D01*
X159418Y-7248D01*
X159361Y-7144D01*
X159293Y-7039D01*
X159216Y-6933D01*
X159128Y-6825D01*
X159029Y-6717D01*
X160682Y-6780D01*
D02*
G37*
G36*
X166936Y-6802D02*
X166834Y-6904D01*
X166743Y-7006D01*
X166663Y-7107D01*
X166593Y-7208D01*
X166534Y-7308D01*
X166486Y-7408D01*
X166448Y-7508D01*
X166421Y-7607D01*
X166405Y-7705D01*
X166400Y-7804D01*
X165810Y-7795D01*
X165804Y-7698D01*
X165788Y-7599D01*
X165762Y-7500D01*
X165725Y-7400D01*
X165678Y-7299D01*
X165620Y-7197D01*
X165551Y-7094D01*
X165472Y-6990D01*
X165383Y-6885D01*
X165283Y-6779D01*
X166936Y-6802D01*
D02*
G37*
G36*
X156513Y-8701D02*
X156410Y-8600D01*
X156204Y-8430D01*
X156102Y-8361D01*
X156001Y-8302D01*
X155900Y-8254D01*
X155800Y-8217D01*
X155701Y-8191D01*
X155603Y-8175D01*
X155505Y-8169D01*
Y-7579D01*
X155603Y-7573D01*
X155701Y-7558D01*
X155800Y-7531D01*
X155900Y-7494D01*
X156001Y-7446D01*
X156102Y-7387D01*
X156204Y-7318D01*
X156306Y-7239D01*
X156410Y-7148D01*
X156513Y-7047D01*
Y-8701D01*
D02*
G37*
G36*
X174364Y-12312D02*
X174194Y-12518D01*
X174125Y-12620D01*
X174067Y-12721D01*
X174019Y-12822D01*
X173981Y-12922D01*
X173955Y-13021D01*
X173939Y-13119D01*
X173934Y-13217D01*
X173343D01*
X173338Y-13119D01*
X173322Y-13021D01*
X173295Y-12922D01*
X173258Y-12822D01*
X173210Y-12721D01*
X173152Y-12620D01*
X173083Y-12518D01*
X173003Y-12416D01*
X172913Y-12312D01*
X172812Y-12208D01*
X174465D01*
X174364Y-12312D01*
D02*
G37*
G36*
X166400Y-16160D02*
X166405Y-16258D01*
X166421Y-16356D01*
X166447Y-16455D01*
X166484Y-16556D01*
X166532Y-16657D01*
X166590Y-16759D01*
X166658Y-16862D01*
X166737Y-16966D01*
X166827Y-17071D01*
X166927Y-17176D01*
X165273Y-17153D01*
X165375Y-17051D01*
X165466Y-16950D01*
X165547Y-16848D01*
X165617Y-16748D01*
X165675Y-16647D01*
X165724Y-16547D01*
X165761Y-16448D01*
X165788Y-16349D01*
X165804Y-16250D01*
X165810Y-16152D01*
X166400Y-16160D01*
D02*
G37*
G36*
X160143Y-16356D02*
X160159Y-16454D01*
X160186Y-16554D01*
X160223Y-16654D01*
X160271Y-16754D01*
X160329Y-16855D01*
X160398Y-16957D01*
X160478Y-17060D01*
X160568Y-17163D01*
X160669Y-17267D01*
X159016D01*
X159117Y-17163D01*
X159287Y-16957D01*
X159356Y-16855D01*
X159414Y-16754D01*
X159462Y-16654D01*
X159499Y-16554D01*
X159526Y-16454D01*
X159542Y-16356D01*
X159547Y-16258D01*
X160138D01*
X160143Y-16356D01*
D02*
G37*
G36*
X163233Y-19766D02*
X163224Y-19869D01*
X163220Y-20086D01*
X163225Y-20201D01*
X163248Y-20443D01*
X163291Y-20701D01*
X163351Y-20976D01*
X161944Y-20108D01*
X162080Y-20072D01*
X162202Y-20030D01*
X162309Y-19981D01*
X162402Y-19925D01*
X162481Y-19862D01*
X162545Y-19793D01*
X162595Y-19717D01*
X162631Y-19634D01*
X162653Y-19544D01*
X162660Y-19448D01*
X163233Y-19766D01*
D02*
G37*
G36*
X166671Y-25872D02*
X166605Y-25945D01*
X166547Y-26026D01*
X166496Y-26114D01*
X166451Y-26211D01*
X166414Y-26316D01*
X166384Y-26429D01*
X166361Y-26550D01*
X166344Y-26679D01*
X166335Y-26816D01*
X166333Y-26961D01*
X165164Y-25791D01*
X165309Y-25789D01*
X165575Y-25764D01*
X165696Y-25741D01*
X165808Y-25711D01*
X165913Y-25673D01*
X166010Y-25629D01*
X166099Y-25578D01*
X166180Y-25519D01*
X166253Y-25454D01*
X166671Y-25872D01*
D02*
G37*
G36*
X165262Y-35943D02*
X165197Y-36015D01*
X165139Y-36096D01*
X165087Y-36185D01*
X165043Y-36282D01*
X165006Y-36387D01*
X164975Y-36500D01*
X164952Y-36621D01*
X164936Y-36750D01*
X164927Y-36887D01*
X164925Y-37032D01*
X163756Y-35862D01*
X163901Y-35860D01*
X164166Y-35835D01*
X164287Y-35812D01*
X164400Y-35782D01*
X164505Y-35745D01*
X164602Y-35700D01*
X164691Y-35649D01*
X164772Y-35590D01*
X164845Y-35525D01*
X165262Y-35943D01*
D02*
G37*
G36*
X238490Y-63206D02*
X238506Y-63305D01*
X238532Y-63404D01*
X238569Y-63504D01*
X238617Y-63604D01*
X238676Y-63706D01*
X238745Y-63808D01*
X238824Y-63910D01*
X238915Y-64013D01*
X239016Y-64117D01*
X237362D01*
X237463Y-64013D01*
X237633Y-63808D01*
X237702Y-63706D01*
X237761Y-63604D01*
X237809Y-63504D01*
X237846Y-63404D01*
X237872Y-63305D01*
X237888Y-63206D01*
X237894Y-63108D01*
X238484D01*
X238490Y-63206D01*
D02*
G37*
%LPC*%
G36*
X-21047Y26153D02*
X-24500D01*
Y22701D01*
X-24480D01*
X-23474Y22970D01*
X-22573Y23491D01*
X-21837Y24227D01*
X-21317Y25128D01*
X-21047Y26133D01*
Y26153D01*
D02*
G37*
G36*
X-25500D02*
X-28953D01*
Y26133D01*
X-28683Y25128D01*
X-28163Y24227D01*
X-27427Y23491D01*
X-26526Y22970D01*
X-25520Y22701D01*
X-25500D01*
Y26153D01*
D02*
G37*
G36*
X287402Y40196D02*
X285425Y40041D01*
X283496Y39578D01*
X281664Y38819D01*
X279974Y37783D01*
X278466Y36495D01*
X277178Y34987D01*
X276142Y33296D01*
X275383Y31464D01*
X274920Y29536D01*
X274764Y27559D01*
X274920Y25582D01*
X275383Y23654D01*
X276142Y21822D01*
X277178Y20131D01*
X278466Y18623D01*
X279974Y17335D01*
X281664Y16299D01*
X283496Y15540D01*
X285425Y15077D01*
X287402Y14922D01*
X289378Y15077D01*
X291307Y15540D01*
X293139Y16299D01*
X294830Y17335D01*
X296338Y18623D01*
X297625Y20131D01*
X298662Y21822D01*
X299420Y23654D01*
X299883Y25582D01*
X300039Y27559D01*
X299883Y29536D01*
X299420Y31464D01*
X298662Y33296D01*
X297625Y34987D01*
X296338Y36495D01*
X294830Y37783D01*
X293139Y38819D01*
X291307Y39578D01*
X289378Y40041D01*
X287402Y40196D01*
D02*
G37*
G36*
X-287402D02*
X-289378Y40041D01*
X-291307Y39578D01*
X-293139Y38819D01*
X-294830Y37783D01*
X-296338Y36495D01*
X-297625Y34987D01*
X-298662Y33296D01*
X-299420Y31464D01*
X-299883Y29536D01*
X-300039Y27559D01*
X-299883Y25582D01*
X-299420Y23654D01*
X-298662Y21822D01*
X-297625Y20131D01*
X-296338Y18623D01*
X-294830Y17335D01*
X-293139Y16299D01*
X-291307Y15540D01*
X-289378Y15077D01*
X-287402Y14922D01*
X-285425Y15077D01*
X-283496Y15540D01*
X-281664Y16299D01*
X-279974Y17335D01*
X-278466Y18623D01*
X-277178Y20131D01*
X-276142Y21822D01*
X-275383Y23654D01*
X-274920Y25582D01*
X-274764Y27559D01*
X-274920Y29536D01*
X-275383Y31464D01*
X-276142Y33296D01*
X-277178Y34987D01*
X-278466Y36495D01*
X-279974Y37783D01*
X-281664Y38819D01*
X-283496Y39578D01*
X-285425Y40041D01*
X-287402Y40196D01*
D02*
G37*
G36*
X25518Y20591D02*
X24482D01*
X23480Y20322D01*
X22583Y19804D01*
X21850Y19071D01*
X21331Y18173D01*
X21063Y17172D01*
Y16135D01*
X21331Y15134D01*
X21850Y14236D01*
X22583Y13503D01*
X23480Y12985D01*
X24482Y12717D01*
X25518D01*
X26520Y12985D01*
X27417Y13503D01*
X28150Y14236D01*
X28669Y15134D01*
X28937Y16135D01*
Y17172D01*
X28669Y18173D01*
X28150Y19071D01*
X27417Y19804D01*
X26520Y20322D01*
X25518Y20591D01*
D02*
G37*
G36*
X15518D02*
X14482D01*
X13480Y20322D01*
X12583Y19804D01*
X11850Y19071D01*
X11331Y18173D01*
X11063Y17172D01*
Y16135D01*
X11331Y15134D01*
X11850Y14236D01*
X12583Y13503D01*
X13480Y12985D01*
X14482Y12717D01*
X15518D01*
X16520Y12985D01*
X17417Y13503D01*
X18150Y14236D01*
X18669Y15134D01*
X18937Y16135D01*
Y17172D01*
X18669Y18173D01*
X18150Y19071D01*
X17417Y19804D01*
X16520Y20322D01*
X15518Y20591D01*
D02*
G37*
G36*
X5518D02*
X4482D01*
X3480Y20322D01*
X2583Y19804D01*
X1850Y19071D01*
X1331Y18173D01*
X1063Y17172D01*
Y16135D01*
X1331Y15134D01*
X1850Y14236D01*
X2583Y13503D01*
X3480Y12985D01*
X4482Y12717D01*
X5518D01*
X6520Y12985D01*
X7417Y13503D01*
X8150Y14236D01*
X8669Y15134D01*
X8937Y16135D01*
Y17172D01*
X8669Y18173D01*
X8150Y19071D01*
X7417Y19804D01*
X6520Y20322D01*
X5518Y20591D01*
D02*
G37*
G36*
X-4482D02*
X-5518D01*
X-6520Y20322D01*
X-7417Y19804D01*
X-8150Y19071D01*
X-8669Y18173D01*
X-8937Y17172D01*
Y16135D01*
X-8669Y15134D01*
X-8150Y14236D01*
X-7417Y13503D01*
X-6520Y12985D01*
X-5518Y12717D01*
X-4482D01*
X-3480Y12985D01*
X-2583Y13503D01*
X-1850Y14236D01*
X-1331Y15134D01*
X-1063Y16135D01*
Y17172D01*
X-1331Y18173D01*
X-1850Y19071D01*
X-2583Y19804D01*
X-3480Y20322D01*
X-4482Y20591D01*
D02*
G37*
G36*
X-14482D02*
X-15518D01*
X-16520Y20322D01*
X-17417Y19804D01*
X-18150Y19071D01*
X-18669Y18173D01*
X-18937Y17172D01*
Y16135D01*
X-18669Y15134D01*
X-18150Y14236D01*
X-17417Y13503D01*
X-16520Y12985D01*
X-15518Y12717D01*
X-14482D01*
X-13480Y12985D01*
X-12583Y13503D01*
X-11850Y14236D01*
X-11331Y15134D01*
X-11063Y16135D01*
Y17172D01*
X-11331Y18173D01*
X-11850Y19071D01*
X-12583Y19804D01*
X-13480Y20322D01*
X-14482Y20591D01*
D02*
G37*
G36*
X-21063D02*
X-28937D01*
Y12717D01*
X-21063D01*
Y20591D01*
D02*
G37*
G36*
X139407Y3394D02*
X138546D01*
X137750Y3064D01*
X137219Y2533D01*
X126907D01*
X126423Y3017D01*
X125628Y3347D01*
X124766D01*
X123970Y3017D01*
X123361Y2408D01*
X123031Y1612D01*
Y750D01*
X123361Y-46D01*
X123970Y-655D01*
X124766Y-984D01*
X125628D01*
X126423Y-655D01*
X127002Y-76D01*
X137219D01*
X137750Y-607D01*
X138546Y-937D01*
X139407D01*
X140203Y-607D01*
X140812Y2D01*
X141142Y798D01*
Y1660D01*
X140812Y2455D01*
X140203Y3064D01*
X139407Y3394D01*
D02*
G37*
G36*
X305627Y-2648D02*
X303822D01*
X302051Y-3000D01*
X300384Y-3691D01*
X298883Y-4693D01*
X297607Y-5970D01*
X296604Y-7470D01*
X295913Y-9138D01*
X295561Y-10909D01*
Y-12713D01*
X295913Y-14484D01*
X296604Y-16151D01*
X297607Y-17652D01*
X298883Y-18929D01*
X300384Y-19931D01*
X302051Y-20622D01*
X303822Y-20974D01*
X305627D01*
X307397Y-20622D01*
X309065Y-19931D01*
X310566Y-18929D01*
X311842Y-17652D01*
X312845Y-16151D01*
X313536Y-14484D01*
X313888Y-12713D01*
Y-10909D01*
X313536Y-9138D01*
X312845Y-7470D01*
X311842Y-5970D01*
X310566Y-4693D01*
X309065Y-3691D01*
X307397Y-3000D01*
X305627Y-2648D01*
D02*
G37*
G36*
X270981D02*
X269176D01*
X267406Y-3000D01*
X265738Y-3691D01*
X264237Y-4693D01*
X262961Y-5970D01*
X261958Y-7470D01*
X261267Y-9138D01*
X260915Y-10909D01*
Y-12713D01*
X261267Y-14484D01*
X261958Y-16151D01*
X262961Y-17652D01*
X264237Y-18929D01*
X265738Y-19931D01*
X267406Y-20622D01*
X269176Y-20974D01*
X270981D01*
X272752Y-20622D01*
X274419Y-19931D01*
X275920Y-18929D01*
X277196Y-17652D01*
X278199Y-16151D01*
X278890Y-14484D01*
X279242Y-12713D01*
Y-10909D01*
X278890Y-9138D01*
X278199Y-7470D01*
X277196Y-5970D01*
X275920Y-4693D01*
X274419Y-3691D01*
X272752Y-3000D01*
X270981Y-2648D01*
D02*
G37*
G36*
X-269176D02*
X-270981D01*
X-272752Y-3000D01*
X-274419Y-3691D01*
X-275920Y-4693D01*
X-277196Y-5970D01*
X-278199Y-7470D01*
X-278890Y-9138D01*
X-279242Y-10909D01*
Y-12713D01*
X-278890Y-14484D01*
X-278199Y-16151D01*
X-277196Y-17652D01*
X-275920Y-18929D01*
X-274419Y-19931D01*
X-272752Y-20622D01*
X-270981Y-20974D01*
X-269176D01*
X-267406Y-20622D01*
X-265738Y-19931D01*
X-264237Y-18929D01*
X-262961Y-17652D01*
X-261958Y-16151D01*
X-261267Y-14484D01*
X-260915Y-12713D01*
Y-10909D01*
X-261267Y-9138D01*
X-261958Y-7470D01*
X-262961Y-5970D01*
X-264237Y-4693D01*
X-265738Y-3691D01*
X-267406Y-3000D01*
X-269176Y-2648D01*
D02*
G37*
G36*
X-303822D02*
X-305627D01*
X-307397Y-3000D01*
X-309065Y-3691D01*
X-310566Y-4693D01*
X-311842Y-5970D01*
X-312845Y-7470D01*
X-313536Y-9138D01*
X-313888Y-10909D01*
Y-12713D01*
X-313536Y-14484D01*
X-312845Y-16151D01*
X-311842Y-17652D01*
X-310566Y-18929D01*
X-309065Y-19931D01*
X-307397Y-20622D01*
X-305627Y-20974D01*
X-303822D01*
X-302051Y-20622D01*
X-300384Y-19931D01*
X-298883Y-18929D01*
X-297607Y-17652D01*
X-296604Y-16151D01*
X-295913Y-14484D01*
X-295561Y-12713D01*
Y-10909D01*
X-295913Y-9138D01*
X-296604Y-7470D01*
X-297607Y-5970D01*
X-298883Y-4693D01*
X-300384Y-3691D01*
X-302051Y-3000D01*
X-303822Y-2648D01*
D02*
G37*
G36*
X-108821Y4134D02*
X-109683D01*
X-110478Y3804D01*
X-111088Y3195D01*
X-111417Y2399D01*
Y1538D01*
X-111088Y742D01*
X-110858Y512D01*
Y-18766D01*
X-111088Y-18996D01*
X-111417Y-19792D01*
Y-20653D01*
X-111088Y-21449D01*
X-110478Y-22058D01*
X-109683Y-22388D01*
X-108821D01*
X-108025Y-22058D01*
X-107416Y-21449D01*
X-107087Y-20653D01*
Y-19792D01*
X-107416Y-18996D01*
X-107646Y-18766D01*
Y512D01*
X-107416Y742D01*
X-107087Y1538D01*
Y2399D01*
X-107416Y3195D01*
X-108025Y3804D01*
X-108821Y4134D01*
D02*
G37*
G36*
X-187008Y-1142D02*
X-188985Y-1298D01*
X-190913Y-1761D01*
X-192745Y-2520D01*
X-194436Y-3556D01*
X-195944Y-4844D01*
X-197232Y-6352D01*
X-198268Y-8042D01*
X-199027Y-9874D01*
X-199490Y-11803D01*
X-199645Y-13780D01*
X-199490Y-15756D01*
X-199027Y-17685D01*
X-198268Y-19517D01*
X-197232Y-21208D01*
X-195944Y-22715D01*
X-194436Y-24003D01*
X-192745Y-25039D01*
X-190913Y-25798D01*
X-188985Y-26261D01*
X-187008Y-26417D01*
X-185031Y-26261D01*
X-183103Y-25798D01*
X-181271Y-25039D01*
X-179580Y-24003D01*
X-178072Y-22715D01*
X-176784Y-21208D01*
X-175748Y-19517D01*
X-174989Y-17685D01*
X-174526Y-15756D01*
X-174371Y-13780D01*
X-174526Y-11803D01*
X-174989Y-9874D01*
X-175748Y-8042D01*
X-176784Y-6352D01*
X-178072Y-4844D01*
X-179580Y-3556D01*
X-181271Y-2520D01*
X-183103Y-1761D01*
X-185031Y-1298D01*
X-187008Y-1142D01*
D02*
G37*
G36*
X-15364Y-21063D02*
X-16226D01*
X-17022Y-21393D01*
X-17631Y-22002D01*
X-17789Y-22384D01*
X-23333Y-27927D01*
X-23715Y-28086D01*
X-24324Y-28695D01*
X-24654Y-29491D01*
Y-30352D01*
X-24324Y-31148D01*
X-23715Y-31757D01*
X-22919Y-32087D01*
X-22057D01*
X-21261Y-31757D01*
X-20652Y-31148D01*
X-20494Y-30766D01*
X-14951Y-25222D01*
X-14569Y-25064D01*
X-13960Y-24455D01*
X-13630Y-23659D01*
Y-22798D01*
X-13960Y-22002D01*
X-14569Y-21393D01*
X-15364Y-21063D01*
D02*
G37*
G36*
X228447Y-27445D02*
X228354D01*
Y-32965D01*
X233874D01*
Y-32872D01*
X233643Y-31709D01*
X233189Y-30613D01*
X232530Y-29627D01*
X231692Y-28789D01*
X230706Y-28130D01*
X229610Y-27676D01*
X228447Y-27445D01*
D02*
G37*
G36*
X-212498D02*
X-212591D01*
Y-32965D01*
X-207071D01*
Y-32872D01*
X-207302Y-31709D01*
X-207756Y-30613D01*
X-208415Y-29627D01*
X-209253Y-28789D01*
X-210239Y-28130D01*
X-211335Y-27676D01*
X-212498Y-27445D01*
D02*
G37*
G36*
X227354D02*
X227261D01*
X226098Y-27676D01*
X225003Y-28130D01*
X224017Y-28789D01*
X223179Y-29627D01*
X222520Y-30613D01*
X222066Y-31709D01*
X221835Y-32872D01*
Y-32965D01*
X227354D01*
Y-27445D01*
D02*
G37*
G36*
X-213591D02*
X-213683D01*
X-214846Y-27676D01*
X-215942Y-28130D01*
X-216928Y-28789D01*
X-217766Y-29627D01*
X-218425Y-30613D01*
X-218879Y-31709D01*
X-219110Y-32872D01*
Y-32965D01*
X-213591D01*
Y-27445D01*
D02*
G37*
G36*
X297764Y-35417D02*
X297744D01*
Y-38870D01*
X301197D01*
Y-38850D01*
X300927Y-37844D01*
X300407Y-36943D01*
X299671Y-36207D01*
X298770Y-35687D01*
X297764Y-35417D01*
D02*
G37*
G36*
X296744D02*
X296724D01*
X295718Y-35687D01*
X294817Y-36207D01*
X294081Y-36943D01*
X293561Y-37844D01*
X293291Y-38850D01*
Y-38870D01*
X296744D01*
Y-35417D01*
D02*
G37*
G36*
X-277039D02*
X-277059D01*
Y-38870D01*
X-273606D01*
Y-38850D01*
X-273876Y-37844D01*
X-274396Y-36943D01*
X-275132Y-36207D01*
X-276033Y-35687D01*
X-277039Y-35417D01*
D02*
G37*
G36*
X-278059D02*
X-278079D01*
X-279085Y-35687D01*
X-279986Y-36207D01*
X-280722Y-36943D01*
X-281242Y-37844D01*
X-281512Y-38850D01*
Y-38870D01*
X-278059D01*
Y-35417D01*
D02*
G37*
G36*
X233874Y-33965D02*
X228354D01*
Y-39484D01*
X228447D01*
X229610Y-39253D01*
X230706Y-38799D01*
X231692Y-38140D01*
X232530Y-37302D01*
X233189Y-36316D01*
X233643Y-35220D01*
X233874Y-34058D01*
Y-33965D01*
D02*
G37*
G36*
X227354D02*
X221835D01*
Y-34058D01*
X222066Y-35220D01*
X222520Y-36316D01*
X223179Y-37302D01*
X224017Y-38140D01*
X225003Y-38799D01*
X226098Y-39253D01*
X227261Y-39484D01*
X227354D01*
Y-33965D01*
D02*
G37*
G36*
X-207071D02*
X-212591D01*
Y-39484D01*
X-212498D01*
X-211335Y-39253D01*
X-210239Y-38799D01*
X-209253Y-38140D01*
X-208415Y-37302D01*
X-207756Y-36316D01*
X-207302Y-35220D01*
X-207071Y-34058D01*
Y-33965D01*
D02*
G37*
G36*
X-213591D02*
X-219110D01*
Y-34058D01*
X-218879Y-35220D01*
X-218425Y-36316D01*
X-217766Y-37302D01*
X-216928Y-38140D01*
X-215942Y-38799D01*
X-214846Y-39253D01*
X-213683Y-39484D01*
X-213591D01*
Y-33965D01*
D02*
G37*
G36*
X-108821Y-40157D02*
X-109683D01*
X-110478Y-40487D01*
X-110709Y-40717D01*
X-143299D01*
Y-40712D01*
X-145115Y-40855D01*
X-146887Y-41280D01*
X-148570Y-41978D01*
X-150123Y-42930D01*
X-151509Y-44113D01*
X-151509D01*
X-152445Y-44704D01*
X-153195Y-45015D01*
X-153804Y-45624D01*
X-154134Y-46420D01*
Y-47281D01*
X-153804Y-48077D01*
X-153195Y-48686D01*
X-152399Y-49016D01*
X-151538D01*
X-150742Y-48686D01*
X-150133Y-48077D01*
X-149803Y-47281D01*
Y-46956D01*
X-149234Y-46387D01*
X-149234Y-46387D01*
X-148362Y-45643D01*
X-147974Y-45325D01*
X-146519Y-44548D01*
X-145396Y-44207D01*
X-144770Y-45251D01*
X-145143Y-45624D01*
X-145472Y-46420D01*
Y-47171D01*
X-150749Y-52448D01*
X-150782Y-52496D01*
X-152058Y-53543D01*
X-153564Y-54348D01*
X-155198Y-54844D01*
X-156841Y-55006D01*
X-156898Y-54995D01*
X-184069D01*
X-184600Y-54463D01*
X-185396Y-54134D01*
X-186258D01*
X-187053Y-54463D01*
X-187662Y-55073D01*
X-187992Y-55869D01*
Y-56730D01*
X-187662Y-57526D01*
X-187053Y-58135D01*
X-186258Y-58465D01*
X-185396D01*
X-184600Y-58135D01*
X-184069Y-57604D01*
X-156898D01*
Y-57614D01*
X-155128Y-57474D01*
X-154600Y-57348D01*
X-154163Y-57828D01*
X-153873Y-58388D01*
X-154134Y-59018D01*
Y-59879D01*
X-153804Y-60675D01*
X-153195Y-61285D01*
X-152399Y-61614D01*
X-151538D01*
X-150742Y-61285D01*
X-150133Y-60675D01*
X-149803Y-59879D01*
Y-59128D01*
X-139802Y-49127D01*
X-139769Y-49079D01*
X-138494Y-48031D01*
X-136987Y-47226D01*
X-135353Y-46731D01*
X-133710Y-46569D01*
X-133653Y-46580D01*
X-103121D01*
X-102762Y-47761D01*
X-102817Y-47798D01*
X-103777Y-48758D01*
X-104531Y-49886D01*
X-105050Y-51140D01*
X-105315Y-52471D01*
Y-53828D01*
X-105050Y-55159D01*
X-104531Y-56413D01*
X-103777Y-57542D01*
X-102817Y-58501D01*
X-101689Y-59255D01*
X-100435Y-59775D01*
X-99104Y-60039D01*
X-97747D01*
X-96416Y-59775D01*
X-95162Y-59255D01*
X-94033Y-58501D01*
X-93074Y-57542D01*
X-92320Y-56413D01*
X-91800Y-55159D01*
X-91535Y-53828D01*
Y-52471D01*
X-91800Y-51140D01*
X-92320Y-49886D01*
X-93074Y-48758D01*
X-94033Y-47798D01*
X-94088Y-47761D01*
X-93730Y-46580D01*
X-74024D01*
X-73967Y-46569D01*
X-72324Y-46731D01*
X-70690Y-47226D01*
X-69184Y-48031D01*
X-68755Y-48384D01*
X-67885Y-49137D01*
X-67885Y-49137D01*
X-66655Y-50147D01*
X-65251Y-50897D01*
X-63727Y-51359D01*
X-62143Y-51516D01*
Y-51501D01*
X-51017D01*
Y-51515D01*
X-49447Y-51360D01*
X-48763Y-51153D01*
X-48137Y-52197D01*
X-53223Y-57284D01*
X-53974D01*
X-54770Y-57613D01*
X-55379Y-58222D01*
X-55709Y-59018D01*
Y-59879D01*
X-55379Y-60675D01*
X-54770Y-61285D01*
X-53974Y-61614D01*
X-53113D01*
X-52317Y-61285D01*
X-51708Y-60675D01*
X-51378Y-59879D01*
Y-59128D01*
X-41377Y-49127D01*
X-41344Y-49079D01*
X-40068Y-48031D01*
X-38562Y-47226D01*
X-36928Y-46731D01*
X-35285Y-46569D01*
X-35228Y-46580D01*
X3805D01*
X4295Y-47761D01*
X4070Y-47986D01*
X3740Y-48782D01*
Y-49643D01*
X4070Y-50439D01*
X4601Y-50970D01*
Y-53754D01*
X4070Y-54285D01*
X3740Y-55081D01*
Y-55942D01*
X4070Y-56738D01*
X4679Y-57348D01*
X5475Y-57677D01*
X6336D01*
X7132Y-57348D01*
X7741Y-56738D01*
X8071Y-55942D01*
Y-55081D01*
X7741Y-54285D01*
X7210Y-53754D01*
Y-50970D01*
X7741Y-50439D01*
X8071Y-49643D01*
Y-48782D01*
X7741Y-47986D01*
X7517Y-47761D01*
X8006Y-46580D01*
X24401D01*
X24458Y-46569D01*
X26101Y-46731D01*
X27735Y-47226D01*
X29241Y-48031D01*
X29671Y-48384D01*
X30540Y-49137D01*
X30540Y-49137D01*
X31770Y-50147D01*
X33174Y-50897D01*
X34698Y-51359D01*
X36282Y-51516D01*
Y-51501D01*
X47408D01*
Y-51515D01*
X48979Y-51360D01*
X49662Y-51153D01*
X50288Y-52197D01*
X45202Y-57284D01*
X44451D01*
X43655Y-57613D01*
X43046Y-58222D01*
X42717Y-59018D01*
Y-59879D01*
X43046Y-60675D01*
X43655Y-61285D01*
X44451Y-61614D01*
X45313D01*
X46108Y-61285D01*
X46718Y-60675D01*
X47047Y-59879D01*
Y-59128D01*
X57049Y-49127D01*
X57081Y-49079D01*
X58357Y-48031D01*
X59863Y-47226D01*
X61497Y-46731D01*
X63140Y-46569D01*
X63197Y-46580D01*
X93730D01*
X94088Y-47761D01*
X94033Y-47798D01*
X93074Y-48758D01*
X92320Y-49886D01*
X91800Y-51140D01*
X91535Y-52471D01*
Y-53828D01*
X91800Y-55159D01*
X92320Y-56413D01*
X93074Y-57542D01*
X94033Y-58501D01*
X95162Y-59255D01*
X96416Y-59775D01*
X97747Y-60039D01*
X99104D01*
X100435Y-59775D01*
X101689Y-59255D01*
X102817Y-58501D01*
X103777Y-57542D01*
X104531Y-56413D01*
X105050Y-55159D01*
X105315Y-53828D01*
Y-52471D01*
X105050Y-51140D01*
X104531Y-49886D01*
X103777Y-48758D01*
X102817Y-47798D01*
X102762Y-47761D01*
X103121Y-46580D01*
X122826D01*
X122884Y-46569D01*
X124526Y-46731D01*
X126161Y-47226D01*
X127667Y-48031D01*
X128096Y-48384D01*
X128965Y-49137D01*
X128965Y-49137D01*
X130196Y-50147D01*
X131600Y-50897D01*
X133123Y-51359D01*
X134707Y-51516D01*
Y-51501D01*
X145833D01*
Y-51515D01*
X147404Y-51360D01*
X148914Y-50902D01*
X150306Y-50158D01*
X151526Y-49157D01*
X152399Y-49016D01*
X152399Y-49016D01*
X152612Y-48927D01*
X153195Y-48686D01*
X153804Y-48077D01*
X154134Y-47281D01*
Y-46420D01*
X153804Y-45624D01*
X153195Y-45015D01*
X152399Y-44685D01*
X151538D01*
X150742Y-45015D01*
X150133Y-45624D01*
X149803Y-46420D01*
Y-47171D01*
X149672Y-47302D01*
X149635Y-47358D01*
X148558Y-48184D01*
X147244Y-48728D01*
X145985Y-48894D01*
X145719Y-48643D01*
X145294Y-47711D01*
X145472Y-47281D01*
Y-46420D01*
X145143Y-45624D01*
X144534Y-45015D01*
X143738Y-44685D01*
X142876D01*
X142080Y-45015D01*
X141850Y-45245D01*
X137084D01*
X137032Y-45255D01*
X135689Y-45123D01*
X134349Y-44716D01*
X133113Y-44056D01*
X132919Y-43896D01*
X132047Y-43149D01*
X132047Y-43149D01*
X130784Y-42113D01*
X129343Y-41342D01*
X127779Y-40868D01*
X126153Y-40708D01*
Y-40717D01*
X53552D01*
Y-40712D01*
X51735Y-40855D01*
X49964Y-41280D01*
X48281Y-41978D01*
X46727Y-42930D01*
X45342Y-44113D01*
X45342D01*
X44405Y-44704D01*
X43655Y-45015D01*
X43425Y-45245D01*
X38658D01*
X38607Y-45255D01*
X37264Y-45123D01*
X35923Y-44716D01*
X34688Y-44056D01*
X34494Y-43896D01*
X33622Y-43149D01*
X33622Y-43149D01*
X32359Y-42113D01*
X30918Y-41342D01*
X29354Y-40868D01*
X27728Y-40708D01*
Y-40717D01*
X-44874D01*
Y-40712D01*
X-46690Y-40855D01*
X-48461Y-41280D01*
X-50145Y-41978D01*
X-51698Y-42930D01*
X-53083Y-44113D01*
X-53083D01*
X-54020Y-44704D01*
X-54770Y-45015D01*
X-55000Y-45245D01*
X-59767D01*
X-59818Y-45255D01*
X-61161Y-45123D01*
X-62502Y-44716D01*
X-63737Y-44056D01*
X-63931Y-43896D01*
X-64803Y-43149D01*
X-64803Y-43149D01*
X-66066Y-42113D01*
X-67507Y-41342D01*
X-69071Y-40868D01*
X-70697Y-40708D01*
Y-40717D01*
X-107795D01*
X-108025Y-40487D01*
X-108821Y-40157D01*
D02*
G37*
G36*
X287920Y-35433D02*
X286883D01*
X285882Y-35701D01*
X284984Y-36220D01*
X284251Y-36953D01*
X283733Y-37850D01*
X283465Y-38852D01*
Y-39888D01*
X283733Y-40890D01*
X284251Y-41787D01*
X284984Y-42520D01*
X285882Y-43039D01*
X286883Y-43307D01*
X287920D01*
X288921Y-43039D01*
X289819Y-42520D01*
X290552Y-41787D01*
X291070Y-40890D01*
X291339Y-39888D01*
Y-38852D01*
X291070Y-37850D01*
X290552Y-36953D01*
X289819Y-36220D01*
X288921Y-35701D01*
X287920Y-35433D01*
D02*
G37*
G36*
X257911Y-17126D02*
X257050D01*
X256254Y-17456D01*
X255645Y-18065D01*
X255315Y-18861D01*
Y-19722D01*
X255645Y-20518D01*
X256254Y-21127D01*
X257050Y-21457D01*
X257517D01*
X273622Y-37562D01*
Y-43307D01*
X281496D01*
Y-35433D01*
X275751D01*
X259646Y-19328D01*
Y-18861D01*
X259316Y-18065D01*
X258707Y-17456D01*
X257911Y-17126D01*
D02*
G37*
G36*
X-286883Y-35433D02*
X-287920D01*
X-288921Y-35701D01*
X-289819Y-36220D01*
X-290552Y-36953D01*
X-291070Y-37850D01*
X-291339Y-38852D01*
Y-39888D01*
X-291070Y-40890D01*
X-290552Y-41787D01*
X-289819Y-42520D01*
X-288921Y-43039D01*
X-287920Y-43307D01*
X-286883D01*
X-285882Y-43039D01*
X-284984Y-42520D01*
X-284251Y-41787D01*
X-283733Y-40890D01*
X-283465Y-39888D01*
Y-38852D01*
X-283733Y-37850D01*
X-284251Y-36953D01*
X-284984Y-36220D01*
X-285882Y-35701D01*
X-286883Y-35433D01*
D02*
G37*
G36*
X-293307D02*
X-301181D01*
Y-43307D01*
X-293307D01*
Y-35433D01*
D02*
G37*
G36*
X301197Y-39870D02*
X297744D01*
Y-43323D01*
X297764D01*
X298770Y-43053D01*
X299671Y-42533D01*
X300407Y-41797D01*
X300927Y-40896D01*
X301197Y-39891D01*
Y-39870D01*
D02*
G37*
G36*
X296744D02*
X293291D01*
Y-39891D01*
X293561Y-40896D01*
X294081Y-41797D01*
X294817Y-42533D01*
X295718Y-43053D01*
X296724Y-43323D01*
X296744D01*
Y-39870D01*
D02*
G37*
G36*
X-273606D02*
X-277059D01*
Y-43323D01*
X-277039D01*
X-276033Y-43053D01*
X-275132Y-42533D01*
X-274396Y-41797D01*
X-273876Y-40896D01*
X-273606Y-39891D01*
Y-39870D01*
D02*
G37*
G36*
X-278059D02*
X-281512D01*
Y-39891D01*
X-281242Y-40896D01*
X-280722Y-41797D01*
X-279986Y-42533D01*
X-279085Y-43053D01*
X-278079Y-43323D01*
X-278059D01*
Y-39870D01*
D02*
G37*
G36*
X143738Y-57284D02*
X142876D01*
X142080Y-57613D01*
X141471Y-58222D01*
X141142Y-59018D01*
Y-59879D01*
X141471Y-60675D01*
X142002Y-61207D01*
Y-91156D01*
X141471Y-91687D01*
X141142Y-92483D01*
Y-93344D01*
X141471Y-94140D01*
X142080Y-94749D01*
X142876Y-95079D01*
X143738D01*
X144534Y-94749D01*
X145143Y-94140D01*
X145472Y-93344D01*
Y-92483D01*
X145143Y-91687D01*
X144612Y-91156D01*
Y-61207D01*
X145143Y-60675D01*
X145472Y-59879D01*
Y-59018D01*
X145143Y-58222D01*
X144534Y-57613D01*
X143738Y-57284D01*
D02*
G37*
G36*
X305627Y-81388D02*
X303822D01*
X302051Y-81740D01*
X300384Y-82431D01*
X298883Y-83434D01*
X297607Y-84710D01*
X296604Y-86211D01*
X295913Y-87878D01*
X295561Y-89649D01*
Y-91454D01*
X295913Y-93224D01*
X296604Y-94892D01*
X297607Y-96393D01*
X298883Y-97669D01*
X300384Y-98672D01*
X302051Y-99362D01*
X303822Y-99715D01*
X305627D01*
X307397Y-99362D01*
X309065Y-98672D01*
X310566Y-97669D01*
X311842Y-96393D01*
X312845Y-94892D01*
X313536Y-93224D01*
X313888Y-91454D01*
Y-89649D01*
X313536Y-87878D01*
X312845Y-86211D01*
X311842Y-84710D01*
X310566Y-83434D01*
X309065Y-82431D01*
X307397Y-81740D01*
X305627Y-81388D01*
D02*
G37*
G36*
X270981D02*
X269176D01*
X267406Y-81740D01*
X265738Y-82431D01*
X264237Y-83434D01*
X262961Y-84710D01*
X261958Y-86211D01*
X261267Y-87878D01*
X260915Y-89649D01*
Y-91454D01*
X261267Y-93224D01*
X261958Y-94892D01*
X262961Y-96393D01*
X264237Y-97669D01*
X265738Y-98672D01*
X267406Y-99362D01*
X269176Y-99715D01*
X270981D01*
X272752Y-99362D01*
X274419Y-98672D01*
X275920Y-97669D01*
X277196Y-96393D01*
X278199Y-94892D01*
X278890Y-93224D01*
X279242Y-91454D01*
Y-89649D01*
X278890Y-87878D01*
X278199Y-86211D01*
X277196Y-84710D01*
X275920Y-83434D01*
X274419Y-82431D01*
X272752Y-81740D01*
X270981Y-81388D01*
D02*
G37*
G36*
X-269176D02*
X-270981D01*
X-272752Y-81740D01*
X-274419Y-82431D01*
X-275920Y-83434D01*
X-277196Y-84710D01*
X-278199Y-86211D01*
X-278890Y-87878D01*
X-279242Y-89649D01*
Y-91454D01*
X-278890Y-93224D01*
X-278199Y-94892D01*
X-277196Y-96393D01*
X-275920Y-97669D01*
X-274419Y-98672D01*
X-272752Y-99362D01*
X-270981Y-99715D01*
X-269176D01*
X-267406Y-99362D01*
X-265738Y-98672D01*
X-264237Y-97669D01*
X-262961Y-96393D01*
X-261958Y-94892D01*
X-261267Y-93224D01*
X-260915Y-91454D01*
Y-89649D01*
X-261267Y-87878D01*
X-261958Y-86211D01*
X-262961Y-84710D01*
X-264237Y-83434D01*
X-265738Y-82431D01*
X-267406Y-81740D01*
X-269176Y-81388D01*
D02*
G37*
G36*
X-303822D02*
X-305627D01*
X-307397Y-81740D01*
X-309065Y-82431D01*
X-310566Y-83434D01*
X-311842Y-84710D01*
X-312845Y-86211D01*
X-313536Y-87878D01*
X-313888Y-89649D01*
Y-91454D01*
X-313536Y-93224D01*
X-312845Y-94892D01*
X-311842Y-96393D01*
X-310566Y-97669D01*
X-309065Y-98672D01*
X-307397Y-99362D01*
X-305627Y-99715D01*
X-303822D01*
X-302051Y-99362D01*
X-300384Y-98672D01*
X-298883Y-97669D01*
X-297607Y-96393D01*
X-296604Y-94892D01*
X-295913Y-93224D01*
X-295561Y-91454D01*
Y-89649D01*
X-295913Y-87878D01*
X-296604Y-86211D01*
X-297607Y-84710D01*
X-298883Y-83434D01*
X-300384Y-82431D01*
X-302051Y-81740D01*
X-303822Y-81388D01*
D02*
G37*
G36*
X49891Y-95472D02*
X48534D01*
X47203Y-95737D01*
X45949Y-96257D01*
X44821Y-97011D01*
X43861Y-97970D01*
X43107Y-99099D01*
X42588Y-100353D01*
X42323Y-101684D01*
Y-103041D01*
X42588Y-104372D01*
X43107Y-105626D01*
X43861Y-106754D01*
X44821Y-107714D01*
X45949Y-108468D01*
X47203Y-108987D01*
X48534Y-109252D01*
X49891D01*
X51222Y-108987D01*
X52476Y-108468D01*
X53605Y-107714D01*
X54564Y-106754D01*
X55318Y-105626D01*
X55838Y-104372D01*
X56102Y-103041D01*
Y-101684D01*
X55838Y-100353D01*
X55318Y-99099D01*
X54564Y-97970D01*
X53605Y-97011D01*
X52476Y-96257D01*
X51222Y-95737D01*
X49891Y-95472D01*
D02*
G37*
G36*
X-48534D02*
X-49891D01*
X-51222Y-95737D01*
X-52476Y-96257D01*
X-53605Y-97011D01*
X-54564Y-97970D01*
X-55318Y-99099D01*
X-55838Y-100353D01*
X-56102Y-101684D01*
Y-103041D01*
X-55838Y-104372D01*
X-55318Y-105626D01*
X-54564Y-106754D01*
X-53605Y-107714D01*
X-52476Y-108468D01*
X-51222Y-108987D01*
X-49891Y-109252D01*
X-48534D01*
X-47203Y-108987D01*
X-45949Y-108468D01*
X-44821Y-107714D01*
X-43861Y-106754D01*
X-43107Y-105626D01*
X-42588Y-104372D01*
X-42323Y-103041D01*
Y-101684D01*
X-42588Y-100353D01*
X-43107Y-99099D01*
X-43861Y-97970D01*
X-44821Y-97011D01*
X-45949Y-96257D01*
X-47203Y-95737D01*
X-48534Y-95472D01*
D02*
G37*
G36*
X-146959D02*
X-148316D01*
X-149647Y-95737D01*
X-150901Y-96257D01*
X-152030Y-97011D01*
X-152989Y-97970D01*
X-153743Y-99099D01*
X-154263Y-100353D01*
X-154527Y-101684D01*
Y-103041D01*
X-154263Y-104372D01*
X-153743Y-105626D01*
X-152989Y-106754D01*
X-152030Y-107714D01*
X-150901Y-108468D01*
X-149647Y-108987D01*
X-148316Y-109252D01*
X-146959D01*
X-145628Y-108987D01*
X-144374Y-108468D01*
X-143246Y-107714D01*
X-142286Y-106754D01*
X-141532Y-105626D01*
X-141013Y-104372D01*
X-140748Y-103041D01*
Y-101684D01*
X-141013Y-100353D01*
X-141532Y-99099D01*
X-142286Y-97970D01*
X-143246Y-97011D01*
X-144374Y-96257D01*
X-145628Y-95737D01*
X-146959Y-95472D01*
D02*
G37*
G36*
X148316Y-95473D02*
X146959D01*
X145628Y-95737D01*
X144374Y-96257D01*
X143246Y-97011D01*
X142286Y-97970D01*
X141532Y-99099D01*
X141013Y-100353D01*
X140748Y-101684D01*
Y-103041D01*
X141013Y-104372D01*
X141532Y-105626D01*
X142286Y-106754D01*
X143246Y-107714D01*
X144374Y-108468D01*
X145628Y-108987D01*
X146959Y-109252D01*
X148316D01*
X149647Y-108987D01*
X150901Y-108468D01*
X152030Y-107714D01*
X152989Y-106754D01*
X153743Y-105626D01*
X154263Y-104372D01*
X154528Y-103041D01*
Y-101684D01*
X154263Y-100353D01*
X153743Y-99099D01*
X152989Y-97970D01*
X152030Y-97011D01*
X150901Y-96257D01*
X149647Y-95737D01*
X148316Y-95473D01*
D02*
G37*
G36*
X297764Y-114157D02*
X297744D01*
Y-117610D01*
X301197D01*
Y-117590D01*
X300927Y-116585D01*
X300407Y-115683D01*
X299671Y-114947D01*
X298770Y-114427D01*
X297764Y-114157D01*
D02*
G37*
G36*
X296744D02*
X296724D01*
X295718Y-114427D01*
X294817Y-114947D01*
X294081Y-115683D01*
X293561Y-116585D01*
X293291Y-117590D01*
Y-117610D01*
X296744D01*
Y-114157D01*
D02*
G37*
G36*
X-277039D02*
X-277059D01*
Y-117610D01*
X-273606D01*
Y-117590D01*
X-273876Y-116585D01*
X-274396Y-115683D01*
X-275132Y-114947D01*
X-276033Y-114427D01*
X-277039Y-114157D01*
D02*
G37*
G36*
X-278059D02*
X-278079D01*
X-279085Y-114427D01*
X-279986Y-114947D01*
X-280722Y-115683D01*
X-281242Y-116585D01*
X-281512Y-117590D01*
Y-117610D01*
X-278059D01*
Y-114157D01*
D02*
G37*
G36*
X287920Y-114173D02*
X286883D01*
X285882Y-114442D01*
X284984Y-114960D01*
X284251Y-115693D01*
X283733Y-116591D01*
X283465Y-117592D01*
Y-118629D01*
X283733Y-119630D01*
X284251Y-120528D01*
X284984Y-121261D01*
X285882Y-121779D01*
X286883Y-122047D01*
X287920D01*
X288921Y-121779D01*
X289819Y-121261D01*
X290552Y-120528D01*
X291070Y-119630D01*
X291339Y-118629D01*
Y-117592D01*
X291070Y-116591D01*
X290552Y-115693D01*
X289819Y-114960D01*
X288921Y-114442D01*
X287920Y-114173D01*
D02*
G37*
G36*
X281496D02*
X273622D01*
Y-122047D01*
X281496D01*
Y-114173D01*
D02*
G37*
G36*
X-286883D02*
X-287920D01*
X-288921Y-114442D01*
X-289819Y-114960D01*
X-290552Y-115693D01*
X-291070Y-116591D01*
X-291339Y-117592D01*
Y-118629D01*
X-291070Y-119630D01*
X-290552Y-120528D01*
X-289819Y-121261D01*
X-288921Y-121779D01*
X-287920Y-122047D01*
X-286883D01*
X-285882Y-121779D01*
X-284984Y-121261D01*
X-284251Y-120528D01*
X-283733Y-119630D01*
X-283465Y-118629D01*
Y-117592D01*
X-283733Y-116591D01*
X-284251Y-115693D01*
X-284984Y-114960D01*
X-285882Y-114442D01*
X-286883Y-114173D01*
D02*
G37*
G36*
X-293307D02*
X-301181D01*
Y-122047D01*
X-293307D01*
Y-114173D01*
D02*
G37*
G36*
X301197Y-118610D02*
X297744D01*
Y-122063D01*
X297764D01*
X298770Y-121794D01*
X299671Y-121273D01*
X300407Y-120537D01*
X300927Y-119636D01*
X301197Y-118631D01*
Y-118610D01*
D02*
G37*
G36*
X296744D02*
X293291D01*
Y-118631D01*
X293561Y-119636D01*
X294081Y-120537D01*
X294817Y-121273D01*
X295718Y-121794D01*
X296724Y-122063D01*
X296744D01*
Y-118610D01*
D02*
G37*
G36*
X-273606D02*
X-277059D01*
Y-122063D01*
X-277039D01*
X-276033Y-121794D01*
X-275132Y-121273D01*
X-274396Y-120537D01*
X-273876Y-119636D01*
X-273606Y-118631D01*
Y-118610D01*
D02*
G37*
G36*
X-278059D02*
X-281512D01*
Y-118631D01*
X-281242Y-119636D01*
X-280722Y-120537D01*
X-279986Y-121273D01*
X-279085Y-121794D01*
X-278079Y-122063D01*
X-278059D01*
Y-118610D01*
D02*
G37*
G36*
X-108821Y-138583D02*
X-109683D01*
X-110478Y-138912D01*
X-110709Y-139142D01*
X-143299D01*
Y-139137D01*
X-145115Y-139280D01*
X-146887Y-139706D01*
X-148570Y-140403D01*
X-150123Y-141355D01*
X-151509Y-142538D01*
X-151509D01*
X-152445Y-143129D01*
X-153195Y-143440D01*
X-153804Y-144049D01*
X-154134Y-144845D01*
Y-145706D01*
X-153804Y-146502D01*
X-153195Y-147111D01*
X-152399Y-147441D01*
X-151538D01*
X-150742Y-147111D01*
X-150133Y-146502D01*
X-149803Y-145706D01*
Y-145381D01*
X-149234Y-144812D01*
X-149234Y-144812D01*
X-148362Y-144068D01*
X-147974Y-143751D01*
X-146519Y-142973D01*
X-145396Y-142632D01*
X-144770Y-143677D01*
X-145143Y-144049D01*
X-145472Y-144845D01*
Y-145596D01*
X-154490Y-154613D01*
X-154497Y-154606D01*
X-155650Y-155956D01*
X-156577Y-157470D01*
X-157257Y-159110D01*
X-157671Y-160837D01*
X-157810Y-162607D01*
X-157801D01*
Y-195093D01*
X-158332Y-195624D01*
X-158661Y-196420D01*
Y-197281D01*
X-158332Y-198077D01*
X-157723Y-198686D01*
X-156927Y-199016D01*
X-156065D01*
X-155270Y-198686D01*
X-154660Y-198077D01*
X-154331Y-197281D01*
Y-196420D01*
X-154660Y-195624D01*
X-155192Y-195093D01*
Y-162607D01*
X-155203Y-162549D01*
X-155041Y-160907D01*
X-154701Y-159786D01*
X-153548Y-159505D01*
X-153355Y-159550D01*
X-153195Y-159710D01*
X-152399Y-160039D01*
X-151538D01*
X-150742Y-159710D01*
X-150133Y-159101D01*
X-149803Y-158305D01*
Y-157554D01*
X-139802Y-147552D01*
X-139769Y-147504D01*
X-138494Y-146457D01*
X-136987Y-145651D01*
X-135353Y-145156D01*
X-133710Y-144994D01*
X-133653Y-145005D01*
X-103121D01*
X-102762Y-146186D01*
X-102817Y-146223D01*
X-103777Y-147183D01*
X-104531Y-148311D01*
X-105050Y-149565D01*
X-105315Y-150896D01*
Y-152253D01*
X-105050Y-153585D01*
X-104531Y-154838D01*
X-103777Y-155967D01*
X-102817Y-156926D01*
X-101689Y-157680D01*
X-100435Y-158200D01*
X-99104Y-158465D01*
X-97747D01*
X-96416Y-158200D01*
X-95162Y-157680D01*
X-94033Y-156926D01*
X-93074Y-155967D01*
X-92320Y-154838D01*
X-91800Y-153585D01*
X-91535Y-152253D01*
Y-150896D01*
X-91800Y-149565D01*
X-92320Y-148311D01*
X-93074Y-147183D01*
X-94033Y-146223D01*
X-94088Y-146186D01*
X-93730Y-145005D01*
X-74024D01*
X-73967Y-144994D01*
X-72324Y-145156D01*
X-70690Y-145651D01*
X-69184Y-146457D01*
X-68755Y-146809D01*
X-67885Y-147562D01*
X-67885Y-147562D01*
X-66655Y-148572D01*
X-65251Y-149322D01*
X-63727Y-149785D01*
X-62143Y-149941D01*
Y-149927D01*
X-51017D01*
Y-149940D01*
X-49447Y-149786D01*
X-48763Y-149578D01*
X-48137Y-150623D01*
X-53223Y-155709D01*
X-53974D01*
X-54770Y-156038D01*
X-55379Y-156647D01*
X-55709Y-157443D01*
Y-158305D01*
X-55379Y-159101D01*
X-54770Y-159710D01*
X-53974Y-160039D01*
X-53113D01*
X-52317Y-159710D01*
X-51708Y-159101D01*
X-51378Y-158305D01*
Y-157554D01*
X-41377Y-147552D01*
X-41344Y-147504D01*
X-40068Y-146457D01*
X-38562Y-145651D01*
X-36928Y-145156D01*
X-35285Y-144994D01*
X-35228Y-145005D01*
X24401D01*
X24458Y-144994D01*
X26101Y-145156D01*
X27735Y-145651D01*
X29241Y-146457D01*
X29671Y-146809D01*
X30540Y-147562D01*
X30540Y-147562D01*
X31770Y-148572D01*
X33174Y-149322D01*
X34698Y-149785D01*
X36282Y-149941D01*
Y-149927D01*
X47408D01*
Y-149940D01*
X48979Y-149786D01*
X49662Y-149578D01*
X50288Y-150623D01*
X45202Y-155709D01*
X44451D01*
X43655Y-156038D01*
X43046Y-156647D01*
X42717Y-157443D01*
Y-158305D01*
X43046Y-159101D01*
X43655Y-159710D01*
X44451Y-160039D01*
X45313D01*
X46108Y-159710D01*
X46718Y-159101D01*
X47047Y-158305D01*
Y-157554D01*
X57049Y-147552D01*
X57081Y-147504D01*
X58357Y-146457D01*
X59863Y-145651D01*
X61497Y-145156D01*
X63140Y-144994D01*
X63197Y-145005D01*
X93730D01*
X94088Y-146186D01*
X94033Y-146223D01*
X93074Y-147183D01*
X92320Y-148311D01*
X91800Y-149565D01*
X91535Y-150896D01*
Y-152253D01*
X91800Y-153585D01*
X92320Y-154838D01*
X93074Y-155967D01*
X94033Y-156926D01*
X95162Y-157680D01*
X96416Y-158200D01*
X97747Y-158465D01*
X99104D01*
X100435Y-158200D01*
X101689Y-157680D01*
X102817Y-156926D01*
X103777Y-155967D01*
X104531Y-154838D01*
X105050Y-153585D01*
X105315Y-152253D01*
Y-150896D01*
X105050Y-149565D01*
X104531Y-148311D01*
X103777Y-147183D01*
X102817Y-146223D01*
X102762Y-146186D01*
X103121Y-145005D01*
X122826D01*
X122884Y-144994D01*
X124526Y-145156D01*
X126161Y-145651D01*
X127667Y-146457D01*
X128096Y-146809D01*
X128965Y-147562D01*
X128965Y-147562D01*
X130196Y-148572D01*
X131600Y-149322D01*
X133123Y-149785D01*
X134707Y-149941D01*
Y-149927D01*
X145833D01*
Y-149940D01*
X147404Y-149786D01*
X148914Y-149327D01*
X150306Y-148583D01*
X151526Y-147582D01*
X152399Y-147441D01*
X152399Y-147441D01*
X152612Y-147353D01*
X153195Y-147111D01*
X153804Y-146502D01*
X154134Y-145706D01*
Y-144845D01*
X153804Y-144049D01*
X153195Y-143440D01*
X152399Y-143110D01*
X151538D01*
X150742Y-143440D01*
X150133Y-144049D01*
X149803Y-144845D01*
Y-145596D01*
X149672Y-145727D01*
X149635Y-145783D01*
X148558Y-146609D01*
X147244Y-147153D01*
X145985Y-147319D01*
X145719Y-147068D01*
X145294Y-146136D01*
X145472Y-145706D01*
Y-144845D01*
X145143Y-144049D01*
X144534Y-143440D01*
X143738Y-143110D01*
X142876D01*
X142080Y-143440D01*
X141850Y-143670D01*
X137084D01*
X137032Y-143680D01*
X135689Y-143548D01*
X134349Y-143141D01*
X133113Y-142481D01*
X132919Y-142322D01*
X132047Y-141575D01*
X132047Y-141575D01*
X130784Y-140538D01*
X129343Y-139768D01*
X127779Y-139293D01*
X126153Y-139133D01*
Y-139142D01*
X53552D01*
Y-139137D01*
X51735Y-139280D01*
X49964Y-139706D01*
X48281Y-140403D01*
X46727Y-141355D01*
X45342Y-142538D01*
X45342D01*
X44405Y-143129D01*
X43655Y-143440D01*
X43425Y-143670D01*
X38658D01*
X38607Y-143680D01*
X37264Y-143548D01*
X35923Y-143141D01*
X34688Y-142481D01*
X34494Y-142322D01*
X33622Y-141575D01*
X33622Y-141575D01*
X32359Y-140538D01*
X30918Y-139768D01*
X29354Y-139293D01*
X27728Y-139133D01*
Y-139142D01*
X-44874D01*
Y-139137D01*
X-46690Y-139280D01*
X-48461Y-139706D01*
X-50145Y-140403D01*
X-51698Y-141355D01*
X-53083Y-142538D01*
X-53083D01*
X-54020Y-143129D01*
X-54770Y-143440D01*
X-55000Y-143670D01*
X-59767D01*
X-59818Y-143680D01*
X-61161Y-143548D01*
X-62502Y-143141D01*
X-63737Y-142481D01*
X-63931Y-142322D01*
X-64803Y-141575D01*
X-64803Y-141575D01*
X-66066Y-140538D01*
X-67507Y-139768D01*
X-69071Y-139293D01*
X-70697Y-139133D01*
Y-139142D01*
X-107795D01*
X-108025Y-138912D01*
X-108821Y-138583D01*
D02*
G37*
G36*
X233858Y-165256D02*
X221850D01*
Y-177264D01*
X233858D01*
Y-165256D01*
D02*
G37*
G36*
X213682D02*
X212499D01*
X211339Y-165487D01*
X210247Y-165939D01*
X209263Y-166596D01*
X208427Y-167433D01*
X207770Y-168416D01*
X207317Y-169509D01*
X207087Y-170668D01*
Y-171851D01*
X207317Y-173011D01*
X207770Y-174104D01*
X208427Y-175087D01*
X209263Y-175923D01*
X210247Y-176580D01*
X211339Y-177033D01*
X212499Y-177264D01*
X213682D01*
X214842Y-177033D01*
X215934Y-176580D01*
X216918Y-175923D01*
X217754Y-175087D01*
X218411Y-174104D01*
X218864Y-173011D01*
X219094Y-171851D01*
Y-170668D01*
X218864Y-169509D01*
X218411Y-168416D01*
X217754Y-167433D01*
X216918Y-166596D01*
X215934Y-165939D01*
X214842Y-165487D01*
X213682Y-165256D01*
D02*
G37*
G36*
X-207087D02*
X-219094D01*
Y-177264D01*
X-207087D01*
Y-165256D01*
D02*
G37*
G36*
X-227263D02*
X-228446D01*
X-229606Y-165487D01*
X-230698Y-165939D01*
X-231682Y-166596D01*
X-232518Y-167433D01*
X-233175Y-168416D01*
X-233628Y-169509D01*
X-233858Y-170668D01*
Y-171851D01*
X-233628Y-173011D01*
X-233175Y-174104D01*
X-232518Y-175087D01*
X-231682Y-175923D01*
X-230698Y-176580D01*
X-229606Y-177033D01*
X-228446Y-177264D01*
X-227263D01*
X-226103Y-177033D01*
X-225010Y-176580D01*
X-224027Y-175923D01*
X-223191Y-175087D01*
X-222534Y-174104D01*
X-222081Y-173011D01*
X-221850Y-171851D01*
Y-170668D01*
X-222081Y-169509D01*
X-222534Y-168416D01*
X-223191Y-167433D01*
X-224027Y-166596D01*
X-225010Y-165939D01*
X-226103Y-165487D01*
X-227263Y-165256D01*
D02*
G37*
G36*
X305627Y-160128D02*
X303822D01*
X302051Y-160480D01*
X300384Y-161171D01*
X298883Y-162174D01*
X297607Y-163450D01*
X296604Y-164951D01*
X295913Y-166619D01*
X295561Y-168389D01*
Y-170194D01*
X295913Y-171964D01*
X296604Y-173632D01*
X297607Y-175133D01*
X298883Y-176409D01*
X300384Y-177412D01*
X302051Y-178103D01*
X303822Y-178455D01*
X305627D01*
X307397Y-178103D01*
X309065Y-177412D01*
X310566Y-176409D01*
X311842Y-175133D01*
X312845Y-173632D01*
X313536Y-171964D01*
X313888Y-170194D01*
Y-168389D01*
X313536Y-166619D01*
X312845Y-164951D01*
X311842Y-163450D01*
X310566Y-162174D01*
X309065Y-161171D01*
X307397Y-160480D01*
X305627Y-160128D01*
D02*
G37*
G36*
X270981D02*
X269176D01*
X267406Y-160480D01*
X265738Y-161171D01*
X264237Y-162174D01*
X262961Y-163450D01*
X261958Y-164951D01*
X261267Y-166619D01*
X260915Y-168389D01*
Y-170194D01*
X261267Y-171964D01*
X261958Y-173632D01*
X262961Y-175133D01*
X264237Y-176409D01*
X265738Y-177412D01*
X267406Y-178103D01*
X269176Y-178455D01*
X270981D01*
X272752Y-178103D01*
X274419Y-177412D01*
X275920Y-176409D01*
X277196Y-175133D01*
X278199Y-173632D01*
X278890Y-171964D01*
X279242Y-170194D01*
Y-168389D01*
X278890Y-166619D01*
X278199Y-164951D01*
X277196Y-163450D01*
X275920Y-162174D01*
X274419Y-161171D01*
X272752Y-160480D01*
X270981Y-160128D01*
D02*
G37*
G36*
X-269176D02*
X-270981D01*
X-272752Y-160480D01*
X-274419Y-161171D01*
X-275920Y-162174D01*
X-277196Y-163450D01*
X-278199Y-164951D01*
X-278890Y-166619D01*
X-279242Y-168389D01*
Y-170194D01*
X-278890Y-171964D01*
X-278199Y-173632D01*
X-277196Y-175133D01*
X-275920Y-176409D01*
X-274419Y-177412D01*
X-272752Y-178103D01*
X-270981Y-178455D01*
X-269176D01*
X-267406Y-178103D01*
X-265738Y-177412D01*
X-264237Y-176409D01*
X-262961Y-175133D01*
X-261958Y-173632D01*
X-261267Y-171964D01*
X-260915Y-170194D01*
Y-168389D01*
X-261267Y-166619D01*
X-261958Y-164951D01*
X-262961Y-163450D01*
X-264237Y-162174D01*
X-265738Y-161171D01*
X-267406Y-160480D01*
X-269176Y-160128D01*
D02*
G37*
G36*
X-303822D02*
X-305627D01*
X-307397Y-160480D01*
X-309065Y-161171D01*
X-310566Y-162174D01*
X-311842Y-163450D01*
X-312845Y-164951D01*
X-313536Y-166619D01*
X-313888Y-168389D01*
Y-170194D01*
X-313536Y-171964D01*
X-312845Y-173632D01*
X-311842Y-175133D01*
X-310566Y-176409D01*
X-309065Y-177412D01*
X-307397Y-178103D01*
X-305627Y-178455D01*
X-303822D01*
X-302051Y-178103D01*
X-300384Y-177412D01*
X-298883Y-176409D01*
X-297607Y-175133D01*
X-296604Y-173632D01*
X-295913Y-171964D01*
X-295561Y-170194D01*
Y-168389D01*
X-295913Y-166619D01*
X-296604Y-164951D01*
X-297607Y-163450D01*
X-298883Y-162174D01*
X-300384Y-161171D01*
X-302051Y-160480D01*
X-303822Y-160128D01*
D02*
G37*
G36*
X297764Y-192898D02*
X297744D01*
Y-196350D01*
X301197D01*
Y-196330D01*
X300927Y-195325D01*
X300407Y-194423D01*
X299671Y-193687D01*
X298770Y-193167D01*
X297764Y-192898D01*
D02*
G37*
G36*
X296744D02*
X296724D01*
X295718Y-193167D01*
X294817Y-193687D01*
X294081Y-194423D01*
X293561Y-195325D01*
X293291Y-196330D01*
Y-196350D01*
X296744D01*
Y-192898D01*
D02*
G37*
G36*
X-277039D02*
X-277059D01*
Y-196350D01*
X-273606D01*
Y-196330D01*
X-273876Y-195325D01*
X-274396Y-194423D01*
X-275132Y-193687D01*
X-276033Y-193167D01*
X-277039Y-192898D01*
D02*
G37*
G36*
X-278059D02*
X-278079D01*
X-279085Y-193167D01*
X-279986Y-193687D01*
X-280722Y-194423D01*
X-281242Y-195325D01*
X-281512Y-196330D01*
Y-196350D01*
X-278059D01*
Y-192898D01*
D02*
G37*
G36*
X287920Y-192913D02*
X286883D01*
X285882Y-193182D01*
X284984Y-193700D01*
X284251Y-194433D01*
X283733Y-195331D01*
X283465Y-196332D01*
Y-197369D01*
X283733Y-198370D01*
X284251Y-199268D01*
X284984Y-200001D01*
X285882Y-200519D01*
X286883Y-200787D01*
X287920D01*
X288921Y-200519D01*
X289819Y-200001D01*
X290552Y-199268D01*
X291070Y-198370D01*
X291339Y-197369D01*
Y-196332D01*
X291070Y-195331D01*
X290552Y-194433D01*
X289819Y-193700D01*
X288921Y-193182D01*
X287920Y-192913D01*
D02*
G37*
G36*
X281496D02*
X273622D01*
Y-200787D01*
X281496D01*
Y-192913D01*
D02*
G37*
G36*
X-286883D02*
X-287920D01*
X-288921Y-193182D01*
X-289819Y-193700D01*
X-290552Y-194433D01*
X-291070Y-195331D01*
X-291339Y-196332D01*
Y-197369D01*
X-291070Y-198370D01*
X-290552Y-199268D01*
X-289819Y-200001D01*
X-288921Y-200519D01*
X-287920Y-200787D01*
X-286883D01*
X-285882Y-200519D01*
X-284984Y-200001D01*
X-284251Y-199268D01*
X-283733Y-198370D01*
X-283465Y-197369D01*
Y-196332D01*
X-283733Y-195331D01*
X-284251Y-194433D01*
X-284984Y-193700D01*
X-285882Y-193182D01*
X-286883Y-192913D01*
D02*
G37*
G36*
X-293307D02*
X-301181D01*
Y-200787D01*
X-293307D01*
Y-192913D01*
D02*
G37*
G36*
X301197Y-197350D02*
X297744D01*
Y-200803D01*
X297764D01*
X298770Y-200534D01*
X299671Y-200013D01*
X300407Y-199277D01*
X300927Y-198376D01*
X301197Y-197371D01*
Y-197350D01*
D02*
G37*
G36*
X296744D02*
X293291D01*
Y-197371D01*
X293561Y-198376D01*
X294081Y-199277D01*
X294817Y-200013D01*
X295718Y-200534D01*
X296724Y-200803D01*
X296744D01*
Y-197350D01*
D02*
G37*
G36*
X-273606D02*
X-277059D01*
Y-200803D01*
X-277039D01*
X-276033Y-200534D01*
X-275132Y-200013D01*
X-274396Y-199277D01*
X-273876Y-198376D01*
X-273606Y-197371D01*
Y-197350D01*
D02*
G37*
G36*
X-278059D02*
X-281512D01*
Y-197371D01*
X-281242Y-198376D01*
X-280722Y-199277D01*
X-279986Y-200013D01*
X-279085Y-200534D01*
X-278079Y-200803D01*
X-278059D01*
Y-197350D01*
D02*
G37*
G36*
X187008Y-178307D02*
X185031Y-178463D01*
X183103Y-178926D01*
X181271Y-179685D01*
X179580Y-180721D01*
X178072Y-182009D01*
X176784Y-183517D01*
X175748Y-185208D01*
X174989Y-187040D01*
X174526Y-188968D01*
X174371Y-190945D01*
X174526Y-192922D01*
X174989Y-194850D01*
X175748Y-196682D01*
X176784Y-198373D01*
X178072Y-199881D01*
X179580Y-201169D01*
X181271Y-202205D01*
X183103Y-202964D01*
X185031Y-203427D01*
X187008Y-203582D01*
X188985Y-203427D01*
X190913Y-202964D01*
X192745Y-202205D01*
X194436Y-201169D01*
X195944Y-199881D01*
X197232Y-198373D01*
X198268Y-196682D01*
X199027Y-194850D01*
X199490Y-192922D01*
X199645Y-190945D01*
X199490Y-188968D01*
X199027Y-187040D01*
X198268Y-185208D01*
X197232Y-183517D01*
X195944Y-182009D01*
X194436Y-180721D01*
X192745Y-179685D01*
X190913Y-178926D01*
X188985Y-178463D01*
X187008Y-178307D01*
D02*
G37*
G36*
X-187008Y-178307D02*
X-188985Y-178463D01*
X-190913Y-178926D01*
X-192745Y-179685D01*
X-194436Y-180721D01*
X-195944Y-182009D01*
X-197232Y-183517D01*
X-198268Y-185208D01*
X-199027Y-187040D01*
X-199490Y-188968D01*
X-199645Y-190945D01*
X-199490Y-192922D01*
X-199027Y-194850D01*
X-198268Y-196682D01*
X-197232Y-198373D01*
X-195944Y-199881D01*
X-194436Y-201169D01*
X-192745Y-202205D01*
X-190913Y-202964D01*
X-188985Y-203427D01*
X-187008Y-203582D01*
X-185031Y-203427D01*
X-183103Y-202964D01*
X-181271Y-202205D01*
X-179580Y-201169D01*
X-178072Y-199881D01*
X-176784Y-198373D01*
X-175748Y-196682D01*
X-174989Y-194850D01*
X-174526Y-192922D01*
X-174371Y-190945D01*
X-174526Y-188968D01*
X-174989Y-187040D01*
X-175748Y-185208D01*
X-176784Y-183517D01*
X-178072Y-182009D01*
X-179580Y-180721D01*
X-181271Y-179685D01*
X-183103Y-178926D01*
X-185031Y-178463D01*
X-187008Y-178307D01*
D02*
G37*
G36*
X-68306Y-211024D02*
X-69489D01*
X-70649Y-211254D01*
X-71742Y-211707D01*
X-72725Y-212364D01*
X-73561Y-213200D01*
X-74218Y-214184D01*
X-74671Y-215276D01*
X-74902Y-216436D01*
Y-217619D01*
X-74671Y-218779D01*
X-74218Y-219871D01*
X-73561Y-220855D01*
X-72725Y-221691D01*
X-71742Y-222348D01*
X-70649Y-222801D01*
X-69489Y-223031D01*
X-68306D01*
X-67146Y-222801D01*
X-66054Y-222348D01*
X-65070Y-221691D01*
X-64234Y-220855D01*
X-63577Y-219871D01*
X-63124Y-218779D01*
X-62894Y-217619D01*
Y-216436D01*
X-63124Y-215276D01*
X-63577Y-214184D01*
X-64234Y-213200D01*
X-65070Y-212364D01*
X-66054Y-211707D01*
X-67146Y-211254D01*
X-68306Y-211024D01*
D02*
G37*
G36*
X69490Y-225772D02*
X69398D01*
Y-231291D01*
X74917D01*
Y-231199D01*
X74686Y-230035D01*
X74232Y-228940D01*
X73573Y-227954D01*
X72735Y-227116D01*
X71749Y-226457D01*
X70653Y-226003D01*
X69490Y-225772D01*
D02*
G37*
G36*
X68398D02*
X68305D01*
X67142Y-226003D01*
X66046Y-226457D01*
X65060Y-227116D01*
X64222Y-227954D01*
X63563Y-228940D01*
X63109Y-230035D01*
X62878Y-231199D01*
Y-231291D01*
X68398D01*
Y-225772D01*
D02*
G37*
G36*
X287402Y-211772D02*
X285425Y-211928D01*
X283496Y-212391D01*
X281664Y-213149D01*
X279974Y-214186D01*
X278466Y-215474D01*
X277178Y-216981D01*
X276142Y-218672D01*
X275383Y-220504D01*
X274920Y-222432D01*
X274764Y-224410D01*
X274920Y-226386D01*
X275383Y-228315D01*
X276142Y-230147D01*
X277178Y-231838D01*
X278466Y-233345D01*
X279974Y-234633D01*
X281664Y-235669D01*
X283496Y-236428D01*
X285425Y-236891D01*
X287402Y-237047D01*
X289378Y-236891D01*
X291307Y-236428D01*
X293139Y-235669D01*
X294830Y-234633D01*
X296338Y-233345D01*
X297625Y-231838D01*
X298662Y-230147D01*
X299420Y-228315D01*
X299883Y-226386D01*
X300039Y-224410D01*
X299883Y-222432D01*
X299420Y-220504D01*
X298662Y-218672D01*
X297625Y-216981D01*
X296338Y-215474D01*
X294830Y-214186D01*
X293139Y-213149D01*
X291307Y-212391D01*
X289378Y-211928D01*
X287402Y-211772D01*
D02*
G37*
G36*
X-287402D02*
X-289378Y-211928D01*
X-291307Y-212391D01*
X-293139Y-213149D01*
X-294830Y-214186D01*
X-296338Y-215474D01*
X-297625Y-216981D01*
X-298662Y-218672D01*
X-299420Y-220504D01*
X-299883Y-222432D01*
X-300039Y-224410D01*
X-299883Y-226386D01*
X-299420Y-228315D01*
X-298662Y-230147D01*
X-297625Y-231838D01*
X-296338Y-233345D01*
X-294830Y-234633D01*
X-293139Y-235669D01*
X-291307Y-236428D01*
X-289378Y-236891D01*
X-287402Y-237047D01*
X-285425Y-236891D01*
X-283496Y-236428D01*
X-281664Y-235669D01*
X-279974Y-234633D01*
X-278466Y-233345D01*
X-277178Y-231838D01*
X-276142Y-230147D01*
X-275383Y-228315D01*
X-274920Y-226386D01*
X-274764Y-224410D01*
X-274920Y-222432D01*
X-275383Y-220504D01*
X-276142Y-218672D01*
X-277178Y-216981D01*
X-278466Y-215474D01*
X-279974Y-214186D01*
X-281664Y-213149D01*
X-283496Y-212391D01*
X-285425Y-211928D01*
X-287402Y-211772D01*
D02*
G37*
G36*
X-62894Y-225787D02*
X-74902D01*
Y-237795D01*
X-62894D01*
Y-225787D01*
D02*
G37*
G36*
X74917Y-232291D02*
X69398D01*
Y-237811D01*
X69490D01*
X70653Y-237580D01*
X71749Y-237126D01*
X72735Y-236467D01*
X73573Y-235629D01*
X74232Y-234643D01*
X74686Y-233547D01*
X74917Y-232384D01*
Y-232291D01*
D02*
G37*
G36*
X68398D02*
X62878D01*
Y-232384D01*
X63109Y-233547D01*
X63563Y-234643D01*
X64222Y-235629D01*
X65060Y-236467D01*
X66046Y-237126D01*
X67142Y-237580D01*
X68305Y-237811D01*
X68398D01*
Y-232291D01*
D02*
G37*
%LPD*%
G36*
X138133Y402D02*
X138029Y503D01*
X137823Y673D01*
X137721Y742D01*
X137620Y801D01*
X137520Y848D01*
X137420Y886D01*
X137321Y912D01*
X137222Y928D01*
X137124Y934D01*
Y1524D01*
X137222Y1529D01*
X137321Y1545D01*
X137420Y1572D01*
X137520Y1609D01*
X137620Y1657D01*
X137721Y1715D01*
X137823Y1784D01*
X137926Y1864D01*
X138029Y1955D01*
X138133Y2056D01*
Y402D01*
D02*
G37*
G36*
X126116Y1943D02*
X126330Y1777D01*
X126435Y1710D01*
X126538Y1653D01*
X126641Y1607D01*
X126742Y1571D01*
X126841Y1545D01*
X126939Y1529D01*
X127036Y1524D01*
X127060Y934D01*
X126961Y928D01*
X126862Y912D01*
X126763Y884D01*
X126665Y846D01*
X126566Y797D01*
X126467Y738D01*
X126369Y667D01*
X126270Y585D01*
X126172Y493D01*
X126073Y389D01*
X126006Y2041D01*
X126116Y1943D01*
D02*
G37*
G36*
X-108470Y1075D02*
X-108510Y1015D01*
X-108546Y948D01*
X-108576Y872D01*
X-108602Y787D01*
X-108624Y694D01*
X-108640Y593D01*
X-108652Y483D01*
X-108661Y237D01*
X-109843D01*
X-109845Y364D01*
X-109864Y593D01*
X-109880Y694D01*
X-109902Y787D01*
X-109928Y872D01*
X-109958Y948D01*
X-109994Y1015D01*
X-110034Y1075D01*
X-110079Y1125D01*
X-108425D01*
X-108470Y1075D01*
D02*
G37*
G36*
X-108659Y-18618D02*
X-108640Y-18847D01*
X-108624Y-18948D01*
X-108602Y-19041D01*
X-108576Y-19126D01*
X-108546Y-19202D01*
X-108510Y-19269D01*
X-108470Y-19329D01*
X-108425Y-19379D01*
X-110079D01*
X-110034Y-19329D01*
X-109994Y-19269D01*
X-109958Y-19202D01*
X-109928Y-19126D01*
X-109902Y-19041D01*
X-109880Y-18948D01*
X-109864Y-18847D01*
X-109852Y-18737D01*
X-109843Y-18491D01*
X-108661D01*
X-108659Y-18618D01*
D02*
G37*
G36*
X-108358Y-41541D02*
X-108299Y-41581D01*
X-108231Y-41616D01*
X-108155Y-41647D01*
X-108071Y-41673D01*
X-107978Y-41695D01*
X-107876Y-41711D01*
X-107766Y-41723D01*
X-107520Y-41732D01*
Y-42913D01*
X-107648Y-42916D01*
X-107876Y-42935D01*
X-107978Y-42951D01*
X-108071Y-42972D01*
X-108155Y-42998D01*
X-108231Y-43029D01*
X-108299Y-43065D01*
X-108358Y-43105D01*
X-108408Y-43150D01*
Y-41496D01*
X-108358Y-41541D01*
D02*
G37*
G36*
X-110095Y-43150D02*
X-110146Y-43105D01*
X-110205Y-43065D01*
X-110273Y-43029D01*
X-110349Y-42998D01*
X-110433Y-42972D01*
X-110526Y-42951D01*
X-110628Y-42935D01*
X-110738Y-42923D01*
X-110984Y-42913D01*
Y-41732D01*
X-110856Y-41730D01*
X-110628Y-41711D01*
X-110526Y-41695D01*
X-110433Y-41673D01*
X-110349Y-41647D01*
X-110273Y-41616D01*
X-110205Y-41581D01*
X-110146Y-41541D01*
X-110095Y-41496D01*
Y-43150D01*
D02*
G37*
G36*
X46524Y-46044D02*
X46436Y-46135D01*
X46287Y-46310D01*
X46227Y-46394D01*
X46176Y-46474D01*
X46135Y-46553D01*
X46103Y-46628D01*
X46080Y-46701D01*
X46067Y-46771D01*
X46063Y-46839D01*
X44894Y-45669D01*
X44961Y-45665D01*
X45031Y-45652D01*
X45104Y-45629D01*
X45180Y-45597D01*
X45258Y-45556D01*
X45339Y-45505D01*
X45422Y-45445D01*
X45508Y-45375D01*
X45689Y-45208D01*
X46524Y-46044D01*
D02*
G37*
G36*
X-51901D02*
X-51990Y-46135D01*
X-52138Y-46310D01*
X-52198Y-46394D01*
X-52249Y-46474D01*
X-52290Y-46553D01*
X-52322Y-46628D01*
X-52345Y-46701D01*
X-52358Y-46771D01*
X-52362Y-46839D01*
X-53531Y-45669D01*
X-53464Y-45665D01*
X-53394Y-45652D01*
X-53321Y-45629D01*
X-53246Y-45597D01*
X-53167Y-45556D01*
X-53087Y-45505D01*
X-53003Y-45445D01*
X-52917Y-45375D01*
X-52737Y-45208D01*
X-51901Y-46044D01*
D02*
G37*
G36*
X-150327D02*
X-150415Y-46135D01*
X-150563Y-46310D01*
X-150623Y-46394D01*
X-150674Y-46474D01*
X-150715Y-46553D01*
X-150747Y-46628D01*
X-150770Y-46701D01*
X-150784Y-46771D01*
X-150787Y-46839D01*
X-151957Y-45669D01*
X-151889Y-45665D01*
X-151819Y-45652D01*
X-151746Y-45629D01*
X-151671Y-45597D01*
X-151593Y-45556D01*
X-151512Y-45505D01*
X-151428Y-45445D01*
X-151342Y-45375D01*
X-151162Y-45208D01*
X-150327Y-46044D01*
D02*
G37*
G36*
X142464Y-47677D02*
X142413Y-47632D01*
X142354Y-47592D01*
X142286Y-47557D01*
X142210Y-47526D01*
X142126Y-47500D01*
X142033Y-47479D01*
X141931Y-47462D01*
X141821Y-47450D01*
X141576Y-47441D01*
Y-46260D01*
X141703Y-46257D01*
X141931Y-46239D01*
X142033Y-46222D01*
X142126Y-46201D01*
X142210Y-46175D01*
X142286Y-46144D01*
X142354Y-46109D01*
X142413Y-46069D01*
X142464Y-46024D01*
Y-47677D01*
D02*
G37*
G36*
X44038D02*
X43988Y-47632D01*
X43929Y-47592D01*
X43861Y-47557D01*
X43785Y-47526D01*
X43701Y-47500D01*
X43608Y-47479D01*
X43506Y-47462D01*
X43396Y-47450D01*
X43150Y-47441D01*
Y-46260D01*
X43277Y-46257D01*
X43506Y-46239D01*
X43608Y-46222D01*
X43701Y-46201D01*
X43785Y-46175D01*
X43861Y-46144D01*
X43929Y-46109D01*
X43988Y-46069D01*
X44038Y-46024D01*
Y-47677D01*
D02*
G37*
G36*
X-54387D02*
X-54437Y-47632D01*
X-54496Y-47592D01*
X-54564Y-47557D01*
X-54640Y-47526D01*
X-54725Y-47500D01*
X-54818Y-47479D01*
X-54919Y-47462D01*
X-55029Y-47450D01*
X-55275Y-47441D01*
Y-46260D01*
X-55148Y-46257D01*
X-54919Y-46239D01*
X-54818Y-46222D01*
X-54725Y-46201D01*
X-54640Y-46175D01*
X-54564Y-46144D01*
X-54496Y-46109D01*
X-54437Y-46069D01*
X-54387Y-46024D01*
Y-47677D01*
D02*
G37*
G36*
X151957Y-48031D02*
X151812Y-48033D01*
X151546Y-48059D01*
X151425Y-48082D01*
X151312Y-48112D01*
X151207Y-48149D01*
X151110Y-48194D01*
X151022Y-48245D01*
X150941Y-48303D01*
X150868Y-48369D01*
X150450Y-47951D01*
X150515Y-47878D01*
X150574Y-47797D01*
X150625Y-47708D01*
X150670Y-47611D01*
X150707Y-47507D01*
X150737Y-47394D01*
X150760Y-47273D01*
X150776Y-47144D01*
X150785Y-47007D01*
X150787Y-46862D01*
X151957Y-48031D01*
D02*
G37*
G36*
X53531D02*
X53387Y-48033D01*
X53121Y-48059D01*
X53000Y-48082D01*
X52887Y-48112D01*
X52782Y-48149D01*
X52685Y-48194D01*
X52596Y-48245D01*
X52515Y-48303D01*
X52442Y-48369D01*
X52025Y-47951D01*
X52090Y-47878D01*
X52149Y-47797D01*
X52200Y-47708D01*
X52244Y-47611D01*
X52282Y-47507D01*
X52312Y-47394D01*
X52335Y-47273D01*
X52351Y-47144D01*
X52360Y-47007D01*
X52362Y-46862D01*
X53531Y-48031D01*
D02*
G37*
G36*
X-44894D02*
X-45039Y-48033D01*
X-45304Y-48059D01*
X-45425Y-48082D01*
X-45538Y-48112D01*
X-45643Y-48149D01*
X-45740Y-48194D01*
X-45829Y-48245D01*
X-45910Y-48303D01*
X-45983Y-48369D01*
X-46400Y-47951D01*
X-46335Y-47878D01*
X-46277Y-47797D01*
X-46225Y-47708D01*
X-46181Y-47611D01*
X-46144Y-47507D01*
X-46113Y-47394D01*
X-46090Y-47273D01*
X-46074Y-47144D01*
X-46065Y-47007D01*
X-46063Y-46862D01*
X-44894Y-48031D01*
D02*
G37*
G36*
X-143319D02*
X-143464Y-48033D01*
X-143729Y-48059D01*
X-143850Y-48082D01*
X-143963Y-48112D01*
X-144068Y-48149D01*
X-144165Y-48194D01*
X-144254Y-48245D01*
X-144335Y-48303D01*
X-144408Y-48369D01*
X-144826Y-47951D01*
X-144760Y-47878D01*
X-144702Y-47797D01*
X-144650Y-47708D01*
X-144606Y-47611D01*
X-144569Y-47507D01*
X-144539Y-47394D01*
X-144515Y-47273D01*
X-144499Y-47144D01*
X-144490Y-47007D01*
X-144488Y-46862D01*
X-143319Y-48031D01*
D02*
G37*
G36*
X6631Y-50160D02*
X6461Y-50366D01*
X6392Y-50467D01*
X6334Y-50569D01*
X6286Y-50669D01*
X6249Y-50769D01*
X6222Y-50868D01*
X6206Y-50967D01*
X6201Y-51065D01*
X5610D01*
X5605Y-50967D01*
X5589Y-50868D01*
X5562Y-50769D01*
X5525Y-50669D01*
X5477Y-50569D01*
X5419Y-50467D01*
X5350Y-50366D01*
X5270Y-50263D01*
X5180Y-50160D01*
X5079Y-50056D01*
X6732D01*
X6631Y-50160D01*
D02*
G37*
G36*
X6206Y-53757D02*
X6222Y-53856D01*
X6249Y-53955D01*
X6286Y-54055D01*
X6334Y-54156D01*
X6392Y-54257D01*
X6461Y-54359D01*
X6541Y-54461D01*
X6631Y-54564D01*
X6732Y-54668D01*
X5079D01*
X5180Y-54564D01*
X5350Y-54359D01*
X5419Y-54257D01*
X5477Y-54156D01*
X5525Y-54055D01*
X5562Y-53955D01*
X5589Y-53856D01*
X5605Y-53757D01*
X5610Y-53660D01*
X6201D01*
X6206Y-53757D01*
D02*
G37*
G36*
X-184879Y-55573D02*
X-184674Y-55743D01*
X-184572Y-55813D01*
X-184471Y-55871D01*
X-184370Y-55919D01*
X-184270Y-55956D01*
X-184171Y-55983D01*
X-184072Y-55999D01*
X-183975Y-56004D01*
Y-56595D01*
X-184072Y-56600D01*
X-184171Y-56616D01*
X-184270Y-56642D01*
X-184370Y-56679D01*
X-184471Y-56727D01*
X-184572Y-56786D01*
X-184674Y-56855D01*
X-184776Y-56935D01*
X-184879Y-57025D01*
X-184983Y-57126D01*
Y-55472D01*
X-184879Y-55573D01*
D02*
G37*
G36*
X46400Y-58348D02*
X46335Y-58421D01*
X46277Y-58502D01*
X46225Y-58591D01*
X46181Y-58688D01*
X46144Y-58793D01*
X46113Y-58906D01*
X46090Y-59026D01*
X46074Y-59155D01*
X46065Y-59292D01*
X46063Y-59437D01*
X44894Y-58268D01*
X45039Y-58266D01*
X45304Y-58240D01*
X45425Y-58217D01*
X45538Y-58187D01*
X45643Y-58150D01*
X45740Y-58105D01*
X45829Y-58054D01*
X45910Y-57996D01*
X45983Y-57930D01*
X46400Y-58348D01*
D02*
G37*
G36*
X-52025D02*
X-52090Y-58421D01*
X-52149Y-58502D01*
X-52200Y-58591D01*
X-52244Y-58688D01*
X-52282Y-58793D01*
X-52312Y-58906D01*
X-52335Y-59026D01*
X-52351Y-59155D01*
X-52360Y-59292D01*
X-52362Y-59437D01*
X-53531Y-58268D01*
X-53387Y-58266D01*
X-53121Y-58240D01*
X-53000Y-58217D01*
X-52887Y-58187D01*
X-52782Y-58150D01*
X-52685Y-58105D01*
X-52596Y-58054D01*
X-52515Y-57996D01*
X-52442Y-57930D01*
X-52025Y-58348D01*
D02*
G37*
G36*
X-150450D02*
X-150515Y-58421D01*
X-150574Y-58502D01*
X-150625Y-58591D01*
X-150670Y-58688D01*
X-150707Y-58793D01*
X-150737Y-58906D01*
X-150760Y-59026D01*
X-150776Y-59155D01*
X-150785Y-59292D01*
X-150787Y-59437D01*
X-151957Y-58268D01*
X-151812Y-58266D01*
X-151546Y-58240D01*
X-151425Y-58217D01*
X-151312Y-58187D01*
X-151207Y-58150D01*
X-151110Y-58105D01*
X-151022Y-58054D01*
X-150941Y-57996D01*
X-150868Y-57930D01*
X-150450Y-58348D01*
D02*
G37*
G36*
X258665Y-19397D02*
X258677Y-19489D01*
X258698Y-19581D01*
X258728Y-19672D01*
X258766Y-19763D01*
X258813Y-19852D01*
X258869Y-19941D01*
X258933Y-20029D01*
X259007Y-20117D01*
X259089Y-20204D01*
X258393Y-20900D01*
X258306Y-20818D01*
X258218Y-20744D01*
X258130Y-20680D01*
X258041Y-20624D01*
X257951Y-20577D01*
X257861Y-20538D01*
X257770Y-20509D01*
X257678Y-20488D01*
X257586Y-20476D01*
X257492Y-20472D01*
X258661Y-19303D01*
X258665Y-19397D01*
D02*
G37*
G36*
X274758Y-35866D02*
X274897Y-35984D01*
X275036Y-36088D01*
X275175Y-36179D01*
X275314Y-36255D01*
X275453Y-36318D01*
X275593Y-36367D01*
X275732Y-36402D01*
X275871Y-36422D01*
X276010Y-36429D01*
X274618Y-37821D01*
X274611Y-37682D01*
X274590Y-37543D01*
X274556Y-37404D01*
X274507Y-37264D01*
X274444Y-37125D01*
X274368Y-36986D01*
X274277Y-36847D01*
X274173Y-36708D01*
X274055Y-36568D01*
X273922Y-36429D01*
X274618Y-35733D01*
X274758Y-35866D01*
D02*
G37*
G36*
X144033Y-60396D02*
X143863Y-60602D01*
X143794Y-60704D01*
X143735Y-60805D01*
X143687Y-60905D01*
X143650Y-61005D01*
X143624Y-61105D01*
X143608Y-61203D01*
X143602Y-61301D01*
X143012D01*
X143007Y-61203D01*
X142991Y-61105D01*
X142964Y-61005D01*
X142927Y-60905D01*
X142879Y-60805D01*
X142821Y-60704D01*
X142751Y-60602D01*
X142672Y-60499D01*
X142581Y-60396D01*
X142480Y-60292D01*
X144134D01*
X144033Y-60396D01*
D02*
G37*
G36*
X143608Y-91159D02*
X143624Y-91258D01*
X143650Y-91357D01*
X143687Y-91457D01*
X143735Y-91557D01*
X143794Y-91659D01*
X143863Y-91760D01*
X143942Y-91863D01*
X144033Y-91966D01*
X144134Y-92070D01*
X142480D01*
X142581Y-91966D01*
X142751Y-91760D01*
X142821Y-91659D01*
X142879Y-91557D01*
X142927Y-91457D01*
X142964Y-91357D01*
X142991Y-91258D01*
X143007Y-91159D01*
X143012Y-91061D01*
X143602D01*
X143608Y-91159D01*
D02*
G37*
G36*
X-108358Y-139966D02*
X-108299Y-140006D01*
X-108231Y-140042D01*
X-108155Y-140072D01*
X-108071Y-140098D01*
X-107978Y-140120D01*
X-107876Y-140136D01*
X-107766Y-140148D01*
X-107520Y-140157D01*
X-107520Y-141339D01*
X-107648Y-141341D01*
X-107876Y-141360D01*
X-107978Y-141376D01*
X-108071Y-141398D01*
X-108155Y-141424D01*
X-108231Y-141454D01*
X-108299Y-141490D01*
X-108358Y-141530D01*
X-108408Y-141575D01*
X-108408Y-139921D01*
X-108358Y-139966D01*
D02*
G37*
G36*
X-110096Y-141575D02*
X-110146Y-141530D01*
X-110205Y-141490D01*
X-110273Y-141454D01*
X-110349Y-141424D01*
X-110433Y-141398D01*
X-110526Y-141376D01*
X-110628Y-141360D01*
X-110856Y-141341D01*
X-110984Y-141339D01*
X-110984Y-140157D01*
X-110738Y-140148D01*
X-110628Y-140136D01*
X-110526Y-140120D01*
X-110433Y-140098D01*
X-110349Y-140072D01*
X-110273Y-140042D01*
X-110205Y-140006D01*
X-110146Y-139966D01*
X-110095Y-139921D01*
X-110096Y-141575D01*
D02*
G37*
G36*
X46524Y-144469D02*
X46436Y-144560D01*
X46287Y-144735D01*
X46227Y-144819D01*
X46176Y-144900D01*
X46135Y-144978D01*
X46103Y-145053D01*
X46080Y-145126D01*
X46067Y-145196D01*
X46063Y-145264D01*
X44894Y-144095D01*
X44961Y-144090D01*
X45031Y-144077D01*
X45104Y-144054D01*
X45180Y-144022D01*
X45258Y-143981D01*
X45339Y-143930D01*
X45422Y-143870D01*
X45508Y-143801D01*
X45689Y-143634D01*
X46524Y-144469D01*
D02*
G37*
G36*
X-51901D02*
X-51990Y-144560D01*
X-52138Y-144735D01*
X-52198Y-144819D01*
X-52249Y-144900D01*
X-52290Y-144978D01*
X-52322Y-145053D01*
X-52345Y-145126D01*
X-52358Y-145196D01*
X-52362Y-145264D01*
X-53531Y-144095D01*
X-53464Y-144090D01*
X-53394Y-144077D01*
X-53321Y-144054D01*
X-53246Y-144022D01*
X-53167Y-143981D01*
X-53087Y-143930D01*
X-53003Y-143870D01*
X-52917Y-143801D01*
X-52737Y-143634D01*
X-51901Y-144469D01*
D02*
G37*
G36*
X-150327D02*
X-150415Y-144560D01*
X-150563Y-144735D01*
X-150623Y-144819D01*
X-150674Y-144900D01*
X-150715Y-144978D01*
X-150747Y-145053D01*
X-150770Y-145126D01*
X-150784Y-145196D01*
X-150787Y-145264D01*
X-151957Y-144095D01*
X-151889Y-144090D01*
X-151819Y-144077D01*
X-151746Y-144054D01*
X-151671Y-144022D01*
X-151593Y-143981D01*
X-151512Y-143930D01*
X-151428Y-143870D01*
X-151342Y-143801D01*
X-151162Y-143634D01*
X-150327Y-144469D01*
D02*
G37*
G36*
X142464Y-146102D02*
X142413Y-146057D01*
X142354Y-146017D01*
X142286Y-145982D01*
X142210Y-145951D01*
X142126Y-145925D01*
X142033Y-145904D01*
X141931Y-145887D01*
X141821Y-145876D01*
X141576Y-145866D01*
Y-144685D01*
X141703Y-144683D01*
X141931Y-144664D01*
X142033Y-144647D01*
X142126Y-144626D01*
X142210Y-144600D01*
X142286Y-144569D01*
X142354Y-144534D01*
X142413Y-144494D01*
X142464Y-144449D01*
Y-146102D01*
D02*
G37*
G36*
X44038D02*
X43988Y-146057D01*
X43929Y-146017D01*
X43861Y-145982D01*
X43785Y-145951D01*
X43701Y-145925D01*
X43608Y-145904D01*
X43506Y-145887D01*
X43396Y-145876D01*
X43150Y-145866D01*
Y-144685D01*
X43277Y-144683D01*
X43506Y-144664D01*
X43608Y-144647D01*
X43701Y-144626D01*
X43785Y-144600D01*
X43861Y-144569D01*
X43929Y-144534D01*
X43988Y-144494D01*
X44038Y-144449D01*
Y-146102D01*
D02*
G37*
G36*
X-54387D02*
X-54437Y-146057D01*
X-54496Y-146017D01*
X-54564Y-145982D01*
X-54640Y-145951D01*
X-54725Y-145925D01*
X-54818Y-145904D01*
X-54919Y-145887D01*
X-55029Y-145876D01*
X-55275Y-145866D01*
Y-144685D01*
X-55148Y-144683D01*
X-54919Y-144664D01*
X-54818Y-144647D01*
X-54725Y-144626D01*
X-54640Y-144600D01*
X-54564Y-144569D01*
X-54496Y-144534D01*
X-54437Y-144494D01*
X-54387Y-144449D01*
Y-146102D01*
D02*
G37*
G36*
X151957Y-146457D02*
X151812Y-146459D01*
X151546Y-146484D01*
X151425Y-146507D01*
X151312Y-146537D01*
X151207Y-146575D01*
X151110Y-146619D01*
X151022Y-146670D01*
X150941Y-146729D01*
X150868Y-146794D01*
X150450Y-146377D01*
X150515Y-146304D01*
X150574Y-146223D01*
X150625Y-146134D01*
X150670Y-146037D01*
X150707Y-145932D01*
X150737Y-145819D01*
X150760Y-145698D01*
X150776Y-145569D01*
X150785Y-145432D01*
X150787Y-145287D01*
X151957Y-146457D01*
D02*
G37*
G36*
X53531D02*
X53387Y-146459D01*
X53121Y-146484D01*
X53000Y-146507D01*
X52887Y-146537D01*
X52782Y-146575D01*
X52685Y-146619D01*
X52596Y-146670D01*
X52515Y-146729D01*
X52442Y-146794D01*
X52025Y-146377D01*
X52090Y-146304D01*
X52149Y-146223D01*
X52200Y-146134D01*
X52244Y-146037D01*
X52282Y-145932D01*
X52312Y-145819D01*
X52335Y-145698D01*
X52351Y-145569D01*
X52360Y-145432D01*
X52362Y-145287D01*
X53531Y-146457D01*
D02*
G37*
G36*
X-44894D02*
X-45039Y-146459D01*
X-45304Y-146484D01*
X-45425Y-146507D01*
X-45538Y-146537D01*
X-45643Y-146575D01*
X-45740Y-146619D01*
X-45829Y-146670D01*
X-45910Y-146729D01*
X-45983Y-146794D01*
X-46400Y-146377D01*
X-46335Y-146304D01*
X-46277Y-146223D01*
X-46225Y-146134D01*
X-46181Y-146037D01*
X-46144Y-145932D01*
X-46113Y-145819D01*
X-46090Y-145698D01*
X-46074Y-145569D01*
X-46065Y-145432D01*
X-46063Y-145287D01*
X-44894Y-146457D01*
D02*
G37*
G36*
X-143319D02*
X-143464Y-146459D01*
X-143729Y-146484D01*
X-143850Y-146507D01*
X-143963Y-146537D01*
X-144068Y-146575D01*
X-144165Y-146619D01*
X-144254Y-146670D01*
X-144335Y-146729D01*
X-144408Y-146794D01*
X-144826Y-146377D01*
X-144760Y-146304D01*
X-144702Y-146223D01*
X-144650Y-146134D01*
X-144606Y-146037D01*
X-144569Y-145932D01*
X-144539Y-145819D01*
X-144515Y-145698D01*
X-144499Y-145569D01*
X-144490Y-145432D01*
X-144488Y-145287D01*
X-143319Y-146457D01*
D02*
G37*
G36*
X46400Y-156773D02*
X46335Y-156846D01*
X46277Y-156927D01*
X46225Y-157016D01*
X46181Y-157113D01*
X46144Y-157218D01*
X46113Y-157331D01*
X46090Y-157452D01*
X46074Y-157580D01*
X46065Y-157717D01*
X46063Y-157862D01*
X44894Y-156693D01*
X45039Y-156691D01*
X45304Y-156666D01*
X45425Y-156642D01*
X45538Y-156612D01*
X45643Y-156575D01*
X45740Y-156531D01*
X45829Y-156479D01*
X45910Y-156421D01*
X45983Y-156356D01*
X46400Y-156773D01*
D02*
G37*
G36*
X-52025D02*
X-52090Y-156846D01*
X-52149Y-156927D01*
X-52200Y-157016D01*
X-52244Y-157113D01*
X-52282Y-157218D01*
X-52312Y-157331D01*
X-52335Y-157452D01*
X-52351Y-157580D01*
X-52360Y-157717D01*
X-52362Y-157862D01*
X-53531Y-156693D01*
X-53387Y-156691D01*
X-53121Y-156666D01*
X-53000Y-156642D01*
X-52887Y-156612D01*
X-52782Y-156575D01*
X-52685Y-156531D01*
X-52596Y-156479D01*
X-52515Y-156421D01*
X-52442Y-156356D01*
X-52025Y-156773D01*
D02*
G37*
G36*
X-150450D02*
X-150515Y-156846D01*
X-150574Y-156927D01*
X-150625Y-157016D01*
X-150670Y-157113D01*
X-150707Y-157218D01*
X-150737Y-157331D01*
X-150760Y-157452D01*
X-150776Y-157580D01*
X-150785Y-157717D01*
X-150787Y-157862D01*
X-151957Y-156693D01*
X-151812Y-156691D01*
X-151546Y-156666D01*
X-151425Y-156642D01*
X-151312Y-156612D01*
X-151207Y-156575D01*
X-151110Y-156531D01*
X-151022Y-156479D01*
X-150941Y-156421D01*
X-150868Y-156356D01*
X-150450Y-156773D01*
D02*
G37*
G36*
X-156195Y-195096D02*
X-156179Y-195195D01*
X-156153Y-195294D01*
X-156116Y-195394D01*
X-156068Y-195494D01*
X-156009Y-195596D01*
X-155940Y-195697D01*
X-155861Y-195800D01*
X-155770Y-195903D01*
X-155669Y-196007D01*
X-157323D01*
X-157222Y-195903D01*
X-157052Y-195697D01*
X-156983Y-195596D01*
X-156924Y-195494D01*
X-156876Y-195394D01*
X-156839Y-195294D01*
X-156813Y-195195D01*
X-156797Y-195096D01*
X-156791Y-194998D01*
X-156201D01*
X-156195Y-195096D01*
D02*
G37*
D10*
X243750Y22982D02*
G03*
X246958Y21654I3208J3208D01*
G01*
X232761Y33972D02*
G03*
X225996Y36774I-6765J-6765D01*
G01*
X235355Y34330D02*
G03*
X226604Y37955I-8751J-8751D01*
G01*
X239430Y39136D02*
G03*
X240630Y39633I-0J1696D01*
G01*
X181788Y36774D02*
G03*
X170645Y32158I0J-15758D01*
G01*
X181788Y37955D02*
G03*
X169810Y32993I0J-16940D01*
G01*
X181788Y39136D02*
G03*
X168975Y33828I0J-18121D01*
G01*
X188335Y2609D02*
G03*
X182249Y5131I-6086J-6086D01*
G01*
X163117Y11096D02*
G03*
X168466Y5131I5349J-585D01*
G01*
X165949Y13928D02*
G03*
X163117Y11096I0J-2832D01*
G01*
X161662Y11159D02*
G03*
X169321Y3499I7660J0D01*
G01*
X166545Y16042D02*
G03*
X161662Y11159I0J-4883D01*
G01*
X159510Y7926D02*
G03*
X146163Y13454I-13347J-13347D01*
G01*
X162914Y4522D02*
G03*
X171097Y1132I8183J8183D01*
G01*
X177165Y1616D02*
G03*
X175282Y3499I-1884J0D01*
G01*
X169268Y13928D02*
G03*
X172244Y15161I0J4208D01*
G01*
X61652Y3582D02*
G03*
X59055Y-2689I6271J-6271D01*
G01*
X113776Y22835D02*
G03*
X110734Y21575I0J-4301D01*
G01*
X116662Y21654D02*
G03*
X112413Y19894I0J-6009D01*
G01*
X108164Y18133D02*
G03*
X112413Y19894I0J6009D01*
G01*
X107693Y20315D02*
G03*
X110734Y21575I0J4301D01*
G01*
X90708Y25182D02*
G03*
X93523Y24016I2815J2815D01*
G01*
X53586Y13976D02*
G03*
X52160Y14567I-1426J-1426D01*
G01*
X53586Y13976D02*
G03*
X54846Y13454I1260J1260D01*
G01*
X75709Y18125D02*
G03*
X78199Y24137I-6012J6012D01*
G01*
Y24472D02*
G03*
X77026Y27305I-4006J0D01*
G01*
X70842Y33488D02*
G03*
X63771Y36417I-7071J-7071D01*
G01*
X144169Y7307D02*
G03*
X137098Y10236I-7071J-7071D01*
G01*
X57413D02*
G03*
X55512Y9449I0J-2688D01*
G01*
X168693Y-4323D02*
G03*
X166870Y-3568I-1823J-1823D01*
G01*
X171332Y-29456D02*
G03*
X173638Y-23887I-5569J5569D01*
G01*
X238189Y-30820D02*
G03*
X236270Y-26186I-6553J0D01*
G01*
X235365Y-25281D02*
G03*
X231359Y-23622I-4005J-4005D01*
G01*
X211638Y-20693D02*
G03*
X218709Y-23622I7071J7071D01*
G01*
X166747Y-25378D02*
G03*
X169291Y-19235I-6144J6144D01*
G01*
X172220Y-7127D02*
G03*
X169291Y-14198I7071J-7071D01*
G01*
X175410Y-3937D02*
G03*
X177165Y300I-4237J4237D01*
G01*
X154970Y-5906D02*
G03*
X157174Y-4993I0J3117D01*
G01*
X160525Y-3568D02*
G03*
X157235Y-4931I0J-4652D01*
G01*
X107307Y-2977D02*
G03*
X114378Y-5906I7071J7071D01*
G01*
X159889Y4481D02*
G03*
X171951Y-1134I13729J13729D01*
G01*
X158465Y5906D02*
G03*
X144207Y11811I-14257J-14257D01*
G01*
X162205Y-21260D02*
G03*
X162955Y-19448I-1812J1812D01*
G01*
X147609Y-24D02*
G03*
X128968Y8661I-18641J-15661D01*
G01*
X103625Y-4945D02*
G03*
X110696Y-7874I7071J7071D01*
G01*
X-124304Y13491D02*
G03*
X-127376Y14764I-3072J-3072D01*
G01*
X-124016Y13203D02*
G03*
X-120655Y11811I3360J3360D01*
G01*
X-126969Y10827D02*
G03*
X-129345Y11811I-2376J-2376D01*
G01*
X-126969Y10827D02*
G03*
X-124592Y9843I2376J2376D01*
G01*
X68947Y31942D02*
G03*
X62897Y34449I-6051J-6051D01*
G01*
X-53929D02*
G03*
X-62392Y30943I0J-11969D01*
G01*
X-88450Y9843D02*
G03*
X-79987Y13348I0J11969D01*
G01*
X-53929Y36417D02*
G03*
X-63784Y32335I0J-13937D01*
G01*
X-88450Y11811D02*
G03*
X-81379Y14740I0J10000D01*
G01*
X-88450Y7874D02*
G03*
X-78595Y11956I0J13937D01*
G01*
X61826Y30536D02*
G03*
X57131Y32480I-4695J-4695D01*
G01*
X-53929D02*
G03*
X-61000Y29551I0J-10000D01*
G01*
X155020Y24016D02*
G03*
X162091Y26945I0J10000D01*
G01*
X57154Y6693D02*
G03*
X59055Y7480I0J2688D01*
G01*
X61907Y8661D02*
G03*
X59055Y7480I0J-4033D01*
G01*
X125312Y1229D02*
G03*
X125197Y1181I0J-163D01*
G01*
X-156898Y-56299D02*
G03*
X-149827Y-53370I0J10000D01*
G01*
X155020Y21654D02*
G03*
X163761Y25274I0J12362D01*
G01*
X155020Y22835D02*
G03*
X162926Y26109I0J11181D01*
G01*
X-153567Y-155536D02*
G03*
X-156496Y-162607I7071J-7071D01*
G01*
X63197Y-45276D02*
G03*
X56126Y-48204I0J-10000D01*
G01*
X129897D02*
G03*
X122826Y-45276I-7071J-7071D01*
G01*
X129897Y-48204D02*
G03*
X134707Y-50197I4810J4810D01*
G01*
X145833D02*
G03*
X150594Y-48225I0J6734D01*
G01*
X-35228Y-45276D02*
G03*
X-42299Y-48204I0J-10000D01*
G01*
X31472D02*
G03*
X24401Y-45276I-7071J-7071D01*
G01*
X31472Y-48204D02*
G03*
X36282Y-50197I4810J4810D01*
G01*
X47408D02*
G03*
X52169Y-48225I0J6734D01*
G01*
X-133653Y-45276D02*
G03*
X-140724Y-48204I0J-10000D01*
G01*
X-66953D02*
G03*
X-74024Y-45276I-7071J-7071D01*
G01*
X-66953Y-48204D02*
G03*
X-62143Y-50197I4810J4810D01*
G01*
X-51017D02*
G03*
X-46256Y-48225I0J6734D01*
G01*
X-133653Y-143701D02*
G03*
X-140724Y-146630I0J-10000D01*
G01*
X-66953D02*
G03*
X-74024Y-143701I-7071J-7071D01*
G01*
X-66953Y-146630D02*
G03*
X-62143Y-148622I4810J4810D01*
G01*
X-51017D02*
G03*
X-46256Y-146650I0J6734D01*
G01*
X-35228Y-143701D02*
G03*
X-42299Y-146630I0J-10000D01*
G01*
X31472D02*
G03*
X24401Y-143701I-7071J-7071D01*
G01*
X31472Y-146630D02*
G03*
X36282Y-148622I4810J4810D01*
G01*
X47408D02*
G03*
X52169Y-146650I0J6734D01*
G01*
X145833Y-148622D02*
G03*
X150594Y-146650I0J6734D01*
G01*
X129897Y-146630D02*
G03*
X134707Y-148622I4810J4810D01*
G01*
X129897Y-146630D02*
G03*
X122826Y-143701I-7071J-7071D01*
G01*
X63197D02*
G03*
X56126Y-146630I0J-10000D01*
G01*
X246958Y21654D02*
X255906D01*
X232761Y33972D02*
X243750Y22982D01*
X235355Y34330D02*
X245079Y24606D01*
X181788Y37955D02*
X226604D01*
X181788Y39136D02*
X239430D01*
X240158Y41339D02*
X240630Y40867D01*
Y39633D02*
Y40867D01*
X181788Y36774D02*
X225996D01*
X168466Y5131D02*
X182249D01*
X169321Y3499D02*
X175282D01*
X159510Y7926D02*
X162914Y4522D01*
X177165Y300D02*
Y1616D01*
X165949Y13928D02*
X169268D01*
X166545Y16042D02*
X169135D01*
X49643Y14567D02*
X52160D01*
X61652Y3582D02*
X62992Y4921D01*
X59055Y-4921D02*
Y-2689D01*
X100775Y20315D02*
X107693D01*
X97703Y18110D02*
X97727Y18133D01*
X108164D01*
X113776Y22835D02*
X155020D01*
X116662Y21654D02*
X155020D01*
X93523Y24016D02*
X155020D01*
X52165Y11811D02*
X144207D01*
X78199Y24137D02*
Y24472D01*
X70842Y33488D02*
X77026Y27305D01*
X-53929Y36417D02*
X63771D01*
X89131Y10236D02*
X137098D01*
X144169Y7307D02*
X151378Y98D01*
X89131Y10236D02*
X89131D01*
X57413D02*
X89131D01*
X168693Y-4323D02*
X170276Y-5906D01*
X160525Y-3568D02*
X166870D01*
X163744Y-37043D02*
X171332Y-29456D01*
X238189Y-64961D02*
Y-30820D01*
X218709Y-23622D02*
X231359D01*
X188335Y2609D02*
X211638Y-20693D01*
X235365Y-25281D02*
X236270Y-26186D01*
X165152Y-26972D02*
X166747Y-25378D01*
X169291Y-19235D02*
Y-14198D01*
X172220Y-7127D02*
X175410Y-3937D01*
X166105Y-17991D02*
Y-5964D01*
X166121Y-5947D01*
X166088Y-18008D02*
X166105Y-17991D01*
X162955Y-17978D02*
Y-5906D01*
Y-19448D02*
Y-17978D01*
X157174Y-4993D02*
X157235Y-4931D01*
X114378Y-5906D02*
X154970D01*
X103347Y984D02*
X107307Y-2977D01*
X158465Y5906D02*
X159885Y4485D01*
X159889Y4481D01*
X171097Y1132D02*
X174234D01*
X173638Y-23887D02*
Y-11365D01*
X61907Y8661D02*
X128968D01*
X54846Y13454D02*
X146163D01*
X110696Y-7874D02*
X157357D01*
X99664Y-984D02*
X103625Y-4945D01*
X159843Y-18110D02*
Y-5951D01*
X159888Y-5906D01*
X-124304Y13491D02*
X-124016Y13203D01*
X-120655Y11811D02*
X-88450D01*
X-131890D02*
X-129345D01*
X-124592Y9843D02*
X-88450D01*
X68947Y31942D02*
X75708Y25182D01*
X-53929Y34449D02*
X62897D01*
X62897D01*
X-79987Y13348D02*
X-62392Y30943D01*
X-81379Y14740D02*
X-63784Y32335D01*
X-128937Y7874D02*
X-88450D01*
X-53929Y32480D02*
X57131D01*
X61826Y30536D02*
X70708Y21654D01*
X-78595Y11956D02*
X-61000Y29551D01*
X90708Y25182D02*
X90709Y25181D01*
Y18125D02*
Y25181D01*
X162091Y26945D02*
X168975Y33828D01*
X54221Y6693D02*
X57154D01*
X5906Y-55512D02*
Y-49213D01*
X125312Y1229D02*
X138976D01*
X-185827Y-56299D02*
X-156898D01*
X-149827Y-53370D02*
X-143307Y-46850D01*
X143307Y-92913D02*
Y-59449D01*
X163761Y25274D02*
X170645Y32158D01*
X162926Y26109D02*
X169810Y32993D01*
X-156496Y-196850D02*
Y-162607D01*
X-153567Y-155536D02*
X-143307Y-145276D01*
X150594Y-48225D02*
X151969Y-46850D01*
X44882Y-59449D02*
X56126Y-48204D01*
X63197Y-45276D02*
X122826D01*
X134707Y-50197D02*
X145833D01*
X52169Y-48225D02*
X53543Y-46850D01*
X-53543Y-59449D02*
X-42299Y-48204D01*
X-35228Y-45276D02*
X24401D01*
X36282Y-50197D02*
X47408D01*
X-46256Y-48225D02*
X-44882Y-46850D01*
X-151969Y-59449D02*
X-140724Y-48204D01*
X-133653Y-45276D02*
X-74024D01*
X-62143Y-50197D02*
X-51017D01*
X-46256Y-146650D02*
X-44882Y-145276D01*
X-151969Y-157874D02*
X-140724Y-146630D01*
X-133653Y-143701D02*
X-74024D01*
X-62143Y-148622D02*
X-51017D01*
X52169Y-146650D02*
X53543Y-145276D01*
X-53543Y-157874D02*
X-42299Y-146630D01*
X-35228Y-143701D02*
X24401D01*
X36282Y-148622D02*
X47408D01*
X134707D02*
X145833D01*
X63197Y-143701D02*
X122826D01*
X44882Y-157874D02*
X56126Y-146630D01*
X150594Y-146650D02*
X151969Y-145276D01*
D12*
X257480Y-19291D02*
X277559Y-39370D01*
D13*
X62992Y-4601D02*
Y984D01*
D14*
X319803Y47244D02*
X319803Y47244D01*
X-159449Y37402D02*
G03*
X-135827Y37402I11811J0D01*
G01*
X-159449Y45191D02*
G03*
X-161503Y47244I-2054J0D01*
G01*
X-133773D02*
G03*
X-135827Y45191I0J-2054D01*
G01*
X161503Y47244D02*
G03*
X159449Y45191I0J-2054D01*
G01*
X135827D02*
G03*
X133773Y47244I-2054J0D01*
G01*
X135827Y37402D02*
G03*
X159449Y37402I11811J0D01*
G01*
X324803Y42244D02*
G03*
X319803Y47244I-5000J0D01*
G01*
Y-244094D02*
G03*
X324803Y-239094I0J5000D01*
G01*
X-324803D02*
G03*
X-319803Y-244094I5000J0D01*
G01*
Y47244D02*
G03*
X-324803Y42244I0J-5000D01*
G01*
X161503Y47244D02*
X319803D01*
X-133773D02*
X133773D01*
X-159449Y37402D02*
Y45191D01*
X-135827Y37402D02*
Y45191D01*
X159449Y37402D02*
Y45191D01*
X135827Y37402D02*
Y45191D01*
X324803Y-239094D02*
Y42244D01*
X-319803Y-244094D02*
X319803D01*
X-324803Y-239094D02*
Y42244D01*
X-319803Y47244D02*
X-161503D01*
D66*
X187008Y-13780D02*
D03*
X-187008D02*
D03*
X-187008Y-190945D02*
D03*
X187008Y-190945D02*
D03*
D71*
X206299Y20512D02*
G03*
X196299Y30512I-10000J0D01*
G01*
X194882D02*
G03*
X187402Y23031I0J-7480D01*
G01*
X84646Y19984D02*
G03*
X82073Y26195I-8784J0D01*
G01*
X72379Y35888D02*
G03*
X65308Y38817I-7071J-7071D01*
G01*
X119401Y18898D02*
G03*
X114173Y16732I0J-7393D01*
G01*
X110813Y15340D02*
G03*
X114173Y16732I0J4752D01*
G01*
X84646Y19984D02*
G03*
X89289Y15340I4643J0D01*
G01*
X-57903Y38817D02*
G03*
X-62500Y36913I0J-6500D01*
G01*
X206299Y18898D02*
Y20512D01*
X194882Y30512D02*
X196299D01*
X187402Y18898D02*
Y23031D01*
X72379Y35888D02*
X82073Y26195D01*
X-57903Y38817D02*
X65308D01*
X89289Y15340D02*
X110813D01*
X119401Y18898D02*
X187402D01*
X-57903Y38817D02*
X-57903D01*
X-83468Y15945D02*
X-62500Y36913D01*
X-22488Y-29921D02*
X-15795Y-23228D01*
D72*
X130905Y-44291D02*
G03*
X126153Y-42323I-4752J-4752D01*
G01*
X130905Y-44291D02*
G03*
X137084Y-46850I6178J6178D01*
G01*
X53552Y-42323D02*
G03*
X46481Y-45252I0J-10000D01*
G01*
X32480Y-44291D02*
G03*
X27728Y-42323I-4752J-4752D01*
G01*
X32480Y-44291D02*
G03*
X38658Y-46850I6178J6178D01*
G01*
X-44874Y-42323D02*
G03*
X-51945Y-45252I0J-10000D01*
G01*
X130905Y-142717D02*
G03*
X126153Y-140748I-4752J-4752D01*
G01*
X130905Y-142717D02*
G03*
X137084Y-145276I6178J6178D01*
G01*
X53552Y-140748D02*
G03*
X46481Y-143677I0J-10000D01*
G01*
X32480Y-142717D02*
G03*
X27728Y-140748I-4752J-4752D01*
G01*
X32480Y-142717D02*
G03*
X38658Y-145276I6178J6178D01*
G01*
X-44874Y-140748D02*
G03*
X-51945Y-143677I0J-10000D01*
G01*
X-65945Y-44291D02*
G03*
X-59767Y-46850I6178J6178D01*
G01*
X-65945Y-44291D02*
G03*
X-70697Y-42323I-4752J-4752D01*
G01*
X-143299D02*
G03*
X-150370Y-45252I0J-10000D01*
G01*
X-65945Y-142717D02*
G03*
X-70697Y-140748I-4752J-4752D01*
G01*
X-65945Y-142717D02*
G03*
X-59767Y-145276I6178J6178D01*
G01*
X-143299Y-140748D02*
G03*
X-150370Y-143677I0J-10000D01*
G01*
X53552Y-42323D02*
X126153D01*
X44882Y-46850D02*
X46481Y-45252D01*
X137084Y-46850D02*
X143307D01*
X-44874Y-42323D02*
X27728D01*
X-53543Y-46850D02*
X-51945Y-45252D01*
X38658Y-46850D02*
X44882D01*
X53552Y-140748D02*
X126153D01*
X44882Y-145276D02*
X46481Y-143677D01*
X137084Y-145276D02*
X143307D01*
X-44874Y-140748D02*
X27728D01*
X-53543Y-145276D02*
X-51945Y-143677D01*
X38658Y-145276D02*
X44882D01*
X-109252Y-42323D02*
X-70697D01*
X-109252Y-20222D02*
Y1969D01*
X-143299Y-42323D02*
X-109252D01*
X-59767Y-46850D02*
X-53543D01*
X-59767Y-145276D02*
X-53543D01*
X-143299Y-140748D02*
X-70697D01*
X-151969Y-46850D02*
X-150370Y-45252D01*
X-151969Y-145276D02*
X-150370Y-143677D01*
D76*
X260157Y41339D02*
D03*
X250157D02*
D03*
X-250157D02*
D03*
X-260157D02*
D03*
X-287402Y-196850D02*
D03*
X-277559D02*
D03*
X-287402Y-118110D02*
D03*
X-277559D02*
D03*
X-287402Y-39370D02*
D03*
X-277559D02*
D03*
X287402D02*
D03*
X297244D02*
D03*
X287402Y-118110D02*
D03*
X297244D02*
D03*
X287402Y-196850D02*
D03*
X297244D02*
D03*
X-25000Y26654D02*
D03*
X-15000Y16654D02*
D03*
Y26654D02*
D03*
X-5000Y16654D02*
D03*
X-5000Y26654D02*
D03*
X15000D02*
D03*
X15000Y16654D02*
D03*
X5000Y26654D02*
D03*
Y16654D02*
D03*
X25000Y26654D02*
D03*
Y16654D02*
D03*
D77*
X240158Y41339D02*
D03*
X-270158D02*
D03*
X-297244Y-196850D02*
D03*
Y-118110D02*
D03*
Y-39370D02*
D03*
X277559D02*
D03*
Y-118110D02*
D03*
Y-196850D02*
D03*
X-25000Y16654D02*
D03*
D78*
X68898Y-231791D02*
D03*
X-68898Y-217028D02*
D03*
X-213090Y-33465D02*
D03*
X-227854Y-171260D02*
D03*
X227854Y-33465D02*
D03*
X213090Y-171260D02*
D03*
D79*
X-68898Y-231791D02*
D03*
D80*
X-304724Y-169291D02*
D03*
X-270079D02*
D03*
X-304724Y-90551D02*
D03*
X-270079D02*
D03*
X-304724Y-11811D02*
D03*
X-270079D02*
D03*
X270079D02*
D03*
X304724D02*
D03*
X270079Y-90551D02*
D03*
X304724D02*
D03*
X270079Y-169291D02*
D03*
X304724D02*
D03*
D81*
X-213090Y-171260D02*
D03*
X227854D02*
D03*
D82*
X-147638Y-102362D02*
D03*
X-98425Y-53150D02*
D03*
X-98425Y-151575D02*
D03*
X-49213Y-102362D02*
D03*
X49213D02*
D03*
X98425Y-53150D02*
D03*
Y-151575D02*
D03*
X147638Y-102362D02*
D03*
X-287402Y27559D02*
D03*
X287402D02*
D03*
D83*
X208228Y29126D02*
D03*
X185472D02*
D03*
D84*
X287402Y-224410D02*
D03*
X-287402D02*
D03*
D85*
X245079Y24606D02*
D03*
X255906Y21654D02*
D03*
X51181Y29528D02*
D03*
X122047D02*
D03*
X49643Y14567D02*
D03*
X103347Y984D02*
D03*
X62992D02*
D03*
Y4921D02*
D03*
X100775Y20315D02*
D03*
X97703Y18110D02*
D03*
X52165Y11811D02*
D03*
X165152Y-26972D02*
D03*
X169135Y16042D02*
D03*
X172244Y15161D02*
D03*
X165772Y10441D02*
D03*
X170276Y-5906D02*
D03*
X166088Y-18008D02*
D03*
X174234Y1132D02*
D03*
X171951Y-1134D02*
D03*
X166121Y-5947D02*
D03*
X173638Y-11365D02*
D03*
X83084Y36917D02*
D03*
X157357Y-7874D02*
D03*
X162955Y-5906D02*
D03*
X159888D02*
D03*
X99664Y-984D02*
D03*
X59055Y-4921D02*
D03*
X62992Y-4601D02*
D03*
X147638Y0D02*
D03*
X151378Y98D02*
D03*
X-131890Y11811D02*
D03*
X-127376Y14764D02*
D03*
X75708Y25182D02*
D03*
X75709Y18125D02*
D03*
X143307Y-46850D02*
D03*
X44882D02*
D03*
X-53543D02*
D03*
X143307Y-145276D02*
D03*
X44882D02*
D03*
X-53543D02*
D03*
X-109252Y-42323D02*
D03*
Y-20222D02*
D03*
Y-140748D02*
D03*
X-151969Y-46850D02*
D03*
Y-145276D02*
D03*
X-109252Y1969D02*
D03*
X-128937Y7874D02*
D03*
X70708Y21654D02*
D03*
X90709Y18125D02*
D03*
X55512Y9449D02*
D03*
X54221Y6693D02*
D03*
X-273622Y-49213D02*
D03*
X-279134Y-134449D02*
D03*
X-273622Y-206693D02*
D03*
X-217126Y-202363D02*
D03*
X-87008Y-227756D02*
D03*
X229330Y-196851D02*
D03*
X301181Y-206693D02*
D03*
X287401Y-139763D02*
D03*
Y-61023D02*
D03*
X257480Y-19291D02*
D03*
X159843Y-18110D02*
D03*
X162205Y-21260D02*
D03*
X5906Y-49213D02*
D03*
Y-55512D02*
D03*
X238189Y-64961D02*
D03*
X163744Y-37043D02*
D03*
X-83468Y15945D02*
D03*
X-68898Y10827D02*
D03*
X-63976D02*
D03*
X-38189Y16535D02*
D03*
X-47244Y11024D02*
D03*
X-306112Y26530D02*
D03*
X-230315Y-14173D02*
D03*
X-255613Y-1832D02*
D03*
X-289370Y-2756D02*
D03*
X-318898Y-50787D02*
D03*
X-305512Y-70866D02*
D03*
X-248696Y-79032D02*
D03*
X-251575Y-131496D02*
D03*
X-248425Y-155512D02*
D03*
X-250356Y-182934D02*
D03*
X-312199Y-194970D02*
D03*
X-312205Y-220866D02*
D03*
X-251181Y-225590D02*
D03*
X-232677Y-231496D02*
D03*
X103685Y-214339D02*
D03*
X3795D02*
D03*
X197244Y-226772D02*
D03*
X225197Y-133858D02*
D03*
X253937Y-235827D02*
D03*
X233858Y-207874D02*
D03*
X314117Y-204516D02*
D03*
X303150Y-136614D02*
D03*
X320343Y-114311D02*
D03*
X309449Y-60630D02*
D03*
X316535Y-35827D02*
D03*
X306299Y28346D02*
D03*
X284646Y3150D02*
D03*
X248905Y-5689D02*
D03*
X236907Y13002D02*
D03*
X199606Y9843D02*
D03*
X179134Y14764D02*
D03*
X157087Y3543D02*
D03*
X138976Y1229D02*
D03*
X125197Y1181D02*
D03*
X-185827Y-56299D02*
D03*
X-15795Y-23228D02*
D03*
X-22488Y-29921D02*
D03*
X143307Y-92913D02*
D03*
X90708Y25182D02*
D03*
X232283Y24409D02*
D03*
X-156496Y-196850D02*
D03*
X80709Y6299D02*
D03*
X224804Y24015D02*
D03*
X168898D02*
D03*
X162402Y35827D02*
D03*
X206299Y18898D02*
D03*
X187402D02*
D03*
X176890Y21723D02*
D03*
X171575Y43494D02*
D03*
X216811Y21723D02*
D03*
X-151969Y-157874D02*
D03*
X-143307Y-145276D02*
D03*
Y-157874D02*
D03*
X-53543D02*
D03*
X-44882Y-145276D02*
D03*
Y-157874D02*
D03*
X44882D02*
D03*
X53543Y-145276D02*
D03*
Y-157874D02*
D03*
X151969Y-145276D02*
D03*
Y-157874D02*
D03*
X143307Y-59449D02*
D03*
X151969Y-46850D02*
D03*
Y-59449D02*
D03*
X-151969D02*
D03*
X-143307Y-46850D02*
D03*
Y-59449D02*
D03*
X-53543D02*
D03*
X-44882Y-46850D02*
D03*
Y-59449D02*
D03*
X53543D02*
D03*
Y-46850D02*
D03*
X44882Y-59449D02*
D03*
M02*
