G04*
G04 #@! TF.GenerationSoftware,Altium Limited,Altium Designer,26.1.1 (7)*
G04*
G04 Layer_Color=16711935*
%FSLAX25Y25*%
%MOIN*%
G70*
G04*
G04 #@! TF.SameCoordinates,DC955D53-45C1-4FB8-BDE6-5FAE57B1BA87*
G04*
G04*
G04 #@! TF.FilePolarity,Negative*
G04*
G01*
G75*
%ADD14C,0.00394*%
%ADD60C,0.06299*%
%ADD61R,0.06299X0.06299*%
%ADD62C,0.10433*%
%ADD63R,0.10433X0.10433*%
%ADD64C,0.16752*%
%ADD65R,0.10433X0.10433*%
%ADD66C,0.12205*%
%ADD67C,0.12598*%
%ADD68C,0.02953*%
%ADD69C,0.23622*%
%ADD70C,0.24410*%
%ADD86C,0.01772*%
D14*
X319803Y47244D02*
X319803Y47244D01*
X-159449Y37402D02*
G03*
X-135827Y37402I11811J0D01*
G01*
X-159449Y45191D02*
G03*
X-161503Y47244I-2054J0D01*
G01*
X-133773D02*
G03*
X-135827Y45191I0J-2054D01*
G01*
X161503Y47244D02*
G03*
X159449Y45191I0J-2054D01*
G01*
X135827D02*
G03*
X133773Y47244I-2054J0D01*
G01*
X135827Y37402D02*
G03*
X159449Y37402I11811J0D01*
G01*
X324803Y42244D02*
G03*
X319803Y47244I-5000J0D01*
G01*
Y-244094D02*
G03*
X324803Y-239094I0J5000D01*
G01*
X-324803D02*
G03*
X-319803Y-244094I5000J0D01*
G01*
Y47244D02*
G03*
X-324803Y42244I0J-5000D01*
G01*
X161503Y47244D02*
X319803D01*
X-133773D02*
X133773D01*
X-159449Y37402D02*
Y45191D01*
X-135827Y37402D02*
Y45191D01*
X159449Y37402D02*
Y45191D01*
X135827Y37402D02*
Y45191D01*
X324803Y-239094D02*
Y42244D01*
X-319803Y-244094D02*
X319803D01*
X-324803Y-239094D02*
Y42244D01*
X-319803Y47244D02*
X-161503D01*
D60*
X260157Y41339D02*
D03*
X250157D02*
D03*
X-250157D02*
D03*
X-260157D02*
D03*
X-287402Y-196850D02*
D03*
X-277559D02*
D03*
X-287402Y-118110D02*
D03*
X-277559D02*
D03*
X-287402Y-39370D02*
D03*
X-277559D02*
D03*
X287402D02*
D03*
X297244D02*
D03*
X287402Y-118110D02*
D03*
X297244D02*
D03*
X287402Y-196850D02*
D03*
X297244D02*
D03*
X-25000Y26654D02*
D03*
X-15000Y16654D02*
D03*
Y26654D02*
D03*
X-5000Y16654D02*
D03*
X-5000Y26654D02*
D03*
X15000D02*
D03*
X15000Y16654D02*
D03*
X5000Y26654D02*
D03*
Y16654D02*
D03*
X25000Y26654D02*
D03*
Y16654D02*
D03*
D61*
X240158Y41339D02*
D03*
X-270158D02*
D03*
X-297244Y-196850D02*
D03*
Y-118110D02*
D03*
Y-39370D02*
D03*
X277559D02*
D03*
Y-118110D02*
D03*
Y-196850D02*
D03*
X-25000Y16654D02*
D03*
D62*
X68898Y-231791D02*
D03*
X-68898Y-217028D02*
D03*
X-213090Y-33465D02*
D03*
X-227854Y-171260D02*
D03*
X227854Y-33465D02*
D03*
X213090Y-171260D02*
D03*
D63*
X-68898Y-231791D02*
D03*
D64*
X-304724Y-169291D02*
D03*
X-270079D02*
D03*
X-304724Y-90551D02*
D03*
X-270079D02*
D03*
X-304724Y-11811D02*
D03*
X-270079D02*
D03*
X270079D02*
D03*
X304724D02*
D03*
X270079Y-90551D02*
D03*
X304724D02*
D03*
X270079Y-169291D02*
D03*
X304724D02*
D03*
D65*
X-213090Y-171260D02*
D03*
X227854D02*
D03*
D66*
X-147638Y-102362D02*
D03*
X-98425Y-53150D02*
D03*
X-98425Y-151575D02*
D03*
X-49213Y-102362D02*
D03*
X49213D02*
D03*
X98425Y-53150D02*
D03*
Y-151575D02*
D03*
X147638Y-102362D02*
D03*
D67*
X187008Y-13780D02*
D03*
X-187008D02*
D03*
X-187008Y-190945D02*
D03*
X187008Y-190945D02*
D03*
D68*
X208228Y29126D02*
D03*
X185472D02*
D03*
D69*
X-287402Y27559D02*
D03*
X287402D02*
D03*
D70*
Y-224410D02*
D03*
X-287402D02*
D03*
D86*
X245079Y24606D02*
D03*
X255906Y21654D02*
D03*
X51181Y29528D02*
D03*
X122047D02*
D03*
X49643Y14567D02*
D03*
X103347Y984D02*
D03*
X62992D02*
D03*
Y4921D02*
D03*
X100775Y20315D02*
D03*
X97703Y18110D02*
D03*
X52165Y11811D02*
D03*
X165152Y-26972D02*
D03*
X169135Y16042D02*
D03*
X172244Y15161D02*
D03*
X165772Y10441D02*
D03*
X170276Y-5906D02*
D03*
X166088Y-18008D02*
D03*
X174234Y1132D02*
D03*
X171951Y-1134D02*
D03*
X166121Y-5947D02*
D03*
X173638Y-11365D02*
D03*
X83084Y36917D02*
D03*
X157357Y-7874D02*
D03*
X162955Y-5906D02*
D03*
X159888D02*
D03*
X99664Y-984D02*
D03*
X59055Y-4921D02*
D03*
X62992Y-4601D02*
D03*
X147638Y0D02*
D03*
X151378Y98D02*
D03*
X-131890Y11811D02*
D03*
X-127376Y14764D02*
D03*
X75708Y25182D02*
D03*
X75709Y18125D02*
D03*
X143307Y-46850D02*
D03*
X44882D02*
D03*
X-53543D02*
D03*
X143307Y-145276D02*
D03*
X44882D02*
D03*
X-53543D02*
D03*
X-109252Y-42323D02*
D03*
Y-20222D02*
D03*
Y-140748D02*
D03*
X-151969Y-46850D02*
D03*
Y-145276D02*
D03*
X-109252Y1969D02*
D03*
X-128937Y7874D02*
D03*
X70708Y21654D02*
D03*
X90709Y18125D02*
D03*
X55512Y9449D02*
D03*
X54221Y6693D02*
D03*
X-273622Y-49213D02*
D03*
X-279134Y-134449D02*
D03*
X-273622Y-206693D02*
D03*
X-217126Y-202363D02*
D03*
X-87008Y-227756D02*
D03*
X229330Y-196851D02*
D03*
X301181Y-206693D02*
D03*
X287401Y-139763D02*
D03*
Y-61023D02*
D03*
X257480Y-19291D02*
D03*
X159843Y-18110D02*
D03*
X162205Y-21260D02*
D03*
X5906Y-49213D02*
D03*
Y-55512D02*
D03*
X238189Y-64961D02*
D03*
X163744Y-37043D02*
D03*
X-83468Y15945D02*
D03*
X-68898Y10827D02*
D03*
X-63976D02*
D03*
X-38189Y16535D02*
D03*
X-47244Y11024D02*
D03*
X-306112Y26530D02*
D03*
X-230315Y-14173D02*
D03*
X-255613Y-1832D02*
D03*
X-289370Y-2756D02*
D03*
X-318898Y-50787D02*
D03*
X-305512Y-70866D02*
D03*
X-248696Y-79032D02*
D03*
X-251575Y-131496D02*
D03*
X-248425Y-155512D02*
D03*
X-250356Y-182934D02*
D03*
X-312199Y-194970D02*
D03*
X-312205Y-220866D02*
D03*
X-251181Y-225590D02*
D03*
X-232677Y-231496D02*
D03*
X103685Y-214339D02*
D03*
X3795D02*
D03*
X197244Y-226772D02*
D03*
X225197Y-133858D02*
D03*
X253937Y-235827D02*
D03*
X233858Y-207874D02*
D03*
X314117Y-204516D02*
D03*
X303150Y-136614D02*
D03*
X320343Y-114311D02*
D03*
X309449Y-60630D02*
D03*
X316535Y-35827D02*
D03*
X306299Y28346D02*
D03*
X284646Y3150D02*
D03*
X248905Y-5689D02*
D03*
X236907Y13002D02*
D03*
X199606Y9843D02*
D03*
X179134Y14764D02*
D03*
X157087Y3543D02*
D03*
X138976Y1229D02*
D03*
X125197Y1181D02*
D03*
X-185827Y-56299D02*
D03*
X-15795Y-23228D02*
D03*
X-22488Y-29921D02*
D03*
X143307Y-92913D02*
D03*
X90708Y25182D02*
D03*
X232283Y24409D02*
D03*
X-156496Y-196850D02*
D03*
X80709Y6299D02*
D03*
X224804Y24015D02*
D03*
X168898D02*
D03*
X162402Y35827D02*
D03*
X206299Y18898D02*
D03*
X187402D02*
D03*
X176890Y21723D02*
D03*
X171575Y43494D02*
D03*
X216811Y21723D02*
D03*
X-151969Y-157874D02*
D03*
X-143307Y-145276D02*
D03*
Y-157874D02*
D03*
X-53543D02*
D03*
X-44882Y-145276D02*
D03*
Y-157874D02*
D03*
X44882D02*
D03*
X53543Y-145276D02*
D03*
Y-157874D02*
D03*
X151969Y-145276D02*
D03*
Y-157874D02*
D03*
X143307Y-59449D02*
D03*
X151969Y-46850D02*
D03*
Y-59449D02*
D03*
X-151969D02*
D03*
X-143307Y-46850D02*
D03*
Y-59449D02*
D03*
X-53543D02*
D03*
X-44882Y-46850D02*
D03*
Y-59449D02*
D03*
X53543D02*
D03*
Y-46850D02*
D03*
X44882Y-59449D02*
D03*
M02*
