G04*
G04 #@! TF.GenerationSoftware,Altium Limited,Altium Designer,26.1.1 (7)*
G04*
G04 Layer_Color=8388736*
%FSLAX25Y25*%
%MOIN*%
G70*
G04*
G04 #@! TF.SameCoordinates,DC955D53-45C1-4FB8-BDE6-5FAE57B1BA87*
G04*
G04*
G04 #@! TF.FilePolarity,Positive*
G04*
G01*
G75*
%ADD12C,0.00984*%
%ADD14C,0.00394*%
%ADD87C,0.01000*%
%ADD88C,0.00600*%
D12*
X-314961Y-326772D02*
X-312993D01*
X-313977D01*
Y-320868D01*
X-314961Y-321852D01*
X-310041Y-326772D02*
Y-325788D01*
X-309057D01*
Y-326772D01*
X-310041D01*
X-301186Y-320868D02*
X-303153Y-321852D01*
X-305121Y-323820D01*
Y-325788D01*
X-304137Y-326772D01*
X-302169D01*
X-301186Y-325788D01*
Y-324804D01*
X-302169Y-323820D01*
X-305121D01*
X-299218Y-326772D02*
Y-322836D01*
X-298234D01*
X-297250Y-323820D01*
Y-326772D01*
Y-323820D01*
X-296266Y-322836D01*
X-295282Y-323820D01*
Y-326772D01*
X-293314D02*
Y-322836D01*
X-292330D01*
X-291346Y-323820D01*
Y-326772D01*
Y-323820D01*
X-290362Y-322836D01*
X-289378Y-323820D01*
Y-326772D01*
X-281507Y-320868D02*
X-277571D01*
X-279539D01*
Y-326772D01*
X-275603Y-320868D02*
Y-326772D01*
Y-323820D01*
X-274619Y-322836D01*
X-272652D01*
X-271668Y-323820D01*
Y-326772D01*
X-269700D02*
X-267732D01*
X-268716D01*
Y-322836D01*
X-269700D01*
X-260844D02*
X-263796D01*
X-264780Y-323820D01*
Y-325788D01*
X-263796Y-326772D01*
X-260844D01*
X-258876D02*
Y-320868D01*
Y-324804D02*
X-255925Y-322836D01*
X-258876Y-324804D02*
X-255925Y-326772D01*
X-252973D02*
Y-322836D01*
X-250021D01*
X-249037Y-323820D01*
Y-326772D01*
X-244117D02*
X-246085D01*
X-247069Y-325788D01*
Y-323820D01*
X-246085Y-322836D01*
X-244117D01*
X-243133Y-323820D01*
Y-324804D01*
X-247069D01*
X-241166Y-326772D02*
X-238214D01*
X-237230Y-325788D01*
X-238214Y-324804D01*
X-240182D01*
X-241166Y-323820D01*
X-240182Y-322836D01*
X-237230D01*
X-235262Y-326772D02*
X-232310D01*
X-231326Y-325788D01*
X-232310Y-324804D01*
X-234278D01*
X-235262Y-323820D01*
X-234278Y-322836D01*
X-231326D01*
X-314961Y-297246D02*
Y-303150D01*
X-312993Y-301182D01*
X-311025Y-303150D01*
Y-297246D01*
X-309057D02*
Y-303150D01*
Y-300198D01*
X-308073Y-299214D01*
X-306105D01*
X-305121Y-300198D01*
Y-303150D01*
X-303153D02*
X-301186D01*
X-302169D01*
Y-299214D01*
X-303153D01*
X-297250Y-298230D02*
Y-299214D01*
X-298234D01*
X-296266D01*
X-297250D01*
Y-302166D01*
X-296266Y-303150D01*
X-290362D02*
X-292330D01*
X-293314Y-302166D01*
Y-300198D01*
X-292330Y-299214D01*
X-290362D01*
X-289378Y-300198D01*
Y-301182D01*
X-293314D01*
X-277571Y-298230D02*
X-278555Y-297246D01*
X-280523D01*
X-281507Y-298230D01*
Y-299214D01*
X-280523Y-300198D01*
X-278555D01*
X-277571Y-301182D01*
Y-302166D01*
X-278555Y-303150D01*
X-280523D01*
X-281507Y-302166D01*
X-275603Y-303150D02*
X-273635D01*
X-274619D01*
Y-299214D01*
X-275603D01*
X-270684Y-303150D02*
X-268716D01*
X-269700D01*
Y-297246D01*
X-270684D01*
X-265764Y-303150D02*
Y-297246D01*
Y-301182D02*
X-262812Y-299214D01*
X-265764Y-301182D02*
X-262812Y-303150D01*
X-259860D02*
X-256909D01*
X-255925Y-302166D01*
X-256909Y-301182D01*
X-258876D01*
X-259860Y-300198D01*
X-258876Y-299214D01*
X-255925D01*
X-250021D02*
X-252973D01*
X-253957Y-300198D01*
Y-302166D01*
X-252973Y-303150D01*
X-250021D01*
X-248053Y-299214D02*
Y-303150D01*
Y-301182D01*
X-247069Y-300198D01*
X-246085Y-299214D01*
X-245101D01*
X-239198Y-303150D02*
X-241166D01*
X-242149Y-302166D01*
Y-300198D01*
X-241166Y-299214D01*
X-239198D01*
X-238214Y-300198D01*
Y-301182D01*
X-242149D01*
X-233294Y-303150D02*
X-235262D01*
X-236246Y-302166D01*
Y-300198D01*
X-235262Y-299214D01*
X-233294D01*
X-232310Y-300198D01*
Y-301182D01*
X-236246D01*
X-230342Y-303150D02*
Y-299214D01*
X-227391D01*
X-226407Y-300198D01*
Y-303150D01*
X-314961Y-285435D02*
Y-291339D01*
X-312009D01*
X-311025Y-290355D01*
Y-289371D01*
X-312009Y-288387D01*
X-314961D01*
X-312009D01*
X-311025Y-287403D01*
Y-286419D01*
X-312009Y-285435D01*
X-314961D01*
X-309057Y-291339D02*
X-307089D01*
X-308073D01*
Y-285435D01*
X-309057D01*
X-304137Y-287403D02*
Y-290355D01*
X-303153Y-291339D01*
X-300202D01*
Y-287403D01*
X-295282Y-291339D02*
X-297250D01*
X-298234Y-290355D01*
Y-288387D01*
X-297250Y-287403D01*
X-295282D01*
X-294298Y-288387D01*
Y-289371D01*
X-298234D01*
X-282491Y-286419D02*
X-283475Y-285435D01*
X-285443D01*
X-286427Y-286419D01*
Y-287403D01*
X-285443Y-288387D01*
X-283475D01*
X-282491Y-289371D01*
Y-290355D01*
X-283475Y-291339D01*
X-285443D01*
X-286427Y-290355D01*
X-279539Y-291339D02*
X-277571D01*
X-276587Y-290355D01*
Y-288387D01*
X-277571Y-287403D01*
X-279539D01*
X-280523Y-288387D01*
Y-290355D01*
X-279539Y-291339D01*
X-274619D02*
X-272652D01*
X-273635D01*
Y-285435D01*
X-274619D01*
X-265764D02*
Y-291339D01*
X-268716D01*
X-269700Y-290355D01*
Y-288387D01*
X-268716Y-287403D01*
X-265764D01*
X-260844Y-291339D02*
X-262812D01*
X-263796Y-290355D01*
Y-288387D01*
X-262812Y-287403D01*
X-260844D01*
X-259860Y-288387D01*
Y-289371D01*
X-263796D01*
X-257892Y-287403D02*
Y-291339D01*
Y-289371D01*
X-256909Y-288387D01*
X-255925Y-287403D01*
X-254941D01*
X-246085Y-291339D02*
Y-285435D01*
X-244117Y-287403D01*
X-242150Y-285435D01*
Y-291339D01*
X-239198Y-287403D02*
X-237230D01*
X-236246Y-288387D01*
Y-291339D01*
X-239198D01*
X-240182Y-290355D01*
X-239198Y-289371D01*
X-236246D01*
X-234278Y-291339D02*
X-231326D01*
X-230342Y-290355D01*
X-231326Y-289371D01*
X-233294D01*
X-234278Y-288387D01*
X-233294Y-287403D01*
X-230342D01*
X-228375Y-291339D02*
Y-285435D01*
Y-289371D02*
X-225423Y-287403D01*
X-228375Y-289371D02*
X-225423Y-291339D01*
D14*
X319803Y47244D02*
X319803Y47244D01*
X-159449Y37402D02*
G03*
X-135827Y37402I11811J0D01*
G01*
X-159449Y45191D02*
G03*
X-161503Y47244I-2054J0D01*
G01*
X-133773D02*
G03*
X-135827Y45191I0J-2054D01*
G01*
X161503Y47244D02*
G03*
X159449Y45191I0J-2054D01*
G01*
X135827D02*
G03*
X133773Y47244I-2054J0D01*
G01*
X135827Y37402D02*
G03*
X159449Y37402I11811J0D01*
G01*
X324803Y42244D02*
G03*
X319803Y47244I-5000J0D01*
G01*
Y-244094D02*
G03*
X324803Y-239094I0J5000D01*
G01*
X-324803D02*
G03*
X-319803Y-244094I5000J0D01*
G01*
Y47244D02*
G03*
X-324803Y42244I0J-5000D01*
G01*
X161503Y47244D02*
X319803D01*
X-133773D02*
X133773D01*
X-159449Y37402D02*
Y45191D01*
X-135827Y37402D02*
Y45191D01*
X159449Y37402D02*
Y45191D01*
X135827Y37402D02*
Y45191D01*
X324803Y-239094D02*
Y42244D01*
X-319803Y-244094D02*
X319803D01*
X-324803Y-239094D02*
Y42244D01*
X-319803Y47244D02*
X-161503D01*
D87*
X-352362D02*
X-350362Y41244D01*
X-354362D02*
X-352362Y47244D01*
X-354362Y-238094D02*
X-352362Y-244094D01*
X-350362Y-238094D01*
X-352362Y-84430D02*
Y47244D01*
Y-244094D02*
Y-115621D01*
X-353362Y47244D02*
X-335748D01*
X-353362Y-244094D02*
X-335748D01*
X-324803Y-269685D02*
X-318803Y-267685D01*
X-324803Y-269685D02*
X-318803Y-271685D01*
X318803D02*
X324803Y-269685D01*
X318803Y-267685D02*
X324803Y-269685D01*
X-324803D02*
X-19695D01*
X16495D02*
X324803D01*
X-324803Y-270685D02*
Y-255039D01*
X324803Y-270685D02*
Y-255039D01*
D88*
X-353762Y-114021D02*
Y-110022D01*
X-352762D01*
X-348763Y-114021D01*
X-347763D01*
Y-105024D02*
X-353762D01*
X-350763Y-108023D01*
Y-104024D01*
X-346764Y-101025D02*
X-347763Y-100025D01*
X-348763D01*
Y-101025D01*
X-347763D01*
Y-100025D01*
X-346764Y-101025D01*
X-345764Y-102025D01*
X-352762Y-96026D02*
X-353762Y-95027D01*
Y-93028D01*
X-352762Y-92028D01*
X-348763D01*
X-347763Y-93028D01*
Y-95027D01*
X-348763Y-96026D01*
X-352762D01*
Y-90028D02*
X-353762Y-89029D01*
Y-87029D01*
X-352762Y-86030D01*
X-348763D01*
X-347763Y-87029D01*
Y-89029D01*
X-348763Y-90028D01*
X-352762D01*
X-18095Y-274284D02*
X-16095D01*
X-17095D01*
Y-268286D01*
X-18095Y-269285D01*
X-9098Y-268286D02*
X-11097Y-269285D01*
X-13096Y-271285D01*
Y-273284D01*
X-12097Y-274284D01*
X-10097D01*
X-9098Y-273284D01*
Y-272284D01*
X-10097Y-271285D01*
X-13096D01*
X-3100Y-268286D02*
X-7098D01*
Y-271285D01*
X-5099Y-270285D01*
X-4099D01*
X-3100Y-271285D01*
Y-273284D01*
X-4099Y-274284D01*
X-6099D01*
X-7098Y-273284D01*
X-100Y-275283D02*
X899Y-274284D01*
Y-273284D01*
X-100D01*
Y-274284D01*
X899D01*
X-100Y-275283D01*
X-1100Y-276283D01*
X4898Y-269285D02*
X5898Y-268286D01*
X7897D01*
X8897Y-269285D01*
Y-273284D01*
X7897Y-274284D01*
X5898D01*
X4898Y-273284D01*
Y-269285D01*
X10896D02*
X11896Y-268286D01*
X13895D01*
X14895Y-269285D01*
Y-273284D01*
X13895Y-274284D01*
X11896D01*
X10896Y-273284D01*
Y-269285D01*
M02*
